<svg xmlns="http://www.w3.org/2000/svg" width="155.13" height="14.408"><path d="M34.977 9.678l.607-.026c-1.937.229-4.056.439-6.223.641a55.612 55.612 0 007.152.331c.274-.009.546-.029.81-.048l.416-.039c.206-.02.413-.042.6-.073a8.844 8.844 0 001.952-.515 5.706 5.706 0 001.279-.7 6.188 6.188 0 00.494-.406 4.882 4.882 0 01.525-.457c.175.7 1.258 1.253 2.62 1.574 1.326.336 2.993.263 3.042.065 1.261-.416 2.164-.85 2.76-1.085l-1.7.632 1.7-.632a5.976 5.976 0 01.653-.226c.284-.055.672-.092 1.052-.124.785-.064 1.677-.091 2.713-.2a13.344 13.344 0 001.659-.271l1.222-.29a5.422 5.422 0 01.768-.13l.2-.01.262-.007h.542c.74.007 1.543.055 2.408.1s1.8.088 2.658.122c1.741.069 3.414.138 4.971.307l.7.073c.24.028.57.062.682.092.34.063.874.212 1.792.424a14.568 14.568 0 001.651.279c.318.035.663.055 1.015.063l.646.026 2.616.111c.844.038 1.84.079 2.768.095l2.635.021c1.64 0 3.022 0 3.982.05l1.648.054-1.844-.156c1.157-.255 2.234-.493 3.262-.687a31.353 31.353 0 012.304-.36l.829-.1a4.638 4.638 0 00-1.359-.676l1.107.136c1.015-.58 3.318-.608 4.379-.9-.219.315.63.343 1.377.356l-.3-.189c2.832 0 6.036-.428 8.48-.453a1.293 1.293 0 01.755.2c.776-.093 1.548-.188 2.324-.257-.177.407 1.921.382.813.625a10.181 10.181 0 012.615-.277 12.806 12.806 0 002.579-.231c5.969.267 12.418.785 18.791.8l-.138-.168c2.236-.029 4.256-.615 6.915-.118 1.964-.369 4.707-.488 5.5-1.31a44.669 44.669 0 005.214-.631c-.552-.42 2.07-.508 1.013-.833-1.4-.6-1.478-.094-2.657-.576l.033.142c-5.52-.746-11.019-1.657-16.714-2.5-3.853-.075-8-.87-12.089-1.132-2.2-.13-4.508-.183-6.745-.169a76.776 76.776 0 00-6.328.336 5.913 5.913 0 01-2.351-.381c-3.494.288-7.821.439-11.538.752a1.8 1.8 0 01.183.011 15.346 15.346 0 01-2.7-.118 25.32 25.32 0 00-1.387-.12 12.842 12.842 0 00-1.5.005c.013.119-.31.137-.463.207-.2-.291-3.244.169-6.126.67-1.451.245-2.883.463-4 .576a9.108 9.108 0 01-2.193.083c-.208.027-.425.052-.645.068-.53-.03-1.063-.073-1.6-.125a2.252 2.252 0 01-.3-.042l-.244-.057a9.378 9.378 0 01-.547-.163l-1.435-.488c-.289-.09-.6-.18-.93-.261-.17-.038-.338-.078-.518-.111l-.483-.088a27.656 27.656 0 00-6.13-.486c-.764.283-1.6.525-2.222.82-.6-.246-.723.216-1.492.137a4.229 4.229 0 00-2.3-.706c-.464.041-.487.258.085.441l-.68.069a18.62 18.62 0 00-.851.1c-.543.083-1.011.187-1.408.27s-.719.149-.984.191a7.193 7.193 0 01-.721.077c-.512.1-1.11.171-1.775.244a1.408 1.408 0 01-1.218-.375 10.237 10.237 0 01-1.637.064 6.708 6.708 0 00-1.53.009c-.245-.16-1.113.176-1.758.417a5.582 5.582 0 01-1.828.4l.23-.055a10.354 10.354 0 01-2.3-.5c-.194-.054-.39-.108-.6-.156a6.736 6.736 0 00-.733-.117 6.911 6.911 0 00-1.529 0c-.71.056-1.338.14-1.874.2l-.738.071-.771.041c-1.344.071-2.664.22-3.941.4-2.556.361-4.939.83-7.076 1.085.02.414.927-.236 1.064.293-.32.042-.637.075-.956.1l-1 .074c-.836.073-1.624.187-2.354.31l-3.654.665a2.4 2.4 0 01-.539-.124 1.569 1.569 0 00-.314-.075 2.462 2.462 0 01-.277-.07c-.991.009-.535.289-1.23.363l-.162-.347c-.921.494-1.508-.1-2.326.24-.01.156-.316.247-.606.3-.11-.378-.872.228-.906-.134v.031a1.4 1.4 0 01-.493.059c-.153.1-.842.565-1.577 1-.75.438-1.61.88-1.773.991l-.175-.039c-.493.089-.663.413-.36.436l-.627.08.069-.039-.639.089a.222.222 0 01-.141-.373 2.546 2.546 0 01-1.147.377 15.291 15.291 0 013.434.39 10.8 10.8 0 01-1.6.224 5.449 5.449 0 00-1.242-.135c-.25-.005-.517 0-.783.011-.123 0-.293.02-.374.015l-.19-.022c-.049.034-.032.486-.212.3-.047-.151-.083-.148-.13-.136a.139.139 0 01-.073.007l-.016-.009-.181-.026a1.424 1.424 0 01-.208-.071c.108-.035.5-.036.428-.056a.211.211 0 01.092-.019c.061 0 .124.021.188.02-.036-.177-.109-.228-.182-.258-.036-.015-.078-.022-.1-.033L4.178 7.8a3.07 3.07 0 01-.251-.041c-.184.071-.93.009-1.633.131a3.853 3.853 0 00-.758.226c.249-.449-.706-.005-1.22.107a1.134 1.134 0 00-.311.2l1.232 2.567.053.125.041.115.021.052c.042.126.046.161.017.048a3.054 3.054 0 00-.151-.379l-.031-.062-1-2.077.016-.006.064-.028c.045-.019.085-.042.144-.064l.338-.134c.447-.166.831-.236.547.089a1.217 1.217 0 00-.734.232 1.516 1.516 0 00-.221.142l-.025.018H.309l.866 1.807.016.03.06.125c.035.072.075.2.09.234a1.375 1.375 0 01.061.214.272.272 0 01.006.054v-.006c0 .026 0-.052 0 0a.467.467 0 010-.054l.035-.145a2.221 2.221 0 01.215-.463l1.659 3.3c.1-.172.19-.316.352-.337 0 .091-.129.192-.2.277.075-.085.081.017.051.221l-1.857-3.459a2.129 2.129 0 00-.222.488.921.921 0 00-.032.161v-.012a.632.632 0 00-.016-.075.941.941 0 00-.047-.159c-.017-.036-.063-.184-.1-.265l-.07-.14c-2-4.163-.553-1.155-1-2.084l.006-.008.013-.016.025-.032a4.1 4.1 0 01.477-.477c.645-.583 1.226-.843.787-.692.112.031-.357.3-.9.789a3.233 3.233 0 00-.4.4l-.022.026 1.018 2.126.015.03.058.123c.034.069.075.2.088.23a1.4 1.4 0 01.062.219c0 .183-.011-.2.26-.623l1.946 3.531c.131-.435.214-.739.138-.652-.271.174-.149-.4-.4-.2l-.029.429a.792.792 0 01-.121.087l-1.53-3.194a2.106 2.106 0 00-.187.386.888.888 0 00-.051.174c-.01.034-.011.044 0-.02.081-.258.058-.207 0 .009a.359.359 0 00-.019.1c0 .009 0 .026 0 0a.328.328 0 00-.012-.065 1.221 1.221 0 00-.04-.148l-.09-.238-.068-.146-.019-.036-.01-.017C-.153 8.106.804 10.102.509 9.485l.022-.033c.53-.745 1.354-1.3.889-1.025a3.588 3.588 0 01.423-.034l-.88.509c-.165.1-.354.195-.493.269l-.051.026-.025.012-.013.006H.374l.794 1.656v.007a2.253 2.253 0 01.1.212c.062.167.081.211.1.268l.023.1a.413.413 0 01.015.081 1.277 1.277 0 01.131-.431 1.476 1.476 0 01.106-.2l.019-.028 1.69 3.324c.115-.295.4-.584.078-.6-.172.22-.31.316-.421.321l-1.347-3.046c-.131.225-.1.166 0 0l.972 2.741c-.308-.583-.484-1.724-1.209-.98l-.191-1 .016.011a.066.066 0 010-.036l.2 1.038c.363-.12.4 0 .291.235l-.308-1.6c.016-.013.046-.014.041-.018a1.049 1.049 0 00-.048.169.357.357 0 00-.015.094 1.5 1.5 0 00-.032-.152c-.015-.066-.073-.2-.054-.17l.011-.009.068-.046a.716.716 0 00.412.057c.2-.011.438-.069.746-.105.323-.1.351-.146.338-.22a.183.183 0 01.015-.126c.328.056.909.158.846.394a.508.508 0 01.544 0 .679.679 0 00.5.126c.343-.141-.028-.117.2-.265a4.474 4.474 0 00.862-.122c.342-.063.668-.113.906-.133.228.175.836.458.511.867-.869.129.221-.615-.667-.355.485.405-.749.307-.848.739a2.35 2.35 0 001.379-.151l-.109-.046a2.968 2.968 0 011.755-.214c-.081.192.141.29-.165.384l.594-.061c.067-.067.136-.135-.042-.148a.887.887 0 01.784-.076 5.009 5.009 0 001.562-.562 14.7 14.7 0 011.414-.639c.425-.1.59.154.963-.124a12.2 12.2 0 00-1.912.66 13.468 13.468 0 00-1.535.585 9.77 9.77 0 002.569-.814 7.162 7.162 0 012.455-.794c.31-.085.68-.208.565-.377.551-.028-.08.387.335.478 0-.031-.051-.086.07-.105l.41.156a3.849 3.849 0 011.4-.385c.256-.04.508-.073.754-.135a2.1 2.1 0 00.707-.294c-.111.124-.222.3-.385.459a2.675 2.675 0 01-.62.469l-.11-.084c-.068.071-.5.208-.454.394a2.81 2.81 0 001.546-.348c.122.028.264.054.363.087a.352.352 0 01-.025-.071c.221.072.205.095.148.183a.154.154 0 01-.033.051c.239.233.8.018 1.388-.271a4.589 4.589 0 011.716-.633c.251-.154 0-.1.31-.3 1.017-.053 1.616-.032 2.6-.042.3-.287.315-.385-.129-.57l.809-.043c-.628.742 1.58.367.881 1.119a1.758 1.758 0 001.164-.113c.019-.165.048-.43.6-.52.8.086.609.038 1.274.139.182.181-.036.3.016.46.931-.417.919.312 1.817.138.558-.146 1.659-.319 1.639-.681.752-.068.776.202.74.504z" fill="#d5c1b1"/></svg>