<svg xmlns="http://www.w3.org/2000/svg" width="110" height="107.527"><path d="M1.977 107.527a1.672 1.672 0 01-1.6-1.105 2.832 2.832 0 01.753-2.679 1.964 1.964 0 01-.68-.617 1.31 1.31 0 01.033-1.528 3.408 3.408 0 011.014-.845 1.716 1.716 0 01.262-.493 1.328 1.328 0 01.623-.453c.16-.055.325-.1.492-.149a1.442 1.442 0 00.974-.547c.026-.075.047-.15.07-.224a3.626 3.626 0 011.089-1.824 1.293 1.293 0 01-.155-.321 1.311 1.311 0 01.4-1.407c.205-.176.214-.21.2-.723a3.463 3.463 0 01.259-1.662 1.3 1.3 0 01.4-.5 4.775 4.775 0 012.357-.937 1.273 1.273 0 01.255-.474 18.837 18.837 0 013.827-3.314 10.792 10.792 0 003.5-3.362 1.292 1.292 0 01.359-.4 4.707 4.707 0 012.745-1.037 3.024 3.024 0 011.276.277c.084-.063.167-.125.251-.185l-.026-.029a1.3 1.3 0 01.061-1.783 2.484 2.484 0 01.778-.51 2.323 2.323 0 01.036-.532 1.324 1.324 0 01.392-.728c1.156-1.089 2.294-2.335 3.395-3.541a50.807 50.807 0 014.814-4.821 1.329 1.329 0 01.643-.289 4.03 4.03 0 01.327-.025 1.672 1.672 0 01.184.009 8.027 8.027 0 011.237-1.321c.2-1.57 1.558-2.68 2.681-3.6.893-.731 1.817-1.486 1.9-2.175a1.327 1.327 0 01.5-.882 14.85 14.85 0 001.711-1.725 11.444 11.444 0 013.259-2.847 8.033 8.033 0 001.023-1.939 1.287 1.287 0 01.288-.444 3.96 3.96 0 01.859-.686c-3.541-4.393-7.538-9.229-12.359-12.158a22.866 22.866 0 00-2.113-1.138c-.429-.07-1.182-.422-2.15-2.217a7.212 7.212 0 01-.9-2.843c-5.129-.985-7.8-6.687-9.138-9.557a1.307 1.307 0 010-1.117 2.084 2.084 0 01-.417-1.068 1.312 1.312 0 01.164-.742 1.176 1.176 0 01-.206-.222 16.112 16.112 0 01-1.152-1.892c-.049-.02-.091-.037-.13-.055a1.321 1.321 0 01-.657-.677c-.057-.049-.432-.263-.657-.392-.513-.29-1.605-.911-1.608-1.96a3.089 3.089 0 01-.88-1.066 1.309 1.309 0 01-.013-1.18 1.359 1.359 0 01-.306-.587 1.283 1.283 0 01-.164-.4 1.573 1.573 0 01-.039-.3 1.389 1.389 0 01-.171-.275c-.339-.271-1.174-.778-1.7-1.095a8.089 8.089 0 01-2.109-1.519 1.673 1.673 0 01-.36-.352 1.335 1.335 0 01-.552-.38l-.369-.43a1.318 1.318 0 01-.3-1.052c-.026-.016-.051-.031-.078-.05a2.639 2.639 0 01-1.324-2.181 1.33 1.33 0 01.26-.748 1.919 1.919 0 01-.155-.3 1.3 1.3 0 01-.45-.653 1.026 1.026 0 01-.026-.1 1.928 1.928 0 01-.129-.1 1.3 1.3 0 01-.323-.389 3.478 3.478 0 01-.271-.635 1.213 1.213 0 01-.9-.435 1.831 1.831 0 01-.434-1.639 2.476 2.476 0 011.657-1.562 1.324 1.324 0 01.076-.449A2.384 2.384 0 015.973-.011a4.074 4.074 0 011.078.219A1.5 1.5 0 017.782.02a1.731 1.731 0 011.392.765 1.33 1.33 0 01.2.439 2.021 2.021 0 01.281.677c.016.014.1.106.13.133a1.315 1.315 0 01.578.566l.087.1a3.122 3.122 0 01.584.961 1.313 1.313 0 01.894.564 1.422 1.422 0 01.973 1.072 2.014 2.014 0 01.639.407l.021.021c.416.138 1.056.365 2.071.728.618.221 1.149.413 1.3.457a1.335 1.335 0 01.784.628 1.263 1.263 0 01.229.237 1.34 1.34 0 01.221.457 1.755 1.755 0 01.243.348l.036.021a2.5 2.5 0 011.091 1.537l.028.087a1.328 1.328 0 01.663.787 1.551 1.551 0 01.04.172 2.55 2.55 0 01.416.54 1.313 1.313 0 01.183.555 3.889 3.889 0 00.224.628 36.049 36.049 0 012.294 2.9c.317.43.626.85.939 1.256h.03a1.315 1.315 0 01.969.424c1.158 1.26 2.468 2.536 3.856 3.887 1.918 1.868 3.9 3.8 5.625 5.833a7.533 7.533 0 011.36 2.255 5.732 5.732 0 00.911 1.585.986.986 0 01.066.079c.195.116.44.252.641.365 1.26.706 2.314 1.3 2.611 2.127a4.912 4.912 0 01.556.93c.068.143.087.181.461.459a1.312 1.312 0 01.534 1.127c.521.348 1 .682 1.474 1.02a1.146 1.146 0 01.133.108c.363.336.727.706 1.1 1.085.337.344.68.692 1.036 1.028a1.408 1.408 0 01.259-.024c1.056 0 1.9 1.045 2.234 2.712a1.745 1.745 0 01.809.519c.4.129.793.286 1.179.441.23.093.46.185.686.268a1.308 1.308 0 01.439.271 20.628 20.628 0 012.747 3.271 1.309 1.309 0 01.553-.6 3.6 3.6 0 011.754-.5c2.558 0 3.526 3.018 4.231 5.222a15.593 15.593 0 00.556 1.568 1.316 1.316 0 01.112.7 8.158 8.158 0 01-.088.557l-.051.3a1.311 1.311 0 01-.411.777c.572.434 1.227.918 1.9 1.415 2.94 2.175 4.48 3.331 5.153 4.174a1.333 1.333 0 01.438.263 14.277 14.277 0 011.863 2.141 14.462 14.462 0 001.281 1.544 1.669 1.669 0 01.134.1c1.488 1.259 2.954 2.691 4.372 4.077 1.258 1.229 2.448 2.39 3.566 3.349a1.278 1.278 0 01.333.438c.1.208.18.419.26.631.171.453.251.635.409.744 2.741 2.1 6.1 4.934 9.266 7.809 1.09 1.009 2.135 2.088 3.146 3.13a48.391 48.391 0 004.921 4.629 1.239 1.239 0 01.168.155 155.8 155.8 0 019.966 12 1.32 1.32 0 01.734.827.957.957 0 00.294.511 3.825 3.825 0 011 1.783 1.535 1.535 0 01-.115 1.444 1.516 1.516 0 01-1.178.615 2.386 2.386 0 01-1.048-.3 1.313 1.313 0 01-1.155-.214 15.511 15.511 0 00-1.775-1.138 15.258 15.258 0 01-2.063-1.356 9.069 9.069 0 01-3.645-1.386c-.53-.288-1.062-.578-1.569-.8a1.315 1.315 0 01-.522-.409 9.027 9.027 0 00-3.125-2.39c-.371-.206-.748-.414-1.126-.644h-.013a1.31 1.31 0 01-.782-.258A133.948 133.948 0 0178.311 86.22a10.019 10.019 0 01-2.193-1.548 8.518 8.518 0 00-1.6-1.177 2.81 2.81 0 01-.223-.11 1.312 1.312 0 01-.673-1.435 2.193 2.193 0 01-.074-.231l-1.234-.939a1.308 1.308 0 01-.51-.9c-.663-.683-1.433-1.391-2.246-2.142-.924-.851-1.872-1.725-2.74-2.628a1.313 1.313 0 01-.745-.442 4.25 4.25 0 01-.924-1.461c-.166-.12-.334-.246-.5-.375-.3-.226-.718-.539-1.094-.77a1.4 1.4 0 01-.218.163 1.314 1.314 0 01-1.453-.063c-.9-.652-1.856-1.29-2.864-1.945a1.314 1.314 0 01-1.659-.313 60.794 60.794 0 01-1.028-1.284c-.932-1.242-2.634-3.217-4.317-5.132a13.151 13.151 0 00-1.495 1.533 13.377 13.377 0 01-3.317 2.942 3.966 3.966 0 00-.3 1.189 8.9 8.9 0 01-.25 1.255 1.3 1.3 0 01-.214.432 4.855 4.855 0 01-1.686 1.331c-.085.046-.185.1-.27.15a1.4 1.4 0 01-.6 1.4l-2.221 1.342a1.311 1.311 0 01-.568.185 21.4 21.4 0 01-1.557 1.59c-.776.741-1.949 1.86-1.887 2.381a1.306 1.306 0 01-.081.639l-.291.736a1.321 1.321 0 01-.271.424 3.98 3.98 0 01-2.547 1.166 2.117 2.117 0 01-.371-.033 7.294 7.294 0 01-1.8 1.025c-1.015.453-1.605.749-1.906 1.565a1.32 1.32 0 01-.442.594l-1.872 1.414a1.314 1.314 0 01-.792.265 1.26 1.26 0 01-.21-.017 1.311 1.311 0 01-.873-.553 1.7 1.7 0 01-.108-.177c-.16.208-.308.417-.413.564-.134.188-.256.363-.379.522l-.014.183h.122a1.312 1.312 0 011.241 1.741 1.345 1.345 0 01.271.725c.06.828-.508 1.332-1.479 2.052a3.756 3.756 0 01-.526.925c-.928 1.231-1.755 2.048-2.776 2.048a1.857 1.857 0 01-1.382-.636 1.227 1.227 0 01-.079.116 8.6 8.6 0 01-2.371 2.076 4.546 4.546 0 00-2.164 2.433 1.322 1.322 0 01-.176.314 3.6 3.6 0 01-1.832 1.273 1.672 1.672 0 00-.4.176 1.316 1.316 0 01-1.5.059 1.363 1.363 0 01-.331-.3 1.21 1.21 0 01-.1.2 1.6 1.6 0 01.246.875 2.585 2.585 0 01-1.077 1.826 1.805 1.805 0 01-.739.531 2.525 2.525 0 01-.156.585 1.319 1.319 0 01-.461.591c-1.4 1-2.536 1.665-3.488 1.665a1.713 1.713 0 01-1.512-.826 1.311 1.311 0 01-.272.349 3.678 3.678 0 01-2.363 1.194z" fill="#d5c1b1"/><path d="M24.899 87.647a.978.978 0 01-.4-.085 1 1 0 01-.6-.957l.02-.463a1 1 0 01.409-.765c.968-.708 1.379-.708 1.553-.708a1.177 1.177 0 01.929.505 1.21 1.21 0 010 1.232.992.992 0 01-.552.5 1.7 1.7 0 00-.653.448.994.994 0 01-.706.293zm-11.567-3.065a1 1 0 01-.989-.845l-.09-.576a1 1 0 01.459-1l.592-.37a1 1 0 011.342 1.433 1.891 1.891 0 01-.723 1.168 1 1 0 01-.591.19zM1 102.744a1 1 0 01-.8-1.6 1.258 1.258 0 011.229-1.206h.077a1 1 0 01.2.02l.265.055a1 1 0 01.5 1.7l-.772.754a1 1 0 01-.699.277zm81.008-63.133a1.39 1.39 0 01-1.015-.4 1 1 0 01.225-1.581 3.644 3.644 0 001.2-1.249 7.593 7.593 0 011.164-1.387 1.021 1.021 0 01.407-.219 1.552 1.552 0 01.4-.055 1.241 1.241 0 011.078.6c.377.626.215 1.609-.48 2.921a1 1 0 01-.655.506 5.753 5.753 0 00-.546.261 4.183 4.183 0 01-1.776.607zM27.854 89.567a1 1 0 01-.945-1.326 1.171 1.171 0 01-.064-.7 1.787 1.787 0 01.943-1.106 1.014 1.014 0 01.518-.144 1.09 1.09 0 01.2.02l.618.128a1 1 0 01.528 1.662l-1.07 1.147a1 1 0 01-.728.319zm47.961-53.934a4.338 4.338 0 01-4.233-2.641 1 1 0 01.081-.947c.346-.531.657-1.056.962-1.572a17.157 17.157 0 012.9-3.935 5.794 5.794 0 012.421-2.831c.929-.674 1.457-1.092 1.536-1.822a1 1 0 01.778-.869 2.993 2.993 0 00.9-.759 8.113 8.113 0 011.081-.989c.006-.064.014-.131.026-.2a2.143 2.143 0 01.136-1.283 1.009 1.009 0 01.23-.361l.484-.484a.989.989 0 01.594-.287 2.5 2.5 0 011.634-.887 1.3 1.3 0 01.876.332 2.282 2.282 0 011.467-1.808 1 1 0 01.452-.108h.012c.223 0 .449.019.68.034s.45.033.687.033a3.136 3.136 0 001.171-.2 4.188 4.188 0 01.934-1.235 3.858 3.858 0 00.637-.756 1 1 0 01.909-.583c.01 0 .233.01.336.017s.2.013.31.013c.226 0 .565 0 1.212-.734a9.292 9.292 0 012.9-3.049c.474-.37.92-.72 1.307-1.077a.992.992 0 01.494-.248 6.832 6.832 0 01.8-.09 2.671 2.671 0 00.987-.189 3.6 3.6 0 01.711-1.224.17.17 0 01-.015-.025 1.206 1.206 0 01.048-1.223 1 1 0 01.263-.86 11.58 11.58 0 012.532-2.005 1 1 0 011.431 1.244l-.236.542a32.07 32.07 0 01-.157 1.639 14.427 14.427 0 00-.121 3.722 1.314 1.314 0 01.209-.017 1.015 1.015 0 01.4.076 1.28 1.28 0 01.7 1.518c-.1.795-.9 1.45-1.678 2-.025.059-.121.263-.121.263a1.077 1.077 0 01-.52.569 1.865 1.865 0 01-.736.186 7.909 7.909 0 01-2.812 3.094 1.007 1.007 0 01-.533.153c-.031 0-.095-.005-.095-.005-.156 0-.385.423-.536.7a2.7 2.7 0 01-1.742 1.626 8.587 8.587 0 01-2.322 2.233 6.609 6.609 0 00-1.76 1.633 1 1 0 01-.814.489h-.144a4.158 4.158 0 01-.695-.068 2.258 2.258 0 00-.273-.036 5.125 5.125 0 01-.912 1.251 3.521 3.521 0 00-.477.6 1.026 1.026 0 01-.586.593 2.189 2.189 0 01-.312.092 10.757 10.757 0 01-2.983 4.459.989.989 0 01-.293.2l-1.493.681a12.975 12.975 0 00-.522 1.427 1 1 0 01-.417.546 23.8 23.8 0 01-8.247 3.416 1.024 1.024 0 01-.136.015c-.108.005-.208.011-.307.011z" fill="#d5c1b1"/></svg>