<svg xmlns="http://www.w3.org/2000/svg" width="185.109" height="311.406"><path d="M35.884 97.208a1.734 1.734 0 00.432-.073.416.416 0 01.487.356 2.526 2.526 0 01.007.522 2.914 2.914 0 00.6.169c.331.015.741-.145.98 0 .516.308.877.077 1.307-.124a4.835 4.835 0 01.765-.132 5.258 5.258 0 00.659-.266 6.808 6.808 0 01-.223-.93c-.064-.729-.594-1.239-.837-1.881-.51-.191-.366-.57-.253-.926a.317.317 0 01.544-.09 2.679 2.679 0 01.167.394c.267.567.443.6 1.084.2a2.116 2.116 0 01-.919-1.765c-.007-.051-.1-.09-.21-.178l-.724.506a1.246 1.246 0 00-1.172-.736 5.469 5.469 0 00-1.675-.208 1.484 1.484 0 01-.938-.222c-.419-.247-.567.313-.907.225a1.3 1.3 0 00-.308-.011.335.335 0 00-.078-.617 9.351 9.351 0 00-1.694-.559 1.075 1.075 0 00-.721.227c-.154.1-.214.347-.3.5.253.411.838.092.95.625l-.808.227-.518-.674c.183-.726.177-.818-.362-1a8.933 8.933 0 00-1.816-.436 7.766 7.766 0 01-2.469-.422c-.334.127-.254.571-.695.5-.021-.108-.1-.255-.064-.37a6.6 6.6 0 01.5-1.473 2.227 2.227 0 00.3-1.275.715.715 0 00-.08-.207l-.659-.205c0-.111-.011-.177 0-.181a1.591 1.591 0 001.033-.89c.039-.1.306-.115.485-.174.022.241-.14.447.13.545a1.173 1.173 0 00.534-1.038c.015-.323-.148-.678.137-.963-.176-.338-.028-.7-.02-1.028l-.569-.284c.08-.44.6-.375.657-.792a6.769 6.769 0 01.3-1.046l-.556-.276.8-.152a5.283 5.283 0 01.1-1.775c-.172-.342.059-.82-.406-1.081-.16-.089-.223-.35-.329-.531-.574.266-.574.266-.911-.106a8.73 8.73 0 01-1.721 1.518.712.712 0 00-.285.34 2.436 2.436 0 01-.906.963c-.2.152-.451.319-.424.621.028.323-.154.445-.393.6-.338.217-.621.516-.945.758-.424.316-.382.984-.939 1.206-.111.044-.192.235-.231.374a4.587 4.587 0 00-.132.764c-.014.145.039.3.031.442a.4.4 0 01-.5.3 1.919 1.919 0 01-.4-.2c-.095.318-.189.562-.237.813-.063.326-.407.3-.562.5a.758.758 0 00-.162.4 1.845 1.845 0 01-.66 1.241c-.05.049-.072.184-.106.184-.466-.006-.591.318-.765.672-.34.693-.792.974-1.43.795a2.76 2.76 0 00-1.718.212 1.278 1.278 0 01-.855.115 1.007 1.007 0 00-.861.071c-.544.287-1.183.023-1.731.294a3.454 3.454 0 00-1.212-.133l-.035.752c.214.217.6.189.5.582a13.759 13.759 0 01-1.3.606 2.13 2.13 0 01-.713.007c-.107-.3.047-.62-.3-.754-.421.115-.041.545-.277.736a10.713 10.713 0 00-4 .557c-.085.986-.085.986-.365 1.487.417.228.835.455 1.251.685.049.027 1.494.807 1.54.809h.311l.287-.489c.293.187.548.581.952.151a.321.321 0 01.313.029c.308.39.715.259 1.112.277.631.029 1.258.148 1.89.182a3.534 3.534 0 00.784-.114l.614-.841.429.964a1.473 1.473 0 001.036.011 2.177 2.177 0 01.575-.008 2.5 2.5 0 01-.22.7c-.253.342.271.414.191.672a1.145 1.145 0 01-.151.413 1.937 1.937 0 01-.506.408.811.811 0 00-.44.833c.012.178.02.356.028.509a3.367 3.367 0 01-.315.24.864.864 0 00-.5.7c0 .227.194.452.295.663a6.01 6.01 0 01-1.37 2.534c-.174.005-.427-.083-.5.264l.374.492-1.318 1.952c.254.718.246.708-.314 1.173a1.687 1.687 0 00-.5.585 2.154 2.154 0 00-.047.717c-.387 0-.461.313-.587.579a1.792 1.792 0 00-.208 1.08.809.809 0 01-.191.6 7.317 7.317 0 00-.887 1.414 1.654 1.654 0 00-.335 1.357.654.654 0 01-.326.746 1.169 1.169 0 00-.481.7 6.276 6.276 0 01-.625 1.792 5.854 5.854 0 00-.664 2.778 1.512 1.512 0 01-.3.814 9.867 9.867 0 00-1.526 3.8 8.484 8.484 0 01-.365 1.634 17.2 17.2 0 01-.79 1.97 1.1 1.1 0 00-.022 1.165 1.069 1.069 0 01.109.854 1.805 1.805 0 01-.451.88c-.188.22-.451.5-.438.743.031.522-.34.974-.147 1.536a.729.729 0 01-.464.907.552.552 0 00-.259.338 3.937 3.937 0 00-.216 1.092 3.644 3.644 0 01-.337 1.515 7.032 7.032 0 00-.28.969.532.532 0 00.029.2l.326.261c-.092.275-.309.6-.224.733.273.416-.015.907.28 1.338a3.855 3.855 0 01.633.376 3.211 3.211 0 01.592.67c.234.356.422.741.63 1.114-.224.315.045.448.215.643a1.137 1.137 0 00.673.347c.387.088.888.146 1.1.411.307.375.522.558 1.008.386.163-.058.412.172.606.148.244-.031.462-.281.736-.133.352.189.344-.38.624-.286.4.134.376-.616.813-.371.029-.061.089-.127.08-.182a1.214 1.214 0 01.712-1.276 3.392 3.392 0 001.363-1.559c.161-.391-.111-.742.14-1.146l.937-.677-.491-1.065a3.392 3.392 0 00.489-.83 5.651 5.651 0 00.574-2.343.888.888 0 01.207-.622c.3-.352.306-.832.582-1.178.139-.175.03-.36.068-.513.138-.551-.2-1.2.363-1.639l-.384-.753.566-.623c.063-.477-.012-.913.172-1.115a3.922 3.922 0 00.638-1.722c.2-.66.5-1.282.709-1.942a2.383 2.383 0 00.13-1.878 1.338 1.338 0 00.457-1.134l.533-.358c-.021-.2-.125-.461-.043-.557.342-.4.168-.938.445-1.343a3.471 3.471 0 00.48-1.453 1.232 1.232 0 01.285-.469.7.7 0 00.013-1.008 1.223 1.223 0 01-.15-.395l1.131-.4a1.105 1.105 0 00-.484-1.1c-.036-.023-.014-.135-.023-.249l.592-.093.783-1.064a4.223 4.223 0 01-.033-.452c.023-.8.6-1.5.361-2.359-.05-.18.223-.45.336-.658l-.385-.836.768-.511.122-1.452.511-.194c0-.377-.057-.778.38-1.048a.808.808 0 00.279-.913c-.047-.214-.145-.416-.2-.628-.016-.058.031-.133.04-.164l.937-.361a1.042 1.042 0 01.317-1.175 3.557 3.557 0 00.252-.339l-.125-.866a3.52 3.52 0 00.587-.743 3.837 3.837 0 00.153-.964.642.642 0 01.067-.212 8.3 8.3 0 00.647-2.1c.014-.058-.043-.135-.067-.2-.1-.154-.407-.039-.4-.406a1.256 1.256 0 011.382-.556 15.99 15.99 0 001.653.273 6.9 6.9 0 011.636.3 11.669 11.669 0 002.848.523 5.743 5.743 0 012.1.234.761.761 0 00.332.007 4.085 4.085 0 001.2-.1c.519-.177.853.183 1.273.253zm3.036-3.865l-.008.052-.059-.034zm.105.732a.862.862 0 01-.921 0c.386-.504.574-.502.921 0zm-12.011-9.249v.077l-.075-.038zM4.969 93.454l-.107-.233.261-.107.082.219zm2.2 1.55c-.368.1-.368.1-.337-.3l.542.242zm22.882-2.544c-.011.006-.126-.1-.118-.118a.652.652 0 01.166-.2c.012-.01.1.069.175.128a1.992 1.992 0 01-.22.187zm4.259.566a1.474 1.474 0 01-.278-.08c-.03-.542.589-.513.709-.893.141.22.541.317.338.7-.167.322-.47.298-.765.273zm35.176 16.008l.02.032h.008z"/><path d="M72.72 113.743h.618c-.18-1.034-.243-.884-1.108-2.035l-1.015.127c.1-.454.1-.822-.344-.967.3-.057.29-.3.22-.49a2.3 2.3 0 00-.306-.482l-.832-.1-.447-.723a.662.662 0 01-.588-.5c-.326.488-.48.561-.8.354-.281-.184-.521-.432-.809-.6a6.667 6.667 0 00-.855-.361c-.164-.7-.269-.782-.782-.5a.9.9 0 01-.948.083 1.461 1.461 0 00-1.342.057 3.5 3.5 0 01-.328-.225c-.431-.383-.773-.945-1.5-.722-.025.007-.1-.1-.126-.158-.058-.141-.1-.293-.3-.236-.243.071-.412-.073-.62-.155a2.791 2.791 0 00-1.291-.248c-.18.262-.262.514-.427.592-.319.151-.787.1-.885-.206-.152-.484-.559-.481-.851-.563a4.773 4.773 0 01-1.026-.4 1.662 1.662 0 00-1.16-.263 1.3 1.3 0 01-1.03-.358c-.167-.144-.344-.277-.553-.443-.369.4-.811.637-1.292.362a4.865 4.865 0 00-1.6-.377 2.228 2.228 0 00-.758-.116 3.226 3.226 0 00-.778.354c-.2-.117-.354-.212-.513-.3-.123-.072-.317-.23-.362-.2-.374.287-.634-.049-.928-.147a1.774 1.774 0 00-1.188-.112 1.356 1.356 0 01-.75-.041 1.851 1.851 0 00-1.687.36 6.958 6.958 0 00-.6.544 7.731 7.731 0 01.034 1.542 1.414 1.414 0 01-.627.881c-.4-.25-.369-.661-.525-.972l-.181.92-.724.153a2.878 2.878 0 01-.012.684 2.092 2.092 0 01-.3.513c.148.091.243.144.331.207.018.013.011.064.025.168-.32.091-.742.074-.9.526a.772.772 0 01.247.111c.22.215.522.366.339.8a.472.472 0 00.32.7c.4.078.534.344.736.6a1.376 1.376 0 00.508.417c.511.219 1.04.4 1.565.584.841.3 1.788.167 2.586.639a3.562 3.562 0 011.476.409 2.087 2.087 0 001.529.138 1.043 1.043 0 01.927.194 5.3 5.3 0 002.437.751c.409.014.816.089 1.225.118a1.29 1.29 0 011.052.528 1.139 1.139 0 00.51.383c1.085.391 2.17.783 3.272 1.118a10.123 10.123 0 012.1.721c.121.069.293.04.434.082a11.249 11.249 0 012.225.7c.483.261.977.51 1.472.746a7.755 7.755 0 003.321.8 4.52 4.52 0 01.846.025 1.1 1.1 0 001.382-.586 2.488 2.488 0 00.162-.517c.037-.219-.041-.5.07-.655a.933.933 0 00-.035-1.052 4.2 4.2 0 01-.425-1.444 1.123 1.123 0 01.125-.065c.339-.115.509.289.77.277a4.055 4.055 0 00.831-.266c.127-.035.289.1.432-.121a4.84 4.84 0 00.143-.707c.016-.298-.084-.607.188-.855zm-1.849-2.869a1.356 1.356 0 01.178.254c.072.167.124.348-.177.352a13.59 13.59 0 00-.001-.606zm.343 1.8a.225.225 0 01-.2-.045c-.143-.133-.205-.291-.012-.532a4.122 4.122 0 01.3.4c.019.037-.04.156-.088.177zm.665 2.362a1.083 1.083 0 01-.082-.151c0-.009.049-.039.076-.059.028.019.081.047.078.057a1.008 1.008 0 01-.075.153zm-2.717 25.385a3.3 3.3 0 01-.155-.752.422.422 0 00-.137-.175c-.293-.281.126-.356.159-.568a6.437 6.437 0 01-.634-.723 1.7 1.7 0 00-.972-.721 2.081 2.081 0 01-1.1-.715.691.691 0 00-.676-.321 1.769 1.769 0 01-1.323-.273l-.588.459c-.22-.844-.932-.845-1.494-1.088a1.588 1.588 0 00-.545-.054 1.06 1.06 0 01-.855-.486l-.95.546a4.377 4.377 0 01-.5-.334 4.421 4.421 0 01-.381-.427l-.927.291-.767-.556-1.381.324-.272-.166a6.4 6.4 0 00-.756-.458c-.378-.166-.415.36-.71.4a3.12 3.12 0 01-.322.086.505.505 0 00-.506.354c-.214.524-.628.56-1.128.453l-.214-.62c-.549.059-.558.049-.883.324a.873.873 0 01-.917.216 2.306 2.306 0 01-.909-.386 10.858 10.858 0 00-1.044-.728.805.805 0 00-.126.059c-.059.045-.115.095-.171.144-.358.318-.355.26-1.031.1s-1.27-.682-2.032-.5c-.056.013-.141-.043-.2-.088-.459-.363-1.131-.332-1.516-.867-.129-.179-.459-.214-.678-.307a1.428 1.428 0 00-.2.148 2.152 2.152 0 01-.206.255.349.349 0 01-.6-.2c-.063-.282-.076-.575-.117-.913l-1.2-.26c-.414-.561-.414-.561-1.5-.816-.137.474-.5.465-.894.336-.212-.069-.413-.176-.629-.223a2.539 2.539 0 00-.528-.007 1.661 1.661 0 01-.16 1.1c-.154.34-.162.352.216.588.164.1.355.182.243.4a.505.505 0 01-.352.2c-.22.026-.449-.03-.671-.009s-.5.026-.633.16c-.4.408-1.039.627-1.087 1.321.624.41.719.614.578 1.243-.1.442-.1.442.426.588.185-.192.005-.658.476-.637a1.205 1.205 0 01.137 1.412c.569.355 1.095.7 1.638 1.012a2.925 2.925 0 00.53.124.7.7 0 01.363.206c.444.7 1.292.821 1.862 1.34.145.132.453.083.6.213a2.751 2.751 0 00.993.484 3.282 3.282 0 01.761.441 9.437 9.437 0 002.835 1.525c.374.1.705.364 1.173.258.436-.1.78.355 1.205.463a3.348 3.348 0 00.766.155c.672.006 1.267.338 1.947.377a20.221 20.221 0 012.506.5 15.163 15.163 0 002.213.328 9.842 9.842 0 012.841.526 11.752 11.752 0 012.556.732 23.732 23.732 0 003.322.343 3.835 3.835 0 002.132-.52 1.131 1.131 0 00.69-.946 1.491 1.491 0 00-.135-.981.664.664 0 01-.038-.633 2.639 2.639 0 00.064-.751c.25-.133.5-.277.761-.4.123-.058.289-.143.394-.1.468.173.646-.2.874-.444l.48.177c.08-.167.146-.332.234-.483s.2-.294.317-.463a3.106 3.106 0 01-.542-.612zm-31.342-7.39v-1c.36-.118.4.109.444.321.065.317.017.578-.444.678zm.683.217a1 1 0 01-.172-.073c.024-.023.053-.071.071-.067a1.114 1.114 0 01.174.075c-.025.024-.055.069-.073.065zm13.732 4.031l-.37-.255.413-1.062c.295.473.295.473-.043 1.317zm13.075-.09a.457.457 0 01-.024-.118c0-.01.042-.017.064-.025zm1.656 5.011v-.072l.085.041zm.63-.689c-.062-.074-.166-.142-.174-.222s.076-.171.135-.286a.833.833 0 01.1.238 1.251 1.251 0 01-.06.269zm-26.049-46.12l-.131.158a3.173 3.173 0 00.289.447c.108.12.289.155.368-.015a.418.418 0 00-.036-.387 1.6 1.6 0 00-.49-.203z"/><path d="M72.53 115.193c.267.128.439.285.564.254.275-.069.278-.293.106-.57zM7.506 91.2c-.479-.561-.487-.58-.67-.506s-.3.2-.164.429zm32.404 16.226c-.02.032.04.113.074.2a1.365 1.365 0 00.2-.237c.018-.034-.043-.109-.069-.166a1.144 1.144 0 00-.205.203zm2.253-1.535l-.444.077.441.039z"/><path d="M41.722 105.967h-.018c0 .007.006.016.011.024v-.02zm27.764 3.066l.029.035c0-.015.006-.032.008-.048z"/><path d="M69.837 108.767s-.068-.071-.076-.066a.7.7 0 00-.193.159.394.394 0 00-.046.161.573.573 0 00.156-.07.9.9 0 00.159-.184zM10.021 90.413c-.072-.087-.143-.174-.219-.258 0 0-.079.044-.076.057.028.12.066.237.1.355zm32.052 3.451c.019-.041-.03-.113-.05-.172l-.219.111.106.136c.057-.023.144-.034.163-.075zm25.023 42.886l-.034.089.126.018a.244.244 0 00-.018-.094c-.009-.019-.049-.009-.074-.013zm-1.534 50.974c-.049-.5-.1-.991-.664-1.2a.261.261 0 01-.118-.181c-.1-.587-.674-.627-1.028-.924s-.514-.786-.955-1.064c-.471-.3-1.126.012-1.509-.522-.048-.067-.281.009-.428 0a2.292 2.292 0 01-.438-.06 67.672 67.672 0 01-1.389-.37c-.143-.04-.372-.062-.406-.151-.187-.493-.64-.384-1.011-.418l.11-.525a1.921 1.921 0 01-.527.195 2.377 2.377 0 01-.975-.081c-.184-.077-.256-.413-.392-.623-.034-.052-.125-.066-.19-.1-.548.589-.76.569-1.089-.1a1.48 1.48 0 00-.205-.251l-.631.271-.641-.907c-.272.393-.517.574-.939.5a1.453 1.453 0 00-1.448-.975c-.14 0-.274-.111-.416-.137a2.332 2.332 0 00-1.4.066v-.012l-.012.013c-.326-.013-.542-.151-.559-.508a.267.267 0 00-.276-.286 1.88 1.88 0 01-1.067-.422 1.708 1.708 0 00-1.166-.09l-.29-.606c-.348.065-.7.242-.966.15-.294-.1-.5-.45-.747-.688-.354.34-.528.362-.588.088a1.062 1.062 0 00-.634-.823c-.033-.589-.5-.833-.855-1.119-.21.025-.5.11-.535.053a1.911 1.911 0 01-.1-.627 4.6 4.6 0 01-.739-.149 2.282 2.282 0 01-.482-.322 2.45 2.45 0 011.424-1.694 1.2 1.2 0 00.467-.3 2.857 2.857 0 011.105-.735 2.691 2.691 0 00.676-.395c1.134-1.042 2.746-1.339 3.82-2.469a.184.184 0 01.1-.049 6.143 6.143 0 001.9-.923c.588-.32 1.151-.688 1.719-1.045a6.78 6.78 0 001.647-1.082 1.806 1.806 0 01.678-.347c.789-.318 1.583-.622 2.373-.937.065-.026.111-.1.2-.173a4.18 4.18 0 00-.195-2.363c-.027-.047.025-.141.051-.262.135-.061.3-.138.459-.207a1.812 1.812 0 001.089-1.435c.029-.145.047-.292.071-.438l.553-.582-.275-.312c.064-.211.216-.441.161-.6-.077-.224-.046-.552-.358-.654-.492-.16-.557-.65-.742-1-.324-.083-.674.068-.87-.24-.293-.46-.766-.492-1.193-.608l-.343.446-1.322-.665a9.965 9.965 0 01-1.208.219c-.409.029-.522.5-.956.512a4.907 4.907 0 00-1.181.279 3.241 3.241 0 00-.945.332.968.968 0 01-1.1.115l-.954.7-.955-.332c-.413.237-.631.729-1.161.827-.468.087-.914.288-1.377.415a.79.79 0 01-.423-.026c-.641-.206-.664-.188-.554.527a.625.625 0 01-.038.164 1.275 1.275 0 01-1.589.191l.006-.025a.3.3 0 00-.159-.011 3.314 3.314 0 00-.36-.089c-.039-.006-.123.086-.136.145-.009.042.056.13.106.149a.636.636 0 00.065.014.293.293 0 01-.265.105c-.544-.131-.9.175-1.3.423a.638.638 0 01-.305.761 3.18 3.18 0 01-1.427.547l-1.1 1.213-1.448.125-.188.734c-.339.088-.616.245-.87-.025a4.353 4.353 0 01-1.155 1.031 1.128 1.128 0 00-.6 1.075c-.185.008-.37.022-.556.024-.206 0-.343.337-.592.12l.009.018a2.877 2.877 0 00-.579.652.676.676 0 01-.578.446 1.524 1.524 0 00-1.331 1.39h-.478a5.3 5.3 0 01-.457.909c-.245.32-.4.594-.187 1a.88.88 0 01-.04.536c-.022.089-.128.158-.188.226-.235-.045-.349-.344-.618-.224-.325.731-.325.731-.816.789-.75 1.34-.752 1.665 0 2.877l-.41.477a4.569 4.569 0 001.157 2.6c.091.119.2.225.289.344a15.551 15.551 0 003.416 3.532 3.645 3.645 0 01.621.645c.245.28.46.587.715.856.745.786 1.49 1.571 2.263 2.328a5.721 5.721 0 00.914.64 5.8 5.8 0 011.859 1.408 1.306 1.306 0 00.257.215 6.142 6.142 0 001.279.624 6.418 6.418 0 011.071.969 2.069 2.069 0 00.5.241 3.7 3.7 0 01.707.331 11.006 11.006 0 003.044 1.395 52.615 52.615 0 007.953 2.292 14.482 14.482 0 011.843.386c.954.312 1.885.7 2.817 1.069a9.855 9.855 0 005.326.875 8.157 8.157 0 002.758-.85 4.867 4.867 0 001.318-1.016 2.5 2.5 0 00.342-2.32.546.546 0 00-.375-.337c-.469-.044-.505-.376-.532-.71a2.712 2.712 0 01.068-.555c.521-.189.521-.189 1.1-.819.014-.309-.4-.371-.376-.757.022-.453.47-.451.574-.747zm-9.24-28.166a2.562 2.562 0 011.048.409c-.371.006-.742.02-1.112 0-.064 0-.181-.167-.167-.234s.173-.194.23-.176zm-.221.974a1.284 1.284 0 01.172.075c-.022.026-.049.077-.064.074a.981.981 0 01-.165-.071c.019-.028.046-.082.057-.079zm-19.579 2.059l.03-.09c.027 0 .066-.011.077 0a.276.276 0 01.031.093zm13.839 18.081a5.47 5.47 0 00-.029-.123.3.3 0 01.1.019c.016.009.016.046.024.07zm1.187.184l.012-.065.069.042zm11.591 4.944c-.054.012-.134.04-.159.015a1.668 1.668 0 01-.182-.251c.193-.111.273 0 .333.136a.2.2 0 01.005.099zm-29.921-22.066a2.2 2.2 0 00-.314-.036c-.028 0-.055.073-.083.114a.246.246 0 00.1.017c.1-.027.2-.062.3-.094z"/><path d="M56.787 163.065a1.181 1.181 0 000 .393c.023.089.119.159.179.233.053-.031.087-.04.1-.062a.43.43 0 00-.1-.573.265.265 0 00-.179.009zm1.472-2.219l-.084-.04-.136.162.134.071c.03-.064.057-.127.086-.193zm-31.621 7.643a.579.579 0 00-.117-.084c-.012-.005-.047.043-.071.066l.083.045zm10.282-7.09a.286.286 0 01-.007-.029l-.013.005-.006.028h.027zm.147-.182c-.114-.005-.2.024-.154.153l.23-.081c-.025-.025-.049-.07-.076-.072zm-.338.207c.034.073.069.145.1.216q.03-.12.057-.237zm.106.216c0 .016-.007.031-.011.047l.021-.023zm-4.557 2.53l-.092-.031.059.1zm-2.112 1.801l.155.034-.009-.017zm18.757 13.741c-.04.006-.1.092-.1.142a1.691 1.691 0 00.042.3.826.826 0 00.177-.239c.029-.075.06-.228-.119-.203zm113.812.698c.058-.415-.313-.185-.4-.355-.028-.292-.069-.577.3-.738.166-.072.1-.228-.03-.347a.907.907 0 01-.367-1.063.905.905 0 00-.029-.543 1.506 1.506 0 01.118-1.51 1.418 1.418 0 01-.493-1.077 3.97 3.97 0 00-.14-.655 1.553 1.553 0 01.069-1.084.455.455 0 00-.214-.646.676.676 0 01-.309-.766c.034-.153.03-.2-.125-.323a.735.735 0 01-.222-1.072 2.457 2.457 0 01-1.326-1.392c-.106-.263-.063-.555-.347-.774-.248-.191-.378-.529-.6-.759-.25-.254-.588-.427-.821-.693a6.962 6.962 0 01-.688-1.02 1.139 1.139 0 00-.906-.564 1.484 1.484 0 01-1.315-1.147c-.053-.172-.123-.338-.173-.475l-1.531-.312.208-.224a5.924 5.924 0 01-.809-.948c-.36-.666-.367-.707-1.2-.554a1.854 1.854 0 00-.189-.311c-.308-.371-.6-.785-1.2-.582-.059.02-.2-.083-.246-.161-.091-.149-.117-.284-.349-.355a3.3 3.3 0 01-1.563-1.154.317.317 0 00-.493-.043c-.249.309-.5.248-.788.1l-2.086-1.122-.741.3-.432-.7c-1.021.315-1.465-.637-2.224-1.054.362-.252.641-.479.624-.922a1.037 1.037 0 01.123-.518 6.973 6.973 0 00.573-1.809 1.769 1.769 0 00-.113-1.405c-.053-.089-.108-.232-.072-.308.212-.442-.064-.659-.58-.925l1.52-.064c-.013-.249-.035-.432-.03-.615a5.269 5.269 0 01.248-2.025 1.386 1.386 0 00-.261-1.568c0-.407-.539-.477-.559-.886 0-.063-.173-.166-.265-.166a4.153 4.153 0 00-1.051.076 8.347 8.347 0 00-1.137.488l-.121.635-.611.309c-.208.4-.3.87-.565 1.022-.566.321-.481.887-.7 1.332.2.413-.1.709-.243 1.041-.1.238-.217.471-.34.738a3.461 3.461 0 00-1.236.492l-.95 2.16.221.8-.9.425c.124.454.124.454-.119.786-.361-.592-.36-.593-1.126-.85a1.5 1.5 0 01-.424-.135 1.66 1.66 0 00-1.037-.266c-.44-.009-.88-.04-1.321-.052-.425-.011-.829-.306-1.27-.095a2.227 2.227 0 00-1.52-.095c-.169.027-.372-.161-.647-.294a1.759 1.759 0 01-1.4.031 1.854 1.854 0 00-1.084.027 16.567 16.567 0 01-2.065.051c.307-.745-.207-1.489.313-2.121a4.062 4.062 0 01.255-2.035c-.292-.112-.649.2-.78-.236 1.087-.836 1.125-.911.907-1.841-.713-.168-.736.791-1.4.821a3.576 3.576 0 00-.133-.484 3.674 3.674 0 00-.273-.451c1 .016 1.159-.13 1.43-1.29l-.6.274a.294.294 0 01-.448-.163l.022.028.018-.069-.039.032-.648-1.1a1 1 0 00-.993.533 1.019 1.019 0 01-.56.587c-.065.465-.474.4-.772.491a1.793 1.793 0 00-.947.871c-.08.123-.081.308-.177.408a2.9 2.9 0 00-1.016 2.22.589.589 0 01-.13.421c-.362.333-.25.847-.469 1.175a3.182 3.182 0 00-.789.5 1.842 1.842 0 01-1.833.48 3.007 3.007 0 00-.553-.016 3.791 3.791 0 01-2.022-.032 4.966 4.966 0 00-1.634-.125c-.589.384-1.03-.261-1.573-.23a4.292 4.292 0 01-.78-.057.537.537 0 00-.605.382c-.017.037-.125.031-.192.045l-.485-.395-.24.535c.168.357.687.428.639.879-.562.744-1.47-.027-2.065.5-.188.747-.091 1.353.729 1.581a2.2 2.2 0 01-.071.546c-.082.2-.3.357.009.689a2.4 2.4 0 011.234.395.639.639 0 00.82-.026c.415-.342.49-.282.648.294a3.811 3.811 0 00.954.267 8.542 8.542 0 001.07-.2.657.657 0 01.51.12 1.816 1.816 0 001.617.562 4.654 4.654 0 01.549.062c-.035.163-.064.27-.082.379-.1.6.017 1.3-.712 1.627a.14.14 0 00-.059.093c-.12.7-.726 1.232-.7 1.988a1 1 0 01-.1.429c-.277.612-.624 1.2-.837 1.831a7.751 7.751 0 01-.811 1.8 1.873 1.873 0 00-.257.62 12.7 12.7 0 01-.862 2.178 1.771 1.771 0 00-.284 1.061.522.522 0 01-.142.4c-.918.876-.853 2.183-1.417 3.214-.077.141-.013.363 0 .547s.035.368.056.579a1.222 1.222 0 00-.958 1.2 4.564 4.564 0 01-.523 1.689 15.078 15.078 0 00-.793 1.97c-.11.329-.051.724-.346 1.015a2.435 2.435 0 00-.586 1.426 1.573 1.573 0 01-.194.622 9.911 9.911 0 00-1.185 3.009 8.22 8.22 0 01-.516 1.588 1.976 1.976 0 00-.249 1.066 1.065 1.065 0 01-.361.949c-.647.756-1.323 1.558-.879 2.7.021.053-.038.136-.074.25l-.448.062c-.113.327-.212.633-.324.935a2.169 2.169 0 01-.3.706c-.268.3-.136.521.008.783.027.05-.023.141-.044.25l-.693.239c-.064.166-.122.3-.168.442a4.494 4.494 0 00-.385 2.924.488.488 0 010 .224 3.368 3.368 0 00.824 2.476c.1.154.292.281.324.444.261 1.329 1.407 1.674 2.409 2.1 1.18.5 2.414 0 3.625-.021a.362.362 0 00.209-.073 6.328 6.328 0 011.71-.813 1.3 1.3 0 00.867-1.291 2.521 2.521 0 011.2-2.357 1.246 1.246 0 00.707-1.075c.014-.428.357-.8.29-1.166-.109-.6.443-.73.61-1.114a4.731 4.731 0 00.245-.621 6.98 6.98 0 00.414-1.475c.026-.4.39-.787.609-1.19l-.228-1.156a3.929 3.929 0 001.111-2.6 3.1 3.1 0 01.435-1.605c.292-.509.6-1.009.942-1.588l-.326-.952c.273-.213.584-.346.712-.581a2.929 2.929 0 00.474-1.337 1.9 1.9 0 01.672-1.34 1.773 1.773 0 01.158-1.193c.206-.468.541-.895.365-1.464-.021-.07.089-.184.146-.273.074-.117.238-.246.219-.342-.077-.4.442-.688.171-1.1.187-.362.124-.834.472-1.12a2.358 2.358 0 00.6-1.052c.192-.479.405-.95.591-1.432a3.429 3.429 0 00.434-1.241c0-.172.077-.443.2-.5.376-.176.255-.513.32-.781.068-.287.053-.594.121-.881.105-.447.486-.85.166-1.359-.036-.057.048-.207.1-.3.128-.223.271-.437.362-.584-.078-.254-.25-.534-.178-.63a.975.975 0 000-1.15 1.52 1.52 0 01-.062-.454l.733-.238a1.461 1.461 0 00-.113-.222c-.061-.078-.136-.145-.214-.226l1.238-1.166-.958-.143.172-.687c.32-.083.749.154.808-.41-.555-.333-.459-.974-.7-1.52l.737-.267c-.313-.241-.164-.521-.058-.82.209 0 .462-.074.629.014a4.817 4.817 0 001.271.4 1.627 1.627 0 01.531.16c1.183.756 2.617.819 3.857 1.418a1.173 1.173 0 00.546.088 8.358 8.358 0 012.386.514 3.089 3.089 0 01.688.384 14.356 14.356 0 01-.936 2.579l.525 1.207-.4.893.415.359a.8.8 0 00.1.9c.193.22.335.484.514.717.088.113.2.26.317.288.577.133.884.648 1.361.917a1.355 1.355 0 001.515-.677c.066-.122.369-.116.569-.171l-.061-.724.026.023.017.015a.276.276 0 01.019-.04h-.062a.729.729 0 01-.148-.156c-.011-.018.089-.151.131-.147a4.251 4.251 0 01.49.1v.006h.033l-.021-.029a2.248 2.248 0 001.347-1.227c.144-.259.238-.545.607-.578.078-.007.185-.142.209-.236.15-.6.281-1.21.436-1.895a4.734 4.734 0 001.1.37 2.368 2.368 0 011.214.5 4.949 4.949 0 00.682.37 17.819 17.819 0 012.065 1.061 9.567 9.567 0 012.067 1.275.648.648 0 00.288.167 2.659 2.659 0 011.02.666 3.332 3.332 0 00.642.446 10.616 10.616 0 013.649 3.4 2.384 2.384 0 01.4 1.024c.17 1.182.386 2.359.589 3.536a6.359 6.359 0 01-.063 2.948 7.917 7.917 0 01-1.568 3.285.95.95 0 01-.214.127l-.463-.1a1.42 1.42 0 01-1.941.441l-.237.461c0-.177-.141-.261-.281-.336a.194.194 0 00-.182.056c-.029.043 0 .129.013.195l.045.234a2.209 2.209 0 01-1.9-.012.271.271 0 00-.411.3c.026.227-.184.22-.309.173a4.107 4.107 0 01-.553-.3l-.589.477c-.56-.779-1.331-.349-2.007-.4-.209-.447-.279-.5-.53-.325-.276.186-.535.4-.781.581l-1.187-.348c-.5.3-.8-.155-1.2-.293a1.125 1.125 0 00-.445.009 10.768 10.768 0 01-1.1.1.834.834 0 00-.911.652c-.3-.139-.366-.586-.775-.437l-.163.542-.85.606c.037.518-.415.616-.726.782l.055.7c-.541.146-.541.146-1-.389h-.329c-.384 0-.809-.187-1.093.259-.027.042-.14.026-.212.044a1.36 1.36 0 00-1.154 1.156 6.1 6.1 0 00.378 2.741 1.055 1.055 0 00.356.414.691.691 0 01.276.454.706.706 0 00.255.473 1.963 1.963 0 01.707.823 1.535 1.535 0 00.472.466c.6.377 1.2.758 1.832 1.082a33.953 33.953 0 004.282 1.632 8.214 8.214 0 002.143.606c.923.057 1.832.212 2.749.271a18.781 18.781 0 005.619-.789c1.084-.261 2.156-.572 3.24-.837a15.617 15.617 0 003.85-1.706c.419-.3.812-.643 1.237-.937.344-.238.683-.447.719-.93.009-.117.162-.238.272-.329.35-.29.522-.765 1.033-.9.153-.042.239-.35.344-.542.192-.354.279-.777.671-.995l-.023.01-.439-.463c.161-.615.773-.148 1.034-.483.075-.69.045-.72.4-1.09a.675.675 0 00.211-.687 1.493 1.493 0 01.039-.433c.684-.225.678-.223.529-.848-.068-.281-.131-.547.166-.791a.775.775 0 00.184-.923 1.332 1.332 0 01-.077-.209c-.083-.424.106-.586.543-.471.308.081.543 0 .593-.251a3.607 3.607 0 00.018-.652 2.147 2.147 0 01.02-.658c.181-.5.414-.991.628-1.484l.034-.026h-.014a1.32 1.32 0 00.315-.667zm-20.293-32.574a.85.85 0 01-.077.145c-.016.02-.06.018-.124.035zm-35.209 6.019c.166-.388.166-.388.777-.053zm1.453-.054c-.034-.06-.109-.139-.092-.176a.858.858 0 01.19-.2 1.142 1.142 0 01.133.2 1.69 1.69 0 01-.231.178zm26.823 14.216l.069-.028v.052zm-3.21 20.264c.479-.024.848-.255 1.154.244-.404.096-.732.235-1.154-.241zm1.517-.365l-.174-.114a.468.468 0 01.027-.089c.065.008.13.025.2.039zm12.9-2.37h.008c0 .009-.006.017-.008.027.002-.008-.002-.015 0-.025z"/><path d="M120.655 161.235l-.022.008h.005zm1.604-15.529c-.065 0-.181-.018-.189 0-.049.137-.083.279-.119.421a3.464 3.464 0 00.285-.244c.034-.031.014-.115.023-.177z"/><path d="M120.65 161.231l-.012.008v.02zm.146.756l-.154-.724a3.053 3.053 0 00-.118.509c-.014.154.036.298.272.215zm37.37 4.253l-.017.168c.018-.025.049-.05.052-.077s-.022-.061-.035-.091zm-23.698 3.441c.165 0 .332 0 .408-.2-.179-.015-.336.01-.408.2zm28.242 11.385c-.011-.03-.013-.069-.034-.086a.1.1 0 00-.092-.017 1.038 1.038 0 00-.132.1.513.513 0 00.089.018 1.613 1.613 0 00.169-.015zm-4.18 9.38a.136.136 0 00.026.037l-.017-.106c-.004.023-.016.049-.009.069zm.026.037l.008.05s.023-.01.02-.01-.018-.027-.028-.04zM76.129 291.462a5.006 5.006 0 01-.675-.3c-.42-.258-.417-.374-.265-1.016.041-.172-.086-.385-.143-.611.312-.111.629-.216.938-.339.053-.021.076-.116.113-.177l-.485-.735c.368-.13.689-.237.808-.577a3.728 3.728 0 01-.183-.863 1.43 1.43 0 00-.133-.851c-1.166-.665-1.22-.726-1.55-1.734-.386.038-.814.275-1.145-.042a1.771 1.771 0 00-1.615-.458.5.5 0 01-.5-.125c-.278-.29-.455.092-.764.1l-.739-.691a3.843 3.843 0 01-.471.426c-.228.148-.414-.047-.62-.12a.642.642 0 00-.4.091c-.13.058-.235.214-.363.231a18.538 18.538 0 01-2.1.216 4.329 4.329 0 00-2 .474 1.539 1.539 0 00-1.66-.637 7.718 7.718 0 01-1.121-.044c-.345-.743-1.026-.577-1.691-.653.136.3.326.175.482.175.206 0 .374.049.318.4a4.473 4.473 0 01-.953-.148c-.171-.064-.247-.4-.415-.449-.142-.043-.347.185-.537.219a.618.618 0 01-.405-.143 5.977 5.977 0 01-.5-.444l-1.286.865c-.185-.089-.356-.12-.445-.223a1.435 1.435 0 00-1.039-.551.844.844 0 01-.651-.561 1.115 1.115 0 00-.21-.233l-.7.418c-.44-.44-1.158-.423-1.375-1.064a1.128 1.128 0 01-.883-.02c-.437-.236-.587-.74-1.026-.931l.036-.056-.071.038.03.028c-.148-.014-.334.025-.437-.051a3.076 3.076 0 00-1.3-.515 1.419 1.419 0 01-.883-.644 4.714 4.714 0 01-.827.289c-.151.024-.44-.073-.475-.178-.174-.539-.655-.687-1.071-.9a4.723 4.723 0 01-1.228-.736.919.919 0 00-.478-.261c-.441-.054-.6-.4-.813-.693.078-.114.229-.236.218-.34-.024-.244-.232-.227-.429-.2a3.233 3.233 0 01-.423 0c.01-.45 0-.6-.111-.618-.353-.064-.449-.255-.462-.6s-.365-.439-.593-.62l.041.515h-.108l.031-.511c-.439.062-.717-.08-.7-.4.014-.364.109-.724.132-1.089.013-.214-.018-.451-.322-.5l-.244.428c-.059-.183-.164-.4-.13-.425.389-.282.279-.717.367-1.088a1.583 1.583 0 01.451-.878 1.925 1.925 0 00.592-1.405 1.035 1.035 0 01.329-.8 3.213 3.213 0 001.015-1.931c.032-.176.088-.417.214-.495.777-.478.862-1.588 1.784-1.927.089-.033.14-.17.207-.26a9.5 9.5 0 001.215-1.861.918.918 0 01.423-.472 1.388 1.388 0 00.8-.884 1.088 1.088 0 01.482-.584 12.13 12.13 0 002.762-2.594 3.961 3.961 0 01.934-.927 3.981 3.981 0 00.523-.424c.759-.659 1.523-1.312 2.271-1.984.245-.221.436-.5.668-.737.151-.154.337-.4.5-.4.508.016.756-.37 1.087-.677a4.507 4.507 0 00.388.5 4.066 4.066 0 01.742.948c.106.238.219.473.321.693 1.012.591 1.1.64 1.291 1.7a2.656 2.656 0 001.381 1.954 2.154 2.154 0 00.624 1.5c.163.2.259.452.41.664.446.628.759 1.378 1.567 1.679a2.87 2.87 0 00.483 1.82.613.613 0 01.049.613 1.731 1.731 0 00.052.869 9.016 9.016 0 00.386 1.165 13.324 13.324 0 001.231 2.611 6.108 6.108 0 00.94.914l-.025.027.042-.015-.008-.009a4.511 4.511 0 01.618-.386c.116-.053.355-.051.415.025.423.531 1.154.484 1.566.943.591-.271.709-.972 1.306-1.125.367-.53 1.154-.288 1.581-.906-.115-.456-.221-.981-.392-1.484-.048-.14-.288-.215-.444-.322v-.777c.858-.674.858-.674 1.669-.5l-.133-.746h-1.3c.128-.625.683-.334 1.009-.552l-.943-.7a3.022 3.022 0 00-.773-2.608c-.045-.057-.123-.108-.133-.17a5.6 5.6 0 00-.112-.87c-.1-.3-.3-.571-.43-.867a7.159 7.159 0 00-1.363-2.385 1.435 1.435 0 01-.553-1.013.913.913 0 00-.724-.889.938.938 0 01-.253-.177 1.72 1.72 0 00-.42-1.232 16.524 16.524 0 01-1.243-1.968 3.734 3.734 0 00-.688-1.247c-.4-.356-.44-.935-.913-1.229-.137-.085-.139-.388-.222-.652a8.619 8.619 0 01.906-.505c.963-.395 1.942-.752 2.907-1.146.612-.25 1.193-.582 1.816-.8a10.42 10.42 0 002.644-1.65 1.175 1.175 0 00.421-.511 1.7 1.7 0 01.762-.912 5.815 5.815 0 00.888-.842c.032-.323-.342-.408-.162-.762a1.277 1.277 0 00-.2-1.306c.553-.4.553-.4.875-1.689a.738.738 0 00-.884.5 3.813 3.813 0 01-.5 1.017c-.038-.415.018-.695-.094-.859-.337-.5-.177-.823.241-1.143a1.75 1.75 0 00.3-.405c-.332-.594-.46-.635-.829-.3-.133.119-.247.259-.391.413L71 236.24l-.461.109-.273-.553a2.407 2.407 0 01-1.108.137.656.656 0 00-.41.12 4.277 4.277 0 01-1.864.629c-.144.007-.348.032-.418.127-.267.362-.673.273-1.02.379a4.58 4.58 0 00-1.674.551 1.468 1.468 0 01-1.335.172c-.324.324-.54.768-1.08.714-.35.765-.95.488-1.516.368a.924.924 0 00-.255.03.924.924 0 01-.855.552 2.026 2.026 0 00-1.753.43.282.282 0 01-.214.037 1.431 1.431 0 00-.866.129c-.181.083-.433.006-.653.014-.57.02-.73-.785-1.352-.671-.052.01-.132-.059-.179-.11a10.566 10.566 0 00-.819-.894 6.931 6.931 0 00-2.493-1.815.752.752 0 01-.36-.249 4.638 4.638 0 00-2.445-1.239c-.97-.325-2.013-.456-3.01-.747a9.305 9.305 0 00-1.984-.273c-.443-.029-.907.136-1.336.064-.508-.086-.821.552-1.333.272a7.251 7.251 0 01-2.221.652.4.4 0 00-.285.148c-.2.329-.548.159-.8.271a6.846 6.846 0 00-.759.572 1.052 1.052 0 01-.424.06 1.447 1.447 0 01-.605-1.638c.118-.349-.214-.725.01-1.088a1.032 1.032 0 01-.343-.739c-.007-.239-.194-.381-.472-.366-.072 0-.212-.1-.214-.16a.928.928 0 01.1-.4c.023-.049.128-.064.2-.086.425-.13.537-.419.548-.853a4.2 4.2 0 01.473-2.562c.1-.137.067-.363.121-.541.074-.241.172-.476.247-.681 1.292-.118 2.513-.228 3.733-.343a1.478 1.478 0 00.438-.089 2.843 2.843 0 011.21-.121 10.645 10.645 0 002.562-.11 39.925 39.925 0 015.487-.967 14.482 14.482 0 003.948-.8 1.721 1.721 0 01.873-.131c.916.167 1.846-.055 2.76.159a1.486 1.486 0 001.418-.466 2.821 2.821 0 011.035-.591c.064-.4.1-.741.5-.971.287-.166.449-.547.665-.832.3.025.623.066.947.073.16 0 .4-.331.353-.485a6.069 6.069 0 01-.187-2.381l-.6.389c-.154-.245-.279-.469-.427-.676s-.312-.384-.5-.615a9.75 9.75 0 00.75-.75.462.462 0 00.033-.415.47.47 0 00-.356-.189 4.569 4.569 0 00-.764.122 3.9 3.9 0 00.437-.877c.061-.332.612-.188.524-.6a1.555 1.555 0 00-1.382.038l-.425-.693c-.125-.2-.016-.551-.435-.619l-.586.778-.451-.725c-.772.106-1.434.18-2.089.293-.279.048-.538.2-.816.264a3.78 3.78 0 01-.869.083c-.753-.018-1.519.28-2.247-.133-.472.858-1.1.153-1.636.2-.039.15-.03.331-.109.385-.547.38-.682.373-1.2.018-.329-.225-.617-.577-1.125-.335.055.19.186.52-.089.544-.528.047-1 .476-1.6.154a.873.873 0 00-1.077.386c-.16.206-.321.411-.486.614a2.073 2.073 0 01-.173.167h-.617c-.588-.688-.861-.757-1.619-.438a1.351 1.351 0 01-.4.1 2.189 2.189 0 01-.762.016 3.878 3.878 0 01-.786-.444l-.867.714c-.263-.391-.815-.192-1.112-.542-.025-.03-.157-.014-.2.024-.392.361-.833.238-1.27.145a1.164 1.164 0 01-.155-.168 2.929 2.929 0 01-.528-1.979.958.958 0 00-.234-.812c-.106-.137-.264-.385-.213-.466.2-.311-.117-.595 0-.861.163-.376-.1-.546-.293-.764a.114.114 0 01-.017-.1c.31-.487-.1-.848-.261-1.22a2.228 2.228 0 01-.134-.854c-.012-.267-.292-.546-.254-.787.134-.837-.429-1.394-.722-2.059-.45-.2-.438-.642-.489-.994l-.674-.226c.256-.386.476-.709-.027-.991-.094-.053-.1-.262-.149-.4a4.168 4.168 0 00-.465-1.126 2.215 2.215 0 01-.5-1.44l-.783-.378c.069-.217.22-.437.162-.555a11.56 11.56 0 00-.753-1.231.213.213 0 00-.2-.039c-.33.191-.467-.313-.682-.221-.341.146-.554-.176-.842-.13a.92.92 0 00-.215.1c-.029.163-.06.343-.1.584-.38.108-.831.167-1 .683-.05.149-.362.26-.57.294a9.092 9.092 0 01-1.1.056c-.253.5.183.711.448 1a2.305 2.305 0 00-.166 1.714 15.9 15.9 0 00.477 2.185c.231.653.072 1.443.677 1.974a.518.518 0 01.1.421 5.688 5.688 0 00.252 2.206 22.765 22.765 0 01.519 3.421 8.609 8.609 0 00.341 1.986 3.671 3.671 0 01.171 2.04c-.5-.453-.665.222-1.03.253a6.337 6.337 0 01-.754-.3 1.524 1.524 0 00-1.771.07 1.323 1.323 0 01-.718.244 8.211 8.211 0 00-2.71.371c-.6.213-1.164-.344-1.735.02-.042.027-.149-.016-.207-.055a2 2 0 01-.237-.207c-.026.258-.244.342-.416.48a7.391 7.391 0 00-.557.553c-.284-.87-.949-.4-1.4-.588-.355.65-1.023.7-1.519 1.007a1.18 1.18 0 01-.739.162 1.96 1.96 0 01-.627-.366 13.976 13.976 0 00-1.953 1.624.346.346 0 01-.181.12c-.4.079-.868.14-1.035.526-.2.467-.7.276-.976.6a4.085 4.085 0 01-.989.66v1.068c.178.186.416.223.5.464-.624.21-.822-.425-1.2-.589-.618.417-1 .827-1.007 1.058l.381.434-.156.918-.964.335c.62.686-.355 1.244-.035 1.882.326.192.762 0 1.073.33l-.188.6 1.067.167c.116-.168.209-.488.475-.257a1.55 1.55 0 001.47.269 7.12 7.12 0 012.314-.126 2.468 2.468 0 00.667-.039c1.235-.259 2.464-.547 3.7-.8.915-.184 1.835-.373 2.762-.469 1.22-.128 2.456-.116 3.673-.265.751-.092 1.591.12 2.24-.494.048-.046.22-.012.3.039.251.161.5.058.761.057.889 0 1.777.019 2.649.032a17.944 17.944 0 01.662 2.968c.065.475.113.954.178 1.429.06.439.184.87.248 1.309a8.279 8.279 0 00.176 1.44 3.792 3.792 0 01.046 1.295.566.566 0 00.035.219c.09.2.421.292.192.645-.1.147.148.424 0 .7-.112.209.152.277.339.319.044.01.075.078.111.119-.161.219-.608.271-.368.7l1.187.41c0 .692-.979.532-.91 1.256l.541.89-.375.27c.077.236.408.386.153.7a.665.665 0 00-.073.419c.024.439.068.878.107 1.337.134.143.347.28.424.473a2.5 2.5 0 01.071.724c.288.04.524-.066.779.135.335.265.661.644 1.134.62a2.34 2.34 0 011.365.438 2.448 2.448 0 001.862-1.859 1.4 1.4 0 01.061-.216c.067-.128.12-.306.231-.362a1.027 1.027 0 00.63-.86.383.383 0 01.193-.244c.633-.322.837-.985 1.221-1.508a6.043 6.043 0 01.95-.309 9.305 9.305 0 001.735-.414 2.032 2.032 0 01.879-.027 7.607 7.607 0 011.2.226 5.188 5.188 0 012.813 1.438 2.508 2.508 0 00.653.43c.319.192.643.376.984.575v.872l-.4.243.019-.019h-.031l.009.014c-.151.09-.3.245-.449.012-.255.091-.59.081-.473.541.049.194-.178.27-.362.3a4.168 4.168 0 01-1.44 1.4 1.711 1.711 0 00-1.153 1.115c-.028.1-.219.166-.336.246s-.3.132-.338.237c-.124.383-.441.38-.726.386a5.314 5.314 0 01-.641-.139.38.38 0 00-.475.32l.375.194c-.286.363-.351.84-.852 1.095a2.742 2.742 0 01-1.521.336c.1.32.184.547.233.781.084.4-.439.36-.5.664a1.988 1.988 0 01-.134.4c-.04.087-.1.212-.168.23a.687.687 0 00-.558.463c-.109.324-.527.087-.664.308-.35.567-1.071.831-1.237 1.542-.016.068-.077.179-.116.179-.555-.006-.512.542-.767.81h-.036l.018.022.006-.006.016-.015a7.409 7.409 0 00-1.062 2.057.764.764 0 01-.3.458 2.33 2.33 0 00-.917 1.446 6.092 6.092 0 01-.344.687c-.364.724-1.042 1.262-1.228 2.1a.783.783 0 01-.334.435 3.771 3.771 0 00-.907 1.118c-.329.435-.471 1.016-1.024 1.278-.311.148-.189.649-.576.752.092.468-.4.831-.3 1.246a1.485 1.485 0 01-.53 1.473 1.183 1.183 0 00-.435 1.33c.03.092.02.265-.039.31-.66.49-.541 1.125-.4 1.8a5.708 5.708 0 01.058 1.229 8.115 8.115 0 00.206 2.3 7.262 7.262 0 00.732 1.983 2.159 2.159 0 01.23.505 12.138 12.138 0 001.628 3.177c.162.245.445.42.568.677a11.606 11.606 0 002.006 2.667 12.242 12.242 0 003.063 2.358 6.858 6.858 0 01.8.6 4.832 4.832 0 00.5.442c.415.245.861.439 1.278.683.444.26.848.6 1.307.824a12.969 12.969 0 012.66 1.363 1.217 1.217 0 00.4.19c1.034.331 1.97.887 2.971 1.292.48.195.942.436 1.42.636.341.142.7.251 1.047.374.172.061.352.107.517.184.741.344 1.475.7 2.216 1.044a8.517 8.517 0 002.461.7c1 .136 1.972.413 2.959.623a1.178 1.178 0 00.542.066 1.814 1.814 0 011.406.194 2.8 2.8 0 001.629.279 4.984 4.984 0 012.314.1 3.756 3.756 0 001 .066c.516.03 1.031.083 1.546.09a20.25 20.25 0 005.239-.2 1.649 1.649 0 01.557-.048 7.252 7.252 0 001.631-.3 3.163 3.163 0 001.551-.79.466.466 0 01.113-.042c.235-.025.582.315.694.019.172-.455.639-.507.869-.831a2.833 2.833 0 011.05-.814.641.641 0 00.351-.756c-.211-.395.003-.812-.197-1.219zm-6.818-28.827c.075 0 .22.156.214.164-.106.161-.228.312-.379.5-.116-.129-.226-.194-.231-.266a.36.36 0 01.393-.398zm-1.3-1.168c.008-.014.042-.013.063-.02l.041.075-.117.028a.222.222 0 01.011-.083zm-8.516-21.75l.07.08-.083.177c-.024-.026-.072-.058-.068-.077a1.132 1.132 0 01.078-.179zm-.737-22.657a1.029 1.029 0 01.283-.054c.112.344.253.611.129.92-.471.028-.532-.327-.647-.663a1.744 1.744 0 01.232-.202zm-32.474 1.145l-.194-.225.178-.134.208.186zm19.093 17.849c-.22-.061-.317-.187-.24-.392a.2.2 0 01.189-.052c.223.117.116.283.048.445zm27.031 48.308c-.056-.009-.1-.07-.154-.109a2.027 2.027 0 01.248-.107.964.964 0 01.072.146c-.061.027-.12.078-.169.071zm.6.8c-.045-.022-.066-.106-.083-.166-.005-.02.037-.053.058-.08l.233.205c-.092.021-.168.064-.213.042zm1.143 4.6l-.371-.39 1.181-.3.048.111z"/><path d="M59.146 224.009c.314.137.534.14.573-.267-.197.066-.499-.064-.573.267zm-22.76 29.301c.052-.06.014-.2.017-.3a.887.887 0 00-.188.063c-.155.093-.3.2-.455.295l.234.234a2.114 2.114 0 00.392-.292zm19.976 29.165a2.588 2.588 0 00.264.307c.021.019.123-.052.22-.1-.061-.087-.1-.206-.177-.236s-.203.017-.307.029zm-21.378-27.593c.012-.02-.06-.127-.081-.124-.06.011-.155.051-.161.091a3.485 3.485 0 00-.007.466h.393c-.104-.122-.268-.223-.144-.433zm30.755 14.879a1.15 1.15 0 00.268.1s.048-.076.037-.092c-.052-.077-.107-.19-.178-.2a.545.545 0 00-.257.061.634.634 0 00.13.131zM26.34 199.126l-.133-.127c-.015.03-.049.066-.042.089a1.089 1.089 0 00.083.169zm-7.803 18.637c.036 0 .075-.053.113-.082-.034.005-.068.012-.1.014-.067 0-.134 0-.2.006l-.018-.008.015.015v-.006a.647.647 0 00.19.061zm28.511 26.116h-.051c.007.014.015.022.023.035zm.001 0l.411.008c-.147-.242-.215-.245-.411-.008zm-1.056.863c.06.007.119.014.182.019h.007l.018-.023zm25.669 21.336l-.166.032c.035.042.073.119.1.117a.18.18 0 00.128-.049l.013.035c.033-.039.1-.095.091-.115-.036-.088-.097-.192-.166-.02zM49.84 280.147l-.083.129a.722.722 0 00.093-.049c.01-.007-.006-.052-.01-.08zm56.555 26.113a1.322 1.322 0 01-.335-1.34 1.081 1.081 0 00-.232-1.037 1.957 1.957 0 01-.265-.489c-.019-.045.041-.124.076-.218h.51c-.034-.262.012-.544-.107-.677a2.78 2.78 0 00-.722-.438c-.094-.508.4-.776.491-1.222l-.26-.846c.376-.274.4-.371.151-.545-.291-.206-.572-.426-.857-.641h.008l-.019-.01-.012-.009.006.015c-.413-.463-.866-.909-.647-1.58a6.4 6.4 0 01-1.735-2.351 3.59 3.59 0 01-1.4-.918l-.021.005c-.239-.081-.457-.234-.739-.085a.407.407 0 01-.383-.052.96.96 0 00-.96-.335 1.2 1.2 0 01-.635-.167 3.693 3.693 0 01-.548-.411c-.264.134-.518.271-.78.392-.1.044-.268.105-.3.066-.32-.353-.69-.117-1.039-.115l-.751.958-.952-.135a3.914 3.914 0 01-.548 1.147 2.077 2.077 0 00-.463.723 2.337 2.337 0 01-.228.613c-.262.326.291.351.18.638a1.222 1.222 0 00.574 1.495l-.273.474-.7-.087c-.047.268-.084.483-.12.7l-.5.211a3.873 3.873 0 00.088 2.646 6.571 6.571 0 00.706 1.133c.484.664.49.839.03 1.564a1.142 1.142 0 00-.206.611 2.514 2.514 0 00.569 1.665c.617.607 1.053 1.338 1.612 1.978a5.158 5.158 0 003.663 1.643c.653.056 1.327-.166 1.963.157a.235.235 0 00.208-.008c.455-.369 1-.184 1.5-.263a3.961 3.961 0 00.951-.285c.235-.1.415-.355.653-.42.632-.173.933-.676 1.344-1.109a5.905 5.905 0 001.173-1.313 4.443 4.443 0 00.444-1 .725.725 0 00-.163-.728zm-12.951-8.015v-.118l.08.031c0 .022.008.056 0 .063a.272.272 0 01-.08.024zm.17 6.8c-.172.02-.282-.066-.256-.252.009-.063.073-.119.112-.178l.323.225c-.092.105-.13.195-.179.201z"/><path d="M102.444 294.867v.007h.012zm2.939 3.929a.113.113 0 000-.1c-.209-.181-.274.142-.438.128l-.086-.01c.176.079.354.276.524-.018zm-5.563-5.806l-.07.031.071.026zm1.235.755c0 .036 0 .072-.006.108a.5.5 0 00.016-.073.075.075 0 00-.01-.035zm-.005.108c-.008.036-.015.073-.024.109l.018-.005c.001-.035.004-.069.006-.104zm-.021-.162c.007.018.018.036.026.054v-.026c.002-.01-.016-.019-.026-.028zm-7.441.461l.018.065.328-.14zm8.724.262l.127.4v-.419z"/><path d="M102.439 294.861a.178.178 0 00.02.019l-.021-.066a.753.753 0 01.001.047zm.955.379l-.059-.085-.083.062.1.112zm-11.179.983a.8.8 0 00.155-.06l-.1-.117a1.417 1.417 0 00-.118.112s.047.068.063.065zm54.752-242.445l.023-.015v-.014zm-39.843-18.396l.013-.011z"/><path d="M167.243 40.083c.023-.334.1-.665.126-1a.41.41 0 00-.3-.418c-.526-.23-.522-.24-.514-.841l.641.084a1.136 1.136 0 00.013-.374 6.793 6.793 0 01-.237-2.3.929.929 0 00-.227-.718 1.23 1.23 0 01-.278-1.014c.018-.38.147-.845-.209-1.213-.14-.145.011-.341.147-.484.03-.031-.008-.125-.021-.253l-.76-.189c-.074-.266-.065-.626-.222-.729-.4-.259-.369-.6-.349-.965a3.516 3.516 0 01.1-.518c-.152-.067-.3-.083-.348-.161a3.184 3.184 0 00-.878-.968c-.114-.081-.068-.387-.1-.656a4.11 4.11 0 01-.9-.884c-.289-.522-.912-.286-1.278-.761-.047-.392-.1-.87-.163-1.365-.369-.254-.735-.509-1.1-.758a2.4 2.4 0 01-1.04-1.369c-.04-.1-.077-.231-.157-.279-.534-.317-.789-1.023-1.513-1.08a.426.426 0 01-.264-.193 4.2 4.2 0 00-1.642-1.229c-.8-.465-1.539-1.016-2.311-1.521-.338-.221-.692-.419-.987-.6l-.629.351-.2-.818a5.425 5.425 0 01-.946-.375 4.935 4.935 0 01-.713-.659 3.09 3.09 0 01-.557.018c-.181-.025-.231-.412-.523-.2-.2.151-.274-.214-.5-.133a2.261 2.261 0 01-.619.036c-.1.005-.274.064-.3.025-.326-.517-.9-.244-1.329-.437-.053-.024-.135.013-.2.022l-.429.6c-.192-.2-.39-.319-.462-.493a.7.7 0 00-.565-.474 13.854 13.854 0 00-1.869-.281 2.522 2.522 0 01-1.427-.47c-.422-.289-.866-.762-1.485-.354-.026.018-.113-.08-.178-.094-.171-.038-.38-.135-.511-.074a3.74 3.74 0 01-2.392.137 1.842 1.842 0 00-1.459.25 1.71 1.71 0 01-.605.262c-.114.021-.256-.108-.393-.173l.067-.841c.429-.272.875-.548.9-1.168 0-.135.212-.281.352-.39a1.248 1.248 0 00.522-.7 4.145 4.145 0 01.374-.8c.143-.286.291-.568.451-.88l-.6-.24c1.581-.7 1.6-1.272 1.519-2.676a.957.957 0 01.053-.435 3.213 3.213 0 01.565-1.08 5.261 5.261 0 00.73-1.186c.586-.9.269-1.11-.593-1.2-.032 0-.06-.043-.09-.065.69-.742.694-.763.245-1.474-.566.114-.079.575-.306.86l-.528-.041c-.036-.415-.067-.781-.1-1.145l-.795-.553-.378.754a.927.927 0 00-.824.27c-.541.389-1.167.671-1.219 1.465a.489.489 0 01-.173.281c-.6.535-.716 1.5-1.6 1.774a.244.244 0 00-.11.183c-.027.313-.252.433-.491.557a.871.871 0 00-.356.258c-.317.537-.608 1.089-.968 1.746.05-.038 0 .014-.069.049a1.746 1.746 0 00-.3.143c-.877.729-1.917 1.344-1.875 2.672a4.259 4.259 0 01-.41.27 3.266 3.266 0 00-1.321 1.166 6.341 6.341 0 01-1.255 1.8.371.371 0 00-.078.206c-.143.731-.806.908-1.327 1.226a.6.6 0 01-.423-.015 1.277 1.277 0 00-1.062-.057c-.293.139-.714-.014-1.077 0a5.3 5.3 0 00-.875.137c-.177.039-.452.077-.5.191-.266.657-.715.65-1.259.43-.029-.012-.071.019-.108.022-.845.055-1.62.459-2.469.494-.365.419-.746.143-1.1 0-.215.141-.387.333-.586.368a4.758 4.758 0 00-1.463.319c-.045.024-.168-.106-.258-.158s-.18-.1-.258-.136L112 17.2c-.088-.516-.241-.844-.746-.736l-.29.444a2.411 2.411 0 00-.535-.118c-.137 0-.274.134-.41.133-.174 0-.384-.167-.513-.111a12.19 12.19 0 00-2.212.971.422.422 0 01-.388.062c-.445-.089-.44-.073-.62.455-.027.079-.171.118-.275.184l-.356-.623a2.432 2.432 0 00-.964.117 4.113 4.113 0 01-1.816.381.454.454 0 00-.142.049l-.355.839-1.135-.512v.949a5.047 5.047 0 01-.539.091c-.332.022-.452-.183-.484-.481 0-.034-.1-.058-.188-.1a3.741 3.741 0 01-.2.386 4.538 4.538 0 01-.3.37 1.941 1.941 0 00-.646-.125 3.029 3.029 0 00-.717.318c-.49-.634-1.018-.4-1.638-.072.154.185.261.327.381.455s.366.24.376.372c.036.447.518.474.678.8a.513.513 0 00.487.141c.319-.178.566-.03.851.048.573.158 1.115.388 1.665.6a6.8 6.8 0 001.838.149c.137.011.262.145.4.16.672.07 1.35.52 2.021-.024a.416.416 0 01.326-.046c1.334.366 2.718.065 4.063.306.19.034.414-.115.608-.175.6.632.6.639 1.341.692 1.546.112 3.093.217 4.637.324-.135.719-.73 1.107-1.009 1.69-.674.226-.845.9-1.257 1.361a6.765 6.765 0 00-1.2 1.686.17.17 0 01-.083.072c-.375.171-.494.546-.688.86-.169.275-.225.623-.658.685-.219.032-.326.28-.294.538a1.024 1.024 0 01-.577 1.1 1.224 1.224 0 00-.335.406c-.14.21-.262.431-.375.621l-.911-.13.06.915c-.454 0-.812.174-.9.565a1.888 1.888 0 01-.837 1.111c-.029.089-.032.212-.094.259-.231.176-.482.326-.7.468.016.458.142.868-.416 1.059-.214.073-.357.356-.519.528l-.635-.083c.084.219.213.388.184.524-.034.161-.2.293-.3.417l.246.32a2.6 2.6 0 00-1.383 1.658c-.343.219-.35.639-.551.931-.475.685-.918 1.432-1.823 1.651l.341.219c-.042.6-.1 1.178-.817 1.3a1.676 1.676 0 00-.115.444 2.033 2.033 0 01-.829 1.482c-.124.129-.313.244-.351.4a1.58 1.58 0 01-.55.822 1.092 1.092 0 00-.369.664.973.973 0 01-.973.861 2.845 2.845 0 00-.546.151l.33.609a3.482 3.482 0 01-.609.932 1.509 1.509 0 00-.7 1.281l-.85.535c-.043.255-.072.472-.118.684-.019.089-.059.236-.111.246-.512.1-.294.6-.448.807-.22.091-.44.113-.531.233-.218.289.267.278.259.592-.089.063-.288.13-.342.258a8.618 8.618 0 01-.948 1.6c-.354.5-.4 1.221-1.05 1.531-.116.055-.185.339-.172.509a5.33 5.33 0 00.262 1.952 5.2 5.2 0 01.418 1.146 1.7 1.7 0 001.232 1.333c.685.2.686.2 1.025.7a3.882 3.882 0 012.331.3 1.68 1.68 0 00.727.216 3.578 3.578 0 002.259-.819 2.938 2.938 0 011.2-.739 2.061 2.061 0 001.533-1.49c.042-.2.139-.28.378-.3.184-.016.367-.223.519-.376.289-.29.528-.633.837-.9a13.236 13.236 0 001.692-2.2 1.106 1.106 0 00.213-.5 1.188 1.188 0 01.556-.81 5.114 5.114 0 001.266-1.552c.17-.271.13-.687.322-.927.28-.35-.048-.628-.007-.859a12.1 12.1 0 001.43-1.493c.207-.3.431-.6.643-.9.191-.271.5-.51.567-.808.187-.779.88-1.3.991-2.113.016-.116.173-.244.3-.309a1.426 1.426 0 00.69-.969 1.36 1.36 0 01.3-.574 11.251 11.251 0 00.983-1.323c.33-.451.589-.947.9-1.4a11.228 11.228 0 00.882-1.536 2.5 2.5 0 01.924-1.223 1.2 1.2 0 00.582-.914 1.251 1.251 0 01.365-.776c.044-.045-.069-.241-.116-.384.789-.711.931-.567.81-1.7 1.9-1.213 1.6-1.095 1.761-2.608.053-.051.1-.133.161-.148a1.275 1.275 0 00.966-.98 10.791 10.791 0 00.771-2.068.383.383 0 01.174-.268c.32-.156.307-.49.434-.747.081-.164.1-.412.228-.491a1.586 1.586 0 00.66-1.228c.067-.361.209-.779.591-.868.519-.121.576-.39.451-.814a.646.646 0 01.375-.84 1.492 1.492 0 00.82-.839 1.5 1.5 0 011.507-.915c.693.059 1.382-.11 2.091-.014a3.293 3.293 0 001.663-.116 1.31 1.31 0 01.767-.014 4.018 4.018 0 001.873-.03 6.979 6.979 0 011.742-.135c.446.024.641-.26.863-.35 1.05.155 2 .3 2.96.434a.763.763 0 00.335-.009 2.05 2.05 0 011.42.117 2.193 2.193 0 00.651.131c1.056.049 1.982.646 3.035.707.1.006.188.119.29.164.237.105.48.2.717.3a21.322 21.322 0 012.609 1.245 2.242 2.242 0 00.66.374 1.262 1.262 0 01.728.489 12.808 12.808 0 001.921 1.714 11.981 11.981 0 011.342 1.309 12.136 12.136 0 012.075 3.147 17.97 17.97 0 011.368 3.891 3.9 3.9 0 01.062.89 23.845 23.845 0 01-1.009 4.582.407.407 0 01-.1.2 2.513 2.513 0 00-.583 1.309 2.232 2.232 0 01-.152.645 3 3 0 01-.561.484 3.832 3.832 0 00-.771 1.281c-.037.136-.066.274-.095.392l-.678.228c-.03.267.041.495-.234.77-.355.355-.875.63-.986 1.216-.018.093-.233.193-.368.209a3.659 3.659 0 01-.651-.028 1.516 1.516 0 01.009.277.417.417 0 01-.081.184c-.531-.113-.573.472-.875.609l.668.826c-.448.624-1.127.2-1.64.416a3.788 3.788 0 01-1.638 1.717c0 .072.018.161-.018.2a3.859 3.859 0 00-.756 1.073.681.681 0 01-.418.334.867.867 0 00-.536.341 2.638 2.638 0 01-.49.412l.724.525c-.335.311-.584.578-1.02.375-.113-.052-.374-.042-.4.015-.2.449-.575.205-.874.248l.008-.011.011-.015-.037.007.016.016a4.26 4.26 0 01-.515.53 1.437 1.437 0 00-.7 1.174l-1.006-.12.137.765-.491.832c-.551-.448-1.152-.223-1.634-.307-.276.143-.04.539-.428.514-.131-.008-.344.046-.392.138-.226.427-.652.559-1.026.772l.016-.029h-.029l.006.013c-.153.081-.307.238-.456.01l.018-.03h-.041l.018.035c-.22.029-.337.154-.286.373a.68.68 0 01-.427.792 3.358 3.358 0 00-1.357.881 1.74 1.74 0 01-.89.376 6.943 6.943 0 00-1.143.362c-.042.015-.053.122-.077.186l.3.346a1.157 1.157 0 01-1.195.326c.033.088.064.177.1.263a.568.568 0 00.057.086c-.026-.026-.064-.047-.077-.078-.036-.084-.063-.172-.1-.258-.511.006-.718.488-1.092.711-.183.109-.1.466-.424.593-.242.094-.393.406-.608.594a3.39 3.39 0 01-.63.443c-.255.136-.536.221-.8.339-.228.1-.454.213-.672.336-.243.137-.365.518-.744.381-.553-.2-.134.472-.478.523-.243.035-.451.242-.739.129-.271-.107-.558-.173-.9-.277a2.171 2.171 0 01-1.757.317 1.116 1.116 0 00-.851.13 18.925 18.925 0 00-1.6 1.112 4.293 4.293 0 01-.357.25.455.455 0 00-.12.6 4.635 4.635 0 00.467.617l-.857.548a1.155 1.155 0 00.083.351c.2.291.22.512-.109.747a1.733 1.733 0 00-.55.85c.132.42.231.777.357 1.125a2.471 2.471 0 00.293.6 8.545 8.545 0 001.744 2.019 6.726 6.726 0 002.406 1.1c.39.1.525-.166.756-.412a2.816 2.816 0 01.819.238 1.481 1.481 0 001.367.2 7.755 7.755 0 01.856-.208 1.155 1.155 0 01.536-.058 1.312 1.312 0 001.277-.156.554.554 0 01.426-.083 1.6 1.6 0 001.548-.422 1.5 1.5 0 01.4-.2 23.838 23.838 0 005.231-2.773c1.524-1.075 3.172-1.964 4.66-3.1.919-.7 1.871-1.355 2.818-2.018a1.7 1.7 0 01.6-.271 1.876 1.876 0 001.1-.713 1.676 1.676 0 01.469-.452 26.682 26.682 0 002.818-2.01 2.582 2.582 0 001.17-1.588 3.021 3.021 0 001.408-.922 3.787 3.787 0 01.837-.73 3.366 3.366 0 001.041-.965 2.981 2.981 0 01.79-.768 6.522 6.522 0 001.878-1.719c.334-.4.595-.835 1.178-.952.223-.045.409-.3.6-.482.156-.148.288-.322.436-.48A14.476 14.476 0 00159.875 57a3.472 3.472 0 011.181-1.29c.211-.105.345-.382.492-.6a3.513 3.513 0 00.689-1.126c.1-.538.523-.683.824-.985a.3.3 0 00.093-.194c-.05-.575.454-.907.6-1.4a3.343 3.343 0 01.844-1.43c.139-.137.151-.406.212-.618.092-.321.175-.644.262-.967.627-.242.47-.867.638-1.329.125-.343.085-.808.306-1.04.4-.418.16-.847.17-1.226.088-.1.14-.149.187-.205.178-.209.526-.365.2-.727-.045-.049 0-.221.053-.311.271-.485.309-1.057.623-1.533.242-.366.448-.771.048-1.229-.139-.112-.071-.455-.054-.707zm-29.12-36.8c.054.029.137.048.153.091s-.047.1-.074.158c-.053-.026-.145-.047-.148-.079-.008-.051.042-.111.068-.167zm-29.431 14.6c-.024-.055-.073-.113-.066-.164s.078-.072.123-.108c.029.062.077.121.073.175-.004.035-.084.064-.13.096zm.1 16.624c-.061-.024-.17-.042-.174-.075-.009-.063.041-.135.065-.2l.182.086a3.086 3.086 0 00-.077.188zm24.443 29.913l-.07-.115c.031-.005.065-.022.091-.012s.034.045.05.069zm51.351-40.812l-.429-.6c.144-.283.29-.534.4-.8.029-.072-.064-.193-.1-.286l-.854.093.142-.573c.423-.031.091-.584.448-.654-.019-.286-.021-.574-.063-.856-.049-.327-.175-.443-.529-.438a.822.822 0 01-.628-.121c-.241-.2-.519-.356-.8-.542l.069-.826-.7-.459c0-.165.06-.393-.01-.445-.463-.345-.516-.965-.931-1.334-.237-.042-.463.151-.727-.042s-.632-.24-.909-.42a2.661 2.661 0 00-1.659-.5l-.821-1.046-.856.111-.149-.45a3.392 3.392 0 01-1.592-.408 6.977 6.977 0 00-2.352-1.07l-.433-.733a3.173 3.173 0 01-2.481-.785c-.087-.055-.117-.2-.2-.262-.3-.24-.522-.2-.789.175-.1.148-.2.216-.351.161a.4.4 0 01-.227-.227c-.065-.273-.091-.555-.144-.918l-.986.4a1.839 1.839 0 00-1.58-.912 1.761 1.761 0 00-1.72 1.172c-.049.15.369.51.152.959-.27-.291-.6-.261-.867-.357-.421-.149-.633.147-.928.238s-.25.4-.285.66a5.523 5.523 0 01-.226.865 3.452 3.452 0 00-.238.741c-.015.272.127.55.131.826a2.175 2.175 0 00.528 1.315 26.538 26.538 0 003.924 3.646.839.839 0 00.291.162 3.289 3.289 0 011.181.8c.377.339.922.5 1.264.866.275.292.676.128.885.4.477.615 1.231.808 1.825 1.243a4.511 4.511 0 01.876.676 2.951 2.951 0 00.992.72c.921.429 1.625 1.178 2.519 1.643a2.063 2.063 0 01.621.469 4.006 4.006 0 001.547 1.091 8.363 8.363 0 011.454.94c.216.147.419.315.636.46.123.082.279.213.394.191.742-.14 1.553.326 2.249-.26.083-.07.279.009.418-.013a1.417 1.417 0 00.518-.14c.283-.172.537-.391.8-.588-.028-.825-.029-.824-.631-1.981-.023-.044.02-.123.041-.226l.639-.173c.122.248.2.54.569.463.181-.2.376-.423.568-.646.021-.025.018-.072.036-.161-.084-.188-.185-.415-.288-.641-.174-.388.344-.312.366-.593zm-20.495-12.455a.425.425 0 01-.141-.254c-.009-.043.071-.15.113-.152a.409.409 0 01.268.077 1.641 1.641 0 01.206.4c-.248-.036-.369-.02-.446-.071zm1.132.191c-.029 0-.054-.036-.081-.056l.176.02c-.032.014-.065.039-.094.036zm1.211.741a1.059 1.059 0 01-.26.024 1.093 1.093 0 01-.259-.061c-.034-.015-.037-.114-.038-.176 0-.027.04-.078.061-.078a3.739 3.739 0 01.509.028c.053.008.1.089.144.136a.643.643 0 01-.157.127zm.629-.643a.605.605 0 01-.2-.327c-.009-.062.13-.147.2-.221l.313.384c-.141.077-.287.188-.313.164zm15.68 15.378l-.248.22c-.051-.067-.151-.144-.141-.2.015-.079.111-.144.172-.215zm.131-2.127c-.011.006-.076-.051-.073-.056.04-.073.087-.142.133-.215l.158.119a2.489 2.489 0 01-.218.153zm.605-3.159c-.015.006-.048-.034-.072-.052.04-.037.08-.1.12-.1a.573.573 0 01.175.054c-.078.032-.147.069-.223.098zm.457 1.96l-.073-.052.149.007z"/><path d="M98.489 19.046a1.922 1.922 0 00.492.008c-.254-.172-.309-.237-.369-.244a1.137 1.137 0 00-.28.039c.051.069.089.171.157.197zm64.103 6.496c-.057-.072-.094-.158-.131-.157a1.482 1.482 0 00-.3.061c.05.078.093.213.151.22.082.008.176-.074.28-.124zm-59.987 15.305c-.055.027-.123.093-.125.146s.071.107.111.161l.18-.181c-.081-.065-.147-.138-.166-.126zm4.522-5.467l.011-.01v-.006zm-.08-.41c-.027.021-.08.047-.077.063a.579.579 0 00.06.169 1.767 1.767 0 00.1.16c.03-.065.077-.134.063-.186-.017-.074-.094-.135-.146-.206zm-5.921 8.143l.018-.006-.037-.024z"/><path d="M100.962 43.383a.767.767 0 00.221-.118c.016-.017-.027-.091-.057-.153-.062.024-.136.039-.17.084s.002.123.006.187zm41.841 13.787c.036.049.069.137.107.139a1.163 1.163 0 00.273-.039.884.884 0 00-.2-.171c-.041-.018-.119.045-.18.071zm-6.072 4.323a.255.255 0 00-.033.055l.432.006c-.147-.334-.156-.329-.399-.061zm4.209-2.637l.012.011h.024v-.025zm-.242-.076a1.3 1.3 0 00.176.087.107.107 0 00.066-.011l-.176-.153zm4.118-3.475c-.018 0-.026.049-.038.075.03.012.063.036.091.032s.024-.052.036-.08c-.029-.01-.062-.033-.089-.027zm2.153-1.529l.02-.026-.014-.024-.006.05zm.012-.216c-.007-.037-.066-.064-.1-.1a.253.253 0 000 .1 1.394 1.394 0 00.095.157.512.512 0 00.005-.157zm4.728-4.685a1.034 1.034 0 00-.178-.078c-.016 0-.047.05-.071.078a1.6 1.6 0 00.189.087c.01.002.04-.057.06-.087zm15.166-15.143l.056.016-.016-.075zm-1.57-3.737a.235.235 0 00-.027.075c0 .009.039.019.061.028a.226.226 0 00.025-.075c-.001-.01-.041-.019-.059-.028zm19.782-5.692a.368.368 0 00-.1.023c.008.025.014.07.026.071a.3.3 0 00.1-.016c-.012-.027-.02-.078-.026-.078zm-6.216-9.609a.967.967 0 00-.168-.073c-.02 0-.051.041-.077.063l.176.086zm-39.248 80.831v-.034l-.018.033zm9.284-2.234l-.029-.018z"/><path d="M158.829 97.907a.3.3 0 00-.282.053c-.282.367-.516.023-.794-.034l.406-.331-.522-.313.583-.758-.534-.626c.03-.161.127-.371.071-.429a1.194 1.194 0 01-.293-.913 1.378 1.378 0 00-.5-1.2l-.392.09-.34-.694c-.465.069-.491-.51-.8-.575-.354.2-.675.354-.966.554-.1.07-.209.279-.173.37.052.133.23.216.369.332a5.748 5.748 0 01-.857.712 3.5 3.5 0 01-.875.243c-.328-.173-.317-.581-.7-.613a.646.646 0 01-.4-.343c-.176-.349-.3-.727-.439-1.084l.669-.376a7.389 7.389 0 00-2.42-.752l-.721.688.323.539-.713.273.384.574c.148.087.306.168.273.439-.247.215-.49.569-.81.664a2.6 2.6 0 01-1.04-.151l-.578.439c-.65-.462-.65-.462-1.455-.213l-.252-.711a3 3 0 01-.614.6.711.711 0 01-.916-.076c-.251.324-.478.661-.748.957-.565.618-1.272.972-1.971.534a2.332 2.332 0 00-1.17-.248l-.074.57-.392-.573.025-.026h-.039a2.337 2.337 0 01-.167-.488 6.9 6.9 0 00-.576-2.676l.522-.323a2.382 2.382 0 01-.408-1.925.986.986 0 00-1.2-1.148 5.241 5.241 0 01-.668.033c-.06 0-.119-.069-.218-.13l-.06-.353c.384-.247.687-.008 1.005.042a.455.455 0 00.506-.349c.036-.761.4-1.533-.062-2.284a.351.351 0 01-.029-.3 1.963 1.963 0 00.1-1.17l-1.327-1.141-.944.066c-.1-.262-.182-.5-.271-.739a.692.692 0 00-.473-.429 3.006 3.006 0 01-.581-.344l-1.557.685-.125.924a3.524 3.524 0 00-.839-.034c-.267.057-.5.3-.767.328-.859.1-1.106.689-1.321 1.4-.2.66-.1 1.338-.24 1.991a37.158 37.158 0 00-.612 6.674c-.041 1.189-.116 2.376-.184 3.564a2.478 2.478 0 01-.106.436 4.727 4.727 0 01-3.006.477 1.283 1.283 0 00-.843.075 8.836 8.836 0 01-2.917.563c-.119.017-.341-.133-.366-.1-.377.52-1.008-.007-1.41.357a1.639 1.639 0 00-1.442.268c-.1.059-.358.041-.4-.029-.253-.4-.437-.007-.6.021l-1.342-.473c.02.028-.039-.026-.063-.093a1.235 1.235 0 00-1.2-.972.755.755 0 01-.482-.248c-.318-.353-.8-.474-1.092-.893a1.653 1.653 0 00-1.248-.67c-.135-.009-.327-.043-.388-.135a1.84 1.84 0 00-1.947-.693c-.157-.248-.251-.537-.449-.667a2.069 2.069 0 00-.74-.175l-.2-.432-1.127.169c-.262-.072-.214-.4-.561-.315-.008.221-.033.464-.02.705.011.22.25.424.1.669-.749-.092-.233-.719-.515-1.022l-.723.182-.016-.258c-.02-.305-.239-.364-.465-.309a.44.44 0 00-.231.318c-.023.16.124.414.053.485-.262.263-.307-.182-.5-.2a1.009 1.009 0 00-.332.025c-.363.086-.378-.25-.554-.46-.3.227-.6.615-1.044.255-.016-.012-.119.058-.16.108-.124.153-.262.295-.468.18a1.277 1.277 0 01-.412-.342c-.105-.145-.129-.355-.374-.33l-.27.329-.367-.572c-.138.067-.246.084-.264.134-.13.359-.356.576-.751.469-.27-.074-.527.4-.783 0a5.851 5.851 0 00-.743.407 2.238 2.238 0 01-.866.381c-.754.174-1.491.422-2.206.631l-.219.644c-.323-.124-.44.142-.623.308a.333.333 0 01-.3.011.421.421 0 00-.512.035c-.342.285-.664.6-1.015.868-.3.23-.291.548-.321.891l-.462-.28c-.526.376-1.113.692-1.229 1.421-.01.063-.088.118-.14.171-.283.291-.568.579-.84.857a1.753 1.753 0 01-.175 1.706 1.412 1.412 0 00-.068.322l.792.208.045.927 1.463.213a3.194 3.194 0 01.3-.492 2.542 2.542 0 01.415-.315l-.055-.79.6.063c.323-.435.657-.876.982-1.323a2.195 2.195 0 011.171-.914.547.547 0 00.16-.114l.178-.652c.3 0 .571.181.781-.088.059-.075.209-.174.254-.149.506.284.842-.025 1.2-.306a.74.74 0 01.7-.241.613.613 0 00.661-.321 5.4 5.4 0 01.4-.445 3.845 3.845 0 00.4.136c.131.03.339-.018.388.053.166.244.325.3.528.077a.392.392 0 01.5-.1.993.993 0 00.857.044 1.735 1.735 0 01.773-.083 2.1 2.1 0 001.391-.307c.079-.047.209-.006.337-.006l.232.663a5.828 5.828 0 001.175.516 8.846 8.846 0 012.437 1.11c.332.173.6.412 1.022.345a.279.279 0 01.312.356c-.048.224.112.319.226.465a4.392 4.392 0 01.358.673 18.938 18.938 0 01-4.508 1.618l-.413.732a1.225 1.225 0 01-.276 0 2.864 2.864 0 00-2.674.563.9.9 0 01-.516.122 3.608 3.608 0 01-.616-.1c-.109.578-.109.578-.861.481-.391.459-.575 1.124-1.273 1.284-.618.141-1.029.932-1.742.551-.3.355-.5.812-.835.942a15.367 15.367 0 00-1.546 1.039 12.393 12.393 0 00-2.265 1.675c.019-.059.036-.117.053-.175l-.081.161a.287.287 0 00.026.015l-.025-.016c.054.05.158.14.154.145-.19.24-.1.688-.549.737-.321.035-.4.305-.481.548-.057.161-.082.333-.146.6-.451-.339-.705-.1-.915.184a1.424 1.424 0 00-.279.595.8.8 0 01-.331.53 9.6 9.6 0 00-.918.975c-.1.108-.255.257-.235.357.107.536-.358.877-.428 1.3-.125.743-.654 1.131-1.062 1.641l.176.561a2.673 2.673 0 00-.53.512 3.876 3.876 0 00-.279.783c-.21.064-.417.063-.48.158a1.442 1.442 0 00-.388.988 1.407 1.407 0 01-.123.855 3.928 3.928 0 00-.236 3.041 20.2 20.2 0 00.83 2.88 16.657 16.657 0 001.147 2.89 5.134 5.134 0 001.259 1.676c.291.223.653.375.564.844.423.465.832.944 1.276 1.388.261.261.627.424.862.7a8.511 8.511 0 003.078 2 7.817 7.817 0 002.024.568c.485.083 1-.058 1.46.26.157.108.433.049.655.051a4.575 4.575 0 01.76-.011 1.821 1.821 0 001.095-.114 2.41 2.41 0 011.311-.134 7.722 7.722 0 001.668-.042 19 19 0 002.4-.531 25.989 25.989 0 005.544-2.34.668.668 0 00.271-.193 2.979 2.979 0 011.392-.987c.138-.327.238-.607.372-.871a.732.732 0 01.7-.477c.521.05.749-.263.9-.658a4.779 4.779 0 011.337-1.886c.015-.072.033-.144.045-.217a10.169 10.169 0 01.248-1.429c.142-.447.847-.469.9-1.055.006-.071.248-.161.386-.173a3.374 3.374 0 01.582.035c.366-.8.7-1.54 1.04-2.27a.686.686 0 01.277-.319c.287-.137.578-.337.571-.63-.008-.335.27-.592.142-.953a.925.925 0 01.416-1.078c.434-.312.843-.6.8-1.217-.006-.084.119-.179.185-.267a5.182 5.182 0 00.892-2.094c.064-.365.149-.726.224-1.089l-.021-.034.111-1.216.39-1.039c-.433-.376-.486-.392-.369-.769.072-.232-.2-.6.158-.675.45-.091.086-.457.285-.616.406-.327.029-.528-.12-.766l.012-.016a2.708 2.708 0 00.009-.756 3.177 3.177 0 00-.409-.694.431.431 0 01-.03-.107l.027.029.144-.12a6.18 6.18 0 01-.162.088c-.267-.411.318-.6.276-.955-.121-.111-.331-.15-.238-.411.2-.558.185-.563-.233-.86-.03-.021-.076-.018-.1-.039a.328.328 0 01.086-.6 4.6 4.6 0 01.753-.188c.294-.053.593-.078.888-.122.879-.13 1.757-.265 2.636-.388.056-.008.123.063.289.155-.113 1.018-.23 2.089-.372 3.149-.232 1.736-.885 3.393-1.035 5.151a1.055 1.055 0 01-.09.323 23.808 23.808 0 01-.961 2.961 2.6 2.6 0 00-.135.542c-.323 1.031-.612 2.075-.993 3.085a4.955 4.955 0 00-.5 2.041.916.916 0 01-.2.6 4.457 4.457 0 00-.978 2.455 3.883 3.883 0 01-.417 1.356c-.372.71-.346.757.16 1.46-.133.118-.391.26-.374.349.064.335-.243.616-.067.971s-.314.5-.347.871a6.142 6.142 0 00.464 2.95 8.85 8.85 0 01.444.991.941.941 0 00.959.788.419.419 0 01.3.253c.143.514.5.611.953.537.219-.035.435-.078.64-.116.788.729.935.538 1.628-.077l.325.385c.583-.206.961-.64 1.52-.782a1.527 1.527 0 00.712-.67c.268-.4.469-.842.975-1.026.116-.042.194-.218.267-.344.223-.386.449-.771.648-1.169a4.642 4.642 0 00.471-1.113 2.534 2.534 0 01.528-1.189c.267-.328.317-.82.733-1.077.1-.063.228-.278.193-.348-.286-.577.325-.744.487-1.109.051-.116.276-.2.267-.29-.056-.537.4-.94.359-1.464a.535.535 0 01.217-.475 1 1 0 00.308-.9 1.275 1.275 0 01.321-1.034c.26-.256.533-.5.807-.755a.765.765 0 01.069-1.113c.231-.231.422-.5.627-.75a1.288 1.288 0 01.712-1.77c.109-.46-.2-.693-.341-.933l.5-1.151.493-.135c-.6-.448-.621-.514-.436-.99.066-.169.195-.35.175-.51a1.252 1.252 0 01.784-1.339c.041-.022.041-.119.059-.182l-.44.038c.023-.237-.027-.494.077-.643a.9.9 0 00.159-1.049c.32-.423-.106-.666-.246-.965.14-.285.535-.473.27-.864l.232-.126c.034-.105.047-.258.114-.289.392-.177.46-.531.537-.887l-.39-.087c.063-.172.223-.4.167-.493-.311-.534.338-.45.427-.712l.09-1.53-.536.112c.285-.5 0-.8-.291-1.076a3.292 3.292 0 00.376-.618 3.6 3.6 0 00.1-.7c.607-.159 1.173-.336 1.751-.451 1.531-.308 3.068-.593 4.6-.877a1.039 1.039 0 01.631-.005c.194.115.3.378.412.531l2.034.6.114.855c.642.636 1.423.353 2.09.547 1.067-.17 2.141-.328 2.659-1.486.018-.039.124-.038.19-.056l.246.4a8.557 8.557 0 001.088-.148c.371-.1.7-.286.607-.763l.715-.249-.2-.967-1.111-.127c.171-.694.167-.682.664-.455a6.67 6.67 0 00.8.245c-.083-.336-.133-.564-.2-.79a.65.65 0 00-.9-.487c-.765.231-.834.194-1.188-.632l.585-.38c-.142-.6-.562-1.039-.3-1.656.213-.509-.247-1.167.274-1.654.092.067.149.106.2.149.274.217.493.182.571-.108.038-.14 0-.307.05-.437a.569.569 0 01.521-.366.44.44 0 01.272.13.209.209 0 01.016.205c-.187.229-.391.444-.589.664h.016c-.2.241-.155.547-.245.8s-.561.41-.448.709c.146.386-.327.468-.253.761l.366.555a2.544 2.544 0 00.7-.045 3.089 3.089 0 00.592-.41c.228.349-.091.807.312 1.039.514-.085.608-.514.727-.917l.56.378v-.5c.024-.327.489-.181.344-.56a.323.323 0 01.091-.3c.572-.336.827-1.015 1.506-1.276-.314-.159-.567-.308-.834-.423zm-58.459-3.426c.016-.059.018-.156.051-.169a2.087 2.087 0 01.339-.086 2.753 2.753 0 01-.227.286c-.027.021-.107-.02-.164-.032zm4.82.537c-.02 0-.051-.046-.077-.072a1.248 1.248 0 01.19-.08c.016 0 .047.05.07.078a1 1 0 01-.183.073zm3.157.208c-.025.022-.111-.027-.169-.043a1.235 1.235 0 01.139-.249c.017-.02.114.03.206.056a1.243 1.243 0 01-.176.236zm4.267 16.64a21.145 21.145 0 01-.425 2.986 15.193 15.193 0 01-1.477 3.967c-.328.564-.6 1.158-.921 1.772l-1.027.15a2.255 2.255 0 00-.374.622 2.659 2.659 0 01-1.332 1.689c-.143.088-.22.284-.327.43l-.618.194-.014-.066.635-.137-.41-.454c-.37.145-.72.3-.641.907a1.17 1.17 0 00-1.172.211 1.169 1.169 0 01-1.189.4c-.2-.062-.311.111-.4.3a.394.394 0 01-.631.19c-.152-.089-.235.024-.3.193-.109.3-.324.218-.526.084l-.015.018a2.813 2.813 0 01-.519-.208 1.058 1.058 0 00-1.062 0c-.557-.132-.861-.82-1.539-.733l-.166-.8c-.458.138-.458.138-.742-.425.272-.379.765-.706.606-1.311a2.862 2.862 0 00.659-1.479.569.569 0 01.307-.311 2.227 2.227 0 00.887-.822 9.779 9.779 0 012.721-2.451 3.312 3.312 0 00.515-.432 11.708 11.708 0 012.327-1.531c1.657-.849 3.264-1.8 4.871-2.745.569-.335 1.069-.785 1.614-1.164a2.61 2.61 0 01.579-.2 6.318 6.318 0 01.107 1.155zm10.72.478c.027.069.055.137.075.208 0 .013-.041.04-.064.061-.037-.042-.11-.092-.1-.125a.426.426 0 01.089-.145zm14.36-21.176l-.194-.062v-.094a.569.569 0 01.185.007c.021.006.007.096.009.149zm1.454 5.059c.032-.056.059-.156.1-.16a1.242 1.242 0 01.3.031 1.687 1.687 0 01-.245.159c-.041.017-.103-.019-.155-.03zm11.08-2.1c-.026.027-.159 0-.194-.038a4.8 4.8 0 01-.292-.431c.361-.216.541-.092.617.21.019.076-.065.192-.131.261zm.375-.714c-.012 0-.018-.047-.028-.072a.333.333 0 01.1-.022c.01 0 .017.049.026.075a.3.3 0 01-.095.021zm1.17 1.127l-.063-.046.136.013zm2.678 9.671l-.322.753c-.223-.423-.223-.423.323-.751zm-.921-3.541h-.863l-.065-.234c.3-.245.554-.585 1.1-.443zm.321-3.285a2.3 2.3 0 01-.208-.2l.194-.114a1.033 1.033 0 01.128.209c.008.027-.106.113-.114.107zm-.106-2.211c-.885.077-1.2-.049-1.312-.66a8.117 8.117 0 00.858.184 4.875 4.875 0 00.729-.046zm.624.449a2.418 2.418 0 01-.2-.348c-.016-.04.046-.146.094-.164a.209.209 0 01.179.065 1.541 1.541 0 01.155.258h-.006l-.221.191zm.291-.19a1.215 1.215 0 01.121-.059c.008 0 .033.037.05.057zm.585 4.981c-.044-.013-.062-.11-.092-.17.058-.019.132-.07.17-.05.055.028.083.107.123.165-.066.024-.14.074-.199.057zm.243-2.333l.48-.113c-.194.285-.341.139-.479.116zm.655 1.145a2.26 2.26 0 01.009-.412c.008-.041.114-.062.176-.092a2.3 2.3 0 01.055.372c.001.033-.106.064-.239.134zm.442-1.339c-.044-.019-.057-.11-.083-.17.056-.013.13-.053.162-.032.053.035.08.111.118.169-.066.016-.144.053-.196.035zm.71 1.939c-.033.016-.1-.047-.155-.075l.078-.147.179.066c-.031.058-.053.137-.101.158z"/><path d="M138.234 112.132l-.029.016v.015zm8.318-19.078c.01 0 .015.009.025.011v-.031l-.017-.006c0 .009 0 .016-.006.025zm.623.861c-.079-.424-.21-.733-.6-.849l.053 1zm1.73-.625l-.028-.019-.033.026zm-.263.187a1.434 1.434 0 01.2-.179l-.652.084c.169.275.299.277.452.095zm9.05-.081a1.426 1.426 0 00.255-.214.25.25 0 00-.4.028c-.022.025-.038.094-.028.1.056.04.141.105.173.086zm-11.134-.366a.664.664 0 00-.131-.644c-.137.323-.228.557.131.644zm8.966 8.254a.534.534 0 00.094.175l.136-.083-.087-.182c-.053.029-.148.066-.143.09zm2.923-.811a.811.811 0 00.077.15l.136-.11a.8.8 0 00-.138-.1c-.017-.008-.079.047-.075.06zm-20.059 11.905c.029 0 .06-.023.09-.035-.023-.049-.033-.121-.071-.142a.406.406 0 00-.154-.033c.021.052.041.1.067.154a.11.11 0 00.068.056z"/><path d="M138.235 112.132l-.034.031.05.005zm-48.004.252a.246.246 0 00-.181.062c-.02.02.031.157.043.156a1.635 1.635 0 00.263-.062c-.055-.076-.085-.152-.125-.156zm48.95-16.886l.4-.006c-.132-.182-.263-.132-.4.006zm.447-.007h-.043c.008.011.016.019.024.032zm-16.539 21.857c.009-.018-.016-.053-.025-.081-.05.055-.1.11-.149.168.096.091.135-.01.174-.087zm-.174.092c-.009-.009-.016-.01-.027-.023s.021.034.02.03zm35.683-20.143a1.221 1.221 0 00.186-.078 1.287 1.287 0 00-.187-.081c-.014 0-.062.052-.062.08s.048.083.063.079zm-57.123 27.817l-.022.206s.015-.018.013-.023c.002-.064.005-.124.009-.183zm7.85-4.995l.073.171c.028-.018.081-.042.079-.053a.9.9 0 00-.059-.155z"/></svg>