<svg xmlns="http://www.w3.org/2000/svg" width="160.4" height="95.34"><path d="M89.509 31.74a.462.462 0 01.038-.214c.1-.153.244-.28.353-.429.045-.062.041-.216.075-.222.318-.05.328-.343.455-.542a.735.735 0 01.148-.172 3.179 3.179 0 00.35-.269 5.752 5.752 0 00.37-.5l-.086-.185a1.564 1.564 0 00.418-.223 6.7 6.7 0 00.514-.661c.178-.242.352-.488.525-.734.149-.211.432-.444.408-.635-.044-.345.176-.447.328-.638a1.6 1.6 0 00.145-.326c.028-.061.053-.152.1-.169.352-.125.312-.466.43-.723a1.125 1.125 0 01.35-.474 1.145 1.145 0 00.57-.622.275.275 0 01.182-.16 5.461 5.461 0 00.629-.057.9.9 0 01.772.147 1.167 1.167 0 001.212-.236 2.156 2.156 0 01.468-.324l.045.54a8.2 8.2 0 00.853-.2 1.191 1.191 0 00.523-.307 5.836 5.836 0 00.439-.737 1 1 0 01.184-.177l.12.052-.1.641a.357.357 0 00.418-.074c.128-.114.28-.3.413-.291.324.017.38-.186.51-.4.18-.29.081-.466-.147-.635-.068-.051-.15-.085-.214-.14-.038-.033-.083-.115-.068-.137a.214.214 0 01.152-.093c.065 0 .131.079.194.075.087-.006.221-.037.244-.095a.38.38 0 00-.007-.324c-.255-.274-.616-.127-.929-.183-.045-.008-.13.072-.156.129-.091.2-.164.412-.272.688-.085-.067-.2-.118-.238-.2-.026-.059.057-.167.119-.318l-.095-.215H99.9v-.068l.228-.069-.06-.193.362.169-.187-.552.4-.288-.581-.093-.142.227-.079-.059c.074-.1.146-.284.224-.287.366-.015.322-.2.237-.36.142-.081.3-.124.38-.229.132-.178-.012-.293-.162-.388a.369.369 0 01-.042-.559.343.343 0 00.107-.2c0-.244.136-.3.345-.293a1.158 1.158 0 00.26-.063 1.939 1.939 0 00-.3-.433c-.2-.159-.435-.268-.646-.413a.186.186 0 01-.045-.177c.106-.183.231-.355.327-.5l-.188-.385-.346.127v-.121h-.268c.068-.214-.119-.08-.172-.126-.129-.117-.253-.239-.379-.359l.057-.092-.713.159.178-.345c-.208-.285-.125-.409.265-.568l-.146-.063.152-.659.374.018-.216-1-.195-.018c.05-.045.168-.128.158-.147a1.536 1.536 0 00-.2-.263l.237-.092-.151-.075c.063-.092.115-.166.164-.243s.085-.148.117-.205a2.635 2.635 0 00-.213-.515.279.279 0 01.016-.41c.094-.1.178-.2.283-.327-.188-.071-.313-.185-.256-.417.013-.054-.045-.147-.1-.19a1.752 1.752 0 00-.249-.161l.154-.557-.075-.018.156-.077c-.316-.282-.621-.263-.831.032-.139-.1-.227-.181-.325-.241s-.207-.1-.31-.155c.094-.011.188-.021.281-.036.015 0 .024-.033.04-.042.24-.139.479-.275.719-.412l-.028-.058h-.543l-.764-.2c.367-.167.472-.358.365-.705-.07-.226-.22-.473-.076-.74.036-.065.005-.166.005-.263l-.173.053-.083-.393-.706.483v-.27c-.334.072-.334.072-.4-.513l-.2.192-.347-.642-.132.2A.527.527 0 0195 5.025c-.022-.042-.155-.051-.229-.036-.161.033-.316.09-.49.141l-.309-.31c-.088.158-.164.317-.26.463-.061.093-.144.222-.232.236-.191.03-.266.065-.305.232-.047.2-.111.4-.174.622l-.421-.24a.08.08 0 000-.051c-.026-.072-.061-.141-.093-.212a.9.9 0 00-.106.213 1.193 1.193 0 00.011.242 1.341 1.341 0 01-.015.424 4.7 4.7 0 01-.284.584l-.494.039-.025.149-.235-.27a6.377 6.377 0 01-.225.64c-.025.052-.152.057-.254.09l.023.476-.455-.31a.646.646 0 01-.6.45l.413.194-.03.106-.525-.1c.078.3-.111.276-.312.2-.12.263-.269.277-.456.105s-.259-.038-.295.135c-.335-.064-.441.035-.464.346a.429.429 0 01-.223.276 1.86 1.86 0 01-.4.069 2.121 2.121 0 00-.294.114c.063.095.121.193.19.283a1.624 1.624 0 00.166.161l-.339.2c-.3.065-.334.134-.17.519-.41.163-.438.46-.088.935.355-.266.355-.266.545.089a2.588 2.588 0 01-.313.079c-.288.036-.4.187-.307.517a2.851 2.851 0 00-.373-.037c-.135 0-.271.031-.405.048l.066.388a.828.828 0 01-.01.12l-.6-.134-.285.339.045-.222-.061.064-.323-.218-.21.234.166.269-.412.307.051-.52-.093.067c-.132-.2-.257-.4-.4-.584a1.363 1.363 0 00-.23-.2l-.046.059.211.313-.542.1-.011-.078-.375.336h-.824c-.007.116.018.221-.022.267a2.542 2.542 0 01-.4.35c-.014.011-.157-.088-.153-.125.038-.318-.176-.393-.432-.469l-.327.417a.89.89 0 00-.859-.136.662.662 0 01-.209.084c-.335.041-.671.072-.92.1l-.21.222c-.056.058-.115.115-.168.175a1.1 1.1 0 00-.239.295 2.357 2.357 0 00-.059.514c-.083-.1-.124-.121-.131-.153-.042-.2-.049-.434-.3-.492-.194-.044-.4-.042-.6-.07-.18-.026-.359-.062-.588-.1l-.254.141a6.414 6.414 0 01.185.649.277.277 0 01-.12.233.351.351 0 01-.269-.039.928.928 0 01-.2-.2l.165-.2c-.448-.106-.662-.474-.93-.774-.1.062-.146.2-.341.1-.175-.088-.269.1-.269.281 0 .066.037.138.019.2-.053.179-.033.3.161.387a.251.251 0 01.119.4.728.728 0 01-.84.207c-.193-.117-.391-.225-.588-.338l-.18.233-.21-.226-.236.13c0-.058-.031-.13-.007-.166.05-.072.141-.186.192-.176a.423.423 0 00.546-.4.245.245 0 00-.1-.154c-.12-.093-.25-.171-.417-.282a.483.483 0 00-.131.118 2.052 2.052 0 00-.141.335 2.35 2.35 0 01-.223-.323c-.094-.215-.241-.269-.425-.125a2.32 2.32 0 00-.251.293l-.388-.226.15-.151c-.236.031-.3.16-.235.384.139.51.333-.126.5.04-.015.589.488.135.735.38l-.143.52c-.187.023-.271-.418-.378-.115-.167-.007-.306-.016-.444-.019-.348-.008-.7-.013-1.133-.021-.312.271-.312.271.023.546l-.571.364a1.146 1.146 0 01.837.88c.241 0 .4-.3.637-.1-.193.5-.193.5-.028.753.31-.24.376-.214.452.172a1.979 1.979 0 01.549-.034c.4.088.392.106.361.329l-.147-.044a.7.7 0 00.891.091l.12.253.24-.206a1.291 1.291 0 001.476.5c0 .271.13.364.387.27.043-.016.126-.03.136-.014.2.343.358.055.483-.012.14.052.242.091.344.126s.217.061.318.107c.265.121.526.252.791.373a.418.418 0 00.151.009l.763.017a1.8 1.8 0 01.337.008 3.773 3.773 0 01.416.14c.082.028.184.03.242.082.2.177.394.278.593.13a2.33 2.33 0 001.476.434l-.33.387.166.085a1.858 1.858 0 00-.149.492c0 .223-.1.355-.291.243a.185.185 0 00-.3.066.394.394 0 00-.05.323c.044.077.2.089.328.139l-.176.341.052.51c-.356.081-.389.109-.361.411l-.489-.484-.22.39-.312.1.018.116.643.06a.5.5 0 01-.585.348c-.224-.058-.205.041-.213.2.3-.054.278.124.257.317l-.292.115-.162-.55c-.215.443-.207.459.259.755a2.131 2.131 0 01-.281.451 7.643 7.643 0 01-.666.525l-.043-.055.111-.2-.254-.22a3.7 3.7 0 00-.369.547.418.418 0 00.052.36c.042.055.213.018.325.011a.707.707 0 00.163-.052.756.756 0 00-.358.783.486.486 0 01-.406.554.327.327 0 00-.128.11c-.078.092-.15.189-.225.284-.074.152.012.408-.346.388-.046 0-.149.135-.143.2a1.311 1.311 0 01-.339.941c-.055.071-.034.2-.047.3v.042l-.228-.03.03.089c-.12.053-.244.1-.358.162-.069.037-.182.13-.174.146.142.275-.19.3-.239.477-.017.063-.1.138-.08.176a2.28 2.28 0 01.055.784c-.1.015-.241-.007-.294.051a4.788 4.788 0 00-.306.457 1.19 1.19 0 01-.2.179l-.064-.05c-.168.275-.168.275-.113.679.03.215-.205.714-.347.711-.248-.005-.279.162-.236.325.049.189.136.357-.083.495a.148.148 0 00-.035.1c.317.183-.022.461.093.677.015.028-.07.142-.13.174-.3.152-.6.29-.9.433l.151.279-.22-.144a2.764 2.764 0 00-.287.438c-.052.123-.1.348-.041.4.214.182.083.293-.01.413-.079-.021-.181-.072-.2-.05a.808.808 0 00-.193.314 5.609 5.609 0 00-.078.628c-.628.035-.178.505-.319.684h-.552a1.807 1.807 0 00.028.512c.087.251.306.223.52.126a.8.8 0 01-.732.693.953.953 0 00-.814.684 1.811 1.811 0 01-.151.341l-.083-.03v.889l-.435.042a1.573 1.573 0 01.047.324c-.031.5-.076 1-.115 1.5-.012.166-.04.311-.261.216l-.113.285-.216-.1c-.235.139.144.762-.487.529l-.161.5h.57l.239 1.058-.089.026-.182-.341c-.09.214-.036.515-.411.408a1.266 1.266 0 00-.045.36.446.446 0 00.158.289 1.873 1.873 0 00.505.186c.155.04.234.09.174.27a.231.231 0 00.07.21.325.325 0 00.5-.2c.036-.095.088-.184.134-.28a.4.4 0 01.26.52c-.028.087-.167.132-.227.217-.135.19-.253.393-.4.624.417.36 1.039.286 1.61.478l-.266.129a2.446 2.446 0 00.393.306.758.758 0 00.439.1 1.773 1.773 0 01.979-.033.706.706 0 00.522-.021c.176-.1.077-.322.017-.487a.361.361 0 00-.139-.164.508.508 0 01-.28-.54l1.045-.088.135-.488.14-.038c-.061.264-.041.46.245.379.27-.076.4.016.371.368a6.59 6.59 0 00.624-.28 3.045 3.045 0 00.4-.325 2.285 2.285 0 00.44-.39c.087-.127.066-.321.125-.473a.44.44 0 00-.351-.668c-.039-.009-.1.007-.118-.015-.05-.052-.129-.133-.116-.178a.459.459 0 01.171-.269c.307-.166.2-.352.059-.554a.966.966 0 01-.074-.133c-.08-.163-.127-.3.14-.338a.519.519 0 00.221-.145c.087-.074.157-.215.249-.228a.448.448 0 00.387-.606c-.068-.337.158-.456.291-.612 0-.144-.007-.266 0-.386a7 7 0 00.057-.743c-.007-.194.145-.568.334-.618a.423.423 0 01.286.056.773.773 0 00.726-.093c.272-.216.572-.4.861-.595a.168.168 0 01.058-.014c.23-.044.46-.1.691-.132a6.248 6.248 0 001.641-.79.474.474 0 00.25-.305c.035-.356.366-.445.562-.5.386-.11.567-.3.576-.581.125-.121.189-.19.26-.25.187-.159.373-.321.568-.47.166-.127.361-.234.135-.492.4.072 1.2-.757 1.566-1.312l-.5-.221c.2-.112.342-.2.494-.278.035-.018.124 0 .126 0 .045-.233.265-.2.41-.288a2.567 2.567 0 00.581-.418c.311-.33.589-.691.878-1.041.2-.247.477-.449.5-.815a.289.289 0 01.143-.217c.492-.15.5-.673.786-.982zm8.728-14.941l.415.364-.327.18-.139-.494zm-2.294-9.616c.025-.045.162-.029.337-.052l-.277.434-.13-.041a1.1 1.1 0 01.07-.34zm-1.4-1.51c-.2.167-.2.167-.484-.085.193-.264.193-.264.486.084zm-.8 1.611c-.347-.182-.665-.346-.638-.783a.836.836 0 01.645.783zm-3.19 2.118l.3.531-.067.065-.33-.2-.437.369c-.06-.414.44-.422.54-.766zm-13.911 6.677a1.139 1.139 0 01-.2.1 1.637 1.637 0 01-.014-.222 1.442 1.442 0 01.042-.2l.428.1c-.076.071-.158.153-.25.221zm2.306-.083c-.12.035-.294.1-.36.048s-.06-.238-.084-.37l.778-.1.135.251c-.158.059-.307.126-.463.17zm.294-1.017l.56-.091a.334.334 0 01-.553.09zm2.19.58a.78.78 0 01-.805.032c-.117-.1-.036-.314.155-.38a1.716 1.716 0 01.283-.045 1.315 1.315 0 00.076.146 1.29 1.29 0 00.1.122l.418-.232.015.093a4.742 4.742 0 01-.236.263zm1.573-.03l-.546-.651.484-.071.306.55zm5.136-4.445a.854.854 0 01-.327.315 1.312 1.312 0 01-.464.011l-.032-.549.355.11c-.028-.171-.054-.327-.078-.484a3.066 3.066 0 00.308.145c.117.04.241.06.362.088a1.421 1.421 0 01-.118.364zm.695-1.709c.324-.118.456 0 .441.47h.168l.038.073-.374.227zm30.147 40.484c-.069-.2-.789-.327-.993-.186l-.082-.433-.136.016-.064-.073c.548-.07.916-.286.784-.87l-.341-.365c-.605-.151-.729-.332-.519-.879-.237-.165-.711-.134-.765.071-.1.384-.284.15-.457.075l.678-.408-.027-.059-.269.024c.01-.429-.33-.048-.419-.18l.009-.189a1.569 1.569 0 01-.432.075.908.908 0 01-.457-.167c-.284-.239-.481-.238-.724.064-.027.034-.057.068-.085.1l-.042-.027.245-.778-.2.136-.085-.335a1.529 1.529 0 00-.15.312c.33.284-.082.344-.13.555l-.3-.669.176-.248-.08-.055-.379.453-.2-.122c-.095.074-.2.2-.24.18-.194-.078-.006-.162.016-.249a.628.628 0 00.014-.259c0-.026-.1-.046-.158-.05-.253-.017-.506-.029-.789-.044l-.061.1c-.208-.138-.2.071-.257.165-.158.272-.334.5-.684.384l-.167-.417c-.735.209-.735.209-.869.442-.1-.245-.427-.406-.545-.258a1.041 1.041 0 01-.81.334 6.566 6.566 0 01-.949-.044 5.692 5.692 0 01-.434.484c-.117.1-.212.046-.215-.11a2.774 2.774 0 01.048-.355l.149.381a1.458 1.458 0 00.258-.287.232.232 0 00-.068-.22 1.017 1.017 0 00-.318-.068c-.2-.075-.271.3-.558.129a2.032 2.032 0 00-.568-.143l-.229-.422-.063.014.057.378c-.166.018-.345-.012-.452.06a1.019 1.019 0 01-.656.177c-.011 0-.012-.065-.03-.092-.061-.1-.127-.189-.193-.284l-.215.158.143.19-.1.065a1.249 1.249 0 01-.134-.263c-.064-.263-.085-.285-.324-.217l.109.245-.3-.057.217.4c-.1-.005-.178-.008-.259-.015-.106-.01-.213-.021-.318-.036s-.187-.036-.28-.054c.107-.376.1-.421-.061-.452l-.177.54-.3-.246.268-.045c-.046-.085-.066-.176-.119-.206a.8.8 0 00-.259-.045c-.037.429-.188.019-.291.04-.255.281.29.23.2.447-.2-.073-.2-.073-.631.263l-.13-.192c-.093.35-.668-.115-.58.493-.24-.2-.414-.466-.632-.509-.276-.054-.275-.554-.692-.348a1 1 0 01.167.217.482.482 0 01.016.253c-.005.026-.107.057-.158.049-.237-.037-.471-.088-.706-.134.07-.327.041-.364-.171-.307l-.026.4a2.292 2.292 0 01-.562-.094 2.75 2.75 0 01-.47-.323c-.037.089-.053.246-.132.29a2.155 2.155 0 01-.478.122.784.784 0 00-.167.09l-.527-.216c-.255.149-.338.147-.586-.032-.047-.034-.123-.1-.146-.084-.275.167-.364-.12-.533-.208-.01-.005-.028 0-.048.008l.029.193c-.291.13-.62-.353-.851.171a1.538 1.538 0 00-.238-.369c-.112-.091-.324-.221-.39-.177a5.515 5.515 0 00-.682.623c-.036-.142-.125-.288-.087-.381a4.014 4.014 0 01.394-.612 1.374 1.374 0 00-.423-.224.374.374 0 00-.312.194.674.674 0 01-.471.568c-.442-.1-.373-.557-.6-.83l.559-.357c-.185-.552.364-.43.559-.639l-.392-.4.091-.14-.245-.049.052-.435-.085-.012c-.09.128-.265.263-.254.382.029.3-.11.3-.341.284a1.612 1.612 0 01.17-.428c.134-.168.069-.295 0-.455-.042-.1-.071-.289-.019-.333.222-.183.251-.37.074-.652l-.353.336-.03-.655-.108-.019a4.675 4.675 0 00-.167.721.626.626 0 01-.253.538l-.162-.817h-.048l-.078.323-.189-.052c.085-.182-.169-.457-.44-.455l.144.365-.25-.111c-.072.285.318.5.094.773l.465.4c-.25.15-.559.089-.781.259-.018.014-.074-.031-.112-.031-.248.005-.5.016-.743.025l-.024.1c.344.212.043.657.352.892.03.022-.005.179-.052.243-.182.244-.035.263.168.32.305.087.6.222.95.358a1.893 1.893 0 00-.262.253c-.106.166-.282.346-.275.514a2.936 2.936 0 00.228.906c.039.1.213.152.332.217.064.034.158.027.207.073.106.1.18.235.289.331.282.25.282.239-.026.47-.077.057-.181.2-.159.241a.613.613 0 00.269.193c.135.064.281.1.452.167l-.286.392.942-.073c-.1.3.026.438.265.562a3.031 3.031 0 01.489.389c-.17.122-.246.43-.089.561.269.224.552.433.83.648l-.118.041a1.123 1.123 0 00.01.39c.04.1.1.3.307.157.016-.011.127.056.125.083-.022.376.3.541.494.761s.388.557.79.51a.082.082 0 01.061.048c.076.229.266.268.469.3a.46.46 0 01.222.1c.26.228.5.478.769.7.252.205.525.386.8.567.1.068.233.095.334.165.25.176.477.383.736.543.13.08.327.052.46.13.221.13.337.486.7.293 0 0 .031.047.054.066a2.089 2.089 0 001.374.552.554.554 0 01.3.113 2.109 2.109 0 001.567.37c.049-.006.109.066.163.1l.5.341c.007-.484.348-.5.578-.487s.433.227.385.583c.262-.215.315-.009.378.116.1-.016.19-.061.23-.032.238.174.476.081.718.03a.5.5 0 01.264-.011 2.98 2.98 0 001.149.224c.646.006 1.29.122 1.936.161a11.275 11.275 0 001.785.031c.542-.053 1.159.1 1.6-.392.031-.035.125-.02.189-.018.554.023 1.12.075 1.412-.557.157-.342.392-.377.743-.29a1.307 1.307 0 00.753-.081 4.568 4.568 0 00.784-.5c.049-.034.12-.1.112-.142-.074-.371.283-.448.459-.6a6.249 6.249 0 011.025-.593c-.083-.182-.076-.308-.124-.407a.7.7 0 00-.235-.273c-.285-.188-.2-.272.059-.389.348-.156.352-.307.063-.6a.332.332 0 01-.077-.123c-.059-.174-.112-.35-.179-.564l-.382.284.1-.38-.31.071c-.179-.26-.172-.273.122-.329.2-.038.394-.085.428-.295.365-.155.575.4 1 .175l-.308-.134.386-.481-.055-.052.314.015a5.134 5.134 0 01.007-.591c.01-.082.152-.161.142-.228a2.432 2.432 0 00-.167-.466c.021-.053.104-.163.079-.235zm-28.191-3.6l.526-.129c-.178.347-.24.366-.526.125zm3.143 1.451c-.216.042-.438.054-.724.085.1-.154.129-.28.2-.31a1.791 1.791 0 01.5-.1c.039 0 .123.093.123.141-.001.061-.052.17-.101.179zm21.782 4.631a.659.659 0 01-.389-.108l.456-.159c-.03.12-.051.261-.067.262z"/><path d="M119.356 36.636a.167.167 0 00.028-.142c-.069-.234-.147-.466-.229-.719l-.2.068a1.942 1.942 0 01-.077-.3.477.477 0 01.034-.261c.118-.217.053-.368-.2-.448-.28-.088-.556-.189-.834-.285v.078a1.2 1.2 0 01-.472-.054c-.058-.032-.033-.275.011-.4.029-.081.162-.124.249-.183.04-.027.1-.042.117-.079.077-.144.141-.3.182-.383h.439l-.1.284c.075.051.158.153.236.15a6.077 6.077 0 00.818-.1c.043-.008.078-.108.1-.172a.66.66 0 00.065-.271.7.7 0 00-.12-.351c-.041-.05-.183-.035-.276-.022-.144.02-.285.063-.427.1-.114.042-.277.135-.333.091a3.866 3.866 0 01-.464-.5l.055-.041.2.085-.128-.34c.509-.116.177-.622.408-.819l-.515-.152.027-.091.78.175.094.408.253-.207v.652l.294.177c.055-.1.1-.263.162-.271.35-.044.329-.349.478-.559l-.25-.113.226-.2-.066-.078-.4.3a2.192 2.192 0 01-.5-1.5l.471-.143c-.06-.089-.158-.134-.175-.114-.238.3-.442.112-.557.021h-.734v.077l.2.041c.029.34-.13.46-.467.43l.046-.625.06.044c.158-.184.318-.368.473-.554.007-.009-.023-.048-.049-.1l-.106.092-.373-.541-.2.14c-.167-.183-.288-.063-.432.023a4.113 4.113 0 01-.707.351c-.047.017-.219-.145-.229-.236s.106-.2.176-.318l-.063-.265-.352.171-.049-.059.064-.179-.242-.324c-.48-.036-.543.306-.529.716l-.078-.04-.181-.6-.077.016.127-.258h-.866a.246.246 0 01-.088-.013l-.733-.3c-.1-.044-.241-.166-.3-.135-.18.094-.237-.021-.336-.113a1.731 1.731 0 00-.286-.183l-.234.169-.438-.478c-.367 0-.979-.424-1.173.457l-.139-.421-.208.064-.274-.362-.2.161-.189-.377-.078.127c-.178 0-.361-.054-.481.01-.322.172-.175-.2-.221-.212a5.147 5.147 0 01-.51.2 1.389 1.389 0 01-1.085-.384 2.7 2.7 0 00-.2-.232l-.171.253-.395-.113-.058.448-.234-.562-.35.277.045-.241-.046-.017-.227.436-.083-.017-.107-.811c-.173.259-.3.308-.747.178-.1-.03-.166-.208-.233-.3l-.237.148-.139-.618-.117.031a.981.981 0 01.082.275c0 .059-.077.173-.111.169-.19-.019-.378-.065-.581-.1l.085-.4-.049-.01-.051.2-.588.075c-.1-.061-.178-.155-.269-.165-.3-.032-.6-.022-.9-.051a3.048 3.048 0 01-.476-.13l-.257.48c-.1-.029-.121-.016-.369.274l-.1-.3c-.034.37-.272-.223-.294.14l-.508-.142.094-.541-.076-.016-.075.169-.481-.253c-.033.159-.148.177-.288.011-.165.308-.068.7-.386.921l.125.1-.588.093-.474-.293-.056.08.889.663-.219.178a.951.951 0 00.152.1c.3.133.606.261.931.4-.107.116-.186.168-.216.241-.16.379-.158.382-.481.22-.03.067-.056.187-.087.188a.819.819 0 01-.43-.047.9.9 0 00-.81-.146c-.25.085-.312.213-.177.416.118.177-.006.523-.22.535-.258.013-.223.148-.232.325a6.2 6.2 0 01-.121.733c.033.04.136.106.146.183a1.8 1.8 0 00.985 1.334c-.274.152-.273.4-.032.593a.894.894 0 01.351.424 1.006 1.006 0 001.263.822 2.128 2.128 0 00.33-.131 13.256 13.256 0 001.132.817c.169.1.46.125.472-.243 0-.027.069-.051.12-.086.017.118 0 .265.046.289.261.135.538.237.808.354.136.059.315.09.394.195.156.206.315.18.527.141.12-.022.336.03.379.114a.541.541 0 00.561.311c.025 0 .05.023.1.05l-.126.082c.2.352.538.149.809.167.176.011.3-.037.444.152.094.127.344.14.525.2.06.021.122.034.182.056.143.052.285.107.393.148.062.082.1.192.175.22.224.086.459.137.688.209.093.03.218.052.265.121.282.412.72.32 1.09.294.5-.036.8.115.885.566a3.973 3.973 0 00.5.166c.252.047.563.171.756.075.457-.228.787-.014 1.156.163.246.119.505.212.758.319a2.342 2.342 0 01.671.3 1.3 1.3 0 001.356.393c.265-.088.53-.181.79-.284.331-.133.48-.081.645.239a.584.584 0 01-.947-.054c-.024.165-.077.3-.043.33.138.106.319.264.454.24.249-.045.561.1.757-.184.012-.019.1.028.158.025.184-.007.427.086.434-.246 0-.039.067-.076.1-.115l.034.021-.1.3a3.6 3.6 0 00.956.025c.314-.078.737-.038.883-.469.011-.034.078-.065.122-.071.374-.044.495-.31.582-.626a1.229 1.229 0 01.206-.3c-.16-.07-.311-.172-.072-.384zm-1.361-5.74l-.51-.122c.447-.255.497-.24.51.123zm-16.814-3.523h-.451l-.017-.044.359-.09-.166-.3c.07-.006.183-.052.255-.016.294.148-.07.303.02.451zm9.178.687c-.115-.241-.477-.177-.4-.468l.4-.07zm-14.04-.768l-.044-.083-.934.321c.109.135.194.253.293.358.08.087.17.211.267.223a.419.419 0 00.331-.139 2.979 2.979 0 00.366-.651 1.513 1.513 0 00.041-.449l-.119-.02z"/><path d="M120.001 34.089v-.384l-.415.163c.3.138.048.3.03.432l.23.133-.486.078c.259.093.516.212.588.008.061-.172.129-.165.244-.195.056-.014.1-.071.2-.144zM92.157 6.524a1.98 1.98 0 00.116-.424c0-.058-.142-.185-.16-.174-.253.141-.421-.011-.594-.15-.195.588.311.559.638.748zm-18.434 8.162a.308.308 0 00.215-.047c.131-.068.253-.152.454-.276-.071-.056-.15-.168-.233-.172a.83.83 0 00-.386.107.331.331 0 00-.152.2.217.217 0 00.102.188zm18.736 30.153a4.276 4.276 0 00.6-.157c.045-.018.032-.18.049-.3-.305.062-.649-.053-.649.457zm24.043-16.756l.1-.037c-.059-.126-.084-.3-.183-.369a.375.375 0 00-.553.03l.486.038zm-19.491 3.328l-.377-.087-.021.212.379.02zm-19.049-4.492a1.483 1.483 0 00.246-.236l-.4-.09a1.092 1.092 0 00-.028.279c.005.023.142.071.182.047zM160.4 41.904l-.361-.13c.3-.351-.072-.438-.254-.612l.181-.06-.068-.5-.18-.1.25-.24c-.4-.2-.4-.2-.351-.351l.263.166.207-.476-.382-.14c.021-.5-.387-.7-.551-.964l-.592.109-.017-.1.235-.058-.084-.266c-.213-.11-.376-.208-.551-.28a.837.837 0 00-.268-.018 1.052 1.052 0 00.066.309c.043.078.143.123.23.192-.243.339.145.4.258.575l-.227.424a2.2 2.2 0 01-.312-.2c-.117-.1-.216-.23-.353-.381.071-.2-.327-.359-.2-.7.053-.139-.24-.409-.394-.649l-.24.483.454.167-.257.109.2.24-.182.31c-.2-.126-.592-.167-.247-.546.009-.011 0-.04 0-.059.009-.34.031-.681.02-1.021 0-.087-.1-.182-.177-.25-.024-.021-.126.02-.174.056-.107.08-.2.175-.332.291-.12-.306-.223-.493-.444-.285a61.07 61.07 0 00-.4-.388c-.23-.228-.4-.186-.55.095a2.369 2.369 0 01-.366.407c.068.191.287.309.411.214.237-.181.29.012.352.123a2.163 2.163 0 01.138.461.9.9 0 00-.781.158.787.787 0 01-.376.2c-.032.009-.116-.166-.172-.258-.034-.057-.058-.12-.088-.179l-.046.011.031.4h-.071l-.04-.36a.693.693 0 01-.949.174l-.164.339-.048-.072c-.167.121-.344.232-.5.367-.1.087-.151.241-.259.308a.555.555 0 00-.283.722.273.273 0 01-.04.184 2.052 2.052 0 00-.393 1.568c.022.081-.1.192-.117.3a1.025 1.025 0 00-.007.455c.055.172.094.287-.085.415a.678.678 0 00-.19.335c-.12.363-.012.765-.216 1.126a.486.486 0 00.052.639c.114.1.235.195.327.271l-.126.365c-.192-.109-.264-.044-.369.177-.18.378.042.855-.32 1.175-.024.022.009.1 0 .148a3.249 3.249 0 01-.112.4c-.027.07-.111.123-.127.193-.109.492-.209.985-.307 1.48a.644.644 0 000 .227 1.73 1.73 0 01.093.519c-.085.485-.216.962-.334 1.441a.24.24 0 01-.089.12c-.443.326-.316.688.068 1.013a1 1 0 01-.068.185.386.386 0 01-.117.1c-.373.252-.417.412-.249.863a.277.277 0 010 .2c-.1.171-.213.331-.324.5l.269.11.034.087a2.641 2.641 0 00-.4.2.7.7 0 00-.2.267c-.046.1-.039.216-.08.315-.126.3-.02.475.312.5.066.005.133 0 .2 0l.059.081-.435.491c-.178.2-.465.258-.55.615-.061.256-.188.432.088.622-.108.031-.237.032-.257.079a6.3 6.3 0 00-.306.852c-.026.1.089.315.077.32-.253.1-.052.257-.077.361a1.376 1.376 0 01.238-.118c.019-.005.076.073.094.12.11.282-.211.265-.269.427a.917.917 0 01-.078.271c-.018.043-.055.084-.058.128-.021.246-.029.494-.049.741a.763.763 0 01-.056.3c-.115.207-.255.4-.384.6-.07.107-.135.217-.205.33l-.276-.158c-.114.231-.232.435-.315.652-.038.1.036.277-.019.322-.331.27-.325.676-.458 1.026-.094.244-.184.471.121.571l-.165.561h.306l-.175.773-.319-.156c-.2.32-.377.633-.585.924a.747.747 0 000 .817c.01.01 0 .037.006.069l-.205.1c.063.093.163.173.167.256a9.45 9.45 0 01-.018 1.179c-.017.184-.091.455-.221.517-.269.129-.37.15-.506.444-.024.051-.071.135-.1.132-.322-.037-.318.269-.452.424a3.492 3.492 0 00-.241.352h.052l-.051.431c.373.028.4.08.247.569l-.382-.292c-.06.052-.149.094-.176.159-.151.381-.287.769-.43 1.16l.329.152-.108.128-.161-.013-.353.584-.289-.534c.267.617-.249.945-.475 1.366l-.183-.154-.064.041.117.379.22-.15-.033.53c-.214.025-.424-.169-.625.025-.177.171-.208-.19-.39-.131.044.179.19.406-.122.418l-.255-.449-.094.025c0 .068-.029.171 0 .2.283.23.155.479.057.757-.276-.151-.4-.073-.477.222-.054.2-.151.368-.017.583.048.077-.023.227-.034.344-.007.084-.006.169-.01.282l-.535.409-.059-.261c-.083 0-.159-.006-.235 0a1.361 1.361 0 00-.531.076 1.054 1.054 0 00-.3.421c-.1.178-.193.29-.343.1-.205.142-.229.464-.5.46a3.944 3.944 0 01-.735-.146l-.1.359a1.24 1.24 0 01-.3.018.991.991 0 01-.247-.125c0 .074.022.15-.005.2-.047.085-.119.211-.192.219a1.288 1.288 0 00-.8.412v-.625a1.175 1.175 0 01-.2.217 1 1 0 01-.243.073c.207.284.176.366-.109.477a5.2 5.2 0 00-.581.312l.132.29-.22-.112-.028.378-.274-.177-.052.237c-.293-.274-.505-.265-.7.024-.323-.152-.384.071-.409.27a1.03 1.03 0 01-.353.061c-.093-.02-.168-.121-.286-.215a1.942 1.942 0 01.011.291 1.969 1.969 0 01-.075.277c-.276-.483-.335-.5-.686-.2l-.157-.254c-.2.263-.381.5-.554.737-.013.019.035.081.075.171.042-.088.055-.168.087-.176a.887.887 0 00.481-.329c.129-.155.2-.134.349-.017l-1.041 1.157-.945-.547.08.389-.416-.023a1.962 1.962 0 00-.3-.269c-.054-.034-.162.017-.245.03a.739.739 0 00.119.2c.067.058.166.078.235.133a.166.166 0 01.05.149c-.028.054-.134.13-.146.12-.261-.2-.31.061-.41.184l-.7-.344a.236.236 0 00.071.214c.16.123.317.208.066.428-.094.083-.048.327-.075.578l-.417-.275v-.3l-.4.3-.12-.569h-.081l-.116.807-.263-.338.223.01.051-.07-.293-.305-.184.538c-.08.021-.314-.008-.114.318h-.818l.137.272-.8.182-.217.53a14.61 14.61 0 01-.025-.219l-.434-.035c-.05.154-.1.3-.154.469l-.175-.206v.381l-.4-.4-.078.056.25.475-.35-.148c-.058.171-.182.057-.269.051-.136-.008-.3-.111-.4-.063a.726.726 0 00-.373.371.585.585 0 01-.618.408 3.515 3.515 0 01-.755-.1l-.078.252-.271-.182a2.208 2.208 0 01-1.195.635c-.032.247-.131.353-.406.247-.12-.046-.289.035-.4.053l-.23-.362-.131.432.3-.133-.255.537c-.3-.257-.3-.256-.546.046a.925.925 0 01-.163.119c-.039.031-.1.069-.1.1a.2.2 0 00.094.118c.151.1.153.094.03.257-.283-.2-.437-.21-1-.034v.419c-.083-.032-.183-.109-.24-.084s-.1.146-.1.229c-.015.138 0 .279 0 .419 0 .193-.072.3-.32.192l.183.572.391-.218-.171-.048.015-.043.378.124.133-.164c.366.229.407.334.293.687-.012.038.027.1.009.128a1.348 1.348 0 01-.289.355.38.38 0 01-.312-.025 3.946 3.946 0 01-.444-.294l-.2.212-.333-.234-.506.346.36.143v.088l-.519-.03.119.223-.576.282c-.073.03-.135.168-.191.165-.3-.013-.265.19-.24.358a3.472 3.472 0 00.164.664c.024.068.149.1.227.148q.231.146.46.294l-.129.073a2.284 2.284 0 00-.013.524c.016.087.156.149.238.225.1.1.176.273.365.112.016-.014.121.043.154.089.1.146.16.346.294.445a3.752 3.752 0 00.693.345 4.966 4.966 0 01.78.35c.269.185.5.35.827.144a.459.459 0 01.145-.039l.555-.132.02-.1c.092.109.193.212.276.327a.759.759 0 001.248.107c.47-.029.867.3 1.34.261.256-.023.515-.024.772-.043s.523-.043.783-.078c.2-.027.4-.066.6-.112.086-.021.164-.1.248-.1.222-.015.446 0 .669-.005a.536.536 0 00.523-.225c.1-.148.46-.167.7-.161.189.005.323.031.475-.129.1-.107.357-.212.453-.157.519.294.912-.07 1.327-.229.288-.11.519-.366.871-.191a.378.378 0 00.238-.02 5.982 5.982 0 01.972-.282c.233-.026.3-.222.459-.281a6.791 6.791 0 01.857-.21 1.417 1.417 0 00.885-.371.711.711 0 01.7-.25c.523.09.845-.362 1.306-.4.016 0 .021-.057.04-.078.222-.237.432-.492.819-.43a.273.273 0 00.2-.112.627.627 0 01.742-.265.586.586 0 00.329-.058c.259-.094.51-.211.77-.3s.527-.137.772-.246a16.47 16.47 0 001.151-.576c.636-.342 1.26-.709 1.9-1.036.212-.107.372-.191.3-.466a5.961 5.961 0 00.653-.222c.224-.1.429-.248.642-.374a4.388 4.388 0 01.461-.271 2 2 0 001.086-1.09c.128-.316.2-.418.541-.456a3.464 3.464 0 00.807-.177 2.663 2.663 0 00.533-.339 1.412 1.412 0 00.25-.194 4.7 4.7 0 01.355-.415.8.8 0 01.506-.276c.214-.01.517-.087.462-.458l.23.055-.047-.425c.2-.1.467-.156.585-.322a1.161 1.161 0 01.384-.373 1.187 1.187 0 00.292-.174q.519-.541 1.015-1.1a1.741 1.741 0 00.182-.366l.121.008-.058-.051.617-.783a.077.077 0 00.073-.1c-.085-.281.005-.442.284-.561.168-.072.408-.151.37-.439-.006-.041.1-.09.133-.146.192-.286.378-.576.566-.865a.032.032 0 000-.028c-.137-.209.054-.223.182-.289l-.125-.219c.387-.149.416-.586.671-.814.272-.243.213-.486.175-.76a.26.26 0 01.01-.057c.23-.038.415-.157.3-.431s.026-.42.227-.555c.031-.021.08-.067.074-.081-.122-.287.146-.251.3-.317l-.127-.221c.065-.094.111-.153.15-.218.108-.182.213-.367.319-.551a1.173 1.173 0 00.177-.315.762.762 0 01.378-.6 1.059 1.059 0 00.12-.084l-.093-.153.257-.645-.172-.085a1.541 1.541 0 00.1-.49c-.022-.123-.146-.229-.207-.317l.454-.539-.337-.647.312.1c.134-.328-.024-.709.257-.981a2.4 2.4 0 00.262-.389 2.259 2.259 0 00-.2-.169 1.814 1.814 0 00-.232-.123l.225-.261.292.434.216-.349-.376-.117.707-.584c-.079-.1-.176-.21-.262-.331a.58.58 0 01-.051-.168c.307-.071-.013-.2.053-.346l.347-.282-.129-.19c.286-.128.2-.269.052-.432-.043-.049-.037-.14-.054-.212h.213c.012-.141.039-.31.039-.479 0-.467.111-.626.527-.778a.926.926 0 00.27-.216c.105-.1.2-.2.305-.305.045-.046.086-.1.129-.144a1.059 1.059 0 01-.179-.111 2.422 2.422 0 01-.386-.4 1.2 1.2 0 01-.075-.412c.061.009.252.017.255.043.026.271.2.129.3.147-.039-.3-.094-.569-.106-.845-.011-.258-.039-.549.325-.623l-.171-.121.322-.275-.407-.048.1-.232.483.246.051-.083-.243-.266a2.181 2.181 0 01.166-.35c.121-.168.38-.24.346-.516a.108.108 0 01.052-.09c.321-.08.021-.192.016-.284.233-.034.441-.093.485-.338l-.393-.018.006-.089.386-.159c0-.423-.387-.886.241-1.136l-.379-.411a1.583 1.583 0 00.492-.149c.257-.195-.125-.279-.1-.464l.528-.841.34.109.046-.075c-.094-.085-.2-.251-.277-.237a1.729 1.729 0 00-.473.3l.15-.354-.177-.1.286-.1-.26-.119.01-.03.365.037.066-.086-.513-.594.5.079-.4-.406.409-.172-.2-.081.27-.012.076-.651-.295-.112c.147-.113.316-.182.38-.305a1.144 1.144 0 01.476-.463.228.228 0 00.079-.2c-.028-.083-.115-.145-.177-.216-.048.057-.1.111-.142.172s-.091.145-.167.268c-.051-.11-.123-.2-.1-.234.177-.33-.059-.43-.289-.543l.478-.4-.3-.625.482-.375c-.181-.171.182-.577-.2-.745l.5-.608-.335-.164.35-.836-.468.126-.022-.085.394-.089-.441-.174c.427-.145.527-.39.32-.727l.318-.066-.016-.082-.214.026-.109-.228c.222-.12.223-.217-.007-.428l.34-.641-.377-.231a.833.833 0 00.117-.9l.357-.187c-.119-.082-.323-.192-.311-.223a2.571 2.571 0 01.272-.46l-.218.025a.509.509 0 00-.214-.728c-.057-.034-.06-.179-.063-.274 0-.044.057-.089.095-.145l.116.2.291-.222-.261-.5.279-.026-.159-.085.3-.039zm-36.047 15.404c-.066.137.055.392.142.567a3.8 3.8 0 00.391.532l-.305.036a1.18 1.18 0 00-.013.4c.142.414.309.818.476 1.223.023.055.1.087.156.128a1.729 1.729 0 01.861 1.132 1.167 1.167 0 00.72.875 1.763 1.763 0 01.6.394c.361.367.423.385.862.186.049.07.081.166.145.2a3.607 3.607 0 001.473.528 3.911 3.911 0 011.215.065.679.679 0 00.721-.254 3.594 3.594 0 01.736-.544l.066.072a.623.623 0 00.034-.234c-.073-.281.074-.292.279-.25a.312.312 0 00.12.013c.094-.019.226-.119.233.063 0 .092-.09.2-.156.281a.991.991 0 01-.211.15c.309.027.443-.034.469-.309a1.053 1.053 0 00-.309-.773c-.215-.278-.632-.443-.486-.939a.9.9 0 01-.257.128c-.059.005-.179-.064-.175-.085.02-.127.03-.3.115-.365a1.3 1.3 0 01.614-.293 1.533 1.533 0 00.878-.232l-.176-.1.381-.174c-.062-.11.267-.1.075-.261a1.333 1.333 0 01-.2-.282l.258.024c-.188-.148-.273-.152-.431-.052a.365.365 0 01-.084.024l-.434.133.018.063-.49-.149c.156-.153.34-.256.393-.406a5.063 5.063 0 00.05-.64c.047-.226-.052-.319-.238-.313-.214.007-.236-.1-.255-.269-.01-.088-.064-.218-.13-.243a3.266 3.266 0 00-.528-.11 3.212 3.212 0 00.057-1.549c.187-.164.363-.317.536-.473a.1.1 0 00.012-.08c-.034-.137-.072-.273-.11-.413l.232-.036-.192-.115.438-.431-.058-.011.241-.641c.029-.222-.379-.24-.295-.551.069-.257.235-.419.43-.412.08-.153.117-.322.185-.335.191-.037.142-.12.117-.247a.98.98 0 01-.015-.453c.024-.079.184-.117.3-.183l-.174-.182.136-.369.257-.06-.236-.11.228-.064c-.187-.2-.207-.332.06-.346-.03-.058-.091-.15-.08-.159.135-.117.281-.222.425-.33l-.166-.206.362-.388-.047-.05.41-.019c-.087-.455-.379.015-.488-.115l-.074-.469.413-.032c.049-.381-.084-.807-.206-.859-.03-.31.162-.42.46-.423l-.184-.378.508.128.037-.1-.269-.171c.019-.059.076-.146.054-.179-.249-.366.013-.453.284-.586l-.489.023.41-.181-.159-.084.177-.115-.233-.069c.145-.03.145-.03-.016-.791l.218-.078a4.6 4.6 0 01-.137-.474c-.029-.166-.028-.336-.045-.573l.122.292c.4-.089.566-.316.47-.649s-.2-.651-.291-.965c-.226-.012-.437.231-.609-.028.083-.229.6-.065.4-.5-.426.326-.418-.161-.588-.324l.322-.124v.274c.325-.1.575-.455.947-.221l.156-.248c-.43.077-.322-.3-.414-.426l.333-.368c.051-.057.089-.137.151-.172.351-.193.353-.19.149-.627a.736.736 0 00-.058.2 1.016 1.016 0 00.056.218.931.931 0 01-.344.027c-.111-.035-.2-.144-.358-.269-.126.183-.214.432-.387.531-.2.115-.293.247-.3.361l-.5.176-.236-.816-.224-.062c-.2-.489.1-.7.389-.927a.631.631 0 00.075-.819c-.034-.059 0-.163.017-.24a.822.822 0 01.1-.18l-.064-.067c-.078.043-.159.083-.235.131a1.46 1.46 0 01-.327.208.273.273 0 01-.245-.11c-.081-.2-.271-.224-.42-.309-.069-.039-.221-.058-.25-.02a6.2 6.2 0 00-.375.6l-.382-.861-.124.274-.323-.5v.492c.1.043.177.081.26.11l.052-.11.138.2-.557.114c.028.108.048.19.078.3-.579-.2-.954-.156-1.068.065l-.7-.856-.043.115a2.452 2.452 0 01-.331 0 .547.547 0 00-.606.234c-.131.227-.265.239-.45.048-.219.267-.506.468-.35.869.025.065-.04.17-.076.251a.507.507 0 00.2.68 1.85 1.85 0 01.3.433l-.312-.03-.27-.235-.073.076.251.276-.65.961c-.168 0-.39-.044-.416.008-.1.2-.4.3-.277.611.035.086-.075.225-.105.344-.081.322-.326.568-.269.969a3.444 3.444 0 01-.215 1.108c-.275-.137-.29-.134-.445.078a1.368 1.368 0 00-.178 1.119c.021.111.044.222.074.371l-.454-.206a1.747 1.747 0 01.121.5c-.023.244-.124.48-.156.724a3.879 3.879 0 00-.028.847c.007.068.22.115.339.172-.086.215-.086.215-.311.065-.407.386-.465.493-.255.764s.043.486.016.73a1.124 1.124 0 00.034.47 2.942 2.942 0 00.274.492l-.24.2-.288-.433-.162.852.283-.177c.018.107-.015.222-.052.224-.32.014-.256.251-.292.447-.051.29-.127.576-.193.865l.127.036-.232.5.283.134-.393.323.047.388.11.021c-.034.1-.119.218-.088.276a.377.377 0 01-.094.5.328.328 0 00-.041.231c.054.531.152 1.061.166 1.593a2.37 2.37 0 01-.033 1.2zm9.7-16.729c-.007-.01.073-.117.111-.117.061 0 .16.042.174.088.082.265.15.533.207.8.009.038-.069.095-.151.2l.048-.51-.4.164c-.023-.05-.094-.131-.076-.177.057-.142.216-.261.085-.448zm-5.188-.449c.035.024.032.1.046.156l-.15-.062-.069.237-.069.01-.188-.59c.147.081.291.156.428.249zm4.357-3.67c.1-.093.3-.2.31-.315.017-.276.153-.635-.251-.784l-.181.547c-.165-.475-.424-.175-.682-.2l.152.382c.486-.36.384.232.652.37z"/><path d="M136.4 40.672a.805.805 0 00.974.188 1.574 1.574 0 00-.966-.762c-.132.214-.172.399-.008.574zm-1.975-3.29a.466.466 0 00.27-.116c.073-.067-.182-.676-.281-.7-.016 0-.037.021-.053.018-.094-.019-.187-.043-.319-.074-.182.279.008.544.087.784a.957.957 0 00.296.088zm-3.176-.311a1.01 1.01 0 00.251.105l.3-.377a.464.464 0 00-.534-.162c-.082.026-.19.134-.192.206s.099.169.175.228zm7.482 40.018c.1-.253.191-.495.284-.737-.5.334-.508.335-.7.107-.106.185-.106.185.416.63zm-2.888-32.406a.233.233 0 00.187.091c.057-.013.1-.1.134-.148l-.417-.289.26-.089-.274-.235-.056.059.141.207-.229-.022c.082.14.157.291.254.426zm-1.915 15.852c.049.006.144-.006.146-.022a.276.276 0 00-.018-.2 3.61 3.61 0 00-.31-.315l-.166.458c.144.036.245.065.348.079z"/><path d="M133.748 60.002v-.011l-.009.006zm25.085-3.086c.072.088.134.2.159.191a1.58 1.58 0 00.293-.16 1.253 1.253 0 00-.25-.215c-.026-.013-.118.106-.202.184zm-28.304-19.84c.063.045.123.091.226.168l.078-.137.071-.124-.537-.088a.4.4 0 00.162.181zm27.888 21.505l.365.058.042-.305-.089-.068zm-4.386-20.705c.06-.026.095-.111.14-.17l-.051-.038-.145.086-.094-.293-.084.013a1.71 1.71 0 00.049.349c.015.036.137.073.185.053zM30.53 1.641h-.005zM61.633 61.83l-.23-.252.251-.354.123-.039c0-.194-.05-.436.009-.466.322-.165.25-.377.139-.574l.2-.213-.246-.131c.388-.27.286-.6.076-.875.144-.084.252-.141.35-.209a.528.528 0 00.1-.126.461.461 0 01-.127-.073 1.65 1.65 0 01-.13-.191l.067-.048-.245-.094.011-.029.3.027.108-.512-.492-.028.436-.253-.27-.109.26-.049c-.228-.147-.279-.481-.645-.451a1.863 1.863 0 01-.669-.216l.017-.068.7-.13v-.085l-.16-.071.366-.564.3-.032-.31-.526c.152-.111.413-.2.062-.455l.465-.263-.094-.276-.342.237v-.763c.315.09.41.013.4-.257-.25-.008-.549-.12-.568.342l-.105-.058.058-.625c-.11-.112-.1-.287.035-.488.055-.08.037-.21.052-.318l-.154-.028-.14.546-.332-.162.389-.5-.241-.073c.033-.081.11-.2.088-.226a1.254 1.254 0 00-.287-.167.507.507 0 00-.06-.66 1.5 1.5 0 01-.2-.307 1.012 1.012 0 00-.146-.137l.173-.1a2.337 2.337 0 00-.435-.463c-.135-.079-.333-.04-.5-.08-.071-.017-.175-.1-.177-.155a.369.369 0 01.124-.236 2.564 2.564 0 01.356-.232l-.423-.153-.031.085.267.121c-.056.035-.09.068-.1.062-.167-.1-.332-.212-.517-.332l.254-.1-.087-.024v-.487l-.558-.165.135-.121c-.1-.151-.165-.28-.395-.284a.551.551 0 01-.39-.311 3.9 3.9 0 01-.148-.776l-.542-.143.141-.245a3.236 3.236 0 00-.178-.3c-.029-.04-.1-.09-.134-.08-.156.04-.307.1-.388.13l-.062.252-.049-.025-.115-.468-.083.011.2-.162c-.173.108-.313-.034-.425-.075.027-.141.1-.271.062-.358-.136-.326-.425-.154-.686-.149.141-.332-.147-.21-.258-.277l.083-.246-.66-.234.095-.479-.291.107-.869-1.047-.183.26c-.013-.354-.063-.364-.7-.155l.2-.3c-.094.012-.129.02-.165.021-.257 0-.316-.067-.38-.338-.017-.071-.13-.141-.213-.167a1.26 1.26 0 00-.316-.023c-.028-.1-.026-.226-.079-.257-.3-.173-.168-.353 0-.537a.627.627 0 01-.145-.083c-.358-.391-.357-.392-.68.013-.023.029-.04.062-.026.041a1.379 1.379 0 01-.207-.061c-.039-.019-.088-.057-.1-.094a.538.538 0 01.016-.17l-.359-.126-.215.263c.026-.541-.563-.294-.681-.626l-.036.311h-.091l-.118-.679-.318-.118c.055-.148-.062-.1-.128-.149a1.989 1.989 0 00-.656-.266.171.171 0 01-.073-.042c.117-.336-.185-.208-.288-.266l.23-.351-.068-.074c-.108.249-.227.411-.464.14-.038-.043-.169-.006-.252-.006l.043-.337c-.18-.109-.5.1-.454-.285l-.331.092a.962.962 0 00-.34-.293 3.241 3.241 0 01-.482-.29 1.414 1.414 0 01-.21-.391c-.2.464-.349.521-.734.352l-.241.26-.059-.048.072-.082-.291-.243.531-.446-.461-.136.087-.374c-.193 0-.4-.011-.61.007-.06.005-.159.089-.162.142-.014.221 0 .221-.212.221-.062-.286.158-.636-.17-.878l-.322.215c-.06-.062-.133-.1-.15-.16a1.463 1.463 0 01-.021-.314l-.273.012c.051-.3-.1-.466-.526-.571l.111-.4-.155.086-.039-.056.179-.121c.084-.057.207-.1.248-.176.24-.47.461-.95.7-1.458l-.352-.113c.091-.4.363-.083.473-.129l.227-.324-.231-.359a.843.843 0 00.272-.132 5.207 5.207 0 00.623-.757 6.506 6.506 0 00.4-.909c.009-.022-.031-.061-.04-.095-.057-.215-.112-.431-.183-.706.294.086.5.361.636.07.15-.018.322 0 .335-.045.032-.1.032-.27-.03-.319a.259.259 0 01-.02-.419c.372-.138.25-.386.212-.607l-.675-.1v-.086l.854-.264-.093-.21h.446v-.029l-.194-.042c.223-.017.385-.1.342-.347-.055-.318-.289-.041-.449-.106l.513-.339a3.443 3.443 0 01-.334-.214 3.594 3.594 0 01-.293-.311 2.161 2.161 0 00-.179.405c-.036.172-.172.281-.312.208-.105-.056-.212-.109-.26-.133l-.132-.325a2.19 2.19 0 00.351-.444 2.255 2.255 0 00.1-.568l-.053-.021-.893 1.387.243-.06c-.1.418-.516.2-.727.393-.009.009-.115-.055-.112-.073a.48.48 0 00-.17-.486c-.062-.054-.1-.234-.116-.229a1.532 1.532 0 00-.317.133l.018.1a.983.983 0 01.36.135c.078.075.083.226.121.343l-.1.033-.112-.3c-.332.273-.6.186-.77-.272a1.011 1.011 0 00-.1.182c-.005.019.065.052.065.08s-.034.072-.053.108l-.221-.12-.311.538c-.028-.018-.082-.049-.131-.087s-.091-.08-.135-.121a1.624 1.624 0 00-.014.208c0 .1.021.2.029.285l-.251-.216c-.042.078-.082.159-.129.235-.015.024-.052.033-.075.053a3.629 3.629 0 00-.483.429 7.421 7.421 0 00-.432.676c-.015.024-.052.056-.071.052-.349-.08-.268.236-.364.394-.208.053-.42.1-.625.166a.355.355 0 00-.172.155c-.275.472-.273.473.19.813a.875.875 0 00.134.067l-.033.119c-.1.005-.2.006-.295.018a1.288 1.288 0 00-.314.061 3.364 3.364 0 00-.386.222c.042.415-.427.621-.677.949-.33.435-.4.622-.02.98-.338.045-.593.5-1.015.194l-.011.14-.079.026c-.042-.1-.072-.264-.128-.274-.3-.05-.319-.255-.361-.489l-.039.336-.225.027-.383-.223-.117.29-.531-.377.036-.348h-.048l-.115.31-.078-.029-.125-.336-.088-.01c.219.5-.048.8-.415 1.151a61.622 61.622 0 01.052-.683l-.317.079c-.06-.086-.105-.22-.177-.237a1.057 1.057 0 00-.489 0 .556.556 0 01-.638-.27c-.019-.049-.05-.092-.12-.221a.876.876 0 01-.159.55c-.23-.219-.409-.2-.58.035l-.081-.428-.067.012.018.225-.065-.055-.312.234-.08-.16h-1.354c0 .013-.008.078-.022.225l-.57-.386-.081.292-.043-.156-.419.053-.021-.125.389-.126-.165-.23c.074-.108.208-.259.189-.282-.264-.317-.026-.472.151-.591a1.936 1.936 0 01-.352-.178c-.033-.025.04-.164.008-.219-.15-.26-.319-.51-.494-.783.361-.1.475-.5.847-.57-.3 0-.379-.13-.523-.4-.179-.333.115-.494.058-.67l-.294-.445-.539-.1.781-.14-.209-.3.181-.033a7.4 7.4 0 01-.034-1.31l.387-.192.033-.166c-.5.333-.4-.159-.607-.279l.221-.1v-.984l-.535-.358.5-.029-.122-.292.09-.015a1.21 1.21 0 01-.157-.315c-.008-.042.109-.119.18-.162a.979.979 0 01.852-.006c.094.028.229.1.279.06.2-.155.409-.074.61-.041.3.049.589.134.832-.141.03-.033.121 0 .171-.029a1.676 1.676 0 00.327-.2 1.622 1.622 0 00.2-.255 1.018 1.018 0 001.312.5.712.712 0 01.516-.041.531.531 0 00.417-.062.478.478 0 01.616-.144.522.522 0 00.641-.108c.118-.14.167-.11.273 0 .143.147.325.33.534.216.309-.169.618.023.928-.07.228-.068.431-.08.491-.368a.355.355 0 01.241-.218c.248-.035.26-.177.23-.367a.725.725 0 01-.026-.3c.07-.234-.032-.311-.259-.3l.061-.326c.172.149.368.244.441.4.1.22.2.18.345.084a2.3 2.3 0 01.285-.124c-.218.352.1.243.2.335a1.765 1.765 0 00.03.3.6.6 0 00.39.485c.364.11.542-.054.538-.432a.886.886 0 01.2-.495c.039-.051.273-.035.343.031a6.156 6.156 0 01.516.621c.094-.169.178-.3.245-.444a.773.773 0 01.934-.185c.019.018.019.054.036.075.041.052.085.144.13.145.369.012.778.1.947-.385.015-.043.068-.1.1-.1.344-.019.47-.3.64-.544l.278.307a.577.577 0 01.585-.734l-.278.994.4.089-.145-.248c.316.036.563-.106.861.063a1.215 1.215 0 00.766.005 1.9 1.9 0 011.1-.1 1.647 1.647 0 00.642.055c.355-.024.709-.085 1.083-.132.077-.069.191-.159.291-.264a.977.977 0 00.236-.3c.079-.22.145-.23.311-.065s.847-.022.933-.234.2-.428.305-.638c.016-.031.078-.039.094-.047l.069.638c.185.009.3.019.416.018.239 0 .5.12.7-.122.037-.043.2-.057.221-.025.233.3.379.111.51-.091.038.022.063.028.069.043.055.116.048.325.254.246a.5.5 0 00.291-.275c.092-.44.139-.889.2-1.345.535-.061.535-.061.546-.219l-.577-.3.756-.517-.049-.094-.421.086c.1-.926.1-.926-.349-1-.029.209-.264.43.118.607a6.339 6.339 0 01-.568.585.319.319 0 01-.514-.248 1.6 1.6 0 00-.121-.34l-.1.027-.065.468a.655.655 0 01-.267-.022c-.077-.04-.117-.149-.172-.225l-.142.212c-.005-.311-.111-.373-.364-.2a.966.966 0 01-.915.148c-.083-.03-.182-.013-.269-.037a2.867 2.867 0 01-.3-.113c.132-.155.208-.256.3-.345a.207.207 0 01.143-.064.352.352 0 00.387-.242c.025-.126-.089-.383-.188-.41a5.832 5.832 0 00-.948-.113c.025-.123-.046-.2-.231-.145s-.292-.036-.4-.173a1.087 1.087 0 00-.348-.329c-.312-.146-.391-.062-.4.291 0 .193.027.447-.246.481-.046-.2-.087-.386-.143-.639l-.661.333c.042-.268-.064-.4-.376-.443-.068-.01-.173-.008-.2-.047-.193-.348-.315.132-.48.036a1.008 1.008 0 00-.119.313c-.008.241-.218.4-.418.276-.286-.182-.554-.39-.841-.6l-.3.365-.133-.243c-.151.255-.3.152-.514-.06a4.425 4.425 0 00-.333.751c-.014.057.232.18.4.3-.124.253-.554.3-.617.651 0 .008-.088 0-.058 0l-.339-.749-.062.052a1.934 1.934 0 00-.242-.291c-.09-.074-.244-.183-.311-.152a1.036 1.036 0 00-.318.326.646.646 0 00-.065.209 1.291 1.291 0 01-.175-.25c-.021-.052.025-.13.029-.148l-.64-.045.015-.022-.472.067-.473-.733c-.048.037-.148.075-.164.135-.048.174-.056.36-.093.538-.027.131-.074.259-.112.388a.6.6 0 01-.217-.075 1.619 1.619 0 01-.245-.3.805.805 0 01-.066-.2c-.376.048-.353-.259-.385-.435l-.425-.116-.838.519-.491-.692v.753l-.452.071-.352-.295.026-.422h-.429l-.1-.285c-.091.194-.047.284.209.563a2.214 2.214 0 01-.78 1.363l-.025-.206-.109.718-.107-.005a.973.973 0 01-.029-.383c.089-.242.229-.465.34-.7a.525.525 0 00.026-.179 2.785 2.785 0 00.034-.561 1.308 1.308 0 00-.183-.453 1 1 0 00-.2-.206l-.015.1-.225-.238-.051.04.094.2a2.635 2.635 0 01-.95-.334l.207.3-.1.129a1.273 1.273 0 00-.3-.1c-.145-.006-.363.086-.425.02-.238-.256-.491.012-.743-.064-.206-.062-.476.085-.746.146l.1-.373c-.125.155-.19.3-.292.337-.065.021-.185-.126-.295-.208l-.206.1.005-.093-.406-.075-.44 1.17c-.026-.052-.047-.187-.116-.219-.2-.091-.234-.191-.1-.363a.172.172 0 00.017-.143c-.03-.076-.065-.174-.127-.208a.616.616 0 00-.679-.018l-.1-.285-.283.222a2.14 2.14 0 00-.164-.5.233.233 0 01.06-.356 2.323 2.323 0 00.147-.564c-.018-.159-.025-.32-.038-.5-.2-.02-.347-.239-.311-.612l.289.141.351-.225-.248-.391c.177-.151.339-.294.3-.465l-.5-.141c.146-.2.232-.327.457-.208.151.08.282-.084.246-.268-.061-.323-.118-.646-.169-.922l.3-.346-.17-.292.407-.234-.095-.048.083-.647-.405-.117c.415-.089.607-.325.5-.635a2.012 2.012 0 01-.06-.363c-.051-.161-.141-.389-.289-.438s-.352.086-.543.143l-.024-.207.868-1.48-.051-.05-.6.2a4.764 4.764 0 01-.07-.577c0-.05.116-.1.18-.154l.051.073-.069.235c.308 0 .6-.006.895 0a.213.213 0 00.224-.294c-.022-.066-.065-.183-.048-.194.266-.165.073-.345.016-.509l.245-.234c-.346-.064-.244-.216-.1-.359-.321-.145-.6-.243-.826.118-.03.047-.189.053-.268.023-.283-.107-.45-.268-.211-.582a.692.692 0 00.074-.257l.854-.223v.494l.336-.074-.2-.388c.412.225.327-.059.4-.2-.343-.016-.3-.191-.2-.4l.218.057.041-.082c-.143-.07-.331-.234-.422-.192-.252.118-.4-.084-.673-.065l.2-.121-.037-.339-.554.056-.031-.451c.408.089.523-.012.523-.454l-.166.207c.2-.5.2-.527.014-.662-.112.255-.2.265-.383.1l-.675.175c.016.2.033.4.047.6.005.082 0 .164.005.246-.084-.04-.23-.067-.241-.122-.061-.289-.274-.247-.45-.209-.281.06-.594.106-.658.483-.008.043-.095.066-.124.111-.117.18-.361.419-.313.54a2.251 2.251 0 01.045.968c-.009.366-.24.343-.452.418-.106.038-.264.1-.284.174-.045.177-.1.446 0 .545a4.369 4.369 0 00.83.543c-.019.147-.042.408-.092.665-.012.059-.129.15-.18.14-.3-.058-.529.273-.837.134-.018-.008-.07.059-.106.092-.087.078-.175.156-.261.235-.135.126-.38.205-.31.434.036.119.227.182.323.292a.86.86 0 01.182.331c.023.084-.025.187-.055.36l-.545-.317c-.218.16-.269.4-.115.548a5.036 5.036 0 01.5.561.327.327 0 01.035.256c-.012.041-.186.082-.191.073-.179-.352-.438.02-.645-.069-.018-.008-.1.061-.1.1a4.018 4.018 0 00-.054.727c.017.259-.052.36-.312.361a.258.258 0 00-.193.114.587.587 0 00-.066.6c.017.03-.047.15-.06.148-.316-.051-.342.23-.443.4a3.786 3.786 0 00-.179.5 2.868 2.868 0 00-.306.737.5.5 0 01-.12.35.454.454 0 00-.065.625l.472-.049.025.414-.084-.053a2.8 2.8 0 00-.774.444 2.57 2.57 0 00-.336.8c-.043.111-.08.224-.12.334l.083.14-.44.357-.083-.281-.4-.046c-.172.079-.332.216-.479.2a.362.362 0 00-.4.161c-.026.04-.132.026-.218.039l-.061.232-.06-.011.043-.38-.042-.011-.114.252-.267-.346a3.165 3.165 0 01-.415.183.85.85 0 01-.4.039c-.207-.043-.4-.164-.609-.189-.127-.016-.268.087-.413.14-.122-.234-.37-.151-.6-.07s-.446.186-.664.279l-.026-.08c-.37.372-.645.378-.855.034-.2.223-.621.3-.442.781l-.613-.091c-.176.825-.463.035-.657.076l-.137-.407-.421.42.022-.322a1.161 1.161 0 01-.306.166c-.242.041-.489.049-.734.075-.341.036-.287.328-.328.54s-.124.32-.3.265l-.111-.5-.081-.013-.179.526c-.116-.17-.47-.017-.4-.434-.306.1-.574.162-.823.272a3.781 3.781 0 00-.534.353 3.032 3.032 0 01.037.472 4.507 4.507 0 01-.109.586c-.12-.089-.274-.149-.276-.215a2.559 2.559 0 01.076-.526.732.732 0 00-.187-.073c-.138-.019-.312-.069-.408-.007-.068.043-.062.259-.027.38.023.078.157.124.231.177l-.091.422-.431-.065.126-.211-.1-.079a2.524 2.524 0 00-.4.485c-.115.237-.2.183-.292.046a.32.32 0 00.011-.247 3.786 3.786 0 00-.257-.286c-.145-.18-.281-.367-.409-.536l-.3.522a.617.617 0 00-.913-.209l.163.4.21-.2a2.631 2.631 0 00.038.382c.128.482.131.482-.305.558-.015 0-.035-.016-.059-.027l-.031-.231c-.082.152-.146.279-.217.4a1.566 1.566 0 01-1.177.638 1.181 1.181 0 00-.336.122c-.24.137-.47.291-.66.409-.016.13-.024.242-.045.351-.044.229.036.312.269.269l.548-.1.2.927a.927.927 0 00.289-.035c.117-.059.313-.165.305-.228-.041-.31.155-.348.371-.41.049.12.089.23.14.334.026.054.1.144.108.138a.6.6 0 00.193-.141.684.684 0 00.077-.181c.145.042.373.053.393.122.071.258.267.28.431.338l.246-.313c.083.089.142.209.214.218.3.034.627.193.885-.117a.094.094 0 01.083-.011c.4.147.8.3 1.2.445a1.1 1.1 0 00.279.032c.317.022.7-.057.934.09a2.183 2.183 0 00.766.358c.369.071.714.305 1.1.075a.628.628 0 01.145-.053c.065.092.1.2.156.212.232.067.472.108.71.156.164.034.329.064.494.1.117.024.251.1.347.068a1.638 1.638 0 01.97.026 4.9 4.9 0 001.132.1 3.365 3.365 0 001.06-.111 1.661 1.661 0 01.88-.087 1 1 0 00.241.007c.553-.031 1.105-.077 1.658-.091a5.142 5.142 0 01.715.073l.28.753.117.006c-.062.069-.112.168-.19.2-.166.07-.318.484-.173.549.323.145.154.367.135.563s-.162.19-.258.093c-.254-.26-.3-.119-.323.138-.012.116-.083.227-.092.344a.947.947 0 00.041.388c.038.106.16.181.2.287a.5.5 0 01.045.36c-.042.074-.218.073-.388.121a1.3 1.3 0 01-.006.392c-.15.5-.155.489.363.685.087.033.15.2.172.309.016.082-.054.18-.086.271-.087-.035-.173-.073-.261-.106-.065-.025-.132-.047-.2-.07a.707.707 0 00-.033.2c.01.085.058.165.076.251.047.218.19.442-.137.6-.244.119-.214.362-.173.606.059.348.077.7.107 1.057.019.23-.1.476.144.675a.6.6 0 01.225.411 2.471 2.471 0 01-.209.556c-.145.447-.277.9-.414 1.348v.029c.331.223-.005.3-.1.425l.131.172-.037.063-.468-.149-.22.282a.408.408 0 00-.52-.179c-.154.1-.331.279-.464.253-.21-.042-.346.083-.519.1h-.135l.072.25-.36-.027-.312-.221-.049.059.162.163-.147 1.033-.09.027-.314-.637a1.008 1.008 0 01-.215.079.872.872 0 01-.219-.023 1.866 1.866 0 00-.022.3 3.005 3.005 0 00.074.359l-.873-.367-.19.312.065-.012.1.551-.648-.453.005.09c-.154.042-.348.164-.453.11-.274-.139-.139.231-.295.2l.05.122c-.131.075-.347.133-.359.219a1.458 1.458 0 00.127.518l.194.07-.066.244-.391.018c-.065-.08-.131-.218-.181-.213-.162.018-.214-.042-.291-.174a.378.378 0 00-.359-.06c-.153.074-.332.186-.309.411a3.419 3.419 0 00.08.373.542.542 0 00-.61.252c-.042.063-.084.144-.147.173-.159.075-.33.125-.457.171l-.323-.352-.236.488c-.224-.119-.175.1-.192.178-.054.236-.089.458-.355.575a.958.958 0 00-.307.312c-.022.028.013.115.041.164a2 2 0 00.152.21l-.215.126-.259-.444-.173.725c-.194-.036-.36-.117-.423-.068a1.383 1.383 0 00-.253.4l.06.018.225-.128a1.372 1.372 0 01.047.283c-.195.073-.248.408-.557.286a.4.4 0 00-.351.1c-.05.057.018.224.042.34a.937.937 0 00.061.162l-1.086.221.294.531-.776.089c.163.2.408.328.081.487l.216.236a.5.5 0 01.61-.045 1.861 1.861 0 01-.276.129c-.229.064-.284.624-.671.238-.006-.006-.037.02-.054.017-.278-.047-.416.182-.658.3l.461.331-.628 1.547.214.086-.271.166c.313.236.09.446-.043.744l.416-.1.165.366-.325.265-.115-.127c-.272.395-.73.369-1.1.553l.1.251-.352-.075.178-.243a1.117 1.117 0 00-.286-.047 2.357 2.357 0 00-.351.1c.033.112-.167.3.1.342a.626.626 0 01-.021.141c-.305.013-.373.2-.338.4l-.357-.221c.313-.217.256-.445.109-.706l-.152.3-.165-.137c-.048.115-.082.21-.129.3-.02.037-.071.059-.107.088.044.052.1.158.129.15.3-.089.169.2.255.312l-.633-.061a3 3 0 00.1.853c.09.222-.022.325-.11.443-.037.051-.19.027-.289.02-.142-.012-.284-.039-.469-.066.183.437.135.6-.154.76-.253.136-.5.277-.776.429l-.143-.169c-.089.129-.154.242-.236.34-.143.171-.112.283.095.355.064.022.125.052.232.1l-.614.659.392.291c-.025.141-.06.276-.072.414-.02.223-.021.447-.038.67-.012.165-.1.158-.229.1a2.073 2.073 0 00-.37-.087c-.061.2-.113.351-.151.5a1.165 1.165 0 00-.094.521c.041.146.229.252.356.38-.1.139-.1.417-.4.383-.02 0-.063.037-.064.057a7.468 7.468 0 000 .947c.013.125.126.2.005.366a.832.832 0 00-.1.762 1.766 1.766 0 01.089.816c-.03.2-.105.495.137.549.019.191.021.321.046.447.112.554.24 1.105.346 1.661a7.683 7.683 0 00.708 2.146c.078.148.154.3.23.445h-.078c.06.187.128.376.178.57a6.144 6.144 0 00.16.713 8.646 8.646 0 00.454.946c.107.2.215.427.52.37a2.12 2.12 0 00.5 1.344c.336.315.4.9.845 1a6.168 6.168 0 00.514.529c.161.13.4.182.528.332a2.424 2.424 0 001.505.831.382.382 0 01.167.1 1.171 1.171 0 001.268.2c.234.333.319.026.464-.135l.61.425c.058-.276.263-.236.458-.188.137-.666.143-.672.514-.693.064.149.095.351.17.37a3.55 3.55 0 00.776.071c.134 0 .366-.012.386-.073.072-.22.2-.132.338-.075l-.055-.106.758-.476-.035-.209.21.026c.084-.185.029-.495.333-.414l.054.358a4.163 4.163 0 00.781-.141c.5-.191.979-.461 1.487-.638s.83-.662 1.376-.746c.009 0 .016-.014.026-.016.54-.157 1.079-.317 1.62-.468a4.214 4.214 0 001.276-.364c.4-.277.929-.159 1.249-.544.009-.01.039 0 .06 0a5.44 5.44 0 001.925-.7 8.016 8.016 0 00.9-.639c.2-.13.438-.206.654-.317.115-.058.272-.114.317-.212.106-.233.3-.3.5-.4.182-.088.4-.18.368-.458a.124.124 0 01.055-.1 6.32 6.32 0 01.485-.214.612.612 0 00.386-.723c.118-.078.234-.156.353-.231.471-.3.857-.637.767-1.279-.009-.064.146-.16.235-.227s.19-.1.277-.165c.049-.035.073-.135.118-.141.252-.035.281-.21.229-.391a.411.411 0 01.162-.469.949.949 0 00.236-.4c.081-.261.375-.455.57-.317-.233.141-.123.274.012.4a.793.793 0 00.19.134c.229.11.245.265.048.424a.313.313 0 00-.121.178c-.04.549-.035.68.58 1.048l-.295.41a1.948 1.948 0 00.4.179c.333.063.363.1.232.405a.506.506 0 00.223.689c.273.143.5.752.369.9a.283.283 0 00-.047.365c.185.344.325.737.721.871l-.047.29c.437.11.536.222.58.628a.277.277 0 00.311.286 3.3 3.3 0 01.576.116c-.138.482-.437.222-.68.247a.465.465 0 00.281.167c.306-.006.54.058.583.413a.135.135 0 00.069.094l.834.3c.1.036.228.066.268.14a2.234 2.234 0 01.14.471s-.016.017-.028.033l-.294.374c.122.066.248.128.366.2a.5.5 0 01.176.158.315.315 0 00.521.13.882.882 0 01.238-.074l.071.082a1.771 1.771 0 00-.256.38c-.047.131-.084.351-.015.42a4.115 4.115 0 00.631.427.246.246 0 00.377-.048c.089-.1.273-.1.4-.17a.387.387 0 00.169-.193c.091-.253.177-.484.527-.4.057.012.133-.064.2-.1l.278.351.256-.35c-.148-.27-.472-.389-.427-.751.007-.058-.13-.155-.218-.2-.17-.089-.227-.183-.094-.352.07-.089.177-.213.158-.3a.718.718 0 01.284-.78l-.4.086.079-.408-.183.128-.084.643-.109-.006c.007-.1.019-.2.017-.3 0-.073 0-.179-.041-.208a.278.278 0 00-.242-.032 3.107 3.107 0 00-.394.322c.029-.14.061-.257.077-.377.049-.354.234-.708 0-1.065-.162-.244-.276-.489.013-.734a.284.284 0 00.083-.221c-.031-.216.11-.325.235-.449-.227-.175-.039-.328.047-.477a.949.949 0 01.194-.185c.037-.462-.4-.517-.631-.759-.144.223-.351.292-.532.127a.376.376 0 010-.533c.239-.312.171-.6-.207-.858.222-.127.066-.217-.023-.325-.167-.2-.333-.4-.491-.613-.215-.285-.429-.3-.7-.052-.05.046-.151.038-.229.055.01-.077-.007-.174.034-.227.111-.142.252-.262.372-.4a.27.27 0 00-.162-.435 2.745 2.745 0 00-.466.023c-.242-.324.083-.6.155-.93l-.429-.026a2.279 2.279 0 00.061-.231.345.345 0 00-.38-.392c-.291.044-.461-.17-.4-.46a.606.606 0 00-.051-.367c-.066-.138-.266-.255-.261-.375.011-.3-.132-.312-.345-.252l-.1-.6-.223.128.064-.248-.435-.034.272-.291-.221-.493-.521.023c.045-.092.06-.194.113-.22.6-.3-.28-.369-.089-.6-.043-.036-.116-.11-.126-.1-.356.273-.218-.127-.3-.222-.018-.023.02-.092.032-.14a1.165 1.165 0 01.1.062 2.144 2.144 0 00.377.261c.074.031.252-.008.272-.058a3.865 3.865 0 00.087-.478c.026-.106.068-.271.138-.293a.506.506 0 00.378-.533 3.643 3.643 0 00-.051-.49 2.831 2.831 0 001.405-1.714c.323-.07.616-.13.907-.2a.324.324 0 00.177-.11 7.685 7.685 0 01.444-.652c.144-.162.244-.406.544-.386.067 0 .162-.153.213-.252.121-.238.212-.491.336-.727.07-.133.22-.232.264-.37.08-.252.124-.48.467-.519.16-.018.312-.175.452-.288a.325.325 0 00.088-.152 3.184 3.184 0 01.171-.639 2.722 2.722 0 01.358-.4c.228-.279.506-.534.286-.968a2.032 2.032 0 01-.1-.613c.924-.16 1.128-.4.925-1.063l.372-.177c.093.12.246.235.283.38a1.154 1.154 0 001.028.963c.069.01.13.069.245.133l-.361.09a2.469 2.469 0 01.475.249c.169.149.294.346.458.5.377.357.754.717 1.155 1.047.331.272.7.5 1.047.752a3.134 3.134 0 01.433.311c.35.352.67.735 1.028 1.08.256.248.566.44.83.681.347.317.667.663 1.01.985a6.41 6.41 0 01.552.457c.173.2.465.26.583.538a1.38 1.38 0 00.372.427c.09.082.25.1.32.188.263.339.507.694.749 1.049a1.5 1.5 0 01.179 1.406c-.044.128-.087.235.095.279.009 0 .013.029.019.044l-.178.19a.578.578 0 01.1.782 2.194 2.194 0 00-.289 1.478 4.945 4.945 0 01.006.774l.229.173c-.153.086-.329.126-.349.206-.136.526-.241 1.061-.348 1.594a1.316 1.316 0 00.011.269.414.414 0 01-.019.151c-.117.294-.251.578-.043.9.034.052-.064.19-.1.288-.248-.1-.19.145-.268.239s-.158.165-.238.247c-.348.431-.375 1.086-1.026 1.3l-.1-.11c-.093.259.1.594-.267.757a.173.173 0 00-.072.146c.038.279.042.279-.218.227-.141.319-.162.335-.461.355a.731.731 0 01-.531-.085.178.178 0 00-.126-.009c-.071.2-.283.119-.4.212-.085.066-.162.144-.242.216l.211.186.538-.279-.186.793a1.108 1.108 0 00-.282-.18c-.032-.01-.12.146-.17.213l.155.2-.037.031-.266-.22-.074.042a1 1 0 00.135.276c.141.146.063.22-.057.312-.143.11-.274.234-.43.369l-.148-.111-.119.619c-.125.024-.262-.26-.3.053l-.315-.177-.122.4h-.668c.112.129.26.227.253.311-.01.115-.137.22-.23.353-.082-.138-.11-.247-.177-.283a1.042 1.042 0 00-.354-.083c-.015 0-.063.117-.059.119a2.716 2.716 0 00.293.154 1.514 1.514 0 00.2.053c-.292.181-.292.181-.17.743l-.34-.057.152.391c-.412.036-.646.346-.652.873l-.453.049c.008.278-.139.568-.364.594.049.195.1.383.146.58l-.5.028c.167.187.294.345.439.485a.674.674 0 01.222.634l-.552-.359-.274.76-.189-.144a4.043 4.043 0 00-.141.56 1.688 1.688 0 00.014.663.457.457 0 01-.09.462c-.469.172-.025.53-.179.751.237.2.078.719.57.729.023 0 .044.063.067.094l.243.333c.186.254.524.284.731.449a.945.945 0 00.957.185l-.015.151.056-.075a2.772 2.772 0 01.467.223.729.729 0 00.918.052.624.624 0 00.785.036 2.247 2.247 0 01.342-.275l-.023.4a.47.47 0 00.583-.037.746.746 0 01.408-.075 3.715 3.715 0 00.728.034c.286-.058.544-.249.829-.314a8.725 8.725 0 011.02-.112c.054-.006.132-.012.156-.046.158-.238.4-.185.627-.2a2.593 2.593 0 00.521-.095 4.723 4.723 0 01.939-.3 3.6 3.6 0 001.4-.5c.173-.09.284-.295.428-.443.116-.119.207-.3.426-.219.126-.442.627-.488.877-.8a.058.058 0 01.056-.009c.162.121.2-.029.276-.119.307-.37.6-.742 1.173-.695.105.009.239-.144.336-.245a2.43 2.43 0 00.187-.3 1.911 1.911 0 01.234-.283 2.832 2.832 0 01.336-.266c.041-.028.123-.01.152-.042a5.109 5.109 0 00.529-.637c.162-.255.466-.416.456-.791a.874.874 0 01.7-.9l.333-.524-.161-.227c.279-.2.275-.223-.092-.552.125-.172.217-.413.39-.506a2.118 2.118 0 01.715-.1l-.215-.274.267-.133-.368-.428-.043-.8.516.142-.173-.273.209-.083a46.765 46.765 0 01-.207-.448c.075-.153.137-.273.193-.4.043-.095.054-.22.124-.285.187-.176.4-.322.6-.49.045-.038.1-.139.079-.17-.138-.231.056-.243.183-.3.013-.006.014-.033.026-.064l-.126-.195.17-.178h-.093c-.08-.448-.161-.9-.24-1.333l.545-.183-.326-.182.528-.328-.129-.075.2-.031c.016-.117.006-.274.045-.287a4.009 4.009 0 01.6-.11l-.462-.339zm-7.829-43.1l.032.081c-.116.09.021.38-.255.318-.079-.018-.12-.2-.18-.309zm-.622.544l-.155.391-.082-.022-.081-.418zm-3.362.612c.149.142.082.334 0 .533l-.105-.51zm-5.035-3.459c.163.291.1.466-.193.5zm-11.36-.973l-.12.344-.1-.042-.048-.359zm-.361.65c.12-.141.175-.134.262.042a2.8 2.8 0 00.347.455c-.387.258-.5.2-.815-.346a1.168 1.168 0 00.205-.151zm-1.233.661c.168.164.2.323-.063.46l-.2-.12zm-2.681.055c.08-.038.182-.093.255-.071.209.064.381.08.466-.17.381.069.258.361.229.55-.048.307-.308.354-.515.338-.159-.186-.293-.334-.416-.493-.029-.04-.036-.148-.02-.156zm-.879-14.149a.426.426 0 01.216.317c0 .124-.133.245-.207.365l-.331-.554c.109-.05.251-.164.322-.13zM13.229 17.832l-.417-.484.451-.548.1.065c-.053.351-.092.668-.135.966zm4.85-1c-.069.08-.053.235-.1.468-.117-.155-.188-.335-.306-.376-.1-.034-.249.1-.438.19l.036-.784c.28.01.545-.184.746.111.087.117.213.211.061.387zm3.656 9.279c.072 0 .139.1.208.163l-.277.275c-.053-.123-.121-.2-.1-.258.02-.08.105-.187.168-.187zm-2.5 8.676l.5.384-.594.171-.065-.088.16-.471zm-11.929 13.2c-.05.006-.177-.127-.166-.169a6.455 6.455 0 01.229-.631l.236.211c.032.172-.15.563-.299.582zM23.13 55.93c-.286.031-.343-.233-.489-.382l.475-.2c.178.122.116.341.015.575zm1.151-1.953l-.259-.093c-.131.076-.206.154-.283.156-.24.007-.394.142-.292.324.153.274 0 .38-.2.459a1.252 1.252 0 00-.609.721l-.2.1-.045-.055-.11.388c-.026.1-.032.26-.082.274a1.829 1.829 0 01-.463.013l-.43.318-.055-.055v.386l-.182-.038-.231.629c-.208-.233-.3-.227-.495 0-.031.036-.1.04-.15.058s-.14.022-.169.062a.8.8 0 00-.148.8c-.191-.326-.459-.255-.712-.282-.1-.011-.194-.177-.344-.326l-.352.208.034.041-.3.084.283.234a.884.884 0 01-.3.208c-.076.019-.189-.117-.286-.183l-.049.082.265.193-.453-.031.132.22a1.192 1.192 0 00-.169.038c-.1.037-.191.082-.284.123l-.349-.435-.088.207c-.185-.193-.359-.182-.511.047a1.432 1.432 0 00.193.053 2.317 2.317 0 00.259 0l-.172.252c-.208-.182-.358-.078-.519.061a2.72 2.72 0 01-.371.233 2.22 2.22 0 01-.422.022.264.264 0 01-.167-.165c-.021-.071.022-.161.037-.242l-.072-.032-.2.292-.123-.135-.092.209-.043-.008v-.251c-.166.193.089.459-.194.551-.16.051-.342.214-.458.172-.155-.056-.491-.08-.3-.483l-.44-.029.034.335-.46-.727a2.045 2.045 0 00-.179-.656 1 1 0 01-.239-.729.25.25 0 00-.113-.2c-.232-.093-.149-.271-.164-.44-.02-.224-.088-.443-.107-.673l.132.34h.1l.148-.814-.1-.048-.557.446a2.285 2.285 0 01.088-.656c.063-.138.262-.213.4-.316l-.052-.074a4.56 4.56 0 01-.46-.081c-.187-.052-.189-.193-.161-.382a2.3 2.3 0 00-.1-.649c.107-.09.221-.231-.132-.32-.155-.039-.233-.158-.093-.344s.259-.41-.015-.643c-.1-.084-.078-.308-.113-.469l.069-.043.38.4c.028-.04.156-.192.14-.209a2.7 2.7 0 00-.366-.292l.106-.266-.366.018-.052-.38-.206.041-.037-.337-.441-.149.283-.421a.643.643 0 01-.293-.8c.095-.22.221-.443-.138-.675l-.059.546a2.457 2.457 0 00-.222-.17.436.436 0 00-.211-.084 3.035 3.035 0 01-.488.017l.292-.089c-.131-.121-.248-.214-.347-.324-.121-.134-.22-.282 0-.442l-.066-.049-.33.246-.463-.25.169-.277-.047-.041-.245.13.124-.246c-.123-.033-.232-.057-.337-.093s-.211-.083-.329-.131c0-.143.23-.356-.079-.477a1.113 1.113 0 00-.037-.318.818.818 0 01.2-1.048l.327.235c.033-.14.057-.282.1-.415a1.859 1.859 0 01.187-.409 2.863 2.863 0 01.3-.34l.351.279.209-.442c.177.165.287.072.358-.14.063-.188.132-.375.189-.566.1-.318.3-.377.6-.225l.033-.231a1.741 1.741 0 00.549.259.376.376 0 00.419-.391 1.17 1.17 0 011.043.008c.124.058.338-.059.506-.113.27-.087.541-.178.8-.29.1-.041.153-.167.247-.22a.349.349 0 01.243-.008c.106.031.234.159.3.129.095-.046.144-.19.207-.3a.51.51 0 01.926-.168 1.287 1.287 0 01.909-.306 1.572 1.572 0 00.732-.234c.211-.092.4-.226.608-.333.038-.02.1 0 .147 0a3.352 3.352 0 00.737.021.682.682 0 00.416-.305c.141-.253.284-.364.519-.208.286.188.532.337.833.031.046-.047.19 0 .318.009.021.4.043.778.058 1.158a2.067 2.067 0 01-.022.27c-.009.1-.059.224-.017.3.192.329.075.691.134 1.031.044.259.208.311.418.151a3.133 3.133 0 01.161.6.89.89 0 01-.1.533c-.187.275-.3.514-.036.8a.165.165 0 01.022.114c-.048.454.278.668.567.913a.882.882 0 01.147.256l-.232.079a1.284 1.284 0 00.3.882c.072.091.052.249.105.361.109.225.244.437.359.66a1.124 1.124 0 01.1.292 2.276 2.276 0 00.052.379c.158.393.337.777.5 1.167a.519.519 0 01.038.187c.006.273.38.634.629.535.215-.085.251.094.366.141.077.032.11.157.18.223a1.888 1.888 0 00.281.175c-.434.364-.174 1-.613 1.397zm11.108 13.709l-.225.451-.139-.065.21-.459zm-.3-5.553l.224.419-.07.073-.424-.295zm-3.392-5.3a.618.618 0 01.25-.03c.023 0 .067.115.048.152a.384.384 0 01-.168.187 1.316 1.316 0 01-.335.045l-.095-.22a3.027 3.027 0 01.3-.138zm.74-15.674c-.1.117-.217.227-.33.345l-.245-.208a2.442 2.442 0 01-.107.352 1.55 1.55 0 00-.235 1.108.2.2 0 01-.032.146 5.526 5.526 0 01-.5.641c-.045.047-.217-.027-.346-.047-.174.135-.408.3-.346.557s-.156.348-.195.52a5.367 5.367 0 00-.11.982c-.007.19.02.19-.15.158-.037-.007-.109-.01-.111 0-.108.4-.5.1-.684.32l-.049-.068.308-.265c-.062-.165-.127-.352-.2-.534a.145.145 0 00-.115-.073 8.544 8.544 0 00-.634.123 3.612 3.612 0 00-.358.134c.176-.279.011-.6.3-.793a.42.42 0 01.261-.085c.041.006.064.146.093.227l.076.219.452-.274-.263-.384.145-.044-.068-.306.086-.046-.406-.154.268-.031v-.036l-.158-.036.137-.238-.064-.045.305-.013-.264-.206c.247-.193-.1-.157-.127-.252l.338-.376-.137-.219.257-.044v-.045l-.248-.041.395-.548-.113-.08-.1.323-.283-.152.132-.07c-.154-.192 0-.309.065-.482.1-.27.257-.239.442-.228.591.035 1.182.086 1.774.109.135.005.271-.1.412-.119a6.1 6.1 0 01.745-.046c.048 0 .143.1.135.121a.694.694 0 01-.147.199z"/><path d="M57.123 45.673a.416.416 0 00.076-.062zM37.096 65.417c-.018.074-.078.144-.077.214a3.178 3.178 0 01.037.7c-.051.24.071.3.228.33.2.04.223-.129.226-.27 0-.176.014-.329.22-.323l.227.456.3-.261c.052-.046.1-.126.156-.134.214-.032.239-.2.239-.348 0-.076-.111-.222-.141-.214a1.936 1.936 0 00-.38.192c-.016-.058-.1-.2-.06-.264.059-.094.208-.132.276-.17-.112-.094-.285-.168-.32-.283a.906.906 0 00-.417-.583c-.271.113-.258.429-.436.609l-.006-.015c-.024.128-.039.25-.072.364zm2.522 3.139l.258-.215c-.328-.234-.488-.233-.868 0a.377.377 0 00-.182.558l-.271-.021c.376.2.625.679 1.087.51a1.511 1.511 0 00.152-.375 1.239 1.239 0 00-.075-.365l-.271.126-.224-.34.026-.063zm-.626-1.372l.127-.2c-.076-.033-.152-.065-.228-.1-.036-.016-.094-.028-.1-.056-.1-.3-.364-.24-.538-.162-.083.037-.068.3-.1.484.316-.074.564-.242.839.034zm-.06 3.627a1.13 1.13 0 00-.382.164c-.057.033-.126.118-.119.169s.091.116.154.144a1.907 1.907 0 00.333.07 1.032 1.032 0 00.261-.172.251.251 0 00-.019-.234c-.049-.069-.158-.151-.228-.141zm8.328-6.682l.265-.122c-.187-.264-.279-.266-.394-.033-.069.14-.119.289-.186.456l.269.169.046-.47zm13.793.153c.543-.155.6-.26.318-.639zm-8.105-47.338a.688.688 0 00-.272-.273c-.043-.025-.147.056-.19.075l.339.493c.059-.123.154-.238.123-.295zm8.737 34.017c-.055-.174-.09-.317-.148-.45-.019-.044-.1-.063-.147-.093-.021.066-.073.141-.057.2a3.259 3.259 0 00.167.41zm.525 9.333c.358-.21.358-.21.311-.419-.287.055-.331.111-.311.419zM38.694 22.198l-.089.28c.372-.193.383-.253.117-.585v.323zm23.992 36.445l-.5.374c.342.129.547-.032.5-.374zm.048-3.426l-.1-.342-.091-.043-.275.362zM30.53 1.641v.006h.018zm.757-.044l-.018-.106-.729.153c.255.041.515.137.747-.047zm12.538 66.095l-.487-.054-.008.1c.229.194.298.194.495-.046zM30.512 6.752l.046-.078-.418-.243c-.012.078.08.149.372.321zM12.529 57.446l.044.068.246.038-.229.059.006.062h.494a2.76 2.76 0 00-.306-.4c-.013-.017-.163.111-.255.173zm-1.077-6.082c-.062-.085-.142-.18-.212-.173-.09.009-.172.1-.258.155l.111.126-.012-.012v.013h.009c.175.221.228-.068.362-.109zm.28 2.89l.079.049a.566.566 0 00.314-.49l-.123-.06z"/></svg>