<svg xmlns="http://www.w3.org/2000/svg" width="195.929" height="103.371"><path d="M49.481 60.631l-.068.16.055.051.244-.266.066.041-.535.863a1.331 1.331 0 01.151.386 1.53 1.53 0 01-.069.441l.593.925.332-.123.15.393h-.5l.151.449.368-.152c.144.459-.159.386-.4.381 0 .04-.006.08-.005.12a3.982 3.982 0 00.093 1.785.33.33 0 01-.081.3.774.774 0 00-.123 1.116c.032.056-.049.178-.089.3.1.007.2-.013.257.025.111.072.264.166.282.271a.484.484 0 01-.174.351 3.028 3.028 0 01-.476.3c.073.37.192.681.589.783a.16.16 0 01.084.091c.07.175.226.382.182.524-.157.5.453 1.021-.059 1.485.075.134.212.262.2.383a.764.764 0 00.536.81l-.527.058c-.186.338.26.527.142.879a1.582 1.582 0 000 .992c.134.348-.532.506-.164.8a2.279 2.279 0 00-.374.421.359.359 0 00.118.32c.474.333.364.8.334 1.259-.006.094 0 .189 0 .347a2.531 2.531 0 00.27-.1 2.911 2.911 0 00.255-.171.824.824 0 01-.028.223 1.7 1.7 0 00-.415 1.422l.427-.048c-.011.077 0 .147-.03.184-.231.283-.586.5-.546 1.007l.644-.3c-.073.175-.081.272-.131.3a1.82 1.82 0 00-.864 1.119c-.057.2-.15.312.015.533a3.128 3.128 0 01.278.806c.13.36.09.471-.246.619-.191.084-.376.179-.537.256l-.19.845a2.458 2.458 0 01.727 1.86l-.913.625.714.823-.258.147c.026.458.051.891.074 1.326a.217.217 0 01-.025.107c-.416-.012.017.341-.21.466-.377.207-.346.573-.206.949l.464-.148c-.192.367-.8.449-.521 1.025l-.509.229.1.547-.481.144c.256.29-.334.659.212.916-.77.181-.879.43-.556 1.27l-.673.412c-.041.2-.072.429-.137.647-.061.2-.127.339.059.561.229.271.089.5-.263.6-.911.264-1.009.429-.773 1.3.248.914.246.919-.624 1.3-.057.025-.117.041-.19.066l-.306-.267c-.071.026-.121.03-.147.057-.212.221-.146.624-.5.756a2.776 2.776 0 00.112.854.729.729 0 01-.114.769 2.856 2.856 0 01-.572.508c-.08-.092-.164-.181-.24-.277-.249-.315-.449-.343-.719-.077a.968.968 0 00-.21.316.9.9 0 01-.674.589c-.14.033-.238.248-.355.38h-.128l-.073-.505c-.29.3-.564.366-.855.026-.09-.105-.3-.124-.459-.151-.181-.03-.369-.014-.552-.036-.353-.041-.739-.224-.874.279a2.808 2.808 0 01-1.825-1.1.943.943 0 00-1.1-.2c-.265-.45-.572-.9-.8-1.4-.083-.179.026-.446.054-.732-.528-.211-.617-.878-1.045-1.334.294-.148.441-.337.283-.7a.858.858 0 01.143-.658l-.392-.581c.312-.356.606-.727.94-1.059a.893.893 0 00.278-.61 1.738 1.738 0 01.236-.772 9.924 9.924 0 001.055-2.157c.146-.414.349-.808.549-1.262l-.416-.093c-.094-.5.366-.152.535-.369a2.283 2.283 0 000-.372 3.129 3.129 0 01.228-1.619 1.918 1.918 0 00.184-.609c.012-.378.132-.571.539-.5.052.009.115-.042.179-.068.055-.368-.327-.34-.462-.532.051-.455.086-.917.164-1.371.024-.14.167-.26.279-.423a2.325 2.325 0 01-.4-2.027 1.286 1.286 0 01.174-.53.814.814 0 00.089-.952 1.644 1.644 0 01-.12-.865 8.3 8.3 0 00-.109-1.252 1.535 1.535 0 01-.053-.564c.322-1-.1-2 .012-3 .035-.312.107-.62.155-.931a.644.644 0 00.012-.315 6.659 6.659 0 01-.246-2.051 6.735 6.735 0 01.073-1.016 2.61 2.61 0 00.009-.445c-.089-.88-.208-1.757-.265-2.639-.014-.21-.237-.387-.095-.6.192-.286-.194-.326-.211-.53-.013-.167-.109-.326-.13-.493-.087-.716-.139-1.437-.246-2.15a8.677 8.677 0 00-.287-.9c-.128-.484-.234-.974-.354-1.48l-.6.207.351.747-.407.21v.627c-.45.453-.935.908-.636 1.667l-.992.856.037.74c-.6.278-.586.909-.616 1.448a1.363 1.363 0 01-.358.839c-.174.215-.377.406-.556.616a2.911 2.911 0 00-.434.733 7.074 7.074 0 01-.922 1.178 10 10 0 00-.852 1.276 1.412 1.412 0 01-1.474.8 2 2 0 01-1.337 1.723 1.743 1.743 0 00-.606.418 4 4 0 01-2.028 1.24c-.041.012-.094 0-.125.025-.656.479-1.522.315-2.2.725a.886.886 0 01-.373.079c-.88.072-1.761.135-2.641.208a1.145 1.145 0 01-1.3-.579c-.827.393-1.451-.2-2.154-.447-.106-.037-.174-.176-.265-.262s-.182-.207-.237-.191c-.475.14-.669-.271-.968-.47-.051-.034-.087-.131-.129-.131-1 0-1.555-.808-2.29-1.268a17.494 17.494 0 01-1.755-1.449 1.243 1.243 0 01-.517-1.1 5.991 5.991 0 01-1.946-1.376 19.385 19.385 0 01-1.726-1.873c-.46-.727-1.37-1.033-1.629-1.905-.024-.083-.155-.134-.239-.2a1.583 1.583 0 01-.621-1.009.64.64 0 00-.1-.3 1.664 1.664 0 01-.487-.966c-.04-.358-.382-.684-.6-1.019-.171-.261-.354-.515-.56-.812l.354-.677-.293-.559-.442.194c-.144-.63-.275-1.211-.409-1.791-.14-.6.027-1.214-.094-1.832-.069-.349.2-.764.342-1.219a.661.661 0 01-.151-.993 1.339 1.339 0 00.092-.494c.035-.265.061-.532.1-.8.016-.125.093-.268.054-.369a1.381 1.381 0 01.212-1.154c.1-.206.14-.439.224-.652a2.825 2.825 0 01.224-.439c.066-.108.223-.2.224-.3 0-.581.416-.794.823-.965a2.3 2.3 0 01-.02-.748 1.979 1.979 0 01.457-.681c.077-.083.267-.06.416-.087l-.068-.5 1.268-.244a2.323 2.323 0 012.11-1.619 1.548 1.548 0 00.252-.289c.077-.132.178-.323.135-.44a.722.722 0 01.162-.708c.255-.384.507-.771.749-1.163a.265.265 0 00.009-.23.418.418 0 01.021-.468c.147-.289-.173-.865.569-.771a4.9 4.9 0 001.189-.155l.021-.464.6-.256.114-.731c.7.146.7.146 1.026-.126l-.425-.367a2.571 2.571 0 01.193-.364c.071-.1.236-.249.259-.233.307.215.609-.1.828 0 .187-.158.339-.278.481-.41.187-.172.356-.364.55-.527s.278-.318.043-.649c.533.188.9.146 1.069-.327l-.01.012c.1.024.252.1.3.064a1.971 1.971 0 011.009-.439c.009 0 .011-.038.027-.1l-.351-.252.565-.172.086.311c.193-.052.386-.106.581-.154.089-.022.219-.074.267-.035.3.246.509-.039.789-.078l-.061-.5c.106.1.175.207.223.2.481-.089.974.1 1.451-.066s.938-.311 1.434-.475l.079.149a.915.915 0 00.2-.017.983.983 0 01.806-.126.573.573 0 00.788-.317c.028-.085.149-.14.23-.212.214.467.618.317.971.363.032-.068.091-.13.078-.174-.062-.222.032-.36.24-.328.264.04.116.215.069.354-.007.021.087.076.177.151l.242-.42a.874.874 0 001.41-.074c.222.29.222.29.595.33l.043-.236.038-.184c.048.008.118.006.122.022.15.613.709.564 1.143.687a9.791 9.791 0 001.1.181l.12-.36-.012-.013.059.338c.282.046.508.078.733.121a3.329 3.329 0 01.539.129c.258.1.61.011.743.369a.185.185 0 00.137.1c.513-.066.762.362 1.173.613v-.517c.32.55.918.535 1.368.77l-.011-.008.235.179.235-.491c.106.139.166.286.275.343s.374-.113.313.215l.385.067a.932.932 0 00.395.871l-.054-.7.1-.032.447 1.144a8.171 8.171 0 01.332-1.018c.059-.124.257-.183.457-.314a4.022 4.022 0 011.687-3.131l-.414-.284c.381-.729.92-.194 1.421-.148l.065-1.1h-.828a5.729 5.729 0 01.427-1 6.333 6.333 0 01.766-.812l.732-.758-.079-.391c.038-.044.05-.071.066-.074.227-.046.453-.089.717-.139a.454.454 0 00-.467-.446 3.936 3.936 0 01-.782-.149 6.049 6.049 0 00-2.311-.334.271.271 0 01-.127 0 4.114 4.114 0 00-1.708-.285c-.352-.023-.7-.142-1.051-.146a7.236 7.236 0 01-1.993-.248.537.537 0 00-.312-.012c-.6.214-1.2-.073-1.8-.034-.3.02-.617-.209-.935-.26s-.625 0-.937-.017c-.654-.043-1.307-.1-1.961-.161-.316-.029-.629-.084-.944-.129-.6-.086-1.207-.156-1.805-.265a6.207 6.207 0 00-1.231-.288c-.61.022-1.132-.288-1.745-.3a3.533 3.533 0 01-1.94-.508c-.133-.091-.337-.211-.456-.168a.859.859 0 01-.873-.22 2.079 2.079 0 00-.52-.17 20.582 20.582 0 01-.994-.383c-.133-.057-.241-.216-.371-.228a12.831 12.831 0 01-2.767-1 97.212 97.212 0 01-1.905-.656.523.523 0 01-.266-.164.706.706 0 00-.76-.328.74.74 0 01-.357-.108c-.4-.19-.809-.37-1.192-.593-.317-.185-.6-.426-.927-.661a8.082 8.082 0 01-1.377.141c-.258-.012-.5-.266-.791-.432-.363.231-.42.4-1.9-.544l-.216.369c-.428-.535-1.018-.179-1.532-.272-.391-.071-.756-.122-.946-.495-.661.333-.847.3-1.273-.275a2.082 2.082 0 001.073-1.279c-.138-.055-.248-.093-.353-.142-.182-.085-.445-.131-.525-.277a.806.806 0 00-.93-.391.482.482 0 01-.574-.245l.382-.535c.24.1.431.189.627.265a1.7 1.7 0 00.424.127.394.394 0 00.459-.346c.012-.106-.159-.266-.283-.345-.262-.168-.6-.244-.673-.675.592-.04 1.066-.5 1.687-.377.1.02.2.054.325.087l-.069.571.474.156-.2-.871.755-.195.326.675c.213-.517.6-.283.915-.216.147.032.249.278.367.422a1.618 1.618 0 00.156-.247.4.4 0 01.574-.236 8.727 8.727 0 002.018.546c.166.023.3.283.429.414.24-.037.5-.1.754-.114.545-.037.582 0 .763.643.109-.427.462-.226.7-.414a.817.817 0 01.877.087.562.562 0 00.534-.012c.388-.415.884-.133 1.309-.255.1-.029.235.065.4.116l.3-.5a4.5 4.5 0 002.03-.008 7.776 7.776 0 01.97-.217c.277-.056.432.072.526.334a3.574 3.574 0 00.274.5l.163-.048-.031-.583a3.271 3.271 0 00.3-.133.729.729 0 00.14-.135c.274.334.509.014.768-.008s.5.047.738-.143l-.168-.344c.062-.008.107-.03.138-.016.248.111.367.5.742.336l.575.739 1.081-.682.09.3.965-.138c.334.371.882.269 1.374.23.389-.031.692-.082.94.3.219.337.615.2.883.129a.856.856 0 01.923.273 1.2 1.2 0 00.9.308c.011-.159.016-.319.036-.477.046-.358.245-.525.557-.384a.472.472 0 00.523-.034c.258-.183.45-.1.683.066a4.271 4.271 0 00.729.342l.171-.238 1.489.119.272.37.737-.337-.161-.426c.32.116.6.407.782-.006.165.516.677.639 1.026.832.289.16.754.491 1.174.018v.378a.976.976 0 00.61-.649l.2.408c.047-.24.065-.376.1-.506a4.656 4.656 0 01.184-.433c.2.645.553.876 1.1.806l-.063-.45c.292 0 .564-.006.836 0 .078 0 .215.048.221.089.1.648.786.372 1.1.7.125.131.37-.054.691-.5a1.765 1.765 0 00-.031.336.7.7 0 00.072.186l1.255-.225.068-.349.243.19-.018-.021c.249.527.485.572 1.109.2l.131.473a3.311 3.311 0 01.476-.21 2.389 2.389 0 01.507-.007l-.436-.471.054-.08a1.924 1.924 0 00.375.133 1.858 1.858 0 00.416-.044l-.21.556 1.133.121c.1-.483.284-.883.851-.947.056-.006.132-.206.124-.311a.948.948 0 00-.149-.323c.115-.306.461-.479.308-.881-.067-.178.125-.359.358-.329a3.391 3.391 0 01.525.159l.374-.412.647.309v-.856l-.4-.409.09-.1.52.28.126-.085-.389-1.043c.495-.109.874-.278.776-.893-.22.057-.434.125-.653.166a.365.365 0 01-.493-.343 1.959 1.959 0 01-.005-.256c-.018-.678.059-.71.713-.522a.762.762 0 00.907-.225c-.147 0-.294.006-.441 0-.316-.016-.417-.146-.357-.447.091-.453.156-.913.284-1.355a1.9 1.9 0 01.368-.567.7.7 0 00.2-.539.943.943 0 01.8-1.032c-.371-.326-.371-.326-.387-.78.714.005.794-.729 1.328-1.056l-.664-.321c.379-.354.219-1.028.9-1.115.541.34.541.34.583.943.3-.381.774-.536.823-1.052a1.432 1.432 0 01-.513-.016c-.092-.038-.117-.233-.174-.36l.88-.3-.305-.866.608-.489.558.273a.757.757 0 00-.235-.844l.219-.682.958.061c-.078-.421-.347-.817.153-1.137l.217 1.421-.9.438.635.7c.321-.047.365-.726 1.015-.443-.807.394-.466 1.094-.724 1.633l.632.236c-.058.209-.267.451.135.495-.2.643-.863.677-1.235 1.065l.927.463c-.439.366-.922.629-1.145 1.146.344.178.545-.459.872-.093.052.5-.553.555-.664.985l.312.247-.209.915c-.248 0-.569-.042-.52.419l.567.338c-.32.323-.586.617-.882.877-.128.112-.293.159-.242.384.058.256.26.154.41.192.035.009.062.051.105.089-.015.343-.4.275-.531.479-.152.311-.019.73-.4.969-.068.043-.044.334.024.465.059.115.24.167.405.27-.234.451-.972.819-.452 1.488l-.372.808c-.051.11-.094.224-.154.329-.283.5-.2.861.336 1.379-.03.414-.641.725-.246 1.291l.365-.537c.349-.007.236.308.368.477a3.412 3.412 0 00.8-.013.57.57 0 01.737.3l.626-.8.643.662.843-.23.109-.338.3.552.479-.288.647.475c.474 0 .891-.005 1.308 0a.312.312 0 01.226.1c.44.675 1.024.243 1.552.2.047 0 .084-.134.126-.205l-.012.013c.2-.13.379-.181.558.038a2.4 2.4 0 00.318.306 1.608 1.608 0 001.588.068c.051-.039.052-.142.085-.246.137.1.231.186.335.252.245.156.442.464.8.271.228.3.534.275.862.227a2.323 2.323 0 011.549.459 1.788 1.788 0 00.606.242c.4.078.611.4.914.6.086.056.1.229.141.351l-.492.442.492.292c.255-.375.448-.8 1.036-.819.07.284.167.573.212.87.081.538.216.616.744.383a.784.784 0 01.179-.018l.092.456-.763.746a1.909 1.909 0 001.39.451c-.038.36-.082.709-.109 1.06-.01.138-.04.349.033.4a.288.288 0 01.056.477.537.537 0 01-.608.235 4.655 4.655 0 00-.64-.088 2.465 2.465 0 01.061.574 1.3 1.3 0 01-.219.709 2.965 2.965 0 00-.62.827c-.186.356-.3.353-.834.135-.18.549-.632.7-1.153.827a13.085 13.085 0 01-3.321.217 2.734 2.734 0 00-1.78-.169c-.4.014-.83-.146-1.2.149a.366.366 0 01-.249.041c-.765-.1-1.432.349-2.152.4a17.847 17.847 0 01-2.671.333 23.082 23.082 0 00-2.643.112 6.554 6.554 0 01-1.9-.025 3.437 3.437 0 00-1.518-.053 3.5 3.5 0 01-1.184-.206c-.552-.12-.708.027-.659.609a.97.97 0 01-.1.328l-.088.288a1.949 1.949 0 00-.5.094.332.332 0 00-.073.6c.271.219.215.319 0 .577-.255.3-.764.539-.564 1.08a7.461 7.461 0 00-.631.617c-.1.116-.2.349-.145.445.382.686-.25 1.091-.445 1.6-.071.186-.449.254-.692.377l.361.72a2.937 2.937 0 00-.38.606c-.07.25.035.551-.273.722-.216.119-.414.272-.675.448-.137.186.219.521-.075.726-.229.159-.1.45-.293.625a.6.6 0 00-.137.413.569.569 0 01-.224.483.685.685 0 00-.236.435 1.008 1.008 0 01-.839.991 4.183 4.183 0 01.182.781c.009.214.18.522-.222.631-.064.017-.067.257-.1.425l-.3-.164.011.012-.3-.463c-.437.4-.437.4-.09.727l-.019-.017a1.514 1.514 0 00.076 1.288l-.7.243a3.168 3.168 0 011.18 1.715 2.366 2.366 0 00.541.89c.136.174.144.343.013.45-.308.253-.219.49-.024.8l.521-.3a1.965 1.965 0 00.562 1.287.6.6 0 01.088.5c-.146.517.2.68.54.857v.7l-.332-.043c.053.067.081.138.123.148.142.033.288.045.458.067a5.2 5.2 0 01-.007.706c-.03.219-.087.324.223.447s.012.266-.215.352a2.884 2.884 0 01.316.305c.082.108.2.252.183.359-.061.352.128.447.476.443-.245.245-.362.392-.1.67a3.44 3.44 0 01.446.946c-.035 0 .417-.241.505-.321.179.165.2.3-.04.427-.13.069-.253.149-.38.225l.048.123h.273c.3.017.427.156.3.391a1.584 1.584 0 00-.136.853.7.7 0 00.407.711zm-30.847 4.26l-.015-.015.147.242.327-.31c.572.282.572.282.44.9l.847.61.1-.638.735 1c.151-.191.233-.359.525-.237.346.144.756.27.971-.25.033-.081.153-.12.216-.193.2-.23.5-.375.561-.714.449.054.492-.394.73-.6a5.391 5.391 0 00.4-.413l-.125-.617.371.394a2.982 2.982 0 00.641-1.224c.007-.66.506-.986.925-1.449l-.2-.126c.434-.99.85-1.959 1.284-2.92a1.379 1.379 0 01.386-.574 1.769 1.769 0 00.611-.837c.166-.381.476-.693.327-1.172-.034-.111.084-.277.149-.41.283-.57.561-1.143.861-1.7.337-.628.681-1.253 1.05-1.863.239-.394.528-.757.793-1.131a6.111 6.111 0 00-3.519-2.7 6.22 6.22 0 00-1.547-.356 18.819 18.819 0 00-3.347-.034c-.4.052-.811.01-1.2.087a11.639 11.639 0 00-2.925.995 5.59 5.59 0 01-1.459.7.992.992 0 00-.805.723 1.205 1.205 0 01-.857.961c-.39.153-.805.241-1.238.366a.747.747 0 000 .21 1.093 1.093 0 01-.678 1.4 2.1 2.1 0 00-.356.138 1.326 1.326 0 00-.771 1.043 6.1 6.1 0 01-.364 1.195l.219.385c-.765.611-.485 1.423-.506 2.2-.3-.072-.54-.043-.506.374.12.063.251.192.38.189a.633.633 0 01.734.667l.4-.389c.075.137.126.248.193.347.126.187.261.367.39.548h-.492l.451.5.026-.515c.368.055.193.482.48.585l-.336.277c.11.118.238.2.272.3.167.526.225.582.851.642l-.582-.44c.432-.123.432-.123 1.193.679.056.247-.245.585.217.768.056-.2-.227-.466.054-.542.165.188.3.357.45.513a1.268 1.268 0 01.515.943c-.006.172.138.35.251.611l.363-.727a2.841 2.841 0 01.161.724c-.032.349.16.518.465.723 0-.144-.007-.239 0-.333a2.081 2.081 0 01.051-.245h.1zm34.433-46.838c0-.6.542-.759.891-1.117l-.3-.372-1.28 1.525.071.095zm3.012-10.517l-.573-.506c-.169.406-.138.719.085.789zm6.523 13.193l.1-.082-.093-.877-.4.625zm-36.408-2.5c.176.315.306.439.517.211.041-.044.018-.146.028-.26zm2.047 2.337l.176-.725-.5.449zM7.522 18.829v-.428l-.507.25zm22.418.544l-.012-.138c-.106-.026-.271-.105-.3-.067-.075.082-.082.225-.156.475zm-25.206-1.26l.043.079a.887.887 0 00.215-.074c.046-.03.066-.1.1-.149l-.066-.054zm20.927-.495c-.067-.076-.1-.151-.139-.15a.7.7 0 00-.209.071c.037.055.067.146.114.155s.134-.043.236-.079z"/><path d="M35.12 38.148l-.309-.451.057-.087.492.226c-.113.131-.184.215-.255.3zm14.36 22.483l-.2-.827.421.232-.222.593zM10.226 42.295c.112-.432.112-.432.441-.346l-.594.166zM63.653 19.34a.952.952 0 01-.679-.094c.438-.157.513-.143.667.107zm-8.77-2.604l-.166.263-.188-.119.21-.262zm-39.262 21.39l-.555.17c-.032-.219-.026-.37.218-.327a1.31 1.31 0 01.325.172zm14.758-1.894l.305-.209.229.408-.545-.21zm21.058 42.357l-.264.428c-.047-.113-.1-.183-.082-.207a3.156 3.156 0 01.247-.295zM26.428 35.993c.143-.323.243-.478.522-.186zm23.851 26.365a1.177 1.177 0 01-.308.054c-.066-.01-.125-.072-.187-.111l.147-.222zm.056 6.359l.15.376-.155.053-.119-.386zm-7.077-50.649l.082-.4.361.386-.087.119-.374-.126zm1.274 27.056c0 .287-.214.245-.393.259l.019.017c-.032-.324.173-.3.386-.264zm6.472 29.411l.3-.168.063.1-.276.2zm-8.02-56.597c-.135.064-.206.127-.257.114-.068-.018-.12-.095-.18-.146.047-.053.1-.157.137-.15a1.265 1.265 0 01.3.182zm-41.925 2.68l.164-.561c.15.245.193.382-.164.561zm194.808 51.925c-.265-.321-.167-.334-.128-1.219.021-.472.208-.912.189-1.416l-1.3-.583.922-.368-.28-1.225.286-.387c-.2-.231-.373-.445-.565-.637s-.421-.384-.348-.7c.05-.218.136-.428.205-.643-.522-.23-.525-.249-.2-1.229l.453.049-.275-.522.292-.466-.248-.982c-.51.125-.018.521-.237.736a1.291 1.291 0 01-.275-.893l.015.015v-.019h-.012l-.423-.755.355.115v.009l.011-.009h-.01c.008-.268.147-.562-.153-.786l-.407.375a1.244 1.244 0 01.369-1.446 4.777 4.777 0 01-.306-.665.705.705 0 00-.3-.5v.671a5.061 5.061 0 01-.579-.115c-.292-.093-.485-.354-.352-.56.422-.65-.039-1.35.177-1.994l-.354.5-.1-.15-.6-.482.36-.473-.433-.26c.175-.374.169-.4-.027-.52 0-.237.077-.518-.015-.594-.281-.232-.055-.548-.194-.769s-.355-.428-.52-.652c-.043-.058-.019-.162-.033-.244-.01-.058-.016-.137-.054-.167-.282-.218-.572-.427-.865-.644.043-.066.128-.192.124-.195-.235-.172-.2-.36-.1-.6.043-.1-.045-.3-.126-.409-.2-.283-.433-.544-.654-.816l.36-.437-.077-.086-.505.307c-.194-.161-.386-.363-.242-.589.157-.248.021-.451.034-.673.021-.331.087-.659.131-.989.009-.075 0-.152 0-.406l-.586.626.091-.659c-.092-.11-.282.011-.361-.25-.086-.285-.4-.5-.618-.747-.045-.053-.114-.113-.115-.172-.012-.433-.3-.5-.627-.475-.3-.622-.3-.608-1-.54a2.053 2.053 0 01-.588-.13l.4-.928-.576-.048-.071-.328.481-.4c-.325-.354-.76-.639-.893-1.028-.125-.363-.4-.443-.627-.65.217-.368-.521-.7-.048-1.142l-.573.3c-.1-.108-.184-.263-.311-.321a1.423 1.423 0 00-.441-.073l-.364.336-.206-.521c-.186.028-.385.12-.46.058-.374-.3-.453-.059-.448.236 0 .272-.121.373-.377.473l.072-.406-.806-.366a.732.732 0 01-.244.1c-.643.1-.6.794-.974 1.132a.642.642 0 00.2.337c.651.479.7.578.546 1.239l-.65.324-.349-.2a1.705 1.705 0 00.016-.606c-.045-.115-.248-.169-.361-.238l-.176-.677a.959.959 0 00-.746.668.272.272 0 01-.448.17c-.247-.151-.391.03-.545.178-.221.212-.445.42-.611.577-.073.213-.126.374-.184.533a1.116 1.116 0 00-.124.322 4.078 4.078 0 01-.178 1.691c.163.271.364.457.369.648.009.31.124.468.4.519a1.385 1.385 0 00.579 1.456l-.124.558c.084.106.185.216.267.339a6.781 6.781 0 01.645 1.03 4.315 4.315 0 00.707 1.6c.09.089.083.279.115.424a4.065 4.065 0 00.15.676 4.512 4.512 0 01.679 1.858c0 .017.022.035.033.053a20.3 20.3 0 011 2.563c.279.643.291 1.423.937 1.887.042.03.044.115.063.175a2.694 2.694 0 01.259 1.348c-.039.218.133.479.222.715a4.332 4.332 0 01.213.463c.268 1.082.6 2.148.907 3.216a19.633 19.633 0 01.56 2.372c.1.6.3 1.19.4 1.795.107.69.146 1.392.212 2.089a6.443 6.443 0 00.116 1.13 1.989 1.989 0 01.093.994.832.832 0 00.329.887c.262.228.651.425.545.923a.923.923 0 00.467 1.177c.168.082.271.315.385.491a.987.987 0 001.038.559.538.538 0 01.368.043 2.269 2.269 0 001.458.3l-.131.429c.765.228 1.489.448 2.216.659.224.065.487.16.65-.078a1.03 1.03 0 011.014-.384l.117-.372h-1.072a3.937 3.937 0 01-.124-1.264 3.8 3.8 0 01.683-1.057l.668.681c.2-.646-.464-1.068-.234-1.607.788-.006 1.546.377 2.333.07l.257.243c.124-.145.211-.265.316-.366.366-.352.729-.7.4-1.274-.035-.062.031-.2.076-.284.108-.206.226-.394.333-.582zm-3.635-1.359l.078.245-.165.053-.068-.267zm-.3 1.643l.142-.477.254.515zm1.334.224a1.177 1.177 0 01-.162-.19c-.007-.011.092-.113.113-.1a.425.425 0 01.166.14c.005.008-.065.079-.121.151zm-46.824-12.077l-.012.01zm-.576-1.613h-.019v.016zm-2.819-14.221v.012l.014.007z"/><path d="M149.573 66.77a.5.5 0 00-.676.3c-.1.205-.21.3-.5.193l.085-.88c-.339-.464-.458-1.2-1.217-1.423.186-.327.341-.591.482-.863.014-.027-.057-.1-.1-.166l-.217.338-.41-.268.466-.489-.276-.248-.2.249c-.124-.1-.247-.184-.356-.286a1.73 1.73 0 01-.435-1.11c-.036-.254-.076-.508-.127-.848l.345-.279-.491-.071c-.09-.389-.184-.729-.244-1.076-.03-.17-.168-.413.153-.472.031-.166.063-.333.1-.543-.15-.044-.3.058-.461-.124-.187-.212-.084-.31-.019-.556l-1.18-.452.454-.245-.472-.278.658-.454c-.522-.208-.174-.543-.18-.829a6.818 6.818 0 01.118-.994l-.163-.069c.29-.671-.164-1.552.609-2.039.005-.243-.48-.107-.286-.475.06-.114-.105-.338-.054-.466a1.284 1.284 0 01.331-.369v-.718l-1.2-.445.334-.708a.835.835 0 01.2 0c.289.117.553.128.688-.212a.625.625 0 00-.414-.708c-.2-.089-.422-.146-.6-.207l-.411.765c-.115-.309-.206-.533-.28-.761-.083-.255-.151-.514-.227-.779-.38-.048-.8 0-.975-.393.122-.214.344-.422.321-.6a1.329 1.329 0 01.429-1.1l-.115-.458-.362-.17.2-.441c-.306-.02-.556-.033-.805-.052-.27-.02-.386.149-.427.373-.1.551-.1.552-.57.621.014-.168-.041-.414.055-.51.491-.495.229-.886-.116-1.284a.263.263 0 00-.069-.052c-.311.012-.433.482-.762.285l-.431.486-.427-.314a.815.815 0 00-.112.108c-.286.443-.278.435.14.81a.343.343 0 01.063.324.428.428 0 01-.553.186c-.144-.063-.276-.154-.479-.271a2.788 2.788 0 00-.176.836 2.589 2.589 0 00.338.734l-.407.288c-.373-.156-.763-.2-.96-.426-.336-.377-.658-.1-1-.165a9.156 9.156 0 01-.1.988c-.039.186-.026.461-.313.491a1.067 1.067 0 00-.952 1.233c.06.593-.457.833-.47 1.308-.482.2-.388.653-.46 1.038-.085.453-.193.9-.293 1.351a15.985 15.985 0 00-.351 1.617c-.081.707-.037 1.43-.125 2.135a14.566 14.566 0 00.244 3.545c.122 1.029.457 2.032.636 3.057a24.4 24.4 0 01.585 2.384 3.764 3.764 0 00.214.992 22.853 22.853 0 001.177 2.994 6.428 6.428 0 00.732 1.269c.253.287.743.371.668.905 0 .028.05.064.077.1.167.207.328.418.5.619.135.155.267.389.435.425.314.067.377.3.521.5a4.109 4.109 0 00.7.795c.285.241.673.368.937.625a1.488 1.488 0 001.043.467c.165.583.2.639.686.547a.827.827 0 01.768.159 1.02 1.02 0 001.087.107 5.581 5.581 0 00.525-.215c.167.159.292.38.418.38.423 0 .7.281 1.028.45.257.131.519.25.777.375.372-.862 1.167-1.2 1.754-1.8-.257-.491.123-.86.3-1.27-.547-.2-.717-.159-.289-.979-.2-.241-.376-.479-.582-.685a.833.833 0 00-.461-.291c-.149 0-.3.181-.466.292l-.344-.2.173-.831c.176.012.36.03.545.036.124 0 .319.039.361-.022.264-.386.561-.156.854-.083.221.055.443.1.686.158l-.068.859.537.117c-.119-.438.228-.885-.336-1.282l.447.06c-.049-.446-.1-.89-.144-1.334-.006-.062-.011-.165.021-.182.23-.127.068-.234.026-.385a2.455 2.455 0 01-.078-.851c.033-.357.169-.705.2-1.063.018-.423-.089-.533-.457-.655zm-13.671-17.268c-.013 0-.073-.1-.06-.125a.2.2 0 01.131-.1c.034-.005.078.058.165.13a1.392 1.392 0 01-.236.091zm.841-2.146l.394-.322c.026.112.067.183.047.219-.109.197-.115.194-.44.099zm8.381 11.694a.678.678 0 01-.206.018l-.02-.14.447-.093c-.131.129-.168.19-.22.211z"/><path d="M148.498 71.799a4.274 4.274 0 00-.553-.283c-.031.319-.083.578.17.7a.769.769 0 00.819.006 4.2 4.2 0 00-.436-.423zm-4.525-25.458c-.391.242-.255.563-.137.941.602-.255.633-.566.137-.941zm1.894 13.02l-.023.022h.026zm.003.028l.091.678c.391-.503.364-.607-.091-.678zm-8.274-12.973l.519.4c-.001-.468-.001-.468-.519-.4zm5.451-1.277l.017.019v-.025zm.067-.381l-.046.372.526-.157zm5.822 21.572l.452-.1c-.298-.149-.298-.149-.452.1zm43.106-12.335l-.066-.13-.348.161.068.136zm2.578 7.161l-.311.259c.193.08.338.064.311-.259zm-7.563-16.067l-.075-.362-.167.029.112.369zm-7.973-3.033h-.512c.385.184.385.184.512 0zm12.879 35.454c.064-.031.149-.085.159-.141s-.079-.11-.167-.219c-.053.121-.1.184-.1.247-.005.04.086.121.108.113zm2.415-15.461l.3-.059c-.167-.149-.293-.181-.3.059zm-47.937-1.073l-.008.009zm.026.365c.006.01.1-.013.1-.027a.47.47 0 00-.01-.213c-.018-.047-.08-.077-.125-.114a.418.418 0 00-.049.163.473.473 0 00.084.191zm-96.17 26.231l.26-.236.09.106-.272.219zM36.154 17.578l.3-.021-.012.169-.3-.045zm-6.492 18.611c-.071-.086-.146-.136-.146-.187s.065-.117.1-.176c.063.043.155.075.178.133.017.045-.063.118-.132.23zm-9.096.165l-.1.269-.194-.106.212-.222zm13.72 1.148l.118-.3.105.043-.125.3zm15.54 24.065l-.11-.172a.878.878 0 01.194-.109c.021-.006.1.1.094.11a1.214 1.214 0 01-.178.171zm-31.193 3.324l.024-.379c.218.29.218.29-.04.364zm105.689 27.127a.385.385 0 01-.361-.109 2.449 2.449 0 01-.166-.583l.4-.775c.214.475.507.692.755.484.23-.193.55-.333.519-.818-.039-.615-.789-.821-.694-1.46.011-.072-.172-.249-.26-.246-.323.012-.409-.249-.476-.436-.106-.3-.257-.276-.446-.2-.206.178.109.567-.348.629l.07-1.014-.564.619-.435-.792-.594.139-.189-.389h-.711c.1.666-.539.5-.766.8l-1.5-1.264a.86.86 0 01-.768.416.577.577 0 01.059.086c0 .007-.021.039-.035.042a1.051 1.051 0 01-1.029-.268l-.092.51-.71-.437c-.035.454-.413-.009-.6.193l.215.351-.513.321c-.72-.471-.72-.471-1.289-.464l.269.363-.7.39c-.266-.13-.508-.251-.753-.369-.383-.185-.384-.184-.532.267l.385.115c-.362.312-.554.049-.776-.168l-.283.53-.366-.717v.428l-.107.084-.233-.536-.26.635-.752-.356.176.36c-.479.172-.492.162-.471-.326l-.632-.048.288.4c-.349.165-.608-.078-.925-.048.056-.275.033-.492-.324-.493l.03.541-.108.064-.63-.626c-.01.135-.064.279-.017.328.1.108.257.175.137.354a.2.2 0 01-.165.064c-.241-.05-.194-.234-.175-.4 0-.038-.023-.08-.042-.142-.244.177-.475.278-.674-.067-.162-.28-.444-.229-.694-.244-.019.069-.035.1-.028.107.1.136.211.269.351.447-.211.028-.428 0-.553.092s-.119.3-.17.452l-.893-.464-.405.6-.679-.8-.255.141-.446-.314-.334.23c.035-.535.031-.538-.5-.456l.041.4a1.252 1.252 0 00-1.322-.447l-.033.323-.637.143-.235-.467-.277.246c-.479-.354-.838-.174-1.011.111-.242-.164-.5-.323-.736-.5a.528.528 0 00-.858.245c-.072.194-.124.394-.179.573-.263.082-.418.014-.455-.229-.027-.179-.11-.392.166-.472.189-.054.254-.228.143-.335-.085-.081-.294-.033-.547-.048-.188-.267-.576-.269-.958-.248-.309.016-.586-.244-.9-.085l-.013-.158-1.139-.11-.25-.6c-.149.517-.149.517-.729.651l-.068.322-.617-.027-.271-.562c-.125.054-.231.141-.335.136-.142-.007-.311-.158-.414-.116-.571.234-1.123-.041-1.662-.042-.278.3-.463.7-.976.511-.089-.034-.236.055-.344.11a.712.712 0 01-.949-.118c-.1-.093-.224-.17-.316-.238l-.649.378c-.248-.318-.4-.751-.909-.508v.451l.513.04.3.5c.664-.261.918-.347 1.1.181l.364-.095c0 .063.029.6.029.6l-.145.589.159.461c-.464.361-.9-.221-1.384.065-.08-.219-.218-.4-.182-.542.07-.267 0-.337-.245-.333h-.327l-.273.359-.267-.737h.541c-.224-.385.054-.93-.549-1.158l-1 .473c.057.389.34.065.526.2l-.088.471c.186.3.368.573.517.859a.334.334 0 01-.036.309.424.424 0 01-.315.072c-.144-.016-.3-.144-.42-.109a9.993 9.993 0 00-.948.369c-.3-.146-.584-.41-.766-.35-.323.106-.612-.051-.93.031a1.223 1.223 0 01-.19.306c-.345.307-.545.63-.283 1.1a.456.456 0 01-.064.352 1.234 1.234 0 00.537 1.934l.466.257c-.046.51.078.813.34.81.044-.041.1-.1.167-.152s.12-.081.205-.138c.033.11.082.183.063.225-.209.461-.194.555.136.816a4.949 4.949 0 00.486.407 4.214 4.214 0 00.72.329 4.179 4.179 0 01.871.283 5.751 5.751 0 001.88.76 8.6 8.6 0 001.2.113c0 .211.154.308.411.251.078-.017.2-.089.226-.06.523.473 1.3.088 1.825.54.038.033.126 0 .187.015.264.064.528.133.79.2a3.965 3.965 0 00.979.246 1.979 1.979 0 01.792.165.966.966 0 001.061-.021 4.436 4.436 0 00.665.338 10.741 10.741 0 011.692.507 4.988 4.988 0 001.218.347c.681.138 1.375.212 2.052.368a12.19 12.19 0 003.352.33c.506-.024 1.01-.1 1.516-.117.421-.016.844.008 1.266.025.547.022 1.1.027 1.641.089s1.089.2 1.638.273a3.285 3.285 0 001.015.015 8.162 8.162 0 013.173-.1 1.388 1.388 0 00.317-.016 3.447 3.447 0 001.721-.2c.079-.047.211.006.316-.01.249-.036.5-.085.744-.129a1.825 1.825 0 01.429-.071 4.5 4.5 0 001.872-.482 5.642 5.642 0 011.464-.368 2.431 2.431 0 00.724-.176c.382-.159.746-.359 1.162-.564a.786.786 0 01.4-.744.969.969 0 00.393-.623c.032-.156-.154-.356-.248-.549l1.081-.411a8.353 8.353 0 00-.175-.992.892.892 0 01.129-.771c.1-.162.165-.342.258-.541.355-.005.472-.291.51-.645a3.522 3.522 0 00.589.184 4.756 4.756 0 001 .048c.219-.019.16-.249.156-.414 0-.016.128-.018.17-.056.111-.1.208-.218.314-.332-.63-.515-.76-.524-1.32-.249zm-.241-2.259l.114.111-.244.223-.114-.127zm.107.762l-.359-.057c.276-.208.286-.208.359.056zm-40.16-1.608a.539.539 0 01.579.275c-.334.098-.55.094-.576-.275zm16.455-.819c.543-.149.543-.149.542.323zm20.534 1.213a1.712 1.712 0 00.481-.319c.047-.061-.1-.27-.164-.441a3.119 3.119 0 01-.573.275.448.448 0 01-.384-.083.456.456 0 01-.01-.406 1.138 1.138 0 011.309-.448c.133.385-.32.852.19 1.2-.435.51-.605.542-.849.222zM96.403 50.956h.008l.009-.008z"/><path d="M82.44 60.04c.336.519.932.015 1.36.3a1.113 1.113 0 011.148.022.339.339 0 00.252 0 1.747 1.747 0 01.935.006c.485.052 1.018.218 1.346-.256a5.743 5.743 0 001.062.485c.39.091.8.079 1.209.14.789.12 1.6.072 2.4.129 1.208.086 2.415.185 3.619.313a11.6 11.6 0 002.922.086.646.646 0 01.3.057 1.755 1.755 0 001.408.05 2.581 2.581 0 011.583-.117 4.918 4.918 0 00.635-.013 1.078 1.078 0 011.218 1.118c0 .038.036.074.088.173a3.855 3.855 0 001.08.251 1.176 1.176 0 01.777.174c.409.293.8.616 1.232.956a4.781 4.781 0 00.886-.351c.368-.23.691-.325.974-.008l.769-.243a5.1 5.1 0 01.544 2.171c.488.168.451-.31.569-.364l1.286.233-.209.407a4.705 4.705 0 00.906.162c.611-.013 1.275.189 1.776-.391.1-.119.337-.115.484-.208a1.287 1.287 0 00.532-.969c.069-.438.136-.877.2-1.276l.665-.2-.051-.874a1.351 1.351 0 00-.218 0 .326.326 0 00-.115.054c-.512.377-.512.378-.833-.165a1.507 1.507 0 01-.08-.226h.381a.666.666 0 00.192-.716c-.056-.174-.239-.572.193-.731.045-.017.046-.429-.048-.5a.515.515 0 01-.235-.6c.071-.3-.08-.45-.342-.5-.23-.047-.468-.059-.686-.084-.142.481.342.351.435.633a.585.585 0 01-.441.576c-.124-.366-.242-.708-.355-1.051a.72.72 0 01.015-.194l.441-.261-.724-.386c1.733.143 1.8.24 2.723-.608l-.379-1.062.5.055a8.368 8.368 0 01.875-.716.926.926 0 00.562-.9 1.842 1.842 0 01.175-.587 1.4 1.4 0 00.684.231l-.235-.735a.929.929 0 00.261-.678c-.009-.629-.5-1.009-.557-1.6l-.714.221-.134-.063a.6.6 0 00.149-.954c-.15-.212-.507-.277-.851-.446a2.559 2.559 0 01.335-.26c.091-.047.221-.027.3-.084s.093-.166.178-.333a2.951 2.951 0 00-1.62 1.441.613.613 0 01-.629.3l-.1-.432c.194-.419.732-.5.828-1.037-.439.107-.832.194-1.1-.185l-.319.292c.029-.513.029-.513-.252-.711 0-.215.286-.453-.051-.669-.329.239-.309.543-.261.923l-.557-.353-.984 1.05.464 1.008c.239-.209.163-.555.55-.6.218-.026.405-.323.717-.072-.364.08-.588.2-.419.594.281.073.674-.106.8.441l-.834-.266-.445.745a5.038 5.038 0 00-.627-.471 6.4 6.4 0 00-.829-.314l.38-.36-.636.141c-.164-.227-.308-.406-.425-.6a.811.811 0 01-.046-.285l.015.017v-.011l-.014-.007c-.409-.472-.45-1.126-.8-1.627-.047-.067-.085-.14-.14-.23l-.32.171-.288-.433-.449.31.112.2-.978 1.86-.445-.136v.533c-.428-.416-.428-.416-.941-.059.1-.6.1-.6-.3-1.032l-.47.242.057.859-.406-.245a.648.648 0 01-.672.416 5.837 5.837 0 01-.759-.16l.027-.443-.414.159.094.328a2.494 2.494 0 00-1.9.269l-.2-.236c-.365.427-.829.287-1.274.256-.048-.525-.048-.525-.618-.6.116.107.214.159.246.238a.737.737 0 010 .281c-.279-.328-.543.148-.853.007-.275-.126-.544-.028-1 .108a.511.511 0 01-.362-.061 2.3 2.3 0 01-.366-.323c-.029.109-.037.276-.083.287-.158.039-.375.089-.487.013a.385.385 0 00-.5 0 1.368 1.368 0 01-.487.089l-.355.31-.261-.316c-.193.078-.345.156-.507.2-.52.154-1.074-.115-1.589.12-.343-.209-.647-.015-.959.091a3.111 3.111 0 00-1.119.487l-.555-.386-.389.428a.806.806 0 00-1.1.011.347.347 0 01-.292.067 2.963 2.963 0 00-1.987.376 8.091 8.091 0 01-1.113.658.884.884 0 01-.49.052 4.051 4.051 0 01-.592-.161l-.207-.78a1.883 1.883 0 00-.182.112 1.634 1.634 0 01.242 1.042c-.017.076.181.219.3.3a3.585 3.585 0 00.438.227l.414-.3.3.732a1.478 1.478 0 01-.524.147 1.137 1.137 0 00-1 .256c-.207-.78-.277-.8-.884-.332l-.033.022c-.015-.23-.074-.4-.377-.348-.263.047-.53.067-.807.1.2-.734.178-.772-.485-.891-.12.621.013 1.348-.6 1.812-.257-.082-.258-.287-.254-.509.007-.323-.05-.661.484-.837a12.973 12.973 0 00-1.246-.422 4.286 4.286 0 00-1.11-.112 1.933 1.933 0 00-1.076.455c.191.246.4.5.584.76a1.472 1.472 0 01.125.364l-.55.052-.449-.944c-.473.28-.119.661-.187.985a2.756 2.756 0 01-.337.243c-.065.035-.179-.016-.239.023-.271.174-.672.148-.813.531-.02.056-.127.089-.2.115a.64.64 0 00-.222 1.122 2.27 2.27 0 00.364.247c.071.385.13.66.168.937a1.256 1.256 0 01-.007.441c-.171.746-.007 1.007.735 1.123.287.045.576.076.9.117l-.019.294c-.021.353.069.477.354.36a.566.566 0 01.83.354 3.838 3.838 0 002.891-.648zm34.685-5.043l-.554.033c.384-.45.39-.45.554-.033zm-3.808-4.959c.324-.128.272-.737.8-.63-.201.616-.276.68-.8.629zm1.179 2.06l-.231-.781c.674.49.674.49.235.78zm-4.384 10.611l.116.1c-.148.206-.184.527-.57.492zm-.37-.5l-.266.364c-.057-.114-.133-.195-.13-.273.008-.287.179-.189.396-.087zm-21.086-8.343l-.041.433-.482-.084zm-.816-.423l.131.019-.089.42-.134-.008zm-3.3 1.3c-.591.085-.6.084-.565-.4zm19.249-24.535c.053.017.091.24.058.343-.121.376-.042.6.365.728a.848.848 0 01.58.939c-.007.169.019.339.02.509a1.192 1.192 0 00.7 1.117.57.57 0 01.347.71c-.1.58.079.769.681.759.285 0 .556-.009.7.245a2.129 2.129 0 00-.133.426 2.529 2.529 0 00.015.624 6.555 6.555 0 00.3 1.408 3.777 3.777 0 00.952 1.8.093.093 0 01.03.055c.092.517.532.666.922.861a2.378 2.378 0 00.344.113l-.034.488.948-.074-.4.61a3.8 3.8 0 00.538.266c.436.133.868.247.881.83 0 .069.087.143.146.2a1.641 1.641 0 001.858.392 3.143 3.143 0 01.651-.094c0-.114.006-.261 0-.408s-.027-.292-.041-.426c.383-.224.445.055.557.289.157.329.167.325.535.166a2.829 2.829 0 01-.381-.327c-.5-.607-.5-.614-.033-1.243.082-.109.141-.154.063-.312a2.008 2.008 0 01-.153-.648c-.062-.515-.2-1.051.264-1.455a2.174 2.174 0 00.69.065c.379-.092.112-.417.126-.575.178-.119.392-.183.418-.293.1-.428.374-.512.754-.479a1.127 1.127 0 00.334-.079l-.325-.541c-.623-.146-.8-.424-.655-1.021.06-.246.109-.5.154-.7l.5-.235a2.168 2.168 0 00-.471-.4.781.781 0 01-.4-.454c-.291-.572-.581-1.148-.921-1.692a1.189 1.189 0 00-.555-.345c-.33-.137-.676-.237-1.009-.351l.426-1.03-.822-.131c.186-.963.079-1.272-.574-1.628l-.388.258-.065-.063.321-.51c-.268-.255-.537-.5-.792-.758-.1-.1-.24-.228-.253-.355-.055-.53-.566-.714-.8-1.11-.224-.374-.7-.573-.822-1.052-.021-.084-.127-.161-.211-.213a.772.772 0 00-.93-.01c-.267-.308-.051-.845-.552-.947l-.558 1.079-.146-.032a.514.514 0 00.1-.652c.284-.337-.05-.458-.206-.684-.433.348-.274.871-.415 1.2-.249-.141-.549-.414-.657-.352-.323.186-.479-.211-.722-.161-.253.9.64 1.105.961 1.617-.482.565-.677.586-1.2.233a1.638 1.638 0 00-.517-.162.535.535 0 00-.18.026l.164.345a2.189 2.189 0 00-.546.292 2.644 2.644 0 00-.339.6l-.249-.582c-.422.013-.439.007-.544.281a3.5 3.5 0 00-.006 1.7c.025.378.101.85.602 1.01zm11.673 4.492c.186-.157.439-.008.618.242l-.449.243.026.505-.527-.288c.11-.249.155-.553.332-.7zm-.25 1.838l.233.464.443-.075c.4.338.086 1.134-.7 1.637.351-.605.338-.649-.177-.762-.182-.04-.37-.054-.62-.089l-.075-1.03zm-3.186-7.815l.157.178-.174.145c-.028-.043-.081-.088-.078-.128a.662.662 0 01.094-.195zm-.179 3.407c0 .55.585.849.417 1.466l-1.011-1.026zm-6.642-4.439c-.25.119-.25.119-.552-.131zm29.965 3.081c-.115-.171-.228-.344-.345-.514-.105-.154-.215-.3-.347-.488-.162.3-.276.516-.413.772.1.08.2.207.325.24a1.891 1.891 0 00.518-.014c-.208.514-.454-.054-.646.1a.949.949 0 00-.436 1.108 2.3 2.3 0 01-.623-.337c-.329-.385-.312-.4-.762-.178a2.263 2.263 0 01-.268.088l-.28-.508.692-.072c.427-.281.122-.959.647-1.153.255.349.431.387.568.064a.674.674 0 01.607-.472l-.136-.962-.6.032c-.537-.52-.245-1.135-.319-1.71l-.094.324-.4-.087c-.251.393-.251.393-.582.443l.471-.746c-.487.121-.514-.214-.564-.532-.308.144-.607.241-.8-.046a2.118 2.118 0 00-.91-.662 2.631 2.631 0 01-1.049-.976 2.951 2.951 0 00-.774-.589l-.262.507c-.232-.054-.332-.12-.233-.355a2.072 2.072 0 00.083-.538c-.261-.075-.527-.075-.583-.184-.112-.219-.27-.218-.454-.271a4.581 4.581 0 01-.636-.276c-.069-.255-.065-.545-.2-.656-.115-.092-.4.027-.6.051l.064-.789c-.353.352-.654-.154-.964.225l.67.7c-.443-.075-.745.257-1.114-.028.161-.341.358-.681.058-1.056l-.274.336c-.609-.072-.388-.737-.808-.987-.33.456.139.811.106 1.213a2.976 2.976 0 00-.928.13.612.612 0 01-.816-.123c-.094.225-.266.475-.214.538.232.279.1.568.11.853a.7.7 0 00.242.624.431.431 0 01.105.389.97.97 0 00.155.841 2.949 2.949 0 01.395.847 1.041 1.041 0 00.613.916c.042.266.006.567.118.64a.841.841 0 01.327.789c-.02.73.469 1.257.64 1.9a3.707 3.707 0 01.309 1.069 2.285 2.285 0 00.65 1.662 1.338 1.338 0 01.29.605 1.657 1.657 0 00.5 1.062 2.169 2.169 0 01.48.651 1.055 1.055 0 001.33.584c.4-.093.654.032.767.375.431.011.781-.357 1.194-.019a9.3 9.3 0 001.039.647c.078-.42.161-.783.209-1.151.063-.476.572-.434.84-.716l-.488-.408a2.514 2.514 0 00.324-.846 2.386 2.386 0 00-.353-.809c.233 0 .486.025.416-.266s-.27-.177-.444-.073a.5.5 0 01-.167.019c.13-.445.493-.337.757-.366s.556-.015.657.321a2.956 2.956 0 01.515-.2 5.443 5.443 0 001.626-.311c.58-.28.823-.662.469-1.191zm-11.246-8.046v-.775c.359.339.359.339 0 .775zm1.466.173c-.072-.438.263-.342.454-.493.103.444-.219.407-.455.492zm6.226 6.68c.092-.368.275-.364.539-.271-.085.257-.24.307-.539.27z"/><path d="M134.186 32.753c-.56.528-.513.662.354 1.063l.328-.709c-.168-.073-.285-.116-.394-.174s-.198-.123-.288-.18zM112.083 49.86l-.636-.5-.038.556.352.163c.238.109.303-.024.322-.219zm4.635 9.238a3.048 3.048 0 00-.354-.407c-.072-.06-.205-.046-.311-.065.015.112-.01.285.051.323a3.657 3.657 0 00.592.251zm2.9-7.545c-.028-.2-.057-.446-.314-.512v.82c.142-.133.325-.235.314-.308zm-3.793-11.795l.642-.152c-.578-.334-.62-.321-.642.152zm1.632-.538c.2-.26.223-.477-.113-.667-.15.281-.263.513.113.667zM85.983 88.493l-.445.422.417.16.155-.522zm11.104-1.213c-.038-.431-.334-.35-.66-.471a.754.754 0 00.66.471zm19.089-25.899c.07.081.127.2.215.232.053.021.155-.079.286-.153-.123-.11-.2-.215-.292-.247-.047-.015-.138.108-.209.168zM81.98 53.164c.02.01.1-.093.193-.178l-.324-.224c-.045.064-.139.166-.124.186a.825.825 0 00.255.216zm14.252-2.598l.188.377.448-.377zm.175.388l.015-.008zm28.57 40.341l.6.218.059-.129c-.186-.104-.348-.314-.659-.089zM95.012 86.89l.118-.122-.3-.287-.11.116zm22.042-49.7h-.005l.005.009h.014z"/><path d="M117.192 36.743c-.309.155-.281.293-.138.447.318-.064.127-.24.138-.447zM105.504 49.01l.4.139-.264-.454zm27.053-16.517l.018.011c0-.008-.006-.014-.008-.021zm-.324.269l.324-.27c-.075-.049-.152-.1-.272-.175zm-16.754 29.03a.385.385 0 00.16.14c.025.01.085-.072.13-.111a1.429 1.429 0 00-.181-.133.219.219 0 00-.109 0c-.005.036-.018.08 0 .104zm-.017-.107h.016v-.017l-.012.012.012-.012-.014.018zm2.204 24.999l.125.337.288-.418zm-2.222-49.45l-.627-.174.169.547z"/></svg>