<svg xmlns="http://www.w3.org/2000/svg" width="110" height="109.086" viewBox="0 0 110 109.086"><g transform="translate(-880.073 -729.193)"><g transform="translate(880.073 729.193)"><g transform="translate(73.978 4.219)"><path d="M972.4,766.342a1.4,1.4,0,0,1-1.213-.7,23.039,23.039,0,0,1-1.229-2.786l-.157-.4a6.56,6.56,0,0,0-.98-1.808,1.416,1.416,0,0,1-.316-.426,47.79,47.79,0,0,0-11.043-14.831,44.337,44.337,0,0,0-15.92-9.251,1.4,1.4,0,0,1,.435-2.731,9.589,9.589,0,0,1,2.161.369c.566.151,1.136.327,1.69.525a13.115,13.115,0,0,1,2.993,1.427c.975.6,1.9,1.209,2.818,1.818.538.356,1.071.71,1.621,1.063a43.221,43.221,0,0,1,11.459,9.377,52.455,52.455,0,0,1,3.239,4.154c.149.2.3.42.452.643l.114.181c.66.979,1.3,2.017,1.9,3.06l.12.2c.131.224.233.422.331.621.551,1.012,1.072,2.072,1.536,3.123a1.384,1.384,0,0,1,.1.78l1.221,3.763a1.4,1.4,0,0,1-1.332,1.831Z" transform="translate(-940.574 -733.412)" fill="#d5c1b1"/></g><g transform="translate(74.578 4.819)"><path d="M972.4,765.742a.8.8,0,0,1-.694-.4,22.743,22.743,0,0,1-1.19-2.7l-.158-.4a6.648,6.648,0,0,0-1.13-2.028.791.791,0,0,1-.181-.245,48.4,48.4,0,0,0-11.184-15.018,44.94,44.94,0,0,0-16.134-9.376.8.8,0,0,1,.248-1.56h.039a9.021,9.021,0,0,1,1.965.347c.55.146,1.106.319,1.646.511a12.554,12.554,0,0,1,2.862,1.362c.987.606,1.907,1.214,2.82,1.819.538.356,1.075.712,1.627,1.067a42.73,42.73,0,0,1,11.327,9.262c1.139,1.32,2.219,2.7,3.2,4.105.153.208.3.419.445.634l.1.163c.67,1,1.3,2.02,1.884,3.039l.131.215c.116.2.211.384.3.569.556,1.026,1.069,2.07,1.526,3.1a.8.8,0,0,1,.025.587l.05.116,1.227,3.783a.8.8,0,0,1-.76,1.046Z" transform="translate(-941.174 -734.012)" fill="#d5c1b1"/></g><g transform="translate(105.988 51.344)"><path d="M974.19,780.4a1.4,1.4,0,0,1-1.4-1.324l-.207-3.758a1.4,1.4,0,0,1,1.3-1.473h.006a1.429,1.429,0,0,1,1.484,1.279c.126,1.5.21,2.73.212,3.874a1.389,1.389,0,0,1-1.361,1.4h-.039Z" transform="translate(-972.584 -773.844)" fill="#d5c1b1"/></g><g transform="translate(106.588 51.94)"><path d="M974.19,779.8a.8.8,0,0,1-.8-.756l-.207-3.76a.8.8,0,0,1,.744-.842.5.5,0,0,1,.055,0,.8.8,0,0,1,.8.734c.124,1.481.207,2.7.21,3.824a.8.8,0,0,1-.776.8Z" transform="translate(-973.184 -774.44)" fill="#d5c1b1"/></g><g transform="translate(6.032 44.117)"><path d="M887.369,774.331a1.4,1.4,0,0,1-1.259-1.508c.057-.686.137-1.378.228-2.072a10.165,10.165,0,0,1,.306-1.475c.057-.216.11-.421.155-.627a1.408,1.408,0,0,1,1.368-1.1,1.487,1.487,0,0,1,.272.027,1.408,1.408,0,0,1,1.1,1.632c-.049.26-.109.519-.168.775a8.673,8.673,0,0,0-.213,1.1l-.269,2.036a1.4,1.4,0,0,1-1.387,1.217C887.481,774.337,887.393,774.333,887.369,774.331Z" transform="translate(-886.105 -767.546)" fill="#d5c1b1"/></g><g transform="translate(6.632 44.729)"><path d="M887.42,773.733a.8.8,0,0,1-.712-.861c.056-.676.135-1.358.225-2.043a9.5,9.5,0,0,1,.292-1.4c.056-.217.113-.434.16-.653a.8.8,0,0,1,1.568.318c-.048.258-.108.512-.167.767a9.3,9.3,0,0,0-.222,1.163l-.266,2.018a.8.8,0,0,1-.792.7A.824.824,0,0,1,887.42,773.733Z" transform="translate(-886.705 -768.146)" fill="#d5c1b1"/></g><g transform="translate(41.957 4.554)"><path d="M916.993,738.3a1.4,1.4,0,0,1-.352-2.756c.4-.1.8-.2,1.2-.294l.272-.07a26.13,26.13,0,0,1,3.444-.719l2.371-.386a17.6,17.6,0,0,1,1.78-.154c.267-.014.533-.026.8-.048l.65-.036c.631-.035,1.263-.071,1.894-.087l2.576.149c.269.025.492.04.712.053a12.626,12.626,0,0,1,1.931.224c.778.149,1.581.317,2.372.5a1.4,1.4,0,0,1-.312,2.765c-.023,0-.08,0-.1,0-.735-.041-1.494-.1-2.261-.171a44.321,44.321,0,0,0-5.79-.384,43.271,43.271,0,0,0-9.692,1.095c-.382.1-.783.2-1.184.29A1.4,1.4,0,0,1,916.993,738.3Z" transform="translate(-915.594 -733.747)" fill="#d5c1b1"/></g><g transform="translate(42.561 5.154)"><path d="M916.993,737.7a.8.8,0,0,1-.2-1.574q.591-.153,1.184-.29l.288-.074a25.3,25.3,0,0,1,3.367-.7l2.4-.39a17,17,0,0,1,1.715-.146c.272-.014.544-.028.815-.049l.635-.035c.626-.037,1.251-.072,1.876-.087l2.527.147c.281.027.532.043.784.059a11.564,11.564,0,0,1,1.765.206c.785.151,1.582.318,2.366.5a.8.8,0,0,1-.178,1.58h-.045c-.753-.043-1.5-.1-2.265-.172a44.621,44.621,0,0,0-5.844-.386,43.871,43.871,0,0,0-9.824,1.11c-.395.1-.79.2-1.185.29A.819.819,0,0,1,916.993,737.7Z" transform="translate(-916.193 -734.347)" fill="#d5c1b1"/></g><g transform="translate(70.842 7.64)"><path d="M956.308,748.13a1.4,1.4,0,0,1-.965-.385,36.8,36.8,0,0,0-13.743-8.183,1.4,1.4,0,0,1,.858-2.666,36.983,36.983,0,0,1,14.834,8.839,1.4,1.4,0,0,1-.984,2.4Z" transform="translate(-940.642 -736.833)" fill="#d5c1b1"/></g><g transform="translate(71.39 8.241)"><path d="M956.308,747.53a.8.8,0,0,1-.553-.22,37.387,37.387,0,0,0-13.966-8.318.8.8,0,0,1,.253-1.558.776.776,0,0,1,.236.035,36.359,36.359,0,0,1,14.592,8.693.8.8,0,0,1-.562,1.368Z" transform="translate(-941.242 -737.434)" fill="#d5c1b1"/></g><g transform="translate(23.148 85.084)"><path d="M906.463,810.393a1.4,1.4,0,0,1-.746-.215c-.137-.086-.281-.158-.425-.231a6.677,6.677,0,0,1-.945-.55,15.043,15.043,0,0,1-1.464-1.532c-.155-.181-.289-.341-.432-.495a9.235,9.235,0,0,0-.712-.718c-.154-.139-.307-.293-.473-.462-.187-.189-.381-.387-.619-.6a1.4,1.4,0,0,1-.262-1.791,1.56,1.56,0,0,1,1.262-.7,1.8,1.8,0,0,1,.875.246,1.318,1.318,0,0,1,.224.153,1.755,1.755,0,0,1,.515.41l.477.583.432.421,1.064,1.07c.119.115.251.251.384.389.224.23.41.425.612.6l1.128.937a1.4,1.4,0,0,1-.895,2.477Z" transform="translate(-900.171 -803.106)" fill="#d5c1b1"/></g><g transform="translate(23.799 85.625)"><path d="M906.463,809.793a.8.8,0,0,1-.425-.123c-.162-.1-.33-.185-.5-.27a6.1,6.1,0,0,1-.842-.489.837.837,0,0,1-.079-.065,15.429,15.429,0,0,1-1.287-1.377c-.15-.177-.291-.344-.442-.506a9.658,9.658,0,0,0-.75-.756c-.145-.132-.29-.278-.447-.437-.188-.191-.4-.4-.651-.626a.8.8,0,0,1-.149-1.023.97.97,0,0,1,.753-.414,1.22,1.22,0,0,1,.589.172.781.781,0,0,1,.126.087.989.989,0,0,0,.169.12.794.794,0,0,1,.267.211l.475.581.476.469,1.06,1.065c.129.126.264.265.4.4.205.211.408.423.628.616l1.14.946a.8.8,0,0,1-.512,1.415Z" transform="translate(-900.773 -803.707)" fill="#d5c1b1"/></g><g transform="translate(7.043 40.389)"><path d="M888.382,768.862a1.4,1.4,0,0,1-1.263-1.364l0-.15a1.416,1.416,0,0,1,.031-.324l.048-.229a9.218,9.218,0,0,1,.344-1.3l.15-.308a1.4,1.4,0,0,1,1.245-.76,1.383,1.383,0,0,1,.553.114,1.408,1.408,0,0,1,.774,1.73,12.184,12.184,0,0,0-.312,1.223l-.064.286a1.392,1.392,0,0,1-1.366,1.093C888.494,768.869,888.407,768.865,888.382,768.862Z" transform="translate(-887.116 -764.423)" fill="#d5c1b1"/></g><g transform="translate(7.643 41.009)"><path d="M888.437,768.266a.8.8,0,0,1-.718-.781l0-.149a.81.81,0,0,1,.017-.184l.05-.233a8.555,8.555,0,0,1,.32-1.222.747.747,0,0,1,.047-.1l.076-.142a.8.8,0,0,1,.708-.428.8.8,0,0,1,.758,1.054,12.7,12.7,0,0,0-.329,1.283l-.064.286a.8.8,0,0,1-.78.624A.765.765,0,0,1,888.437,768.266Z" transform="translate(-887.716 -765.023)" fill="#d5c1b1"/></g><g transform="translate(21.15 82.185)"><path d="M902.164,806.185a1.392,1.392,0,0,1-.81-.257c-.075-.053-.135-.1-.189-.127a1.4,1.4,0,0,1-.245-.175,12.458,12.458,0,0,1-.936-.958,10.963,10.963,0,0,0-.962-.972,1.4,1.4,0,0,1-.4-1.654,1.462,1.462,0,0,1,.957-1.176,1.563,1.563,0,0,1,.493-.082,1.374,1.374,0,0,1,1.146.586,18.691,18.691,0,0,0,1.2,1.527c.285.339.57.678.842,1.027a1.391,1.391,0,0,1-.089,1.826A1.408,1.408,0,0,1,902.164,806.185Z" transform="translate(-898.507 -800.784)" fill="#d5c1b1"/></g><g transform="translate(21.8 82.705)"><path d="M902.163,805.585a.8.8,0,0,1-.46-.146c-.088-.061-.171-.121-.245-.162a.815.815,0,0,1-.138-.1,12.314,12.314,0,0,1-.893-.916,10.791,10.791,0,0,0-1.027-1.033.8.8,0,0,1-.149-1.082.047.047,0,0,1,.013-.009.8.8,0,0,1,.539-.741.815.815,0,0,1,.26-.043.8.8,0,0,1,.663.351,18.768,18.768,0,0,0,1.241,1.578c.28.332.56.665.827,1.008a.8.8,0,0,1-.631,1.292Z" transform="translate(-899.105 -801.356)" fill="#d5c1b1"/></g><g transform="translate(10.901 44.512)"><path d="M892.864,784.322a1.392,1.392,0,0,1-1.394-1.276c-.121-1.376-.193-2.789-.214-4.2a3.158,3.158,0,0,0-.148-.974c-.052-.192-.093-.359-.115-.494a1.315,1.315,0,0,1-.009-.382,31.242,31.242,0,0,1,.787-3.99c.135-.561.274-1.135.407-1.736.014-.158.043-.353.079-.575a7.678,7.678,0,0,0,.113-.957,1.409,1.409,0,0,1,.2-.674c.189-.317.368-.661.541-1.024a1.4,1.4,0,0,1,1.264-.8,1.432,1.432,0,0,1,.5.093,1.408,1.408,0,0,1,.835,1.72,36.063,36.063,0,0,0-1.451,13.752,1.4,1.4,0,0,1-1.275,1.513C892.962,784.319,892.887,784.322,892.864,784.322Z" transform="translate(-890.974 -767.239)" fill="#d5c1b1"/></g><g transform="translate(11.501 45.117)"><path d="M892.863,783.723a.8.8,0,0,1-.8-.73c-.119-1.363-.191-2.762-.211-4.157a3.621,3.621,0,0,0-.169-1.12c-.045-.17-.083-.317-.1-.434a.786.786,0,0,1-.006-.217,31.2,31.2,0,0,1,.775-3.922c.139-.574.282-1.164.418-1.784.012-.151.041-.346.078-.569a8.293,8.293,0,0,0,.12-1.034.8.8,0,0,1,.113-.386c.2-.332.385-.692.566-1.073a.8.8,0,0,1,.723-.457.776.776,0,0,1,.29.055.8.8,0,0,1,.475.98,36.646,36.646,0,0,0-1.476,13.979.8.8,0,0,1-.728.866C892.91,783.722,892.886,783.723,892.863,783.723Z" transform="translate(-891.574 -767.84)" fill="#d5c1b1"/></g><path d="M935.25,838.28a52.633,52.633,0,0,1-12.969-1.618,57.148,57.148,0,0,1-38.827-31.85c-.093-.235-.17-.413-.251-.6a16.234,16.234,0,0,1-.89-2.5c-.315-1.141-.664-2.489-1.015-3.91a51.8,51.8,0,0,1-1.023-9.024,59.52,59.52,0,0,1,.628-14.2l.766-3.553.383-1.73,1.622-5.182,1.389-3.393.8-1.764.99-1.762.533-.924c.426-.742.911-1.588,1.435-2.39l.817-1.135a43.107,43.107,0,0,1,3.978-5l1.859-2.042.786-.73,2.794-2.524a26.394,26.394,0,0,1,2.095-1.638c.351-.254.672-.487.988-.728l1.549-1.13c.378-.275.777-.512,1.177-.748l3.809-2.255,3.572-1.691c.206-.09.373-.17.539-.248a13.075,13.075,0,0,1,1.36-.588l1.79-.642c.427-.142.816-.285,1.206-.427a24.98,24.98,0,0,1,2.6-.842l3.754-.94a15.814,15.814,0,0,1,2.083-.406l1.915-.291a42.5,42.5,0,0,1,5.976-.573c.694-.034,1.372-.067,2.051-.112,1.928.027,5.075.427,6.263,1.23a1.811,1.811,0,0,1,.78,2.042,1.584,1.584,0,0,1-.055.154l.576.1c.376.066.753.13,1.13.185a40,40,0,0,1,5.552,1.226l1.289.346a1.6,1.6,0,0,1-.409,3.137,1.676,1.676,0,0,1-.365-.042,55.7,55.7,0,0,0-12.866-1.517,53.845,53.845,0,0,0-6.038.34,52.788,52.788,0,0,0-6.578,1.146,1.595,1.595,0,0,1-.384,2.635c-.627.3-1.314.595-2.011.9-.39.171-.793.4-1.185.622l-.037.022c.006.025.012.051.018.076.281,1.319-.875,1.839-1.641,2.184a53.958,53.958,0,0,0-10.064,6.243c-.337.273-.659.537-.966.794a7.165,7.165,0,0,1,.755-.208,2.8,2.8,0,0,1,.588-.067,1.715,1.715,0,0,1,1.651,1.077,2.1,2.1,0,0,1-.775,2.285,13.811,13.811,0,0,0-1.34,1.243l-.326.328c-.229.24-.506.506-.793.782-.413.4-.832.8-1.209,1.234l-2.211,2.585-2.063,2.9c-.576.77-1.082,1.591-1.616,2.46l-.077.123c-.214.348-.431.7-.654,1.048-.02.095-.082.455-.082.455a1.613,1.613,0,0,1-.14.432,43.821,43.821,0,0,0-3.966,12.32l-.321,1.657a5.221,5.221,0,0,0-.093.81c-.014.215-.029.432-.052.648a9.533,9.533,0,0,1-.408,1.438c.022.211.039.42.055.63.023.307.043.6.093.887.044.762.054,1.324.063,1.885.013.8.026,1.7.09,2.528.064.41.129.932.193,1.454.113.912.218,1.763.366,2.564l.411,2.712c.04.275.079.54.124.8a2.013,2.013,0,0,1,.275.267,1.565,1.565,0,0,1,.3.512l.872,2.493a8.883,8.883,0,0,0,.581,1.366c.153.311.3.621.44.936.107.205.244.511.381.816a9.862,9.862,0,0,0,.656,1.306l1.374,2.3a.788.788,0,0,1,.052.1c.253.579.514,1.061.766,1.526l.148.273q.41.788.729,1.528l.467.4c.635.544,1.354,1.159,2.112,1.912a26.261,26.261,0,0,0,2.009,1.892c.507.447,1.011.891,1.508,1.361a9.191,9.191,0,0,0,1.149.946c.3.218.554.41.8.614.205.145.474.358.743.572a11.762,11.762,0,0,0,1.192.874l2.568,1.583a5.628,5.628,0,0,0,.541.317l.737.336a1.541,1.541,0,0,1,.348.117l2.082,1.019a8.817,8.817,0,0,0,1.188.479c.294.1.583.206.867.321l2.148.8,2.114.545a1.609,1.609,0,0,1,.289.106c.38.179.752.368,1.108.565.229.008.455.019.666.028.322.015.61.029.811.029a2.364,2.364,0,0,1,.472.046,47.4,47.4,0,0,0,4.854.889s.965.141,1.388.207l.014-.006a6.681,6.681,0,0,1,1.945-.463l2.46-.1c.39-.042.872-.129,1.349-.212l.813-.136,1.405-.181a6.572,6.572,0,0,0,1.136-.2l2.8-.648a42.385,42.385,0,0,0,16.061-8.095,1.616,1.616,0,0,1,.744-.331c.02,0,.092-.011.166-.018.229-.232.468-.451.693-.654a5.335,5.335,0,0,0,.809-.8,1.608,1.608,0,0,1,.7-.605,17.362,17.362,0,0,1,1.777-1.853A14.391,14.391,0,0,0,970.1,811.3a5.365,5.365,0,0,0,.33-.59c.136-.266.271-.521.428-.77a1.556,1.556,0,0,1,.18-.233,1.9,1.9,0,0,0,.172-.24l.189-.279a1.575,1.575,0,0,1,.19-.226,15.228,15.228,0,0,0,1.332-1.54,8.843,8.843,0,0,0,1.039-1.6l1.1-2.286.434-.929.362-1.021,1.026-2.386a8.219,8.219,0,0,0,.473-1.315c.1-.341.194-.65.3-.953l.749-2.348.478-2.307c.162-.772.333-1.407.484-1.968.106-.385.2-.724.267-1.051.089-.342.162-.6.235-.862.144-.521.284-1.015.408-1.6a1.6,1.6,0,0,1,1.559-1.263c.038,0,.156.007.194.011a1.584,1.584,0,0,1,1.4,1.618q-.005.3-.014.612a1.8,1.8,0,0,1,.922-.254c1.193,0,1.658.88,1.842,1.786.255-1.507.5-2.715.742-3.728a1.6,1.6,0,0,1,3.132.587,65.541,65.541,0,0,1-6.23,20.953,59.36,59.36,0,0,1-14.675,18.715,54.886,54.886,0,0,1-22.211,11.1A50.888,50.888,0,0,1,935.25,838.28Z" transform="translate(-880.073 -729.193)" fill="#d5c1b1"/><g transform="translate(0.601 0.599)"><path d="M935.251,837.68a52.056,52.056,0,0,1-12.82-1.6A56.565,56.565,0,0,1,884,804.562c-.089-.226-.172-.421-.263-.631a15.266,15.266,0,0,1-.839-2.356c-.318-1.153-.667-2.5-1.016-3.914a51,51,0,0,1-1.006-8.869,59.306,59.306,0,0,1,.622-14.13l.759-3.511.382-1.729,1.609-5.134,1.371-3.342.789-1.745.964-1.71.53-.919c.447-.781.911-1.587,1.419-2.36l.8-1.112a42.483,42.483,0,0,1,3.922-4.929l1.876-2.063.746-.689,2.792-2.522a26.169,26.169,0,0,1,2.068-1.613c.328-.239.655-.476.976-.72l1.539-1.124c.359-.26.741-.486,1.123-.711.18-.106.36-.21.536-.321l3.28-1.938,3.52-1.664c.219-.1.412-.188.6-.281a12.253,12.253,0,0,1,1.231-.53l1.8-.646c.426-.142.828-.289,1.23-.436a24.108,24.108,0,0,1,2.516-.814l3.762-.943a15.134,15.134,0,0,1,2.016-.392l1.926-.293a42.448,42.448,0,0,1,5.916-.566c.687-.034,1.376-.068,2.067-.113,2.069.031,4.93.5,5.844,1.116a1.116,1.116,0,0,1,.511,1.271c-.119.378-.309.645-1.017.834.709.062,1.4.182,2.074.3.383.067.767.134,1.152.188a39.622,39.622,0,0,1,5.487,1.212l1.285.346a.913.913,0,0,1-.232,1.8.892.892,0,0,1-.211-.024,56.5,56.5,0,0,0-13.04-1.536,54.571,54.571,0,0,0-6.124.345,53.309,53.309,0,0,0-18.735,5.655,51.011,51.011,0,0,0-12.392,9.075.919.919,0,0,1,.166.341q1.459-1.488,3.04-2.846a46.389,46.389,0,0,1,20.144-10.1.95.95,0,0,1,.2-.022.913.913,0,0,1,.388,1.739c-.623.292-1.3.59-2,.889-.417.183-.849.427-1.268.664-.21.12-.418.237-.626.348a.9.9,0,0,1,.289.482c.167.782-.493,1.076-1.257,1.419a54.817,54.817,0,0,0-10.238,6.353c-.662.538-1.272,1.042-1.832,1.533-.446.478-.911,1-1.325,1.5-.143.172-.274.337-.4.494l1.739-.906c.353-.183.688-.354,1.008-.481a9.431,9.431,0,0,1,1.175-.36,2.269,2.269,0,0,1,.451-.052,1.032,1.032,0,0,1,1.016.643c.281.709-.318,1.269-.607,1.539a14.111,14.111,0,0,0-1.362,1.266l-.324.326c-.233.244-.5.5-.782.772-.42.4-.854.817-1.257,1.284l-2.215,2.59-2.1,2.949c-.582.78-1.1,1.616-1.645,2.5-.259.422-.523.849-.8,1.275-.011.038-.055.287-.087.469l-.023.128a.9.9,0,0,1-.081.248,44.639,44.639,0,0,0-4.035,12.545l-.316,1.624a5.83,5.83,0,0,0-.1.9c-.014.207-.027.413-.051.617a8.056,8.056,0,0,1-.428,1.421c.032.26.052.519.072.778.024.319.047.637.1.954a1.057,1.057,0,0,1,.013.121c.022.554.031,1.107.04,1.66.014.852.027,1.73.092,2.574.072.478.139,1.022.205,1.564.1.839.21,1.706.363,2.533l.409,2.7c.056.382.11.753.181,1.107a1.247,1.247,0,0,1,.377.3.9.9,0,0,1,.17.294l.871,2.494a9.507,9.507,0,0,0,.615,1.446c.147.3.294.6.427.906.124.243.261.547.4.851a10.34,10.34,0,0,0,.694,1.372l1.365,2.287a1.049,1.049,0,0,1,.057.112c.22.522.489,1.016.748,1.494l.148.275q.435.837.766,1.62c.183.161.38.33.589.509.628.538,1.34,1.147,2.078,1.882a26.841,26.841,0,0,0,2.052,1.93c.487.429.99.871,1.482,1.338a9.741,9.741,0,0,0,1.218,1c.261.194.523.388.776.595.233.167.5.378.761.587a12.176,12.176,0,0,0,1.254.918s2.437,1.5,2.565,1.582a5.918,5.918,0,0,0,.607.35l.83.38a.813.813,0,0,1,.259.077l2.079,1.017a9.816,9.816,0,0,0,1.267.512c.281.1.562.2.838.309l2.166.809,2.186.566a1.038,1.038,0,0,1,.16.059c.427.2.835.411,1.221.63.283.009.563.022.822.033.339.016.637.03.847.03a1.772,1.772,0,0,1,.31.026,47.842,47.842,0,0,0,4.924.9c.519.075,1.036.151,1.553.233.079-.024.169-.06.271-.1a5.693,5.693,0,0,1,1.663-.392l2.456-.1c.454-.048.959-.137,1.458-.223.263-.046.524-.091.784-.131l1.391-.18a7.155,7.155,0,0,0,1.236-.217l2.768-.641a43.192,43.192,0,0,0,16.361-8.241.918.918,0,0,1,.426-.189c.048-.008.205-.021.255-.021s.07,0,.1,0c.275-.3.575-.574.851-.823a5.14,5.14,0,0,0,.932-.948.912.912,0,0,1,.532-.394,16.576,16.576,0,0,1,1.833-1.932,15.493,15.493,0,0,0,1.786-1.895,5.844,5.844,0,0,0,.406-.711c.124-.241.25-.482.4-.713a.821.821,0,0,1,.1-.132,2.823,2.823,0,0,0,.268-.366l.161-.237a1,1,0,0,1,.1-.119,16.066,16.066,0,0,0,1.4-1.615,9.433,9.433,0,0,0,1.122-1.736l1.093-2.273.441-.937.009-.039.377-1.043,1.012-2.351a8.878,8.878,0,0,0,.507-1.407c.09-.3.18-.607.286-.906l.757-2.371.5-2.379c.159-.757.328-1.381.477-1.932.107-.395.2-.75.276-1.09.08-.308.151-.565.224-.821.143-.516.288-1.033.419-1.648a.912.912,0,0,1,.891-.723c.035,0,.071,0,.106.006a.914.914,0,0,1,.808.927c-.022,1-.059,2.029-.11,3.066l-.007.13a3.74,3.74,0,0,1,.96-1.848,1.127,1.127,0,0,1,.75-.288c1.254,0,1.271,1.638,1.281,2.618a43.279,43.279,0,0,1-.883,5.6A45.826,45.826,0,0,1,982.622,803l.031.006c.3-.584.612-1.2.922-1.828.51-1.172.968-2.5,1.451-3.909l.442-1.281c.138-.621.318-1.338.5-2.05.293-1.172.571-2.281.786-3.359.329-2.052.624-3.6.923-4.832a.912.912,0,0,1,.886-.7.866.866,0,0,1,.17.016.911.911,0,0,1,.736,1.017,64.961,64.961,0,0,1-6.172,20.769,58.811,58.811,0,0,1-14.529,18.529A54.264,54.264,0,0,1,946.8,836.351,50.333,50.333,0,0,1,935.251,837.68Z" transform="translate(-880.674 -729.792)" fill="#d5c1b1"/></g><g transform="translate(29.503 92.235)"><path d="M913.612,815.171a1.394,1.394,0,0,1-.59-.131l-.035-.018c-2.666-1.242-5.179-2.414-7.041-4.668a1.4,1.4,0,0,1,1.973-1.968,36.852,36.852,0,0,0,6.349,4.147,1.4,1.4,0,0,1-.656,2.638Z" transform="translate(-905.624 -808.063)" fill="#d5c1b1"/></g><g transform="translate(30.143 92.836)"><path d="M913.612,814.57a.779.779,0,0,1-.337-.075l.338-.724-.373.708c-2.6-1.211-5.055-2.356-6.831-4.506a.8.8,0,0,1,1.127-1.126,37.453,37.453,0,0,0,6.451,4.216.8.8,0,0,1-.375,1.507Z" transform="translate(-906.225 -808.663)" fill="#d5c1b1"/></g><g transform="translate(18.683 20.206)"><path d="M897.5,762.775a1.426,1.426,0,0,1-.407-.059,1.411,1.411,0,0,1-.93-.845,1.39,1.39,0,0,1,.1-1.219l1.241-2.081c.139-.234.283-.471.445-.7l2.072-2.7,1.608-1.736.71-.79c.189-.2.377-.377.564-.546.091-.082.178-.161.262-.243.507-.476.964-.923,1.383-1.356a9.9,9.9,0,0,1,.849-.827c.163-.147.3-.266.418-.388a9.721,9.721,0,0,0,.869-.945,1.415,1.415,0,0,1,.5-.4c.44-.207.915-.395,1.411-.59.559-.219,1.136-.446,1.685-.718a1.4,1.4,0,0,1,1.338,2.457l-2.055,1.222s-2.054,1.535-2.176,1.623c-.184.131-.358.255-.521.393l-.846.771c-.219.2-.457.415-.694.624-.366.323-.7.619-1.015.939-.243.278-.542.6-.842.928a22.144,22.144,0,0,0-2.13,2.535l-.771,1.023a5.937,5.937,0,0,0-.576.829l-1.3,2.127A1.406,1.406,0,0,1,897.5,762.775Z" transform="translate(-896.07 -746.489)" fill="#d5c1b1"/></g><g transform="translate(19.344 20.864)"><path d="M897.5,762.176a.812.812,0,0,1-.232-.034l-.032-.01a.8.8,0,0,1-.456-1.174l1.24-2.079c.131-.221.265-.443.418-.656l2.06-2.682,1.571-1.691.718-.8c.17-.185.346-.345.52-.5.1-.086.189-.171.279-.259.505-.474.97-.927,1.4-1.367a9.667,9.667,0,0,1,.818-.8c.155-.139.3-.273.443-.412a10.215,10.215,0,0,0,.915-1,.8.8,0,0,1,.289-.23c.426-.2.889-.383,1.372-.573.571-.225,1.161-.456,1.732-.74a.8.8,0,0,1,.765,1.4l-2.056,1.224-1.854,1.383c-.116.087-.24.176-.365.266-.189.136-.378.272-.556.421l-.864.786c-.22.205-.454.412-.687.618-.357.316-.714.63-1.047.97-.278.318-.592.657-.907,1a22.054,22.054,0,0,0-2.133,2.548l-.753,1a6.233,6.233,0,0,0-.622.9l-1.288,2.1A.8.8,0,0,1,897.5,762.176Z" transform="translate(-896.671 -747.09)" fill="#d5c1b1"/></g><g transform="translate(23.314 84.654)"><path d="M902.167,806.2a1.366,1.366,0,0,1-.6-.14,3.078,3.078,0,0,1-.611-.408,1.4,1.4,0,0,1,1.582-2.3,5.027,5.027,0,0,1,.439.286,1.353,1.353,0,0,1,.279.261,1.406,1.406,0,0,1-1.084,2.3Z" transform="translate(-900.447 -803.18)" fill="#d5c1b1"/></g><g transform="translate(23.964 85.203)"><path d="M902.167,805.6a.759.759,0,0,1-.341-.081,2.418,2.418,0,0,1-.491-.329.8.8,0,0,1,.9-1.311,4.477,4.477,0,0,1,.385.25.8.8,0,0,1,.159.148.808.808,0,0,1-.616,1.323Z" transform="translate(-901.049 -803.779)" fill="#d5c1b1"/></g><g transform="translate(36.305 7.86)"><path d="M912.985,741.729a1.4,1.4,0,0,1-.58-2.674c.679-.31,1.409-.617,2.169-.925l.119-.048a15.616,15.616,0,0,1,2.416-.823l.681-.166a1.361,1.361,0,0,1,.331-.04,1.4,1.4,0,0,1,.337,2.76,24.846,24.846,0,0,0-3.342,1.179c-.545.223-1.092.445-1.643.65A1.42,1.42,0,0,1,912.985,741.729Z" transform="translate(-911.584 -737.053)" fill="#d5c1b1"/></g><g transform="translate(36.933 8.46)"><path d="M912.985,741.129a.8.8,0,0,1-.331-1.527c.672-.307,1.393-.612,2.145-.915l.12-.048a14.994,14.994,0,0,1,2.324-.795l.69-.168a.759.759,0,0,1,.188-.023.8.8,0,0,1,.191,1.576,25.158,25.158,0,0,0-3.422,1.208c-.54.219-1.08.439-1.626.642A.8.8,0,0,1,912.985,741.129Z" transform="translate(-912.185 -737.653)" fill="#d5c1b1"/></g><g transform="translate(65.651 7.472)"><path d="M958.215,751.354a1.385,1.385,0,0,1-.994-.414,44.816,44.816,0,0,0-9.448-7.288,42.222,42.222,0,0,0-11.271-4.221,1.4,1.4,0,0,1,.309-2.766,1.519,1.519,0,0,1,.272.026A41.842,41.842,0,0,1,948,740.2a37.741,37.741,0,0,1,11.282,8.848,1.4,1.4,0,0,1-1.064,2.308Z" transform="translate(-935.411 -736.665)" fill="#d5c1b1"/></g><g transform="translate(66.193 8.073)"><path d="M958.215,750.755a.8.8,0,0,1-.569-.237,45.293,45.293,0,0,0-9.573-7.385,42.8,42.8,0,0,0-11.438-4.287.8.8,0,0,1,.175-1.58.92.92,0,0,1,.156.014,41.235,41.235,0,0,1,10.761,3.454,37.12,37.12,0,0,1,11.1,8.7.8.8,0,0,1-.608,1.319Z" transform="translate(-936.011 -737.266)" fill="#d5c1b1"/></g><g transform="translate(43.261 13.099)"><path d="M919.165,745.882a1.571,1.571,0,0,1-.284-3.108c.244-.036.867-.136.867-.136a20.374,20.374,0,0,1,3.292-.346,1.422,1.422,0,0,1,1.413,1.345,1.393,1.393,0,0,1-1.276,1.451,15.944,15.944,0,0,0-2.59.495l-.108.026c-.337.083-.674.166-1.013.241A1.382,1.382,0,0,1,919.165,745.882Z" transform="translate(-917.686 -742.292)" fill="#d5c1b1"/></g><g transform="translate(43.875 13.699)"><path d="M919.165,745.282a.971.971,0,0,1-.2-1.914c.292-.044.583-.091.874-.138a19.8,19.8,0,0,1,3.2-.338.813.813,0,0,1,.813.768.788.788,0,0,1-.724.829,16.556,16.556,0,0,0-2.687.512c-.368.091-.735.182-1.105.263A.835.835,0,0,1,919.165,745.282Z" transform="translate(-918.286 -742.892)" fill="#d5c1b1"/></g><g transform="translate(24.425 14.414)"><path d="M902.768,748.326a1.41,1.41,0,0,1-1.009-.428,1.394,1.394,0,0,1,.01-1.953l1.22-1.246a.857.857,0,0,1,.085-.075l.951-.73a1.4,1.4,0,0,1,1.792,2.148l-2.107,1.92A1.4,1.4,0,0,1,902.768,748.326Z" transform="translate(-901.365 -743.607)" fill="#d5c1b1"/></g><g transform="translate(25.074 15.014)"><path d="M902.768,747.727a.8.8,0,0,1-.571-1.361l1.221-1.247a.832.832,0,0,1,.089-.079l.885-.671a.8.8,0,0,1,1.022,1.23l-2.108,1.92A.8.8,0,0,1,902.768,747.727Z" transform="translate(-901.968 -744.207)" fill="#d5c1b1"/></g><g transform="translate(56.043 12.657)"><path d="M933.169,745.106a1.4,1.4,0,0,1-.347-.043,5.886,5.886,0,0,0-.922-.115l-1.739-.141a1.4,1.4,0,0,1,.049-2.793c.555-.026,1.08-.076,1.6-.151.038-.005.161-.013.2-.013a1.4,1.4,0,0,1,.647.158,4,4,0,0,0,.463.186c.236.086.395.145.56.21a1.4,1.4,0,0,1-.515,2.7Z" transform="translate(-928.875 -741.85)" fill="#d5c1b1"/></g><g transform="translate(56.637 13.256)"><path d="M933.169,744.506a.812.812,0,0,1-.194-.024,6.3,6.3,0,0,0-1.038-.132l-1.728-.141a.8.8,0,0,1,.029-1.6c.567-.026,1.111-.077,1.662-.156a.883.883,0,0,1,.114-.008.8.8,0,0,1,.369.09,5.083,5.083,0,0,0,.6.24c.154.057.316.117.486.184a.8.8,0,0,1-.295,1.543Z" transform="translate(-929.475 -742.449)" fill="#d5c1b1"/></g><g transform="translate(74.852 20.259)"><path d="M950.469,752.144a1.389,1.389,0,0,1-.787-.242c-.26-.177-.514-.362-.768-.549-.365-.268-.706-.519-1.069-.739l-1.993-1.161a1.4,1.4,0,0,1,.705-2.61,1.368,1.368,0,0,1,.372.051l.1.026a3.016,3.016,0,0,1,1.147.492c.122.07.287.171.454.273.409.25.783.479,1.142.722l1.569,1.24a1.4,1.4,0,0,1-.87,2.5Z" transform="translate(-945.157 -746.843)" fill="#d5c1b1"/></g><g transform="translate(75.411 20.912)"><path d="M950.469,751.544a.8.8,0,0,1-.449-.138c-.253-.173-.5-.354-.75-.537-.363-.266-.727-.534-1.114-.767l-2-1.167a.8.8,0,0,1,.4-1.492.793.793,0,0,1,.213.029l.1.027a2.637,2.637,0,0,1,.914.37c.188.117.375.233.562.346.37.226.736.45,1.087.688l1.534,1.214a.8.8,0,0,1-.5,1.427Z" transform="translate(-945.757 -747.443)" fill="#d5c1b1"/></g></g></g></svg>