<svg xmlns="http://www.w3.org/2000/svg" width="195.929" height="103.371" viewBox="0 0 195.929 103.371"><g transform="translate(-1300.691 -1172.738)"><path d="M1350.172,1233.369l-.068.16.055.051.244-.266.066.041-.535.863a1.331,1.331,0,0,1,.151.386,1.53,1.53,0,0,1-.069.441l.593.925.332-.123.15.393h-.5l.151.449.368-.152c.144.459-.159.386-.4.381,0,.04-.006.08-.005.12a3.982,3.982,0,0,0,.093,1.785.33.33,0,0,1-.081.3.774.774,0,0,0-.123,1.116c.032.056-.049.178-.089.3.1.007.2-.013.257.025.111.072.264.166.282.271a.484.484,0,0,1-.174.351,3.028,3.028,0,0,1-.476.3c.073.37.192.681.589.783a.16.16,0,0,1,.084.091c.07.175.226.382.182.524-.157.5.453,1.021-.059,1.485.075.134.212.262.2.383a.764.764,0,0,0,.536.81l-.527.058c-.186.338.26.527.142.879a1.582,1.582,0,0,0,0,.992c.134.348-.532.506-.164.8a2.279,2.279,0,0,0-.374.421.359.359,0,0,0,.118.32c.474.333.364.8.334,1.259-.006.094,0,.189,0,.347a2.531,2.531,0,0,0,.27-.1,2.911,2.911,0,0,0,.255-.171.824.824,0,0,1-.028.223,1.7,1.7,0,0,0-.415,1.422l.427-.048c-.011.077,0,.147-.03.184-.231.283-.586.5-.546,1.007l.644-.3c-.073.175-.081.272-.131.3a1.82,1.82,0,0,0-.864,1.119c-.057.2-.15.312.015.533a3.128,3.128,0,0,1,.278.806c.13.36.09.471-.246.619-.191.084-.376.179-.537.256l-.19.845a2.458,2.458,0,0,1,.727,1.86l-.913.625.714.823-.258.147c.026.458.051.891.074,1.326a.217.217,0,0,1-.025.107c-.416-.012.017.341-.21.466-.377.207-.346.573-.206.949l.464-.148c-.192.367-.8.449-.521,1.025l-.509.229.1.547-.481.144c.256.29-.334.659.212.916-.77.181-.879.43-.556,1.27l-.673.412c-.041.2-.072.429-.137.647-.061.2-.127.339.059.561.229.271.089.5-.263.6-.911.264-1.009.429-.773,1.3.248.914.246.919-.624,1.3-.057.025-.117.041-.19.066l-.306-.267c-.071.026-.121.03-.147.057-.212.221-.146.624-.5.756a2.776,2.776,0,0,0,.112.854.729.729,0,0,1-.114.769,2.856,2.856,0,0,1-.572.508c-.08-.092-.164-.181-.24-.277-.249-.315-.449-.343-.719-.077a.968.968,0,0,0-.21.316.9.9,0,0,1-.674.589c-.14.033-.238.248-.355.38h-.128l-.073-.505c-.29.3-.564.366-.855.026-.09-.105-.3-.124-.459-.151-.181-.03-.369-.014-.552-.036-.353-.041-.739-.224-.874.279a2.808,2.808,0,0,1-1.825-1.1.943.943,0,0,0-1.1-.2c-.265-.45-.572-.9-.8-1.4-.083-.179.026-.446.054-.732-.528-.211-.617-.878-1.045-1.334.294-.148.441-.337.283-.7a.858.858,0,0,1,.143-.658l-.392-.581c.312-.356.606-.727.94-1.059a.893.893,0,0,0,.278-.61,1.738,1.738,0,0,1,.236-.772,9.924,9.924,0,0,0,1.055-2.157c.146-.414.349-.808.549-1.262l-.416-.093c-.094-.5.366-.152.535-.369a2.283,2.283,0,0,0,0-.372,3.129,3.129,0,0,1,.228-1.619,1.918,1.918,0,0,0,.184-.609c.012-.378.132-.571.539-.5.052.009.115-.042.179-.068.055-.368-.327-.34-.462-.532.051-.455.086-.917.164-1.371.024-.14.167-.26.279-.423a2.325,2.325,0,0,1-.4-2.027,1.286,1.286,0,0,1,.174-.53.814.814,0,0,0,.089-.952,1.644,1.644,0,0,1-.12-.865,8.3,8.3,0,0,0-.109-1.252,1.535,1.535,0,0,1-.053-.564c.322-1-.1-2,.012-3,.035-.312.107-.62.155-.931a.644.644,0,0,0,.012-.315,6.659,6.659,0,0,1-.246-2.051,6.735,6.735,0,0,1,.073-1.016,2.61,2.61,0,0,0,.009-.445c-.089-.88-.208-1.757-.265-2.639-.014-.21-.237-.387-.095-.6.192-.286-.194-.326-.211-.53-.013-.167-.109-.326-.13-.493-.087-.716-.139-1.437-.246-2.15a8.677,8.677,0,0,0-.287-.9c-.128-.484-.234-.974-.354-1.48l-.6.207.351.747-.407.21v.627c-.45.453-.935.908-.636,1.667l-.992.856.037.74c-.6.278-.586.909-.616,1.448a1.363,1.363,0,0,1-.358.839c-.174.215-.377.406-.556.616a2.911,2.911,0,0,0-.434.733,7.074,7.074,0,0,1-.922,1.178,10,10,0,0,0-.852,1.276,1.412,1.412,0,0,1-1.474.8,2,2,0,0,1-1.337,1.723,1.743,1.743,0,0,0-.606.418,4,4,0,0,1-2.028,1.24c-.041.012-.094,0-.125.025-.656.479-1.522.315-2.2.725a.886.886,0,0,1-.373.079c-.88.072-1.761.135-2.641.208a1.145,1.145,0,0,1-1.3-.579c-.827.393-1.451-.2-2.154-.447-.106-.037-.174-.176-.265-.262s-.182-.207-.237-.191c-.475.14-.669-.271-.968-.47-.051-.034-.087-.131-.129-.131-1,0-1.555-.808-2.29-1.268a17.494,17.494,0,0,1-1.755-1.449,1.243,1.243,0,0,1-.517-1.1,5.991,5.991,0,0,1-1.946-1.376,19.385,19.385,0,0,1-1.726-1.873c-.46-.727-1.37-1.033-1.629-1.905-.024-.083-.155-.134-.239-.2a1.583,1.583,0,0,1-.621-1.009.64.64,0,0,0-.1-.3,1.664,1.664,0,0,1-.487-.966c-.04-.358-.382-.684-.6-1.019-.171-.261-.354-.515-.56-.812l.354-.677-.293-.559-.442.194c-.144-.63-.275-1.211-.409-1.791-.14-.6.027-1.214-.094-1.832-.069-.349.2-.764.342-1.219a.661.661,0,0,1-.151-.993,1.339,1.339,0,0,0,.092-.494c.035-.265.061-.532.1-.8.016-.125.093-.268.054-.369a1.381,1.381,0,0,1,.212-1.154c.1-.206.14-.439.224-.652a2.825,2.825,0,0,1,.224-.439c.066-.108.223-.2.224-.3,0-.581.416-.794.823-.965a2.3,2.3,0,0,1-.02-.748,1.979,1.979,0,0,1,.457-.681c.077-.083.267-.06.416-.087l-.068-.5,1.268-.244a2.323,2.323,0,0,1,2.11-1.619,1.548,1.548,0,0,0,.252-.289c.077-.132.178-.323.135-.44a.722.722,0,0,1,.162-.708c.255-.384.507-.771.749-1.163a.265.265,0,0,0,.009-.23.418.418,0,0,1,.021-.468c.147-.289-.173-.865.569-.771a4.9,4.9,0,0,0,1.189-.155l.021-.464.6-.256.114-.731c.7.146.7.146,1.026-.126l-.425-.367a2.571,2.571,0,0,1,.193-.364c.071-.1.236-.249.259-.233.307.215.609-.1.828,0,.187-.158.339-.278.481-.41.187-.172.356-.364.55-.527s.278-.318.043-.649c.533.188.9.146,1.069-.327l-.01.012c.1.024.252.1.3.064a1.971,1.971,0,0,1,1.009-.439c.009,0,.011-.038.027-.1l-.351-.252.565-.172.086.311c.193-.052.386-.106.581-.154.089-.022.219-.074.267-.035.3.246.509-.039.789-.078l-.061-.5c.106.1.175.207.223.2.481-.089.974.1,1.451-.066s.938-.311,1.434-.475l.079.149a.915.915,0,0,0,.2-.017.983.983,0,0,1,.806-.126.573.573,0,0,0,.788-.317c.028-.085.149-.14.23-.212.214.467.618.317.971.363.032-.068.091-.13.078-.174-.062-.222.032-.36.24-.328.264.04.116.215.069.354-.007.021.087.076.177.151l.242-.42a.874.874,0,0,0,1.41-.074c.222.29.222.29.595.33.014-.077.028-.157.043-.236.012-.061.025-.122.038-.184.048.008.118.006.122.022.15.613.709.564,1.143.687a9.791,9.791,0,0,0,1.1.181l.12-.36-.012-.013.059.338c.282.046.508.078.733.121a3.329,3.329,0,0,1,.539.129c.258.1.61.011.743.369a.185.185,0,0,0,.137.1c.513-.066.762.362,1.173.613v-.517c.32.55.918.535,1.368.77l-.011-.008.235.179.235-.491c.106.139.166.286.275.343s.374-.113.313.215l.385.067a.932.932,0,0,0,.395.871l-.054-.7.1-.032.447,1.144a8.171,8.171,0,0,1,.332-1.018c.059-.124.257-.183.457-.314a4.022,4.022,0,0,1,1.687-3.131l-.414-.284c.381-.729.92-.194,1.421-.148l.065-1.1h-.828a5.729,5.729,0,0,1,.427-1,6.333,6.333,0,0,1,.766-.812l.732-.758-.079-.391c.038-.044.05-.071.066-.074.227-.046.453-.089.717-.139a.454.454,0,0,0-.467-.446,3.936,3.936,0,0,1-.782-.149,6.049,6.049,0,0,0-2.311-.334.271.271,0,0,1-.127,0,4.114,4.114,0,0,0-1.708-.285c-.352-.023-.7-.142-1.051-.146a7.236,7.236,0,0,1-1.993-.248.537.537,0,0,0-.312-.012c-.6.214-1.2-.073-1.8-.034-.3.02-.617-.209-.935-.26s-.625,0-.937-.017c-.654-.043-1.307-.1-1.961-.161-.316-.029-.629-.084-.944-.129-.6-.086-1.207-.156-1.805-.265a6.207,6.207,0,0,0-1.231-.288c-.61.022-1.132-.288-1.745-.3a3.533,3.533,0,0,1-1.94-.508c-.133-.091-.337-.211-.456-.168a.859.859,0,0,1-.873-.22,2.079,2.079,0,0,0-.52-.17c-.334-.122-.667-.244-.994-.383-.133-.057-.241-.216-.371-.228a12.831,12.831,0,0,1-2.767-1c-.638-.211-1.272-.432-1.905-.656a.523.523,0,0,1-.266-.164.706.706,0,0,0-.76-.328.74.74,0,0,1-.357-.108c-.4-.19-.809-.37-1.192-.593-.317-.185-.6-.426-.927-.661a8.082,8.082,0,0,1-1.377.141c-.258-.012-.5-.266-.791-.432-.363.231-.42.4-1.9-.544l-.216.369c-.428-.535-1.018-.179-1.532-.272-.391-.071-.756-.122-.946-.495-.661.333-.847.3-1.273-.275a2.082,2.082,0,0,0,1.073-1.279c-.138-.055-.248-.093-.353-.142-.182-.085-.445-.131-.525-.277a.806.806,0,0,0-.93-.391.482.482,0,0,1-.574-.245l.382-.535c.24.1.431.189.627.265a1.7,1.7,0,0,0,.424.127.394.394,0,0,0,.459-.346c.012-.106-.159-.266-.283-.345-.262-.168-.6-.244-.673-.675.592-.04,1.066-.5,1.687-.377.1.02.2.054.325.087l-.069.571.474.156-.2-.871.755-.195.326.675c.213-.517.6-.283.915-.216.147.032.249.278.367.422a1.618,1.618,0,0,0,.156-.247.4.4,0,0,1,.574-.236,8.727,8.727,0,0,0,2.018.546c.166.023.3.283.429.414.24-.037.5-.1.754-.114.545-.037.582,0,.763.643.109-.427.462-.226.7-.414a.817.817,0,0,1,.877.087.562.562,0,0,0,.534-.012c.388-.415.884-.133,1.309-.255.1-.029.235.065.4.116l.3-.5a4.5,4.5,0,0,0,2.03-.008,7.776,7.776,0,0,1,.97-.217c.277-.056.432.072.526.334a3.574,3.574,0,0,0,.274.5l.163-.048-.031-.583a3.271,3.271,0,0,0,.3-.133.729.729,0,0,0,.14-.135c.274.334.509.014.768-.008s.5.047.738-.143l-.168-.344c.062-.008.107-.03.138-.016.248.111.367.5.742.336l.575.739,1.081-.682.09.3.965-.138c.334.371.882.269,1.374.23.389-.031.692-.082.94.3.219.337.615.2.883.129a.856.856,0,0,1,.923.273,1.2,1.2,0,0,0,.9.308c.011-.159.016-.319.036-.477.046-.358.245-.525.557-.384a.472.472,0,0,0,.523-.034c.258-.183.45-.1.683.066a4.271,4.271,0,0,0,.729.342l.171-.238,1.489.119.272.37.737-.337-.161-.426c.32.116.6.407.782-.006.165.516.677.639,1.026.832.289.16.754.491,1.174.018v.378a.976.976,0,0,0,.61-.649l.2.408c.047-.24.065-.376.1-.506a4.656,4.656,0,0,1,.184-.433c.2.645.553.876,1.1.806l-.063-.45c.292,0,.564-.006.836,0,.078,0,.215.048.221.089.1.648.786.372,1.1.7.125.131.37-.054.691-.5a1.765,1.765,0,0,0-.031.336.7.7,0,0,0,.072.186l1.255-.225.068-.349.243.19-.018-.021c.249.527.485.572,1.109.2l.131.473a3.311,3.311,0,0,1,.476-.21,2.389,2.389,0,0,1,.507-.007l-.436-.471.054-.08a1.924,1.924,0,0,0,.375.133,1.858,1.858,0,0,0,.416-.044l-.21.556,1.133.121c.1-.483.284-.883.851-.947.056-.006.132-.206.124-.311a.948.948,0,0,0-.149-.323c.115-.306.461-.479.308-.881-.067-.178.125-.359.358-.329a3.391,3.391,0,0,1,.525.159l.374-.412.647.309v-.856l-.4-.409.09-.1.52.28.126-.085-.389-1.043c.495-.109.874-.278.776-.893-.22.057-.434.125-.653.166a.365.365,0,0,1-.493-.343,1.959,1.959,0,0,1-.005-.256c-.018-.678.059-.71.713-.522a.762.762,0,0,0,.907-.225c-.147,0-.294.006-.441,0-.316-.016-.417-.146-.357-.447.091-.453.156-.913.284-1.355a1.9,1.9,0,0,1,.368-.567.7.7,0,0,0,.2-.539.943.943,0,0,1,.8-1.032c-.371-.326-.371-.326-.387-.78.714.005.794-.729,1.328-1.056l-.664-.321c.379-.354.219-1.028.9-1.115.541.34.541.34.583.943.3-.381.774-.536.823-1.052a1.432,1.432,0,0,1-.513-.016c-.092-.038-.117-.233-.174-.36l.88-.3-.305-.866.608-.489.558.273a.757.757,0,0,0-.235-.844l.219-.682.958.061c-.078-.421-.347-.817.153-1.137l.217,1.421-.9.438.635.7c.321-.047.365-.726,1.015-.443-.807.394-.466,1.094-.724,1.633l.632.236c-.058.209-.267.451.135.495-.2.643-.863.677-1.235,1.065l.927.463c-.439.366-.922.629-1.145,1.146.344.178.545-.459.872-.093.052.5-.553.555-.664.985l.312.247-.209.915c-.248,0-.569-.042-.52.419l.567.338c-.32.323-.586.617-.882.877-.128.112-.293.159-.242.384.058.256.26.154.41.192.035.009.062.051.105.089-.015.343-.4.275-.531.479-.152.311-.019.73-.4.969-.068.043-.044.334.024.465.059.115.24.167.405.27-.234.451-.972.819-.452,1.488l-.372.808c-.051.11-.094.224-.154.329-.283.5-.2.861.336,1.379-.03.414-.641.725-.246,1.291l.365-.537c.349-.007.236.308.368.477a3.412,3.412,0,0,0,.8-.013.57.57,0,0,1,.737.3l.626-.8.643.662.843-.23.109-.338.3.552.479-.288.647.475c.474,0,.891-.005,1.308,0a.312.312,0,0,1,.226.1c.44.675,1.024.243,1.552.2.047,0,.084-.134.126-.205l-.012.013c.2-.13.379-.181.558.038a2.4,2.4,0,0,0,.318.306,1.608,1.608,0,0,0,1.588.068c.051-.039.052-.142.085-.246.137.1.231.186.335.252.245.156.442.464.8.271.228.3.534.275.862.227a2.323,2.323,0,0,1,1.549.459,1.788,1.788,0,0,0,.606.242c.4.078.611.4.914.6.086.056.1.229.141.351l-.492.442.492.292c.255-.375.448-.8,1.036-.819.07.284.167.573.212.87.081.538.216.616.744.383a.784.784,0,0,1,.179-.018l.092.456-.763.746a1.909,1.909,0,0,0,1.39.451c-.038.36-.082.709-.109,1.06-.01.138-.04.349.033.4a.288.288,0,0,1,.056.477.537.537,0,0,1-.608.235,4.655,4.655,0,0,0-.64-.088,2.465,2.465,0,0,1,.061.574,1.3,1.3,0,0,1-.219.709,2.965,2.965,0,0,0-.62.827c-.186.356-.3.353-.834.135-.18.549-.632.7-1.153.827a13.085,13.085,0,0,1-3.321.217,2.734,2.734,0,0,0-1.78-.169c-.4.014-.83-.146-1.2.149a.366.366,0,0,1-.249.041c-.765-.1-1.432.349-2.152.4a17.847,17.847,0,0,1-2.671.333,23.082,23.082,0,0,0-2.643.112,6.554,6.554,0,0,1-1.9-.025,3.437,3.437,0,0,0-1.518-.053,3.5,3.5,0,0,1-1.184-.206c-.552-.12-.708.027-.659.609a.97.97,0,0,1-.1.328c-.03.1-.059.194-.088.288a1.949,1.949,0,0,0-.5.094.332.332,0,0,0-.073.6c.271.219.215.319,0,.577-.255.3-.764.539-.564,1.08a7.461,7.461,0,0,0-.631.617c-.1.116-.2.349-.145.445.382.686-.25,1.091-.445,1.6-.071.186-.449.254-.692.377l.361.72a2.937,2.937,0,0,0-.38.606c-.07.25.035.551-.273.722-.216.119-.414.272-.675.448-.137.186.219.521-.075.726-.229.159-.1.45-.293.625a.6.6,0,0,0-.137.413.569.569,0,0,1-.224.483.685.685,0,0,0-.236.435,1.008,1.008,0,0,1-.839.991,4.183,4.183,0,0,1,.182.781c.009.214.18.522-.222.631-.064.017-.067.257-.1.425l-.3-.164.011.012-.3-.463c-.437.4-.437.4-.09.727l-.019-.017a1.514,1.514,0,0,0,.076,1.288l-.7.243a3.168,3.168,0,0,1,1.18,1.715,2.366,2.366,0,0,0,.541.89c.136.174.144.343.013.45-.308.253-.219.49-.024.8l.521-.3a1.965,1.965,0,0,0,.562,1.287.6.6,0,0,1,.088.5c-.146.517.2.68.54.857v.7l-.332-.043c.053.067.081.138.123.148.142.033.288.045.458.067a5.2,5.2,0,0,1-.007.706c-.03.219-.087.324.223.447s.012.266-.215.352a2.884,2.884,0,0,1,.316.305c.082.108.2.252.183.359-.061.352.128.447.476.443-.245.245-.362.392-.1.67a3.44,3.44,0,0,1,.446.946c-.035,0,.417-.241.505-.321.179.165.2.3-.04.427-.13.069-.253.149-.38.225l.048.123c.091,0,.182,0,.273,0,.3.017.427.156.3.391a1.584,1.584,0,0,0-.136.853.7.7,0,0,0,.407.711Zm-30.847,4.26-.015-.015.147.242.327-.31c.572.282.572.282.44.9l.847.61.1-.638.735,1c.151-.191.233-.359.525-.237.346.144.756.27.971-.25.033-.081.153-.12.216-.193.2-.23.5-.375.561-.714.449.054.492-.394.73-.6a5.391,5.391,0,0,0,.4-.413l-.125-.617.371.394a2.982,2.982,0,0,0,.641-1.224c.007-.66.506-.986.925-1.449l-.2-.126c.434-.99.85-1.959,1.284-2.92a1.379,1.379,0,0,1,.386-.574,1.769,1.769,0,0,0,.611-.837c.166-.381.476-.693.327-1.172-.034-.111.084-.277.149-.41.283-.57.561-1.143.861-1.7.337-.628.681-1.253,1.05-1.863.239-.394.528-.757.793-1.131a6.111,6.111,0,0,0-3.519-2.7,6.22,6.22,0,0,0-1.547-.356,18.819,18.819,0,0,0-3.347-.034c-.4.052-.811.01-1.2.087a11.639,11.639,0,0,0-2.925.995,5.59,5.59,0,0,1-1.459.7.992.992,0,0,0-.805.723,1.205,1.205,0,0,1-.857.961c-.39.153-.805.241-1.238.366a.747.747,0,0,0,0,.21,1.093,1.093,0,0,1-.678,1.4,2.1,2.1,0,0,0-.356.138,1.326,1.326,0,0,0-.771,1.043,6.1,6.1,0,0,1-.364,1.195l.219.385c-.765.611-.485,1.423-.506,2.2-.3-.072-.54-.043-.506.374.12.063.251.192.38.189a.633.633,0,0,1,.734.667l.4-.389c.075.137.126.248.193.347.126.187.261.367.39.548h-.492l.451.5.026-.515c.368.055.193.482.48.585l-.336.277c.11.118.238.2.272.3.167.526.225.582.851.642l-.582-.44c.432-.123.432-.123,1.193.679.056.247-.245.585.217.768.056-.2-.227-.466.054-.542.165.188.3.357.45.513a1.268,1.268,0,0,1,.515.943c-.006.172.138.35.251.611l.363-.727a2.841,2.841,0,0,1,.161.724c-.032.349.16.518.465.723,0-.144-.007-.239,0-.333a2.081,2.081,0,0,1,.051-.245h.1Zm34.433-46.838c0-.6.542-.759.891-1.117l-.3-.372-1.28,1.525.071.095Zm3.012-10.517-.573-.506c-.169.406-.138.719.085.789Zm6.523,13.193.1-.082-.093-.877-.4.625Zm-36.408-2.5c.176.315.306.439.517.211.041-.044.018-.146.028-.26Zm2.047,2.337.176-.725-.5.449Zm-20.719-1.737v-.428l-.507.25Zm22.418.544-.012-.138c-.106-.026-.271-.105-.3-.067-.075.082-.082.225-.156.475Zm-25.206-1.26.043.079a.887.887,0,0,0,.215-.074c.046-.03.066-.1.1-.149l-.066-.054Zm20.927-.495c-.067-.076-.1-.151-.139-.15a.7.7,0,0,0-.209.071c.037.055.067.146.114.155S1326.252,1190.389,1326.354,1190.353Z" transform="translate(0)"/><path d="M1367.155,1244.75l-.309-.451.057-.087.492.226c-.113.131-.184.215-.255.3Z" transform="translate(-31.344 -33.864)"/><path d="M1394.546,1287.219l-.2-.827.421.232c-.084.222-.153.408-.222.593Z" transform="translate(-44.375 -53.85)"/><path d="M1319.987,1252.765c.112-.432.112-.432.441-.346l-.594.166Z" transform="translate(-9.07 -37.732)"/><path d="M1421.047,1209.315a.952.952,0,0,1-.679-.094c.438-.157.513-.143.667.107Z" transform="translate(-56.703 -17.237)"/><path d="M1404.673,1204.437l-.166.263-.188-.119.21-.262Z" transform="translate(-49.099 -14.963)"/><path d="M1329.865,1245.046l-.555.17c-.032-.219-.026-.37.218-.327a1.31,1.31,0,0,1,.325.172Z" transform="translate(-13.553 -34.182)"/><path d="M1358.414,1241.406l.305-.209.229.408-.545-.21Z" transform="translate(-27.344 -32.436)"/><path d="M1398.129,1322.025l-.264.428c-.047-.113-.1-.183-.082-.207a3.156,3.156,0,0,1,.247-.295Z" transform="translate(-46.001 -70.698)"/><path d="M1350.915,1240.833c.143-.323.243-.478.522-.186Z" transform="translate(-23.796 -32.102)"/><path d="M1395.8,1290.994a1.177,1.177,0,0,1-.308.054c-.066-.01-.125-.072-.187-.111l.147-.222Z" transform="translate(-44.83 -55.898)"/><path d="M1396.238,1303.33l.15.376-.155.053-.119-.386Z" transform="translate(-45.212 -61.875)"/><path d="M1382.883,1206.715l.082-.4.361.386-.087.119-.374-.126Z" transform="translate(-38.934 -15.909)"/><path d="M1384.966,1258.486c0,.287-.214.245-.393.259l.019.017c-.032-.324.173-.3.386-.264Z" transform="translate(-39.743 -40.624)"/><path d="M1397.621,1314.235l.3-.168.063.1-.276.2Z" transform="translate(-45.926 -66.962)"/><path d="M1381.985,1206.665c-.135.064-.206.127-.257.114-.068-.018-.12-.095-.18-.146.047-.053.1-.157.137-.15A1.265,1.265,0,0,1,1381.985,1206.665Z" transform="translate(-38.31 -15.989)"/><path d="M1302.7,1211.416l.164-.561C1303.014,1211.1,1303.057,1211.237,1302.7,1211.416Z" transform="translate(-0.95 -18.06)"/><g transform="translate(1433.764 1212.545)"><path d="M1654.12,1281.124c-.265-.321-.167-.334-.128-1.219.021-.472.208-.912.189-1.416l-1.3-.583.922-.368c-.093-.407-.178-.779-.28-1.225l.286-.387c-.2-.231-.373-.445-.565-.637s-.421-.384-.348-.7c.05-.218.136-.428.205-.643-.522-.23-.525-.249-.2-1.229l.453.049c-.119-.226-.194-.37-.275-.522l.292-.466-.248-.982c-.51.125-.018.521-.237.736a1.291,1.291,0,0,1-.275-.893l.015.015c0-.008,0-.01,0-.019l-.012,0-.423-.755.355.115v.009l.011-.009-.01,0c.008-.268.147-.562-.153-.786l-.407.375a1.244,1.244,0,0,1,.369-1.446,4.777,4.777,0,0,1-.306-.665.705.705,0,0,0-.3-.5v.671a5.061,5.061,0,0,1-.579-.115c-.292-.093-.485-.354-.352-.56.422-.65-.039-1.35.177-1.994l-.354.5-.1-.15-.6-.482.36-.473-.433-.26c.175-.374.169-.4-.027-.52,0-.237.077-.518-.015-.594-.281-.232-.055-.548-.194-.769s-.355-.428-.52-.652c-.043-.058-.019-.162-.033-.244-.01-.058-.016-.137-.054-.167-.282-.218-.572-.427-.865-.644.043-.066.128-.192.124-.195-.235-.172-.2-.36-.1-.6.043-.1-.045-.3-.126-.409-.2-.283-.433-.544-.654-.816l.36-.437-.077-.086-.505.307c-.194-.161-.386-.363-.242-.589.157-.248.021-.451.034-.673.021-.331.087-.659.131-.989.009-.075,0-.152,0-.406l-.586.626c.04-.292.066-.476.091-.659-.092-.11-.282.011-.361-.25-.086-.285-.4-.5-.618-.747-.045-.053-.114-.113-.115-.172-.012-.433-.3-.5-.627-.475-.3-.622-.3-.608-1-.54a2.053,2.053,0,0,1-.588-.13l.4-.928-.576-.048-.071-.328.481-.4c-.325-.354-.76-.639-.893-1.028-.125-.363-.4-.443-.627-.65.217-.368-.521-.7-.048-1.142l-.573.3c-.1-.108-.184-.263-.311-.321a1.423,1.423,0,0,0-.441-.073l-.364.336-.206-.521c-.186.028-.385.12-.46.058-.374-.3-.453-.059-.448.236,0,.272-.121.373-.377.473l.072-.406-.806-.366a.732.732,0,0,1-.244.1c-.643.1-.6.794-.974,1.132a.642.642,0,0,0,.2.337c.651.479.7.578.546,1.239l-.65.324-.349-.2a1.705,1.705,0,0,0,.016-.606c-.045-.115-.248-.169-.361-.238l-.176-.677a.959.959,0,0,0-.746.668.272.272,0,0,1-.448.17c-.247-.151-.391.03-.545.178-.221.212-.445.42-.611.577-.073.213-.126.374-.184.533a1.116,1.116,0,0,0-.124.322,4.078,4.078,0,0,1-.178,1.691c.163.271.364.457.369.648.009.31.124.468.4.519a1.385,1.385,0,0,0,.579,1.456c-.039.172-.079.355-.124.558.084.106.185.216.267.339a6.781,6.781,0,0,1,.645,1.03,4.315,4.315,0,0,0,.707,1.6c.09.089.083.279.115.424a4.065,4.065,0,0,0,.15.676,4.512,4.512,0,0,1,.679,1.858c0,.017.022.035.033.053a20.3,20.3,0,0,1,1,2.563c.279.643.291,1.423.937,1.887.042.03.044.115.063.175a2.694,2.694,0,0,1,.259,1.348c-.039.218.133.479.222.715a4.332,4.332,0,0,1,.213.463c.268,1.082.6,2.148.907,3.216a19.633,19.633,0,0,1,.56,2.372c.1.6.3,1.19.4,1.795.107.69.146,1.392.212,2.089a6.443,6.443,0,0,0,.116,1.13,1.989,1.989,0,0,1,.093.994.832.832,0,0,0,.329.887c.262.228.651.425.545.923a.923.923,0,0,0,.467,1.177c.168.082.271.315.385.491a.987.987,0,0,0,1.038.559.538.538,0,0,1,.368.043,2.269,2.269,0,0,0,1.458.3l-.131.429c.765.228,1.489.448,2.216.659.224.065.487.16.65-.078a1.03,1.03,0,0,1,1.014-.384l.117-.372h-1.072a3.937,3.937,0,0,1-.124-1.264,3.8,3.8,0,0,1,.683-1.057l.668.681c.2-.646-.464-1.068-.234-1.607.788-.006,1.546.377,2.333.07l.257.243c.124-.145.211-.265.316-.366.366-.352.729-.7.4-1.274-.035-.062.031-.2.076-.284C1653.895,1281.5,1654.013,1281.312,1654.12,1281.124Zm-3.635-1.359.078.245-.165.053-.068-.267Zm-.3,1.643c.048-.162.083-.278.142-.477l.254.515Zm1.334.224a1.177,1.177,0,0,1-.162-.19c-.007-.011.092-.113.113-.1a.425.425,0,0,1,.166.14C1651.641,1281.49,1651.571,1281.561,1651.515,1281.633Z" transform="translate(-1591.326 -1248.388)"/><path d="M1578.983,1288.615l-.012.01h0Z" transform="translate(-1565.614 -1267.448)"/><path d="M1577.88,1285.549l-.019,0,0,.016Z" transform="translate(-1565.087 -1265.995)"/><path d="M1572.542,1258.523l0,.012.014.007Z" transform="translate(-1562.568 -1253.19)"/><path d="M1570.087,1278.8a.5.5,0,0,0-.676.3c-.1.205-.21.3-.5.193.027-.278.054-.556.085-.88-.339-.464-.458-1.2-1.217-1.423.186-.327.341-.591.482-.863.014-.027-.057-.1-.1-.166l-.217.338-.41-.268.466-.489-.276-.248-.2.249c-.124-.1-.247-.184-.356-.286a1.73,1.73,0,0,1-.435-1.11c-.036-.254-.076-.508-.127-.848l.345-.279-.491-.071c-.09-.389-.184-.729-.244-1.076-.03-.17-.168-.413.153-.472.031-.166.063-.333.1-.543-.15-.044-.3.058-.461-.124-.187-.212-.084-.31-.019-.556l-1.18-.452.454-.245-.472-.278.658-.454c-.522-.208-.174-.543-.18-.829a6.818,6.818,0,0,1,.118-.994l-.163-.069c.29-.671-.164-1.552.609-2.039.005-.243-.48-.107-.286-.475.06-.114-.105-.338-.054-.466a1.284,1.284,0,0,1,.331-.369v-.718l-1.2-.445.334-.708a.835.835,0,0,1,.2,0c.289.117.553.128.688-.212a.625.625,0,0,0-.414-.708c-.2-.089-.422-.146-.6-.207l-.411.765c-.115-.309-.206-.533-.28-.761-.083-.255-.151-.514-.227-.779-.38-.048-.8,0-.975-.393.122-.214.344-.422.321-.6a1.329,1.329,0,0,1,.429-1.1l-.115-.458-.362-.17.2-.441c-.306-.02-.556-.033-.805-.052-.27-.02-.386.149-.427.373-.1.551-.1.552-.57.621.014-.168-.041-.414.055-.51.491-.495.229-.886-.116-1.284a.263.263,0,0,0-.069-.052c-.311.012-.433.482-.762.285l-.431.486-.427-.314a.815.815,0,0,0-.112.108c-.286.443-.278.435.14.81a.343.343,0,0,1,.063.324.428.428,0,0,1-.553.186c-.144-.063-.276-.154-.479-.271a2.788,2.788,0,0,0-.176.836,2.589,2.589,0,0,0,.338.734l-.407.288c-.373-.156-.763-.2-.96-.426-.336-.377-.658-.1-1-.165a9.156,9.156,0,0,1-.1.988c-.039.186-.026.461-.313.491a1.067,1.067,0,0,0-.952,1.233c.06.593-.457.833-.47,1.308-.482.2-.388.653-.46,1.038-.085.453-.193.9-.293,1.351a15.985,15.985,0,0,0-.351,1.617c-.081.707-.037,1.43-.125,2.135a14.566,14.566,0,0,0,.244,3.545c.122,1.029.457,2.032.636,3.057a24.4,24.4,0,0,1,.585,2.384,3.764,3.764,0,0,0,.214.992,22.853,22.853,0,0,0,1.177,2.994,6.428,6.428,0,0,0,.732,1.269c.253.287.743.371.668.905,0,.028.05.064.077.1.167.207.328.418.5.619.135.155.267.389.435.425.314.067.377.3.521.5a4.109,4.109,0,0,0,.7.795c.285.241.673.368.937.625a1.488,1.488,0,0,0,1.043.467c.165.583.2.639.686.547a.827.827,0,0,1,.768.159,1.02,1.02,0,0,0,1.087.107,5.581,5.581,0,0,0,.525-.215c.167.159.292.38.418.38.423,0,.7.281,1.028.45.257.131.519.25.777.375.372-.862,1.167-1.2,1.754-1.8-.257-.491.123-.86.3-1.27-.547-.2-.717-.159-.289-.979-.2-.241-.376-.479-.582-.685a.833.833,0,0,0-.461-.291c-.149,0-.3.181-.466.292l-.344-.2c.059-.284.11-.528.173-.831.176.012.36.03.545.036.124,0,.319.039.361-.022.264-.386.561-.156.854-.083.221.055.443.1.686.158-.021.265-.044.55-.068.859l.537.117c-.119-.438.228-.885-.336-1.282l.447.06c-.049-.446-.1-.89-.144-1.334-.006-.062-.011-.165.021-.182.23-.127.068-.234.026-.385a2.455,2.455,0,0,1-.078-.851c.033-.357.169-.705.2-1.063C1570.562,1279.032,1570.455,1278.922,1570.087,1278.8Zm-13.671-17.268c-.013,0-.073-.1-.06-.125a.2.2,0,0,1,.131-.1c.034-.005.078.058.165.13A1.392,1.392,0,0,1,1556.416,1261.528Zm.841-2.146.394-.322c.026.112.067.183.047.219C1557.589,1259.48,1557.583,1259.477,1557.258,1259.382Zm8.381,11.694a.678.678,0,0,1-.206.018l-.02-.14.447-.093C1565.728,1270.994,1565.691,1271.055,1565.639,1271.076Z" transform="translate(-1553.587 -1251.837)"/><path d="M1582.38,1308.932a4.274,4.274,0,0,0-.553-.283c-.031.319-.083.578.17.7a.769.769,0,0,0,.819.006A4.2,4.2,0,0,0,1582.38,1308.932Z" transform="translate(-1566.955 -1276.94)"/><path d="M1574.068,1260.8c-.391.242-.255.563-.137.941C1574.533,1261.486,1574.564,1261.175,1574.068,1260.8Z" transform="translate(-1563.168 -1254.266)"/><path d="M1577.881,1285.548l-.023.022.026,0Z" transform="translate(-1565.087 -1265.994)"/><path d="M1577.907,1285.6c.027.2.053.4.091.678C1578.389,1285.775,1578.362,1285.671,1577.907,1285.6Z" transform="translate(-1565.11 -1266.018)"/><path d="M1562.182,1260.918l.519.4C1562.7,1260.85,1562.7,1260.85,1562.182,1260.918Z" transform="translate(-1557.659 -1254.309)"/><path d="M1572.542,1258.516l.017.019,0-.025Z" transform="translate(-1562.568 -1253.184)"/><path d="M1572.627,1257.8l-.046.372.526-.157Z" transform="translate(-1562.586 -1252.849)"/><path d="M1583.733,1298.612l.452-.1C1583.887,1298.363,1583.887,1298.363,1583.733,1298.612Z" transform="translate(-1567.87 -1272.089)"/><path d="M1665.279,1275.234l-.066-.13-.348.161.068.136Z" transform="translate(-1606.31 -1261.046)"/><path d="M1670.273,1288.961l-.311.259C1670.155,1289.3,1670.3,1289.284,1670.273,1288.961Z" transform="translate(-1608.726 -1267.612)"/><path d="M1655.96,1258.1c-.025-.12-.05-.241-.075-.362l-.167.029.112.369Z" transform="translate(-1601.976 -1252.818)"/><path d="M1640.567,1252.662h-.512C1640.44,1252.846,1640.44,1252.846,1640.567,1252.662Z" transform="translate(-1594.556 -1250.413)"/><path d="M1665.4,1319.715c.064-.031.149-.085.159-.141s-.079-.11-.167-.219c-.053.121-.1.184-.1.247C1665.287,1319.642,1665.378,1319.723,1665.4,1319.715Z" transform="translate(-1606.51 -1282.012)"/><path d="M1670.093,1290.5l.3-.059C1670.226,1290.292,1670.1,1290.26,1670.093,1290.5Z" transform="translate(-1608.788 -1268.258)"/><path d="M1578.985,1288.617l-.008.009,0,0Z" transform="translate(-1565.617 -1267.448)"/><path d="M1578.969,1288.993c.006.01.1-.013.1-.027a.47.47,0,0,0-.01-.213c-.018-.047-.08-.077-.125-.114a.418.418,0,0,0-.049.163A.473.473,0,0,0,1578.969,1288.993Z" transform="translate(-1565.575 -1267.459)"/></g><path d="M1396.277,1338.95l.26-.236.09.106-.272.219Z" transform="translate(-45.289 -78.64)"/><path d="M1369.4,1206.126l.3-.021-.012.169-.3-.045Z" transform="translate(-32.555 -15.81)"/><path d="M1356.931,1241.185c-.071-.086-.146-.136-.146-.187s.065-.117.1-.176c.063.043.155.075.178.133C1357.08,1241,1357,1241.073,1356.931,1241.185Z" transform="translate(-26.578 -32.258)"/><path d="M1339.508,1241.773l-.1.269-.194-.106.212-.222Z" transform="translate(-18.251 -32.681)"/><path d="M1365.85,1243.74l.118-.3.105.043-.125.3Z" transform="translate(-30.873 -33.5)"/><path d="M1395.283,1289.488l-.11-.172a.878.878,0,0,1,.194-.109c.021-.006.1.1.094.11A1.214,1.214,0,0,1,1395.283,1289.488Z" transform="translate(-44.766 -55.183)"/><path d="M1336.089,1295.717l.024-.379c.218.29.218.29-.04.364Z" transform="translate(-16.765 -58.088)"/><g transform="translate(1376.664 1193.324)"><path d="M1496.591,1342.291a.385.385,0,0,1-.361-.109,2.449,2.449,0,0,1-.166-.583l.4-.775c.214.475.507.692.755.484.23-.193.55-.333.519-.818-.039-.615-.789-.821-.694-1.46.011-.072-.172-.249-.26-.246-.323.012-.409-.249-.476-.436-.106-.3-.257-.276-.446-.2-.206.178.109.567-.348.629.021-.3.041-.59.07-1.014l-.564.619-.435-.792-.594.139-.189-.389h-.711c.1.666-.539.5-.766.8l-1.5-1.264a.86.86,0,0,1-.768.416h0a.577.577,0,0,1,.059.086c0,.007-.021.039-.035.042a1.051,1.051,0,0,1-1.029-.268l-.092.51-.71-.437c-.035.454-.413-.009-.6.193l.215.351-.513.321c-.72-.471-.72-.471-1.289-.464l.269.363-.7.39c-.266-.13-.508-.251-.753-.369-.383-.185-.384-.184-.532.267l.385.115c-.362.312-.554.049-.776-.168l-.283.53-.366-.717v.428l-.107.084-.233-.536-.26.635-.752-.356.176.36c-.479.172-.492.162-.471-.326l-.632-.048.288.4c-.349.165-.608-.078-.925-.048.056-.275.033-.492-.324-.493.011.2.02.368.03.541l-.108.064-.63-.626c-.01.135-.064.279-.017.328.1.108.257.175.137.354a.2.2,0,0,1-.165.064c-.241-.05-.194-.234-.175-.4,0-.038-.023-.08-.042-.142-.244.177-.475.278-.674-.067-.162-.28-.444-.229-.694-.244-.019.069-.035.1-.028.107.1.136.211.269.351.447-.211.028-.428,0-.553.092s-.119.3-.17.452l-.893-.464-.405.6-.679-.8-.255.141-.446-.314-.334.23c.035-.535.031-.538-.5-.456l.041.4a1.252,1.252,0,0,0-1.322-.447l-.033.323-.637.143-.235-.467-.277.246c-.479-.354-.838-.174-1.011.111-.242-.164-.5-.323-.736-.5a.528.528,0,0,0-.858.245c-.072.194-.124.394-.179.573-.263.082-.418.014-.455-.229-.027-.179-.11-.392.166-.472.189-.054.254-.228.143-.335-.085-.081-.294-.033-.547-.048-.188-.267-.576-.269-.958-.248-.309.016-.586-.244-.9-.085-.007-.085-.014-.163-.013-.158l-1.139-.11-.25-.6c-.149.517-.149.517-.729.651-.021.1-.042.2-.068.322l-.617-.027-.271-.562c-.125.054-.231.141-.335.136-.142-.007-.311-.158-.414-.116-.571.234-1.123-.041-1.662-.042-.278.3-.463.7-.976.511-.089-.034-.236.055-.344.11a.712.712,0,0,1-.949-.118c-.1-.093-.224-.17-.316-.238l-.649.378c-.248-.318-.4-.751-.909-.508v.451l.513.04.3.5c.664-.261.918-.347,1.1.181l.364-.095c0,.063.029.6.029.6-.044.178-.088.356-.145.589l.159.461c-.464.361-.9-.221-1.384.065-.08-.219-.218-.4-.182-.542.07-.267,0-.337-.245-.333-.125,0-.25,0-.327,0l-.273.359c-.084-.229-.167-.459-.267-.737h.541c-.224-.385.054-.93-.549-1.158l-1,.473c.057.389.34.065.526.2l-.088.471c.186.3.368.573.517.859a.334.334,0,0,1-.036.309.424.424,0,0,1-.315.072c-.144-.016-.3-.144-.42-.109a9.993,9.993,0,0,0-.948.369c-.3-.146-.584-.41-.766-.35-.323.106-.612-.051-.93.031a1.223,1.223,0,0,1-.19.306c-.345.307-.545.63-.283,1.1a.456.456,0,0,1-.064.352,1.234,1.234,0,0,0,.537,1.934l.466.257c-.046.51.078.813.34.81.044-.041.1-.1.167-.152s.12-.081.205-.138c.033.11.082.183.063.225-.209.461-.194.555.136.816a4.949,4.949,0,0,0,.486.407,4.214,4.214,0,0,0,.72.329,4.179,4.179,0,0,1,.871.283,5.751,5.751,0,0,0,1.88.76,8.6,8.6,0,0,0,1.2.113c0,.211.154.308.411.251.078-.017.2-.089.226-.06.523.473,1.3.088,1.825.54.038.033.126,0,.187.015.264.064.528.133.79.2a3.965,3.965,0,0,0,.979.246,1.979,1.979,0,0,1,.792.165.966.966,0,0,0,1.061-.021,4.436,4.436,0,0,0,.665.338,10.741,10.741,0,0,1,1.692.507,4.988,4.988,0,0,0,1.218.347c.681.138,1.375.212,2.052.368a12.19,12.19,0,0,0,3.352.33c.506-.024,1.01-.1,1.516-.117.421-.016.844.008,1.266.025.547.022,1.1.027,1.641.089s1.089.2,1.638.273a3.285,3.285,0,0,0,1.015.015,8.162,8.162,0,0,1,3.173-.1,1.388,1.388,0,0,0,.317-.016,3.447,3.447,0,0,0,1.721-.2c.079-.047.211.006.316-.01.249-.036.5-.085.744-.129a1.825,1.825,0,0,1,.429-.071,4.5,4.5,0,0,0,1.872-.482,5.642,5.642,0,0,1,1.464-.368,2.431,2.431,0,0,0,.724-.176c.382-.159.746-.359,1.162-.564a.786.786,0,0,1,.4-.744.969.969,0,0,0,.393-.623c.032-.156-.154-.356-.248-.549l1.081-.411a8.353,8.353,0,0,0-.175-.992.892.892,0,0,1,.129-.771c.1-.162.165-.342.258-.541.355-.005.472-.291.51-.645a3.522,3.522,0,0,0,.589.184,4.756,4.756,0,0,0,1,.048c.219-.019.16-.249.156-.414,0-.016.128-.018.17-.056.111-.1.208-.218.314-.332C1497.281,1342.025,1497.151,1342.016,1496.591,1342.291Zm-.241-2.259.114.111-.244.223-.114-.127Zm.107.762-.359-.057C1496.374,1340.529,1496.384,1340.529,1496.457,1340.793Zm-40.16-1.608a.539.539,0,0,1,.579.275C1456.542,1339.559,1456.326,1339.555,1456.3,1339.186Zm16.455-.819c.543-.149.543-.149.542.323Zm20.534,1.213a1.712,1.712,0,0,0,.481-.319c.047-.061-.1-.27-.164-.441a3.119,3.119,0,0,1-.573.275.448.448,0,0,1-.384-.083.456.456,0,0,1-.01-.406,1.138,1.138,0,0,1,1.309-.448c.133.385-.32.852.19,1.2C1493.7,1339.868,1493.53,1339.9,1493.286,1339.58Z" transform="translate(-1448.242 -1270.859)"/><path d="M1483.9,1269.567h.008l.009-.008Z" transform="translate(-1463.47 -1239.197)"/><path d="M1451.54,1275.809c.336.519.932.015,1.36.3a1.113,1.113,0,0,1,1.148.022.339.339,0,0,0,.252,0,1.747,1.747,0,0,1,.935.006c.485.052,1.018.218,1.346-.256a5.743,5.743,0,0,0,1.062.485c.39.091.8.079,1.209.14.789.12,1.6.072,2.4.129,1.208.086,2.415.185,3.619.313a11.6,11.6,0,0,0,2.922.086.646.646,0,0,1,.3.057,1.755,1.755,0,0,0,1.408.05,2.581,2.581,0,0,1,1.583-.117,4.918,4.918,0,0,0,.635-.013,1.078,1.078,0,0,1,1.218,1.118c0,.038.036.074.088.173a3.855,3.855,0,0,0,1.08.251,1.176,1.176,0,0,1,.777.174c.409.293.8.616,1.232.956a4.781,4.781,0,0,0,.886-.351c.368-.23.691-.325.974-.008l.769-.243a5.1,5.1,0,0,1,.544,2.171c.488.168.451-.31.569-.364l1.286.233-.209.407a4.705,4.705,0,0,0,.906.162c.611-.013,1.275.189,1.776-.391.1-.119.337-.115.484-.208a1.287,1.287,0,0,0,.532-.969c.069-.438.136-.877.2-1.276l.665-.2c-.019-.322-.035-.6-.051-.874a1.351,1.351,0,0,0-.218,0,.326.326,0,0,0-.115.054c-.512.377-.512.378-.833-.165a1.507,1.507,0,0,1-.08-.226h.381a.666.666,0,0,0,.192-.716c-.056-.174-.239-.572.193-.731.045-.017.046-.429-.048-.5a.515.515,0,0,1-.235-.6c.071-.3-.08-.45-.342-.5-.23-.047-.468-.059-.686-.084-.142.481.342.351.435.633a.585.585,0,0,1-.441.576c-.124-.366-.242-.708-.355-1.051a.72.72,0,0,1,.015-.194l.441-.261-.724-.386c1.733.143,1.8.24,2.723-.608l-.379-1.062.5.055a8.368,8.368,0,0,1,.875-.716.926.926,0,0,0,.562-.9,1.842,1.842,0,0,1,.175-.587,1.4,1.4,0,0,0,.684.231l-.235-.735a.929.929,0,0,0,.261-.678c-.009-.629-.5-1.009-.557-1.6l-.714.221-.134-.063a.6.6,0,0,0,.149-.954c-.15-.212-.507-.277-.851-.446a2.559,2.559,0,0,1,.335-.26c.091-.047.221-.027.3-.084s.093-.166.178-.333a2.951,2.951,0,0,0-1.62,1.441.613.613,0,0,1-.629.3l-.1-.432c.194-.419.732-.5.828-1.037-.439.107-.832.194-1.1-.185l-.319.292c.029-.513.029-.513-.252-.711,0-.215.286-.453-.051-.669-.329.239-.309.543-.261.923l-.557-.353-.984,1.05.464,1.008c.239-.209.163-.555.55-.6.218-.026.405-.323.717-.072-.364.08-.588.2-.419.594.281.073.674-.106.8.441l-.834-.266-.445.745a5.038,5.038,0,0,0-.627-.471,6.4,6.4,0,0,0-.829-.314l.38-.36-.636.141c-.164-.227-.308-.406-.425-.6a.811.811,0,0,1-.046-.285l.015.017v-.011l-.014-.007c-.409-.472-.45-1.126-.8-1.627-.047-.067-.085-.14-.14-.23l-.32.171-.288-.433-.449.31.112.2-.978,1.86-.445-.136v.533c-.428-.416-.428-.416-.941-.059.1-.6.1-.6-.3-1.032l-.47.242c.018.281.035.527.057.859l-.406-.245a.648.648,0,0,1-.672.416,5.837,5.837,0,0,1-.759-.16c.008-.129.016-.265.027-.443l-.414.159.094.328a2.494,2.494,0,0,0-1.9.269l-.2-.236c-.365.427-.829.287-1.274.256-.048-.525-.048-.525-.618-.6.116.107.214.159.246.238a.737.737,0,0,1,0,.281c-.279-.328-.543.148-.853.007-.275-.126-.544-.028-1,.108a.511.511,0,0,1-.362-.061,2.3,2.3,0,0,1-.366-.323c-.029.109-.037.276-.083.287-.158.039-.375.089-.487.013a.385.385,0,0,0-.5,0,1.368,1.368,0,0,1-.487.089l-.355.31-.261-.316c-.193.078-.345.156-.507.2-.52.154-1.074-.115-1.589.12-.343-.209-.647-.015-.959.091a3.111,3.111,0,0,0-1.119.487l-.555-.386-.389.428a.806.806,0,0,0-1.1.011.347.347,0,0,1-.292.067,2.963,2.963,0,0,0-1.987.376,8.091,8.091,0,0,1-1.113.658.884.884,0,0,1-.49.052,4.051,4.051,0,0,1-.592-.161l-.207-.78a1.883,1.883,0,0,0-.182.112,1.634,1.634,0,0,1,.242,1.042c-.017.076.181.219.3.3a3.585,3.585,0,0,0,.438.227l.414-.3.3.732a1.478,1.478,0,0,1-.524.147,1.137,1.137,0,0,0-1,.256c-.207-.78-.277-.8-.884-.332l-.033.022c-.015-.23-.074-.4-.377-.348-.263.047-.53.067-.807.1.2-.734.178-.772-.485-.891-.12.621.013,1.348-.6,1.812-.257-.082-.258-.287-.254-.509.007-.323-.05-.661.484-.837a12.973,12.973,0,0,0-1.246-.422,4.286,4.286,0,0,0-1.11-.112,1.933,1.933,0,0,0-1.076.455c.191.246.4.5.584.76a1.472,1.472,0,0,1,.125.364l-.55.052-.449-.944c-.473.28-.119.661-.187.985a2.756,2.756,0,0,1-.337.243c-.065.035-.179-.016-.239.023-.271.174-.672.148-.813.531-.02.056-.127.089-.2.115a.64.64,0,0,0-.222,1.122,2.27,2.27,0,0,0,.364.247c.071.385.13.66.168.937a1.256,1.256,0,0,1-.007.441c-.171.746-.007,1.007.735,1.123.287.045.576.076.9.117-.009.137-.014.216-.019.294-.021.353.069.477.354.36a.566.566,0,0,1,.83.354A3.838,3.838,0,0,0,1451.54,1275.809Zm34.685-5.043-.554.033C1486.055,1270.349,1486.061,1270.349,1486.225,1270.766Zm-3.808-4.959c.324-.128.272-.737.8-.63C1483.016,1265.793,1482.941,1265.857,1482.417,1265.806Zm1.179,2.06-.231-.781C1484.039,1267.576,1484.039,1267.576,1483.6,1267.866Zm-4.384,10.611.116.1c-.148.206-.184.527-.57.492Zm-.37-.5-.266.364c-.057-.114-.133-.195-.13-.273C1478.454,1277.782,1478.625,1277.88,1478.842,1277.982Zm-21.086-8.343-.041.433-.482-.084Zm-.816-.423.131.019q-.045.21-.089.42l-.134-.008Zm-3.3,1.3c-.591.085-.6.084-.565-.4Z" transform="translate(-1445.073 -1236.355)"/><path d="M1497.277,1224.706c.053.017.091.24.058.343-.121.376-.042.6.365.728a.848.848,0,0,1,.58.939c-.007.169.019.339.02.509a1.192,1.192,0,0,0,.7,1.117.57.57,0,0,1,.347.71c-.1.58.079.769.681.759.285,0,.556-.009.7.245a2.129,2.129,0,0,0-.133.426,2.529,2.529,0,0,0,.015.624,6.555,6.555,0,0,0,.3,1.408,3.777,3.777,0,0,0,.952,1.8.093.093,0,0,1,.03.055c.092.517.532.666.922.861a2.378,2.378,0,0,0,.344.113c-.013.186-.023.334-.034.488l.948-.074-.4.61a3.8,3.8,0,0,0,.538.266c.436.133.868.247.881.83,0,.069.087.143.146.2a1.641,1.641,0,0,0,1.858.392,3.143,3.143,0,0,1,.651-.094c0-.114.006-.261,0-.408s-.027-.292-.041-.426c.383-.224.445.055.557.289.157.329.167.325.535.166a2.829,2.829,0,0,1-.381-.327c-.5-.607-.5-.614-.033-1.243.082-.109.141-.154.063-.312a2.008,2.008,0,0,1-.153-.648c-.062-.515-.2-1.051.264-1.455a2.174,2.174,0,0,0,.69.065c.379-.092.112-.417.126-.575.178-.119.392-.183.418-.293.1-.428.374-.512.754-.479a1.127,1.127,0,0,0,.334-.079l-.325-.541c-.623-.146-.8-.424-.655-1.021.06-.246.109-.5.154-.7l.5-.235a2.168,2.168,0,0,0-.471-.4.781.781,0,0,1-.4-.454c-.291-.572-.581-1.148-.921-1.692a1.189,1.189,0,0,0-.555-.345c-.33-.137-.676-.237-1.009-.351l.426-1.03-.822-.131c.186-.963.079-1.272-.574-1.628l-.388.258-.065-.063.321-.51c-.268-.255-.537-.5-.792-.758-.1-.1-.24-.228-.253-.355-.055-.53-.566-.714-.8-1.11-.224-.374-.7-.573-.822-1.052-.021-.084-.127-.161-.211-.213a.772.772,0,0,0-.93-.01c-.267-.308-.051-.845-.552-.947-.187.361-.373.72-.558,1.079l-.146-.032a.514.514,0,0,0,.1-.652c.284-.337-.05-.458-.206-.684-.433.348-.274.871-.415,1.2-.249-.141-.549-.414-.657-.352-.323.186-.479-.211-.722-.161-.253.9.64,1.105.961,1.617-.482.565-.677.586-1.2.233a1.638,1.638,0,0,0-.517-.162.535.535,0,0,0-.18.026l.164.345a2.189,2.189,0,0,0-.546.292,2.644,2.644,0,0,0-.339.6l-.249-.582c-.422.013-.439.007-.544.281a3.5,3.5,0,0,0-.006,1.7C1496.7,1224.074,1496.776,1224.546,1497.277,1224.706Zm11.673,4.492c.186-.157.439-.008.618.242l-.449.243.026.505-.527-.288C1508.728,1229.651,1508.773,1229.347,1508.95,1229.2Zm-.25,1.838c.085.169.15.3.233.464l.443-.075c.4.338.086,1.134-.7,1.637.351-.605.338-.649-.177-.762-.182-.04-.37-.054-.62-.089-.022-.307-.046-.632-.075-1.03Zm-3.186-7.815.157.178-.174.145c-.028-.043-.081-.088-.078-.128A.662.662,0,0,1,1505.513,1223.221Zm-.179,3.407c0,.55.585.849.417,1.466l-1.011-1.026Zm-6.642-4.439c-.25.119-.25.119-.552-.131Z" transform="translate(-1469.461 -1215.084)"/><path d="M1545.3,1222.046c-.115-.171-.228-.344-.345-.514-.105-.154-.215-.3-.347-.488-.162.3-.276.516-.413.772.1.08.2.207.325.24a1.891,1.891,0,0,0,.518-.014c-.208.514-.454-.054-.646.1a.949.949,0,0,0-.436,1.108,2.3,2.3,0,0,1-.623-.337c-.329-.385-.312-.4-.762-.178a2.263,2.263,0,0,1-.268.088l-.28-.508.692-.072c.427-.281.122-.959.647-1.153.255.349.431.387.568.064a.674.674,0,0,1,.607-.472c-.05-.353-.092-.651-.136-.962l-.6.032c-.537-.52-.245-1.135-.319-1.71l-.094.324-.4-.087c-.251.393-.251.393-.582.443l.471-.746c-.487.121-.514-.214-.564-.532-.308.144-.607.241-.8-.046a2.118,2.118,0,0,0-.91-.662,2.631,2.631,0,0,1-1.049-.976,2.951,2.951,0,0,0-.774-.589l-.262.507c-.232-.054-.332-.12-.233-.355a2.072,2.072,0,0,0,.083-.538c-.261-.075-.527-.075-.583-.184-.112-.219-.27-.218-.454-.271a4.581,4.581,0,0,1-.636-.276c-.069-.255-.065-.545-.2-.656-.115-.092-.4.027-.6.051.018-.222.034-.423.064-.789-.353.352-.654-.154-.964.225l.67.7c-.443-.075-.745.257-1.114-.028.161-.341.358-.681.058-1.056l-.274.336c-.609-.072-.388-.737-.808-.987-.33.456.139.811.106,1.213a2.976,2.976,0,0,0-.928.13.612.612,0,0,1-.816-.123c-.094.225-.266.475-.214.538.232.279.1.568.11.853a.7.7,0,0,0,.242.624.431.431,0,0,1,.105.389.97.97,0,0,0,.155.841,2.949,2.949,0,0,1,.395.847,1.041,1.041,0,0,0,.613.916c.042.266.006.567.118.64a.841.841,0,0,1,.327.789c-.02.73.469,1.257.64,1.9a3.707,3.707,0,0,1,.309,1.069,2.285,2.285,0,0,0,.65,1.662,1.338,1.338,0,0,1,.29.605,1.657,1.657,0,0,0,.5,1.062,2.169,2.169,0,0,1,.48.651,1.055,1.055,0,0,0,1.33.584c.4-.093.654.032.767.375.431.011.781-.357,1.194-.019a9.3,9.3,0,0,0,1.039.647c.078-.42.161-.783.209-1.151.063-.476.572-.434.84-.716l-.488-.408a2.514,2.514,0,0,0,.324-.846,2.386,2.386,0,0,0-.353-.809c.233,0,.486.025.416-.266s-.27-.177-.444-.073a.5.5,0,0,1-.167.019c.13-.445.493-.337.757-.366s.556-.015.657.321a2.956,2.956,0,0,1,.515-.2,5.443,5.443,0,0,0,1.626-.311C1545.411,1222.957,1545.654,1222.575,1545.3,1222.046ZM1534.054,1214v-.775C1534.413,1213.564,1534.413,1213.564,1534.054,1214Zm1.466.173c-.072-.438.263-.342.454-.493C1536.077,1214.124,1535.755,1214.087,1535.519,1214.172Zm6.226,6.68c.092-.368.275-.364.539-.271C1542.2,1220.839,1542.045,1220.889,1541.746,1220.852Z" transform="translate(-1486.103 -1211.86)"/><path d="M1555.37,1234.983c-.56.528-.513.662.354,1.063l.328-.709c-.168-.073-.285-.116-.394-.174S1555.46,1235.04,1555.37,1234.983Z" transform="translate(-1497.157 -1222.816)"/><path d="M1513.092,1267.043l-.636-.5c-.013.189-.025.372-.038.556l.352.163C1513.008,1267.371,1513.073,1267.238,1513.092,1267.043Z" transform="translate(-1476.982 -1237.769)"/><path d="M1521.908,1284.624a3.048,3.048,0,0,0-.354-.407c-.072-.06-.205-.046-.311-.065.015.112-.01.285.051.323a3.657,3.657,0,0,0,.592.251Z" transform="translate(-1481.163 -1246.112)"/><path d="M1527.734,1270.25c-.028-.2-.057-.446-.314-.512v.82C1527.562,1270.425,1527.745,1270.323,1527.734,1270.25Z" transform="translate(-1484.089 -1239.283)"/><path d="M1520.81,1247.952l.642-.152C1520.874,1247.466,1520.832,1247.479,1520.81,1247.952Z" transform="translate(-1480.958 -1228.78)"/><path d="M1523.683,1246.671c.2-.26.223-.477-.113-.667C1523.42,1246.285,1523.307,1246.517,1523.683,1246.671Z" transform="translate(-1482.199 -1228.037)"/><path d="M1463.7,1340.913l-.445.422.417.16.155-.522Z" transform="translate(-1453.69 -1273.006)"/><path d="M1484.6,1338.184c-.038-.431-.334-.35-.66-.471A.754.754,0,0,0,1484.6,1338.184Z" transform="translate(-1463.486 -1271.49)"/><path d="M1521.477,1289.235c.07.081.127.2.215.232.053.021.155-.079.286-.153-.123-.11-.2-.215-.292-.247C1521.639,1289.052,1521.548,1289.175,1521.477,1289.235Z" transform="translate(-1481.274 -1248.44)"/><path d="M1456.258,1273.411c.02.01.1-.093.193-.178l-.324-.224c-.045.064-.139.166-.124.186A.825.825,0,0,0,1456.258,1273.411Z" transform="translate(-1450.251 -1240.833)"/><path d="M1483.574,1268.834l.188.377.448-.377Z" transform="translate(-1463.315 -1238.854)"/><path d="M1483.906,1269.562l.015-.008v0Z" transform="translate(-1463.472 -1239.194)"/><path d="M1538.2,1346.147l.6.218.059-.129C1538.673,1346.132,1538.511,1345.922,1538.2,1346.147Z" transform="translate(-1489.196 -1275.438)"/><path d="M1480.992,1337.5l.118-.122-.3-.287-.11.116Z" transform="translate(-1461.953 -1271.196)"/><path d="M1523.138,1243.415h-.005l.005.009.014,0Z" transform="translate(-1482.057 -1226.811)"/><path d="M1523.19,1242.565c-.309.155-.281.293-.138.447C1523.37,1242.948,1523.179,1242.772,1523.19,1242.565Z" transform="translate(-1481.971 -1226.408)"/><path d="M1501.195,1265.594l.4.139-.264-.454Z" transform="translate(-1471.664 -1237.17)"/><path d="M1552.607,1234.482l.018.011v0c0-.008-.006-.014-.008-.021h0Z" transform="translate(-1496.023 -1222.575)"/><path d="M1551.992,1234.6l.324-.27c-.075-.049-.152-.1-.272-.175Z" transform="translate(-1495.732 -1222.424)"/><path d="M1520.144,1290.068a.385.385,0,0,0,.16.14c.025.01.085-.072.13-.111a1.429,1.429,0,0,0-.181-.133.219.219,0,0,0-.109,0C1520.139,1290,1520.126,1290.044,1520.144,1290.068Z" transform="translate(-1480.638 -1248.862)"/><path d="M1520.12,1289.95h.016c0-.005,0-.012,0-.017l-.012.012.012-.012h0l-.014.018Z" transform="translate(-1480.631 -1248.851)"/><path d="M1524.308,1337.4l.125.337.288-.418Z" transform="translate(-1482.615 -1271.302)"/><path d="M1519.52,1243.341l-.627-.174.169.547Z" transform="translate(-1480.049 -1226.693)"/></g></g></svg>