<svg xmlns="http://www.w3.org/2000/svg" width="209.121" height="71.56"><path d="M70.612 35.755c-.077-.025-.173-.027-.222-.077-.144-.147-.265-.169-.395-.023-.178.2-.362.325-.625.14-.022-.016-.07.006-.126.012.245.3.743.111.908.6l-1.474-.436c.326-.2.616-.369.9-.551a.4.4 0 00.169-.192.544.544 0 00-.287-.674c-.243.109-.1.607-.565.511.15-.3-.133-.209-.2-.252l-.143-.5.272-.3c-.189-.328-.076-.485.47-.534l-.589-.186.059-.134-.512-.155.165-.332c-.134-.079-.282-.24-.388-.215a.976.976 0 01-.8-.175l.278-.326-.818-.2-.027-.274-.139.157-.064-.04.211-.384c-.31.037-.589.647-.948.073l-.155.091-.01-.021.357-.324c-.6-.011-.842-.128-.916-.495-.048.053-.088.1-.129.14a.319.319 0 01-.528-.1c-.078-.312-.309-.372-.575-.4a1.18 1.18 0 01-.194-.072c-.082-.025-.166-.043-.253-.065.058-.141.082-.322-.235-.347l.257-.132.144.272.091-.227-.641-.423.081.365-.292.1c-.021-.047-.032-.132-.074-.152a.567.567 0 01-.315-.586c0-.071-.076-.148-.13-.21-.2-.222-.359-.032-.544.05l.1.3-.452-.038-.167-.253-.3.152-.078-.255.479-.165-.059-.129-.214.127-.14-.22-.178.3c-.031-.136-.051-.233-.076-.328s-.053-.181-.08-.272l-.3.109c.018-.349-.244-.12-.381-.163a1.6 1.6 0 01-.076.251.254.254 0 01-.128.135.605.605 0 01-.219-.02l.032-.172c-.174-.074-.514.232-.481-.288l-.288.335-.077-.013v-.639l-.322.088-.13-.229-.061.263c-.293-.087-.567-.42-.8-.084l-.754-.453-.178.153-.439-.628-.21-.023.276-.17.152.281.4.149.036-.083-.308-.158c.378-.263.027-.218-.172-.3l.577-.284c.035-.17-.377-.367.173-.477l-.665-.556.249.021-.034-.07.422-.224v-.756c.053-.055.214-.146.245-.27.1-.4-.172-.869.206-1.234.019-.018-.033-.1-.024-.142.039-.2.088-.4.134-.6 0-.093-.136-.265-.1-.313.167-.225-.033-.351-.095-.524.377-.008.292-.264.234-.515l.295.014-.109.148.254-.032c-.021-.279.156-.354.376-.41.014.081 0 .189.04.208a5.207 5.207 0 00.734.338c.177.061.381.042.562.1a5.146 5.146 0 01.7.272 7.821 7.821 0 011.489.561c.283.207.675.083 1 .3a3.557 3.557 0 001.1.311c.148.037.306.12.413-.088.014-.028.14-.034.188-.006a1.134 1.134 0 00.813.091l.456-.081.067-.246a3.265 3.265 0 00.281.172.683.683 0 00.33.12 4.221 4.221 0 00.764-.182.271.271 0 00.132-.215 8.667 8.667 0 00-.092-1.083c-.031-.187-.149-.346-.36-.108-.045.05-.141.054-.188.071l-.229-.481a1.455 1.455 0 01.267-.312 2.771 2.771 0 01.566-.264c.034-.012.125.164.172.156a3 3 0 00.473-.158c-.106-.177-.042-.465-.254-.516-.137.147-.219.287-.339.34-.061.027-.2-.1-.289-.162-.11-.078-.212-.166-.316-.249l.728-.234-.016-.1-.581-.264c.062-.264-.14-.356-.339-.45.194-.066.375-.3.627.048-.135-.4-.226-.709-.359-1-.022-.048-.243-.033-.358 0-.065.019-.1.133-.162.217-.116-.318-.243-.344-.485-.154a.376.376 0 01-.273.025c-.119-.027-.262-.186-.264.1a.341.341 0 01-.179.019.149.149 0 01-.08-.122.216.216 0 01.115-.126.532.532 0 01.177-.017 2.2 2.2 0 00.145-.39 1.5 1.5 0 00-.005-.425 2.046 2.046 0 00-.1-.324l.082-.043-.485-.381-.225.19c-.091-.494-.209-.626-.546-.527-.174.052-.205.01-.3-.122a1.168 1.168 0 00-.439-.312c-.134-.068-.351.1-.434-.145l-.147.062a22.211 22.211 0 01-.019-.292l-.479.081c0-.015-.017-.065-.037-.141l-.158.168a2.873 2.873 0 00-.255-.192 2.042 2.042 0 01-.348-.187 1.1 1.1 0 01-.166-.322l-.058.231-.645-.073a3.763 3.763 0 01-.118.407c-.026.064-.1.148-.152.153a.205.205 0 01-.157-.135c-.006-.074.056-.155.092-.232.019-.041.058-.075.066-.116a.208.208 0 000-.094 1.4 1.4 0 00-1.774.241l.043-.6-.38-.514.653-.2.075-1.011-.32-.1.59-.49-.06-.423-.24-.04.318-.2c-.117-.731-.086-.846.181-.9l.069-.429-.235-.173h.267l.189-.216-.417-.055.3-.08c-.36-.33-.047-.566.031-.777l-.4-.575-.092.063v-.724c.066-.116.682.143.3-.389l.135-.162a1.845 1.845 0 01-.14-.245.366.366 0 00-.427-.248 5.784 5.784 0 00-.831.322c-.154.063-.305.133-.385.168a2.362 2.362 0 00-.2-.472c-.12-.164-.058-.251.088-.311a.919.919 0 01.26-.028c.014-.249-.182-.542-.379-.521-.084.009-.154.152-.263.27l.34.063-.438.522-.222-.822h-.427a.53.53 0 00-.179.71.24.24 0 01-.3.283c-.06-.009-.163.114-.208.2a.775.775 0 00-.038.27l-.22.052-.653-1.2c-.165.245-.265.54-.4.554-.175.02-.374-.178-.592-.3-.231.123-.223.374-.176.605l-.326.067a1.993 1.993 0 00.118.294 3.2 3.2 0 00.238.306c-.253.056-.466.094-.673.152-.054.016-.132.1-.128.145a2.9 2.9 0 01-.087.7 1.156 1.156 0 01-.4.789 2.169 2.169 0 00-.7 1.105.828.828 0 00.129.982c-.114.205-.233.26-.37.047-.464.419-.48.686-.078 1.11l-.141.226-.159-.138-.143.158-.127-.256a.919.919 0 01-.646.017c-.148-.132-.3-.308-.522-.124-.026-.049-.06-.144-.078-.141a1.578 1.578 0 01-.617-.1 2.446 2.446 0 00-.854.1l-.167.376c-.052-.025-.141-.041-.148-.074a3.454 3.454 0 01-.039-.421.509.509 0 00-.107-.112c-.1-.064-.245-.186-.307-.155-.221.111-.325-.034-.472-.133a3.919 3.919 0 00-.5-.238 2.02 2.02 0 01-.669 1.594l-.35-.276a.893.893 0 00.408-.875c0-.091.15-.182.229-.274.035-.041.1-.088.092-.127a.247.247 0 00-.094-.166.325.325 0 00-.487.21 1.885 1.885 0 01-.161.68c-.16.216-.2.37.054.645-.236.023-.426.1-.521.036s-.124-.266-.151-.412a.264.264 0 01.222-.336.328.328 0 00.252-.439c-.048-.194-.1-.388-.146-.594-.113.025-.192.018-.225.054-.164.177-.322.345-.591.181-.013-.008-.091.045-.088.063.029.242-.214.31-.307.474s-.107.2.082.245c.269.059.308.268.087.5a.96.96 0 00-.188-.228 2.626 2.626 0 00-.579-.3 1.679 1.679 0 00-.486-.009l-.01-.085.416-.347a.823.823 0 01-.5-1.1c-.076-.09-.161-.255-.22-.246a1.116 1.116 0 01-.585-.123c-.225-.092-.289-.012-.349.161l-.128-.083a1.632 1.632 0 00-.032.323c.007.068.065.18.106.183a.282.282 0 00.212-.1 2.483 2.483 0 00.19-.37c.357.321.33.521-.061.726-.172.091-.151.1-.071.273a2.092 2.092 0 01.1.5c-.122-.009-.193-.02-.264-.019-.556 0-.625-.039-.862-.5-.029-.055-.121-.076-.159-.131-.122-.175-.233-.358-.348-.538-.039.044-.076.092-.119.133-.065.063-.135.121-.2.181-.032-.083-.058-.167-.1-.247s-.084-.141-.163-.267c0 .29-.011.479 0 .665.019.246-.146.246-.319.313-.313.12-.45.013-.549-.269a.356.356 0 00-.212-.164 1.377 1.377 0 00-.349-.049c-.244-.018-.513-.131-.665.195-.019.041-.138.036-.211.052a1.043 1.043 0 01-.014-.219 1.064 1.064 0 01.086-.22c-.125.01-.208-.007-.262.025-.1.061-.25.136-.273.23-.034.139-.025.4.052.437.318.165.328.422.343.721.025.511.04.507-.442.63a.44.44 0 00-.261.14c-.051.091-.078.294-.031.326a1.874 1.874 0 00.928.441c.2.015.5.078.568.214a.4.4 0 00.424.257c.005.3.148.4.438.331a3.741 3.741 0 01.526-.052c.037.155.046.335.087.342.416.074.779.574 1.269.126.219-.2.36-.113.418.176.085.424.215.492.555.347.122.1.217.247.323.255.249.021.508-.062.752-.028a1.136 1.136 0 01.617.26 2.778 2.778 0 001.473 1.005l.267-.572a2.322 2.322 0 01.149.5c.027.084.166.217.194.2.373-.177.458.242.667.359a2.031 2.031 0 00.511.308 5.91 5.91 0 01.936.451c.464.187.825.661 1.442.506-.039.1-.066.156-.087.219a.791.791 0 00-.055.2c-.009.16.059.372-.02.472a.843.843 0 00-.178.712c.014.094-.092.2-.115.3-.053.238-.09.479-.129.72-.012.076.02.176-.017.231-.387.577-.217 1.311-.538 1.907-.033.063.009.166.013.25a.3.3 0 010 .136 7.172 7.172 0 01-.565 1.357c-.145.19-.233.289-.366.106a1.507 1.507 0 00-.948.564c-.416.024-.535-.236-.55-.605l-.09.12-.687-.59c-.117.54-.705.114-.94.5v-.447a3.43 3.43 0 00-.195.686c-.018.081-.053.221-.09.224-.143.013-.318.057-.415-.1-.032-.051.006-.151.02-.228.016-.092.041-.182.076-.326l-.185.091c-.092-.1-.154-.213-.233-.227-.06-.011-.163.1-.211.177-.21.342-.268.37-.614.183-.232-.125-.45-.2-.663.039a.359.359 0 00-.478-.257c-.034.017-.025.122-.036.188a.7.7 0 00-.249.233c-.016.021-.029.045-.046.071l-.165-.085-.051-.467-.573.107.2-.256c-.277.048-.568-.214-.789.1l-.095-.162c-.13.067-.273.175-.3.15-.258-.226-.5-.01-.751 0l-.081-.21a1.33 1.33 0 01-.244.229c-.061.032-.206.03-.224 0-.088-.167-.192-.175-.295-.043-.116.151-.2.323-.331.528-.064-.526-.533-.587-.974-.752-.033.317-.181.281-.368.122s-.371-.3-.52-.417l-.313.321.022.189a2.936 2.936 0 01-.451-.159.291.291 0 00-.455.113l-.439-.217c-.137.025-.056.363-.331.225-.15-.075-.307-.139-.414-.187l-.253.367c.091.17.058.366-.241.488-.044-.259-.1-.519-.431-.478-.234.029-.464.091-.723.143a3.2 3.2 0 01.146.457.641.641 0 01-.059.237c-.321-.106-.223.127-.226.279-.236-.221-.734-.118-.753-.608l-.085.616-.232.053-.085-.233-.34.253.313.7-.577.2c.178.332.177.335-.078.494l.107.332c-.164-.018-.3-.045-.442-.046-.336 0-.376-.058-.269-.372.018-.054-.037-.133-.058-.2l-.133.1-.137-.247c-.144.257-.146.679-.617.454-.024-.011-.163.113-.156.159a.811.811 0 00.156.464c.09.077.3.016.479.016.044.117.1.272.173.459-.592-.08-1.213.185-1.687-.446v.589L25.939 28c-.015.1.006.269-.052.3-.27.161-.292.459-.44.685a.476.476 0 01-.258.183c-.353.093-.369.134-.147.415a.259.259 0 01.006.208c-.174.061-.355.1-.606.162a6.078 6.078 0 01.055.642.583.583 0 01-.137.273c-.028.042-.088.063-.149.1l-.1-.236c-.153.033-.378.021-.419.1a6.215 6.215 0 00-.4 1.033 2.209 2.209 0 00-.008.565l.991.329a.237.237 0 01-.157.1 3.484 3.484 0 00-.664.154c-.094.041-.151.215-.183.339a2.177 2.177 0 00-.021.409c0 .09-.024.179-.022.269a1.365 1.365 0 00.032.264c.064.309-.164.739.37.865.058.014.069.231.118.416l-.3-.141c-.134.542.333.935.311 1.44a.09.09 0 00.053.07c.369.084.388.484.373.669-.046.564.3.98.433 1.469a4.2 4.2 0 00.516.905c.125.217.241.439.366.656.04.068.11.187.147.179.233-.042.21.175.295.272.247.288.483.586.724.879.012.015.03.036.045.035.471-.019.645.423.925.66a3.945 3.945 0 00.811.637 6.055 6.055 0 01.941.549 1.041 1.041 0 001.279-.016c-.052.335.265.687.553.625a1.455 1.455 0 01.379-.023 2.249 2.249 0 00.544.043 1.658 1.658 0 011.063.1 4.3 4.3 0 001.594.247 16.226 16.226 0 012.027.291c.307.049.607.232.924.01.044-.031.163.042.245.073.062.024.116.078.179.087a8.362 8.362 0 002.84.011c.217-.044.424-.144.641-.18.3-.049.6-.059.9-.091.2-.022.28-.236.416-.31a2.476 2.476 0 01.772-.158 1.036 1.036 0 00.257-.029q.877-.4 1.745-.821a2.724 2.724 0 00.322-.217 1 1 0 00.24-.058c.18-.09.349-.2.528-.3.208-.108.49-.154.618-.32a.839.839 0 01.578-.278c.185-.045.4-.072.427-.34 0-.038.1-.067.162-.106-.073-.3.061-.457.424-.476a1.654 1.654 0 00.409-.075 2.073 2.073 0 00.864-.712 1.109 1.109 0 01.36-.327.388.388 0 00.278-.339c.038-.2.109-.4.167-.6l.349.134-.14-1.208 1.329-.847a.424.424 0 01.371-.515l-.183-.44c.261.14.448.238.633.34a14.216 14.216 0 012.3 1.111c.148.118.373.137.538.24.568.356 1.116.741 1.688 1.09a1.973 1.973 0 00.957.377c.039 0 .076.053.116.078a4.466 4.466 0 01.991.876 9.87 9.87 0 001.347 1.112 2.671 2.671 0 00.349.22c.076.044.164.068.241.111a5.743 5.743 0 00.742.408c.079.03.243-.117.347-.208.135-.117.236-.1.33.035.132.2.259.4.426.651a2.316 2.316 0 00.146-.376.369.369 0 01.471-.308 1.121 1.121 0 00.355.02c.382-.05.415-.017.32.36l-.483.113a2.421 2.421 0 00.488.284c.135.037.318.128.425-.1.022-.046.176-.029.275-.042l.031-.2.067.247.9-.289.242.267a1.149 1.149 0 01.75-.407c.32.025.3-.385.573-.4l-.068-.238.2-.041-.464-.266c.05-.28.509-.066.387-.425-.111-.327-.4.007-.547-.177-.136-.145-.317-.243-.444-.388-.092-.106-.2-.316-.15-.408a.487.487 0 00-.287-.759c.112-.071.2-.12.283-.181s.154-.14.23-.21a1.7 1.7 0 00-.249-.212c-.133-.076-.28-.128-.526-.237l.7-.616-.778.118.031-.378c.211-.092.544-.158.555-.258.038-.355.33-.278.527-.439-.044.217.464.329.011.527a2.7 2.7 0 00.194.26 2.146 2.146 0 00.258.19c.542-.1.638-.211.477-.649.27-.073.535-.163.807-.215.3-.058.517-.156.433-.486.416-.256.741-.524.618-1.056zm-3.955-17.089c-.348.146-.539.092-.65-.185l.627-.1.023.287zm-.385-1.331l.186.581h-.889c-.017-.435.479-.378.703-.579zm-1.161 2.588a.385.385 0 010 .341c-.038.073-.186.087-.321.141.006-.333-.1-.5-.4-.493a1.917 1.917 0 01.4-.086.439.439 0 01.32.1zm-.34-2.978a.592.592 0 01-.1.139c-.076.057-.167.093-.246.146a1.217 1.217 0 00-.133.117c-.022-.028-.07-.067-.063-.083a.4.4 0 01.112-.185 3.385 3.385 0 01.386-.187zm-1.034-1.73l.272.132c.021.01.044.04.059.035.213-.067.224.136.218.219-.032.426-.025.459.385.737a.118.118 0 01.035.082c0 .029-.014.058-.008.035-.13.041-.206.088-.273.078a1.019 1.019 0 01-.258-.125c-.282.16-.309.133-.341-.241-.017-.2-.114-.4-.143-.606a1.171 1.171 0 01.053-.343zm-4.769-.25l-.035.607-.34-.165zm-.674-6.807l-.231.156.244.786-.364-.121-.06-.47-.291-.138.021-.1.646-.19zM57.13 6.836c.022-.036.084-.06.086-.093.02-.3.234-.34.375-.36l.651.626c-.326.089-.638.193-.957.251-.09.017-.2-.1-.308-.153.05-.088.098-.181.153-.269zm-14.832 4.048l-.1-.132.433-.283.155.376zm1.888 3.841l-.322-.139.076-.308c.297.063.399.185.246.449zm-18.335 15.16c-.383-.125-.232-.337-.121-.542.331.138.353.236.12.543zm18.452 2.868c-.1.014-.172.229-.278.382l-.4-.139-.071.338-.075-.006v-.561l-.307.089a1.571 1.571 0 01.187.534c0 .108-.193.21-.324.339l-.259-.426-.079.007v.354l-1.367.745-.112-.468c-.334.115-.337.14-.109.363.042.041.028.14.04.211h-.229l.071.024-.437.353-.332-.132.046-.305.254.193-.082-.45-.493.468c-.063-.125-.137-.207-.292.042-.055.089-.272.077-.448.119l-.113-.108c-.031.044-.094.1-.085.131a.518.518 0 00.118.209c.05.055.124.09.168.156-.33.019-.33.019-.877-.367l-.125.386c-.1.046-.3.219-.434.178-.183-.057-.295.021-.442.035-.281.029-.418.142-.4.341l-.442.144c-.418-.011-.418-.011-.107-.445l-.281-.075a1.718 1.718 0 00-.049-.276.142.142 0 00-.121-.065c-.032 0-.089.077-.081.1.163.488-.239.19-.371.264-.017.009-.064-.036-.113-.065l-.026.228-.033-.076-.467.173c0-.243-.156-.218-.3-.156l-.079-.421c-.144.187.015.517-.318.543a2.687 2.687 0 01-.63-.1 8.948 8.948 0 00-.034.2l-.261.123c-.067-.144-.138-.23-.356-.155-.12.042-.3-.089-.443-.139l.035-.3-.081-.038a.865.865 0 01-.142.294.7.7 0 01-.36.135c.084-.278-.045-.381-.429-.4l.153-.267-.068-.042-.127.172c-.422-.041-.244-.341-.2-.583h-.08l-.129.222c-.191-.219-.541-.215-.683-.535a2.479 2.479 0 00-.423-.511c-.017-.02-.036-.068-.026-.078.287-.32-.307-.568-.073-.885a.093.093 0 00-.013-.084c-.227-.269.005-.521.041-.772a2.284 2.284 0 01.268-.57c0 .107-.022.178 0 .211a1.733 1.733 0 00.223.209 1.109 1.109 0 00.168-.206c.029-.06-.013-.166.026-.207a1 1 0 01.336-.251c.034-.014.139.145.26.277.154-.006.245-.177.334-.363.033-.07.114-.18.156-.173.234.04.357-.1.524-.226a2.835 2.835 0 011.449-.529 1.1 1.1 0 00.224-.079c.121-.039.236-.144.369 0a.209.209 0 00.2.017c.336-.223.667.041 1.009.007a4.945 4.945 0 011.078.157 4.175 4.175 0 00.921.063.643.643 0 00.467-.293c.114-.273.283-.148.335-.054.244.451.7.422 1.06.389a1.558 1.558 0 01.736.192 5.55 5.55 0 00.75.156c.042.008.1-.015.13 0a6.494 6.494 0 00.623.33 7.165 7.165 0 00.765.2c.029.007.062 0 .091.01.239.063.52.237.707.166.29-.11.411.045.533.188a.65.65 0 00.821.169l-.146.16.546.355c-.135.198-.21.481-.562.532zm22.743 3.1l.183-.161-.33.026v-.057l.762-.321c-.167.253-.223.55-.616.515zm1.364.817c.174-.457.2-.467.575-.176z"/><path d="M40.31 9.698a1.737 1.737 0 00.5-.132.378.378 0 00.105-.344.292.292 0 00-.429-.189 2.969 2.969 0 00-.486.535l.316.133zm0 0zM9.24 16.277v-.005zm14.444-3.373c.009-.064.162-.124.26-.156s.2.01.272-.027a4.96 4.96 0 00.465-.289l-.221-.3.322-.116-.2-.054.154-.263a2.242 2.242 0 01-.65.265 2.269 2.269 0 01-.652-.174c.145-.327-.105-.468-.306-.663l.368-.076c-.008-.074-.055-.185-.02-.223a.6.6 0 00.12-.785l-.386.163c-.238-.376.09-.325.19-.357a5.691 5.691 0 00.236-.553 3.751 3.751 0 00.145-.661c.009-.079-.08-.168-.138-.279l-.592.432c-.344-.391-.427-.39-.7.033l.63.268c.042.1-.111.372.2.481-.416.236-.806.474-1.213.678-.109.055-.269.008-.4.008a2.064 2.064 0 00.153-.69c-.047-.267-.081-.242.152-.447a.413.413 0 00.083-.371.792.792 0 00-.773-.171c-.118.095-.384.151-.215.432.051.084-.018.241-.039.421l-.093-.182-.281.422a.54.54 0 00-.936.275l-.3-.049.435-.576c.2.047.483-.22.643-.689l.08.243c.145-.217.034-.284-.128-.349a2.864 2.864 0 01-.358-.2.354.354 0 01.147-.106c.192-.14.348-.2.5.073.085.151.338.093.43-.074a.466.466 0 00-.3-.642.72.72 0 01-.029.17c-.186.009-.374-.011-.558.005-.168.015-.49-.243-.4.331l-.087-.233c-.127.126-.246.259-.381.373-.09.075-.235.1-.3.187-.17.229-.309.48-.474.745-.052-.225-.039-.443-.139-.528-.124-.1-.341-.1-.523-.141l-.272.419c-.172.026-.359 0-.427.077a1.148 1.148 0 00-.137.445l-.62-.325-.172.772-.537-.2-.075.344-.774.221.382.265-.188.255-.158-.181a3.241 3.241 0 00-.155.1c-.234.135-.467.272-.7.4a1.745 1.745 0 01-.239.094l-.178.695-.212.12.173.254c.118-.093.137.033.2.08.286.2.091.472.105.707 0 .051-.122.126-.2.16-.03.013-.141-.058-.14-.09.005-.328-.3-.287-.461-.417-.253-.2-.438-.112-.644.054l-.021-.4h-.093l-.044.182a1.761 1.761 0 00-.321-.023c-.03 0-.051.095-.076.147a.993.993 0 01.259.075 2.943 2.943 0 01.309.24l-.051.1c-.208-.146-.375.368-.514.1l-.311.273-.084-.075.2.224c-.341.108-.2-.3-.434-.288-.157.074-.281.182-.028.4l-.491.055v.1l.356.142.081-.228.109-.017.219.7-.331-.131a.832.832 0 01-.047.244c-.057.108-.166.294-.212.283-.274-.068-.273.1-.308.279a.41.41 0 01-.165.217 2.7 2.7 0 01-.358.185c.277.275.251.427-.113.729l-.115-.345-.421-.071.2.624-.4-.173a1.046 1.046 0 01-.452.83h-.477c.189.195.319.344.207.576l-.255-.061v.755l-.5.056-.567.6v.729l-.272-.127c-.434.317-.337.761-.307 1.244a1.233 1.233 0 00-.259-.207c-.053-.021-.184.015-.189.043a2.44 2.44 0 00-.035.444c0 .121.013.242.023.407-.532-.225-.679.222-.928.469l-.218-.538-.254.267.285.131-.252.308c.4.266.4.3.052.625-.006.005-.007.016-.01.024l.474.237.006.077-.7.21a.432.432 0 01-.459.466 1.338 1.338 0 00-.34.016v.1l.219.163c-.215.336-.422.658-.627.981-.016.025-.037.075-.027.084.186.18-.061.241-.1.356s-.087.2-.122.3c-.1.274-.011.62-.262.827s-.169.468-.152.713l-.276.252c.519.019.175.388.323.542l-.145.131c-.058-.382-.077-.4-.363-.318a.827.827 0 01-.006.3c-.146.341-.312.673-.48 1.029l-.2.117.306.855-.335.047-.064.123c.472.023.378.326.434.6.076.368-.279.411-.356.652-.316-.349-.316-.349-.394-.316-.067.19-.121.326-.164.465a6.922 6.922 0 00-.2.683c-.081.4-.14.806-.208 1.208-.057.339-.121.677-.17 1.017-.029.2 0 .415-.219.544-.036.022-.031.116-.042.177-.016.1-.029.2-.043.3-.052.365-.123.729-.148 1.1a4.412 4.412 0 00.078.614c.029.372.035.747.067 1.119a1 1 0 00.119.438 1.834 1.834 0 01.376 1.338.293.293 0 00.059.168c.283.481.569.961.845 1.428.23-.064.383-.147.406.155.011.133.182.262.3.378s.263.229.394.344c.152.134.254.271.12.49-.026.041.059.2.13.244.431.273.867.539 1.314.784.1.055.267-.018.373.031.216.1.4.261.619.366a.812.812 0 00.379.048 1.952 1.952 0 00.363-.094.717.717 0 01.118-.116c.04-.03.114-.02.148-.053.1-.1.173-.091.31-.032a.632.632 0 00.522.018c.3-.251.543-.239.712.094a1.44 1.44 0 00.267.016 3.462 3.462 0 00.555-.1 1.348 1.348 0 00.423-.2 2.411 2.411 0 00.474-.444 4.835 4.835 0 00.347-.59 5.107 5.107 0 00.482.18c.24.06.219-.179.313-.29a.849.849 0 01.192-.152 2.931 2.931 0 00.963-1.432c.258-.027.282-.084.155-.313a1.528 1.528 0 00.1-.5c-.047-.247.072-.328.281-.385l-.153-.226c.074-.059.206-.134.2-.16-.117-.328.3-.447.283-.734 0-.023.114-.054.229-.1l-.114-.323c.044-.1.125-.2.1-.263a2.334 2.334 0 00-.272-.415.807.807 0 00-.146-.627c-.083-.112-.163-.356-.107-.419a2.186 2.186 0 01.529-.347c.077.184.1.409.211.464.128.064.331-.022.5-.043l-.077-.086.359-.464-.15-.179c.229-.171.2-.164.108-.479a.969.969 0 010-.578c.05-.134.24-.216.367-.319l-.38-.494a2.346 2.346 0 00.608-.4c.076-.1-.02-.329-.037-.493.054-.145.113-.3.175-.473l-.341-.075c.367-.223.326-.67.636-.926s.215-.847.6-1.135c.005 0 0-.02.005-.046l-.129-.19.3-.23-.179-.281a1.037 1.037 0 00.15-.044.987.987 0 00.122-.081l-.087-.046c.072-.169.1-.385.226-.5a1.313 1.313 0 00.383-.643c.059-.207.08-.426.122-.638.011-.055.061-.113.05-.16-.045-.188 0-.279.208-.214.009-.132-.018-.309.029-.33.277-.131.127-.252.042-.354l.643-.59c.015-.21.018-.376.041-.541.042-.3-.253-.19-.4-.322a1.58 1.58 0 01.709-.729c.213-.088.387-.2.32-.44.286-.2.3-.525.378-.812l.177.126.08-.044-.151-.416.165-.074-.127-.306.219-.38-.365.043-.054-.27c.353-.046.723-.133.832-.474.1-.315.423-.433.509-.737.02-.072.14-.116.215-.172-.152-.378-.078-.529.36-.677a2.986 2.986 0 01-.261-.4 1.855 1.855 0 01.542-1.238c.007 0 .024.025.047.05l-.213.174.221.131.686-.738-.179-.73c.231-.225.5-.462.738-.726a.751.751 0 00.2-.414c.03-.477.023-.957.028-1.435 0-.049-.035-.119-.014-.144.108-.12.245-.216.343-.344a3.232 3.232 0 00.214-.4c.04-.07.093-.134.153-.219l-.376.086-.027-.081.361-.187-.511-.681.065-.133h.429c.067 0 .162.033.2 0a.434.434 0 01.48-.059c.152.032.304.059.338-.189zM6.777 44.113a.622.622 0 01-.213-.107c.057-.059.106-.153.174-.168s.138.061.279.133c-.124.081-.185.149-.241.146zm9.884-33.727a1.04 1.04 0 01-.427.248c-.049.014-.145-.135-.221-.21l.532-.363c.045.12.151.295.116.328zm6.625 2.411c-.325-.417-.755-.341-1.2-.163l.3.128c-.067.084-.121.211-.189.22s-.175-.079-.247-.143c-.1-.092-.194-.2-.259-.27l.113-.43-.263-.081c.1-.088.175-.155.249-.227a2.456 2.456 0 00.282-.292.547.547 0 01.556-.112c.066.042.13.087.187.126l-.093.18.245.115c.069.333.539.52.319.956zm15.378-2.975l.326-.305.058.428.095.021a1.921 1.921 0 00.085-.277c-.292-.136-.146-.381-.155-.583s-.052-.236-.268-.226a.214.214 0 01-.141-.039c-.187-.173-.343-.078-.494.042a.864.864 0 00.494.939zm-2.072 1.959c.366.119.3-.35.527-.456l-.041-.115-1.088.12c-.071.196-.076.227.602.451z"/><path d="M6.167 20.155c.259-.105.278-.107.11-.347-.022-.031-.037-.066-.06-.106l.275-.017-.253-.28-.647 1.023.243.093c.131-.148.208-.313.332-.366zm22.917 6.316l-.25-.809c-.218.564-.13.815.25.809zm-15.479-15.7l-.252.47.44-.078c.187-.312.177-.33-.188-.392z"/><path d="M13.793 11.162l-.006.01h.008v-.007zm-6.724 7.645l-.126-.22.352-.087c-.1-.391-.318-.089-.555-.117l.246.469zm2.171-2.53v-.005h-.005z"/><path d="M9.191 15.942a.615.615 0 00-.215-.074.913.913 0 00-.059.207c-.01.253.154.231.322.2a.937.937 0 01-.039-.147c-.008-.065.022-.158-.009-.186zm28.476-6.607l.125-.448-.075-.074c-.085.05-.226.087-.243.153a.945.945 0 00.053.354zM10.37 14.461l.571.063c-.087-.306-.279-.34-.571-.063zm46.734 12.517c.182.209.344.318.415-.078-.183-.076-.358-.215-.415.078zM4.83 22.846l.005.007h-.007z"/><path d="M4.46 22.554a1.028 1.028 0 00.095.321c.082.115.2.16.276-.028l-.3-.336zm63.408 9.421l.107.022.1-.5c-.394.134-.253.318-.207.478zm104.421 1.291c-.017.01-.008-.002 0 0z"/><path d="M208.477 46.1l.644-.647-.252-.074.167-.66h-.24a3.984 3.984 0 01-.061-.611.512.512 0 01.146-.361.339.339 0 00.131-.483c-.069-.153-.15-.3-.23-.459l.153-.039c-.272-.045-.533-.076-.618-.393l.171-.28-.421-.022.42-.194-.293-.1.188-.228-1.085-.722.509-.322c-.268-.168-.446-.356-.7-.168-.017.012-.123-.042-.128-.074-.033-.211-.123-.171-.244-.072-.178.147-.361.288-.542.432l-.042-.05.137-.181c-.413-.146-.078-.333.008-.577l-.329.224-.055-.1a1.82 1.82 0 01.377-.168c.029-.007.1.157.163.269l.12-.824c-.41-.174-.31-.65-.441-1.018l-.89.324a.894.894 0 01.1.271c0 .054-.082.109-.127.164-.247-.2-.292.13-.441.186l-.063-.057.333-.466-.069-.069-.433.341-.08-.166-.261.147c-.076-.107-.134-.2-.2-.286s-.162-.128-.214-.211a.3.3 0 01-.026-.226.2.2 0 01.166-.081 3.344 3.344 0 01.412.1c.094-.449.092-.445-.329-.645-.052-.025-.062-.129-.1-.193-.075-.133-.2-.386-.227-.376-.3.105-.328-.173-.462-.307-.222.1-.126.27-.013.316.227.093.062.231.018.233-.339.015-.349.318-.5.523l-.052-.147-.217.1c-.065-.327-.367-.039-.5-.248l-.287.691-.05-.008v-.435l-.375.4c.309.09.3.26.115.539l-.141-.26-.05.037.053.3-.487.067-.166.16-.261-.288-.555-.031.638 1.282-.868-.2.075.517-.674-.328c-.125.088-.125.159.055.222a1.413 1.413 0 01.23.129l-.048.072c-.32-.224-.5-.172-.869.26l.262.127-.49 1.357c-.367-.235-.285.139-.391.227l.391.313-.831.263c-.052.179-.1.342-.122.424l-.55-.09-.037.065.4.523c-.093.07-.217.13-.21.165.066.323-.26.437-.343.677a.617.617 0 01-.761.428l-.152-.265-.988.677c.3.082-.051.5.325.552l.1-.253.339-.063-1.022.955-.093-.155-.179-.492-.146.008a1.1 1.1 0 00-.121.442c.01.065.246.094.38.139l-.194.344-.139-.229a2.542 2.542 0 01-1.5.6l-.24.258a.523.523 0 01.178-.36c.229-.13.493-.2.728-.32.054-.028.05-.174.064-.265 0-.021-.03-.047-.053-.08l-.22.072-.086.28c-.045-.05-.081-.124-.137-.145a1.527 1.527 0 00-.308-.054l.064.34c-.264-.177-.264-.177-1.123.158.071.233.173.257.286.072l.24.323-.277.165c-.189-.1-.346-.188-.5-.276a.485.485 0 00-.574-.012c-.044.032-.139-.006-.21-.012-.055 0-.145-.031-.157-.011-.119.2-.419.249-.413.562 0 .081-.218.224-.346.236-.2.019-.289.058-.2.269-.247-.045-.465-.1-.685-.121-.307-.031-.475-.158-.415-.511a.328.328 0 00-.071.171l-.03.225-.17-.062-.531.392-.1-.213c-.479.022-.855.48-1.411.231l.126-.643-.052-.032-.35.489-.291-.559-.364.057c.1.154.163.263.236.368a.859.859 0 00.107.108c-.042.036-.089.108-.126.1a1.6 1.6 0 01-.409-.094c-.08-.032-.13-.146-.21-.172-.146-.047-.4-.125-.439-.069-.134.187.1.468.3.445-.031.128-.064.264-.1.4a.385.385 0 01-.341-.4 1 1 0 00-.109-.282 2.5 2.5 0 01-.252.141c-.1.041-.251.119-.289.083a.239.239 0 010-.39.887.887 0 00.143-.28l-.061-.182c-.121.515-.263.074-.426.184l-.031.243-.722.284.029-.453h.473a.843.843 0 00-.1-.295c-.048-.055-.158-.055-.241-.079-.08.288-.459.122-.562.4a2.9 2.9 0 01.04-.365.712.712 0 00-.068-.229c-.078.046-.183.073-.228.14a1.757 1.757 0 00-.128.333c-.006.016-.043.02-.084.038l.031-.219-.652-.372.246-.3-.035-.034-.251.148.161-.278c-.087-.057-.167-.152-.241-.147-.163.011-.272-.3-.458-.07l.053.323.221-.092c-.007.079.011.176-.022.2a.235.235 0 01-.2.013c-.159-.071-.308-.163-.5-.267l.191-.243c-.04-.1-.085-.2-.117-.31a.4.4 0 01.013-.141c-.038 0-.1-.023-.109-.007a.414.414 0 00-.07.161 1.712 1.712 0 00-.019.217c-.107-.06-.118-.147-.163-.171-.246-.128-.233-.3-.128-.516a.306.306 0 000-.205c-.081-.25-.263-.245-.486-.187l.279-.251-.065-.08-.346.316a1.563 1.563 0 01-.337-1.434c-.131.065-.206.1-.279.139s-.186.137-.218.116c-.1-.07-.251-.182-.253-.28a3.005 3.005 0 01.121-.639l.5.158.056-.053-.359-.666.325-.145-.122-.246.356-.266a.311.311 0 00-.208-.033c-.3.015-.363-.083-.3-.369a.324.324 0 00-.112-.236c-.2-.192-.191-.3.011-.427l.483.154c.058-.117.079-.221.143-.275a.426.426 0 00.164-.528 5.9 5.9 0 00-.33-.5 1.285 1.285 0 01-.184-.41c-.012-.07.1-.162.138-.219.181.217.313.386.459.542a.168.168 0 00.164-.005c.031-.026.031-.112.016-.163-.065-.213-.14-.423-.212-.634.095-.039.29.178.294-.115 0-.135.021-.27.033-.41l.3-.037c-.421-.246.232-.3.026-.51l.189.021c0-.044.024-.108 0-.127-.212-.2-.027-.316.063-.4l-.288-.639.07-.065.492.22c-.01-.125-.049-.224-.018-.29.076-.161.1-.292-.1-.378l.618-.654c-.193.011-.193.011-.562-.358l.22.029c-.02-.149-.079-.289-.039-.389s.183-.126.281-.186l-.048-.014.313-.438-.248-.2.226-.467c-.17-.337-.639.036-.919-.223.248-.048.3-.207.193-.414l.537.144.1-.3-.247-.106.018-.03.405.046.012-.075-.2-.071.3-.7-.4-.532.244-.164c-.087-.087-.145-.147-.206-.205-.382-.36-.268-.447-.034-.8a.241.241 0 00.042-.162c-.03-.134-.079-.264-.122-.4a1.2 1.2 0 01-.084-.256.275.275 0 00-.44-.244 1.494 1.494 0 01-.273.079l-.047-.071.2-.221-.721-.131c.127-.246.584-.1.557-.535l-.392-.118c.018-.127.048-.265.055-.4a1.418 1.418 0 00-.141-.548 1.374 1.374 0 00-.527-.633c-.255-.2-.373-.584-.767-.607 0 0 0-.023-.011-.027q-.229-.146-.46-.289c-.158-.1-.319-.194-.516-.314-.4.179-.4.183-.682-.159a.285.285 0 01-.013-.235c.06-.156.2-.266.014-.467-.212-.232-.354-.18-.557-.02a1.789 1.789 0 01-.354.186l-.365-.876-.149.029-.018.3-.215.324c-.128-.174-.438-.329-.074-.525l-.235-.524c-.161.18-.568.2-.644 0s-.153-.175-.29-.094a.118.118 0 01-.1-.014.434.434 0 00-.571.124c-.153.235-.247.126-.4.049a.342.342 0 00-.259-.018c-.059.025-.04.138-.157.021a.486.486 0 00-.433-.076 4.275 4.275 0 00-.662.409l.419.312c-.326.231-.492.2-.646-.156-.143-.333-.365-.343-.58-.126-.091-.163-.068-.136-.208-.018a2.839 2.839 0 01-.524.284l-.044-.078c-.082.137-.239.23-.144.451.045.106-.042.254-.236.18-.119-.044-.26-.036-.372-.091a.267.267 0 01-.105-.217 1.19 1.19 0 01.135-.319l-.385.125-.244.308c-.093-.022-.292-.094-.306-.068-.117.221-.187.046-.254-.023-.125-.128-.224-.171-.315.031-.014.031-.086.036-.131.052l-.138-.222-.085.006-.113.794-.041-.01v-.256l-.088.019a2.4 2.4 0 01.106.325c.011.059-.007.17-.043.186a4.6 4.6 0 01-.456.152l-.363-.713c-.143.13-.217.257-.3.265a1.081 1.081 0 00-.575.286c-.128.1-.292.346-.495.052-.034-.05-.154-.04-.249-.059.225.411.225.411.063.413l.07.6-.1.016-.407-.7-.167.263-.235-.125-.449.241.031.222-.763-.148-.157-.249-.117.607-.137-.265-.182.373c-.4-.13-.734-.049-.774.108a1.9 1.9 0 00-.537.179c-.1.077-.133.256-.195.39l-.632-.14-.189-.231c.175.377.028.747-.252.8a1.2 1.2 0 00-.262.131l-.086-.24-.431.492c.008-.227.008-.227-.107-.2l-.159.787c-.077-.109-.056-.223-.1-.307a.33.33 0 00-.216-.145 2.018 2.018 0 00-.378-.007l-.348.157v.743c-.055-.136-.079-.236-.1-.235a4.923 4.923 0 00-.74.072 7.374 7.374 0 00-.74.24l-.179.406-.175-.207-.065.3-.411.217-.027.262-.23-.105c-.083.07-.166.182-.208.169-.279-.089-.262.1-.275.267-.009.11 0 .221 0 .333h-.047a44.457 44.457 0 01-.043-.337l-.074.009v.368l-.062.048-.212-.215-.538-.051c.246-.239.238-.235.118-.5a1.381 1.381 0 01-.031-.378c-.332-.112-.165-.446-.122-.732l-.426-.2.025-.066.485.15.026-.526c0-.018 0-.049-.007-.054-.258-.135-.085-.261.037-.392l-.253-.139c.224-.27-.039-.257-.136-.333 0 .032-.006.064-.008.1l-.564.09c.153-.243.209-.5.5-.284.01.008.105-.058.121-.1a3.619 3.619 0 00.088-.354l-.249-.389.224-.161-.132-.206c-.332-.058-.629-.1-.922-.164-.318-.065-.228-.289-.189-.532.186.206.381.316.442-.026.055-.305.22-.311.45-.266a.119.119 0 00.07-.009l.125-.283c-.074-.267-.137-.582-.531-.569.074-.306.041-.508-.31-.522l.306-1.279a4.918 4.918 0 01-.445-.224c-.018-.011.026-.121.048-.214l-.172-.256.537-.341-.693-.482c.024-.038.076-.082.072-.119a.909.909 0 01.34-.778.221.221 0 00.049-.2c-.034-.07-.133-.165-.189-.156a.826.826 0 00-.411.162.416.416 0 01-.52.054l.381-.547c-.2 0-.46.074-.588-.022s-.1-.361-.15-.569c.218-.046.362-.086.508-.1.183-.023.219-.127.139-.261-.042-.07-.149-.1-.187-.123l.259-.477c-.265-.493-.533.031-.846.02.339.045.149.249.18.4l-.581-.13.351-.528-.06-.094-.4.195-.159-1.065a7.279 7.279 0 00-1.555 1.028.961.961 0 00.291.027c.422-.141.421-.144.527.172a2.822 2.822 0 00-.812.266.361.361 0 00.045.584l-.806.661a2.48 2.48 0 01.351.164.36.36 0 01.133.2c.007.026-.089.111-.145.118-.2.025-.4.028-.594.039l-.079 1.032c.007.068-.064.137-.078.216-.017.1.058.233.015.3a.486.486 0 00.1.69c.015.014-.033.147-.062.151-.346.044-.243.2-.081.387-.4.287.07.382.113.524-.13.1-.326.207-.313.253a4.458 4.458 0 00.3.662l-.435-.11.367.608c-.38-.1-.383.146-.386.374 0 .141.042.282.054.424a2.705 2.705 0 01.02.466c-.028.328-.2.707-.083.969.146.341-.039.6-.048.883-.01.325-.145.635.144.908a.2.2 0 010 .188c-.328.532-.3.815.081 1.217-.05.276-.023.559-.149.728-.183.247-.007.381.059.555.02.054.1.087.106.1-.093.1-.235.191-.226.261a1.89 1.89 0 00.192.685c.085.148.314.215.139.447a.224.224 0 000 .2c.167.287.008.3-.213.263a1.1 1.1 0 00-.087.949.228.228 0 01.022.178 1.362 1.362 0 00-.069.783c.027.286.006.576.006.906l.09-.111.081.579-.149-.091-.079.3-.256-.206-.064.207-.416-.093c-.043.1-.085.194-.125.282l-.221-.094a3.175 3.175 0 01-.338.656c-.058.069-.282 0-.43-.008l.1.049-.386.373-.187-.363-.087.073c0 .055.006.111.01.188l-.354-.046-.025.068.235.124a1.727 1.727 0 01-.219.323 1.6 1.6 0 01-.345.188l-.181.176c-.031-.1-.068-.2-.091-.308-.026-.123-.041-.249-.061-.38.326-.125.339-.189.076-.539l.316-.245c-.445-.281.194-.474.012-.75l-.73-.445a.755.755 0 00.787-.473 1.892 1.892 0 01.494-.739l-.472.233a1.418 1.418 0 00.016-1.428c.009-.113.06-.4.028-.4-.448-.136-.042-.277-.055-.408a2.09 2.09 0 01-.066-.5c0-.084-.008-.167-.006-.251 0-.1.045-.282.013-.3-.141-.062-.386-.153-.444-.093-.3.317-.589.293-.972.018.222-.2.431-.377.631-.567.023-.021 0-.1-.008-.15.154-.068.409.062.47-.21.033-.147.042-.3.067-.495-.229.087-.368.33-.571.124l.58-.452-.369.044.058-.315h-.429c.311-.271-.092-.391-.034-.644l-.414.243c-.171-.288-.126-.344.276-.351l-.219-.519-.2-.011.041-.253c-.1.022-.216.091-.277.057-.2-.109-.316-.028-.448.1a.232.232 0 01-.415-.125c-.038-.171-.094-.285-.315-.269-.078.006-.192-.131-.247-.228-.105-.187-.181-.391-.269-.589l-.09.03c-.063.215-.125.431-.191.646-.013.042-.042.105-.073.111a.484.484 0 00-.451.594 1.1 1.1 0 00-.365-.011 3.364 3.364 0 00-.368.224.785.785 0 01-.243.035c-.01-.1-.053-.273-.025-.285.347-.152.141-.4.128-.555l.605-.216-.066-.287.207.073a2 2 0 01-.246-.416c-.064-.238-.206-.24-.348-.119a2.316 2.316 0 00-.313.406l-.064-.011.069-.377-.44.266-.359-.411c-.075.333-.124.644-.218.939s-.089.318.223.331l-.062.336c-.2 0-.383-.34-.49 0-.14-.1-.279-.2-.427-.29-.1-.059-.241-.165-.3-.133-.25.134-.371-.046-.521-.164-.095-.074-.182-.157-.273-.236a.465.465 0 01-.307.53 9.784 9.784 0 01-1 .314c.17.269.17.269-.083.507a1.306 1.306 0 00-.278.049 4.749 4.749 0 01-.75.075c-.064 0-.125-.165-.188-.255a.285.285 0 00.032.272c.156.186.048.268-.119.286s-.295.009-.385.192c-.073.15-.324.137-.381.339-.007.024-.123.052-.135.037-.178-.221-.324.086-.489-.006l-.07.051.264.946-.342-.021.081-.343-.518-.22-.037.435-.2.241h-.765l-.424.372-.135-.19c-.011.221-.254.307-.317.462a2.465 2.465 0 00-.021.806c-.242-.241-.36-.55-.722-.48l-.208.5c.4.022.444.108.269.433a1.53 1.53 0 00-.154.369.763.763 0 00.012.254 2.8 2.8 0 00-.516-.434c-.08-.04-.36-.109-.347.21a1.212 1.212 0 01-.148.416l-.091-.025-.094-.484-.375.233.123.685-.1-.033c-.093.065-.247.114-.268.2-.08.306-.339.451-.511.672-.086.11-.038.324-.054.534l.284-.158c.247.271.071.494-.049.7a.891.891 0 01-.885.2l-.137.349-.305-.114a3.961 3.961 0 01-.223.357c-.062.078-.189.126-.21.208a.284.284 0 00.139.231c.226.106.467.179.662.251a2.428 2.428 0 00.171.468.725.725 0 01-.012.846 1.742 1.742 0 00-.133.438 2.876 2.876 0 00.465.123 1 1 0 00.325-.093l-.1.2c.14.421.424.134.572.159.082.145.123.311.2.326a.389.389 0 00.318-.131.314.314 0 01.442-.114.354.354 0 00.515-.162.236.236 0 01.356-.141c.294.122.472.108.469-.381.113.3.232.395.421.255.159-.117.306-.252.471-.358.354-.229.722-.438 1.075-.667.1-.066.156-.216.259-.258a6.7 6.7 0 011.112-.383c.212-.045.25-.182.354-.308.084-.1.283-.24.351-.205a.621.621 0 00.621-.02c.232-.117.47-.222.7-.336a.167.167 0 00.08-.08c.081-.227.248-.186.441-.193.254-.01.677-.055.721-.187.094-.28.238-.063.364-.092l-.287.373a.547.547 0 01-.255.759.931.931 0 00-.6.956l-.272.056.122.433-.112.059-.164-.317-.125.087c.042.122.159.292.116.355a1.09 1.09 0 00-.123.968c-.248-.3-.248-.3-.433-.152l.224.174c-.1.287-.27.37-.575.169.406.573.489.837.381 1.294l-.128-.3c-.04.266-.064.438-.092.609-.035.215-.127.277-.332.152a.315.315 0 00-.245.025 3.792 3.792 0 00-.08.773c.011.3-.066.4-.37.378-.145-.01-.291 0-.367 0 0 .148.008.267 0 .384-.018.227-.108.464.134.64l-.189.086-.185.974-.392-.257c-.064.142-.137.281-.189.426a3.414 3.414 0 00-.093.378l-.244-.072c.372.613.343.977-.069 1.084a.38.38 0 00.039.114c.286.38.281.51-.059.813-.122.109-.268.188-.393.292a1.578 1.578 0 00-.378.687c-.023.057.015.137.01.2-.011.177.169.421-.152.494a3.114 3.114 0 01-.447.036c-.219.55-.473 1.1-.661 1.677a10.6 10.6 0 00-.333 1.471c-.018.1.115.232.179.349.083-.072.165-.145.25-.213a.719.719 0 01.1-.056 1.036 1.036 0 01.18.131c.155.176.375.317.121.612a.458.458 0 00-.095.552c.031.048 0 .137-.009.191l-.228-.014a.9.9 0 01.016.2c-.033.229-.035.4.231.539.2.1.268.415.549.462.023 0 .049.042.057.07.069.24.116.488.208.719.042.106.1.283.307.194.037-.016.122.083.2.137l.54-.162c.1.047.212.15.273.125.213-.086.359-.019.416.168.026.085-.08.21-.133.334.23.072.3.464.665.4-.026-.266-.281-.522.036-.73l-.162-.224a3.317 3.317 0 01.389-.171.671.671 0 01.227.016c-.057.133-.108.269-.174.4-.025.049-.125.089-.118.117a.266.266 0 00.116.17c.266.122.539.228.828.347 0 .08-.01.177-.015.28.286-.169.571-.32.514-.7l.639-.064-.209.34a4.473 4.473 0 00.9.039 7.23 7.23 0 001.184-.329.438.438 0 00.356-.481 2.787 2.787 0 01.085-.856c.023-.094.21-.178.336-.206.051-.011.163.129.2.219a1.588 1.588 0 01.067.369c.336-.112.331-.308.2-.493-.1-.143-.072-.215.046-.3.1-.07.19-.142.3-.228-.219-.218 0-.278.137-.345-.026-.1-.086-.2-.059-.246.05-.09.161-.144.229-.228a1.828 1.828 0 01.622-.63 2.757 2.757 0 00.685-.572c.109-.107.14-.31.26-.384a3.681 3.681 0 001.408-1.252.216.216 0 01.135-.1c.214-.02.283-.155.312-.34.025-.156.061-.309.1-.5l.221.247c.39-.345.768-.678 1.143-1.014.111-.1.216-.209.317-.319.082-.088.138-.215.236-.271a.609.609 0 00.378-.461.219.219 0 01.141-.14c.229-.051.435-.079.537-.362.065-.179.288-.291.125-.538-.027-.041.094-.211.18-.281.038-.031.2.014.235.069.191.3.416.34.615.06.141-.2.247-.406.519-.444.024 0 .043-.087.054-.136.041-.191.251-.321.384-.235a.527.527 0 01.16.631c-.081.169-.169.339.161.323.048 0 .117.135.152.218s.021.173.051.252c.094.242.215.475.292.722.052.169-.04.283-.224.338-.083.025-.2.135-.2.2a.427.427 0 01-.156.418c-.017.014.016.093.037.195l.219-.277.387.255-.363.281c.306.277.206.936.867.808-.077.487-.154.53-.552.333-.469.647-.469.647-.431.756a3.417 3.417 0 01.365-.225.185.185 0 01.174.048.182.182 0 01-.036.173 3.455 3.455 0 01-.375.238l.44.388a3.216 3.216 0 01-.225.3.864.864 0 00-.145 1.069c.151.163.052.271.021.417a6.632 6.632 0 00-.124.832c0 .051.113.114.177.168a.787.787 0 00.1.062l-.126.031c-.05.263-.11.5-.137.736a4.533 4.533 0 00-.022.7 2.51 2.51 0 01.065.582c-.055.254-.02.431.14.519a4.425 4.425 0 01-.028.49 3.515 3.515 0 00-.131.565c0 .347.049.694.08 1.041 0 .044.011.108.04.127.221.144.448.279.692.429l.133-.385.095-.045c.067.1.191.205.19.307a2.969 2.969 0 01-.117.585.728.728 0 00-.153-.042 1.991 1.991 0 00-.247 0c-.051.266-.054.264-.354.563a.254.254 0 00-.047.169q.016.921.043 1.841a.521.521 0 00.037.145 1.779 1.779 0 01.127.4c.041.635.063 1.272.093 1.909a.164.164 0 00.035.11c.131.105.061.249.084.375.052.275.111.549.175.822.007.031.058.063.1.074a.245.245 0 01.174.348.506.506 0 00.148.548c.245.262.3.718.769.75.006 0 .011.016.016.024a2.677 2.677 0 00.61.65.3.3 0 00.438.042.641.641 0 01.92.1c.182.161.358.127.373-.105.028-.434.41-.361.643-.458.174-.073.291.121.32.314 0 .019.1.014.121.043a.494.494 0 00.625.225c.28-.144.649-.277.581-.721a3.054 3.054 0 00-.094-.346.486.486 0 00.529-.482.736.736 0 01.316-.613.489.489 0 00.168-.425 4.928 4.928 0 00-.387-1.051c-.144-.28.016-.419.2-.453.291-.052.23-.149.157-.24l.245-.78.244-.362-.085.038c-.126-.477-.478-.571-.908-.53l.043-.117h.516v-.047l-.142-.052.338-.5-.256-.261-.266.043c.023-.387.373-.005.476-.26-.254-.027-.113-.153-.047-.247.226-.323.126-.513-.233-.607l.09-.275c-.08-.1 0-.684.129-.735l-.2-.253c.211-.319.195-.581-.05-.756l.21-.185c.01-.235-.5-.088-.275-.46l-.19-.128.382-.088-.028-.072-.206.107.137-.263c-.2-.1-.4-.2-.6-.28a1.459 1.459 0 00-.31-.05l.145-.132c.055-.051.152-.123.142-.144-.082-.179-.185-.347-.293-.54l.3-.218-.659-.035.035-.123-.53-.326.385-.445.04.027-.127.329.8.382.036-.286.613-.374-.215-.192.035-.055.372.155.037-.051-.257-.382-.288.326c-.607-.1-.288-.483-.239-.7.067-.3.4-.362.677-.375-.025-.6-.385-.3-.669-.213v-.08l.4-.288-.112-.35h.384v-.078h-.384l-.013-.046.539-.252-.446-.05.211-.272c-.2-.317-.491-.047-.711-.092l.488-.59-.124-.13-.292.064.076-.611.042.052.445-.378c-.486-.378-.022-.649.077-.939a.681.681 0 01-.217-.09.756.756 0 01-.1-.233l.174-.2-.173-.078v-.53c.251-.189.238-.5-.088-.879l.255-.541-.346-.482.181-.2a.524.524 0 01-.067-.212c.012-.163.061-.321.088-.483a.255.255 0 00-.02-.119c-.04-.117-.085-.232-.139-.376l-.148-.037.229-.036.017-.092-.694-.167-.021.079.233.086-.057.11c-.12-.079-.285-.135-.345-.246-.044-.081.051-.237.092-.394l.515-.032-.165-.119.3-.187-.3-.276.13-.238-.3-.146.312-.669-.163-.136v-.814c-.009-.149-.064-.388 0-.428.251-.153.052-.26.012-.394s-.06-.3-.094-.481l-.122-.024c.133-.15.29-.283.039-.465a.24.24 0 01-.01-.234 3.751 3.751 0 01.358-.32 1.14 1.14 0 00.163-.191c.133-.191.24-.443.5-.45.292-.008.419-.215.591-.376.046-.043.059-.154.1-.162.433-.08.453-.66.892-.729.025 0 .035-.07.061-.1.091-.111.179-.225.279-.327a3.981 3.981 0 00.481-.486.352.352 0 01.22-.163c.28-.1.645-.108.672-.536.005-.084.022-.226.068-.241.293-.1.414-.515.822-.425.1.022.238-.134.355-.213s.2-.165.314-.226c.18-.1.373-.173.555-.268.074-.038.13-.115.2-.155.321-.17.648-.332.971-.5a.336.336 0 00.11-.1c.053-.071.08-.189.147-.217.259-.107.531-.181.794-.278.469-.175.936-.358 1.4-.539a.287.287 0 00.107-.059 1.643 1.643 0 01.855-.392c.276-.075.6-.118.747-.44a4.247 4.247 0 01.262-.428c.157.156.281.342.455.078.012-.018.082-.013.116 0 .473.21.879-.11 1.318-.165a.194.194 0 00.126-.078c.125-.2.24-.413.375-.65l.052.232a1.049 1.049 0 01.314-.037c.505.094.858-.252 1.27-.424.066-.028.119-.095.186-.109.582-.125 1.166-.238 1.747-.365.2-.044.388-.133.587-.176.345-.074.694-.131 1.042-.19a.257.257 0 01.154.021.785.785 0 01.3.872.735.735 0 00.234.836.338.338 0 01.109.184c.035.146-.486.632-.648.614l.14.321-.084.047-.258-.133a1.658 1.658 0 00-.233 1.113 1.312 1.312 0 010 .318l-.091.005-.157-.2c-.047.1-.084.188-.134.271-.173.29-.371.566-.517.868-.077.159-.155.443-.077.527.2.218-.022.358-.016.529l-.348-.063v.49l-.2.161.373.066v.417l-.347-.062c-.052.176-.179.374-.127.492a.388.388 0 01-.042.371l-.253-.133c-.566.539-.393 1.328-.684 1.975l.078.029.164-.314.583.351c-.177.165-.374.351-.575.531-.024.021-.077.009-.112.023a.577.577 0 00-.217.1.694.694 0 00.184 1.164l-.352.26.25.372c-.414.191-.585.5-.517.8a1.7 1.7 0 010 .516c-.021.25-.155.542-.066.739.2.444.023.888.108 1.326.054.277-.007.575.02.86.011.118.153.219.177.341.115.555.2 1.117.323 1.669.039.169.221.3.28.469.091.256.123.533.2.8a2.619 2.619 0 00.184.444 3.188 3.188 0 01.24.445 2.466 2.466 0 00.706 1.266 2.057 2.057 0 01.366.558c.151.264.268.551.442.8.125.177.338.29.48.458.335.4.626.831.981 1.208.442.47.923.9 1.4 1.339a3.608 3.608 0 00.469.281c.154.1.3.223.443.333.25.185.5.371.753.552.323.231.648.461.977.684a2.426 2.426 0 00.347.156l.228-.084v.129a4.932 4.932 0 01.449.208c.1.058.167.174.269.217.619.261 1.239.521 1.868.756a3.151 3.151 0 00.809.183c.251.022.509-.045.763-.039.167 0 .412.011.483.114a.634.634 0 00.754.262.375.375 0 01.58.186.819.819 0 01.255-.071c.384.028.75.225 1.155.09a.631.631 0 01.416.032 2.39 2.39 0 001.386.085 1.615 1.615 0 01.532.056c.268.05.545.2.74-.159l.147.177c.2-.094.455-.272.511-.223.309.263.656.054.974.129a2.5 2.5 0 00.707-.034c.213-.014.529.054.617-.057.181-.23.249-.111.331-.019.407-.065.784-.13 1.162-.185.286-.041.579-.047.859-.111a6.724 6.724 0 00.658-.254 1.42 1.42 0 01.32-.041 3.447 3.447 0 00.569-.056 39.143 39.143 0 001.633-.485 1.9 1.9 0 00.418-.215c.116-.071.214-.17.328-.243a1.4 1.4 0 01.842-.214c.07 0 .146-.069.214-.114a4.092 4.092 0 011.063-.667 8.743 8.743 0 00.917-.47c.262-.1.482-.334.746-.388.447-.093.709-.553 1.19-.546.023 0 .044-.042.069-.058.213-.137.429-.271.64-.411.064-.043.171-.106.168-.154-.026-.36.253-.364.478-.481.24-.125.569-.329.6-.54.05-.312.191-.2.332-.207.016-.144-.019-.335.06-.42a1.435 1.435 0 01.515-.311.868.868 0 00.577-.677 1.309 1.309 0 00.2-.259.393.393 0 01.087-.078c.175-.141.359-.272.525-.423.262-.239.25-.68.618-.848.039-.017.059-.081.086-.124l.173-.276h.105a2.581 2.581 0 01-.338-.573c-.042-.142-.189-.344.024-.493.161-.114.325-.224.522-.359-.389-.342-.076-.589.134-.722.323-.205.053-.44.113-.648.006-.021-.133-.1-.213-.125a2.5 2.5 0 00-.34-.067l.229-.933.3.142.238-.185-.332-.25-.1.13-.3-.277.056-.043.445.068c-.105-.129-.164-.2-.269-.333.4.088.155-.153.176-.2l.329-.24-.233-.072.355-.154-.019-.074-.282-.05.649-.221zm-80.124-13.744l-.249-.125a2.643 2.643 0 01-.156.325 1.975 1.975 0 01-.225.253v-.428c0-.087-.019-.173-.018-.259 0-.1.016-.206.022-.285l.691.407zm4.1-2.07l-.32-.294.366-.22-.046.514zm2.344-1.427l-.111-.112c.1-.105.19-.213.295-.309a.972.972 0 01.146.111zm5.532 3.153c-.1.06-.27.14-.344.1-.1-.058-.156-.218-.208-.343-.061-.149-.1-.307-.162-.517.272.149.63.134.49.541h.4c-.053.071-.099.173-.176.22zm.032-1.239l-.032-.284-.264.084c.032-.13.2-.2.1-.337-.009-.012.018-.053.01-.063-.319-.325-.319-.324.022-.577-.024-.065-.043-.132-.073-.2s-.064-.109-.1-.163l.064-.063.685.646-.412.439.426.386zm2.421 8.229l-.212-.221.274-.213c.274.155.084.283-.061.433zm4.205-8.611c-.359-.09-.132-.317-.107-.494.096.147.338.257.108.494zm.613-10.668a.193.193 0 01-.179 0c-.173-.116-.158-.343.038-.591.222.201.286.471.142.591zm3.639 6.827c-.051.079-.084.192-.155.227-.1.05-.21.337-.354.029-.012-.026-.118-.007-.188-.006a.409.409 0 01.698-.25zm-1.431-5.325l.391.182c-.059.209-.11.431-.19.641a.241.241 0 01-.2.1c-.058-.005-.158-.1-.152-.147.032-.246.093-.488.149-.776zm-.547 5.776l.164-.488c.08.116.118.219.192.267a.732.732 0 00.369.136 2.741 2.741 0 00.532-.1 3.369 3.369 0 00-.266.452c-.068.167-.129.29-.335.211-.011-.216-.018-.223-.654-.478zm.583 2.184c.015-.046.092-.111.125-.1a.478.478 0 01.166.12c.012.01.015.042.023.043.22.022.441.041.661.063.1.009.2.023.3.036-.029.449-.038.448-.518.287a1.369 1.369 0 00-.424-.022.336.336 0 01-.331-.427zm.046 1.442c-.048-.25.014-.476.425-.43a.531.531 0 01-.12.66zm1.231.512a.874.874 0 01-.61-.1l-.336.056.021-.237c.184 0 .369.006.553.006a3.185 3.185 0 01.354 0c.038 0 .094.079.1.122a.216.216 0 01-.08.153zm.753 13.582l-.114-.3c.327-.247.47.134.7.234zm.082-2.306l.109-.025.235.411-.042.063c-.091-.05-.211-.081-.265-.157s-.025-.194-.035-.294zm.586-.713c-.052.344-.318.269-.516.319s-.4.11-.645.175c.08-.381.442-.346.565-.521.278-.386.395.117.598.027zm5.558-13.828l.1.019-.027.445-.373-.239zm-.114 1.278l-.172-.336.544.073.01.1zm18.731-1.559h-.6c.092-.133.162-.282.2-.274a2.529 2.529 0 01.436.178zm13.911 20.485c-.148.085-.33.185-.46-.005-.1-.142-.137-.238-.269-.033-.026.04-.167.006-.284.006l.252-.35.927.172c-.056.075-.094.17-.164.21zm9.859-7.731c-.083-.1-.169-.2-.243-.314a1.424 1.424 0 01.137-.12l.249.315z"/><path d="M186.629 48.345l.612-.268-.092-.174h-.855l-.089.108.515.267zm2.233-.292a.241.241 0 00-.3-.284c-.119.02-.212.207-.316.319l.058.091zm-36.005 9.406h.594v-.139h-.594zm45.044-15.822l-.462-.3c-.001.355.118.442.462.3zm-1.421 1.819l-.155-.041-.107.415a1.556 1.556 0 00.162.032c.039-.134.068-.27.1-.406zM150.166 69.87h-.437c.08.253.151.267.437 0zm-23.867-45.579a.468.468 0 00.285-.213 3.3 3.3 0 00.208-.517l-.506.063-.1-.408a.891.891 0 00-.554.295c-.046.064-.162.074-.244.115a3.929 3.929 0 01-.62.3.716.716 0 01-.449-.061c-.061-.027-.056-.191-.09-.29-.028-.083-.069-.161-.124-.285a4.191 4.191 0 01.3-.309.545.545 0 00.115-.651c-.169-.218-.313-.219-.6 0-.023-.059-.068-.117-.061-.167.04-.282-.11-.306-.328-.262-.059.012-.124-.006-.182.008-.256.064-.349-.012-.218-.292a.739.739 0 01-.709-.6c-.207.146-.2.124-.447.011a1.041 1.041 0 00-.444-.017 1.979 1.979 0 00-.28.05c-.187-.516-.186-.509-.752-.42-.1.015-.21-.057-.316-.088a3.266 3.266 0 00-.391-.106 2.641 2.641 0 01-.4-.024c-.32-.106-.631-.24-.945-.366-.2-.079-.384.012-.378.217a1.663 1.663 0 01-.3 1.009l-.242-.886.289-.312a1.2 1.2 0 00-1.11.374l-.067-.812c-.6.148-.9.06-1.077-.255a1.09 1.09 0 00-.3.112c-.191.152-.363.329-.552.485a.16.16 0 01-.147-.042c-.083-.169-.149-.346-.233-.551-.155.236-.193-.025-.286-.074l-.246.151-.5-.381c-.136.107-.279.23-.434.331a.184.184 0 01-.174-.043c-.091-.145-.16-.3-.221-.424a.9.9 0 00-.38.011c-.119.059-.193.21-.3.332l-.039-.267-.065.071-.311-.253-.3.11.1.443-.424-.072.163-.191-.219-.429-.341.033-.24.656-.091.013c-.05-.458-.4-.71-.662-1.041-.3.432-.427-.212-.67-.1l-.113-.3-.1.033.105.393c-.076-.012-.178-.059-.212-.028-.248.223-.327-.021-.407-.158a1.7 1.7 0 01-.12-.431l-1.169.131a1.322 1.322 0 01.042-.41 2.806 2.806 0 01.315-.5c.108-.156.124-.148.371-.163a2.207 2.207 0 00.395-.1l.044.078c.407-.3.2-.772.292-1.158.042-.188-.134-.426-.173-.534.14-.3.251-.525.348-.758.008-.019-.078-.108-.13-.118-.223-.04-.448-.062-.673-.09.247.019.336-.362.64-.252.033.011.187-.164.193-.258.029-.427.017-.428-.5-.44.112-.085.171-.163.242-.178a3 3 0 01.417-.033l.033-.419h-.395l.043-.275c.544.056.148-.5.33-.572 0-.205-.062-.428.011-.488.314-.255.124-.471-.028-.736.36-.117.244-.387.207-.636-.006-.04.007-.084 0-.125a1.193 1.193 0 00-.085-.314c-.089-.166-.2-.319-.307-.478-.042-.066-.078-.135-.124-.214-.1.106-.172.244-.228.237-.284-.034-.316.155-.343.362l-.241-.117.38-.584-.075-.05h.453c.044-.446-.421-.128-.523-.41.138.017.292.081.338.034.162-.159.272-.038.42.008.171.053.385.2.553-.1-.31-.006-.5-.135-.483-.453l-.4.058a2.126 2.126 0 00.13-.268.633.633 0 01.5-.459 3.485 3.485 0 00.328-.119l-.023-.094-.448-.073.274-.117-.247-.261-.481.15a.955.955 0 01.214-.257c.1-.1.243-.211.25-.325a1.192 1.192 0 000-.394c-.178-.353.225-.281.292-.445.034-.083.143-.135.218-.2-.027-.029-.067-.087-.078-.083-.1.045-.19.1-.283.153s-.173.1-.259.152c.11-.175.231-.3.042-.488-.023-.022.021-.122.044-.181.029-.076.069-.148.1-.223l-.1-.07c-.141.156-.276.319-.426.466a1.638 1.638 0 01-.272.177.95.95 0 01-.044-.265c.011-.1.085-.2.09-.3s-.007-.258-.071-.3c-.255-.17-.52-.021-.587.385l-.245-.449c-.065.123.1.385-.176.331a2.661 2.661 0 00-.2-.389c-.032-.044-.135-.037-.2-.053a.781.781 0 00-.032.187c.006.089.06.182.046.264-.057.329-.132.655-.2.988l-.764-.042-.1-.3-.307.48.4.283c-.2.083-.2.394-.478.237-.046.208-.569.066-.351.476.016.029-.048.1-.069.148a2.37 2.37 0 00-.131.36c-.077.356-.146.714-.205 1.074-.031.189-.035.384-.051.576a4.7 4.7 0 01-.2.663c-.068.249-.037.487.27.58.024.007.039.042.073.083l-.22.176-.087-.294a1.521 1.521 0 00-.177.329c-.045.215-.049.439-.1.655-.111.511.03 1.07-.3 1.523.191.291.621.354.664.793-.235.05-.46.094-.681.147-.053.013-.136.051-.142.088a2.966 2.966 0 00-.063.678 2.059 2.059 0 00.181.505c.039.1.047.234.119.3.144.145.331.245.478.387.059.057.06.176.087.267a.847.847 0 01-.3.054 1.583 1.583 0 01-.355-.172c-.147.316.155.258.3.413a1.718 1.718 0 01-.273.063c-.12.005-.241-.009-.361-.015.036.129.031.3.116.378.255.224.205.495.2.774-.385-.088-.663.19-.712.685l-.374-.247-.257.187-.084-.053c.156-.11.326-.219.054-.365l-.061.236-.037-.089a2.631 2.631 0 01-.4.245c-.064.026-.21-.081-.239-.051-.179.186-.347-.018-.517.008-.146.023-.349-.019-.429.063a2.739 2.739 0 00-.347.59l-.07-.359-.289.132.116-.227-.129.026-.041-.594c-.133.052-.263.152-.327.121-.289-.145-.51.015-.755.106a.663.663 0 01-.367.029c-.1-.024-.176-.127-.242-.178l-.277.226a1.57 1.57 0 00-.262-.467c-.106-.089-.292-.083-.44-.118l-.025-.32-.085.005c-.1.288-.208.576-.56.223a.81.81 0 01-.1.135.386.386 0 01-.108.05c-.048-.1-.048-.1-.688-.1-.085 0-.169.119-.232.166.011-.12-.463-.088-.135-.365l-.242-.137-.054.17a1.653 1.653 0 01-.329.03c-.185-.022-.442 0-.538-.114-.337-.393-.753.023-1.1-.155 0 0-.032.048-.053.07-.112.122-.226.243-.348.374l-.421-.681-.224.112-.143-.238c-.135.166-.2.253-.274.337-.146.176-.263.25-.438 0a.96.96 0 00-.48-.315 4.618 4.618 0 00-.747-.109l-.063.342-.689-.44-.429.368c-.065-.049-.157-.082-.184-.144-.145-.332-.394-.365-.718-.325a1.01 1.01 0 01-.484-.143 1.446 1.446 0 01-.279-.221l-.085.051c.131.122.344.239.076.335a.7.7 0 00-.322-.126c-.193-.017-.425.208-.55-.107-.128.057-.317.084-.339.16-.06.206-.133.063-.2.033a2.1 2.1 0 00-.443-.213 3.1 3.1 0 00-.591-.009v.209l-.329-.213c-.1.031-.2.1-.24.069-.069-.042-.1-.143-.154-.223l-.221.095-.109-.3-.061.021.047.2a.863.863 0 00-.272.106 1.732 1.732 0 00-.213.292c-.1-.091-.18-.159-.25-.239-.113-.129-.193-.33-.391-.069a.382.382 0 01-.31.032c-.058-.132-.076-.115-.2-.061s-.292-.014-.435-.027l-.1.352-.561-.3c-.133.114-.326.217-.1.437.035.034-.005.14.006.209s.028.193.077.215c.4.181.054.258-.02.382l-.26-.188c-.09.1-.182.188-.258.29s-.147.231-.26.415c-.079-.191-.13-.322-.186-.449-.029-.067-.083-.189-.1-.186-.34.091-.231-.177-.266-.325-.041-.183-.013-.4-.213-.492l-.167.372-.3-.142-.1.469.1-.03c.113.074.266.126.326.231a.349.349 0 01-.048.334 1.657 1.657 0 01-.495.12c-.093.018-.188.028-.3.045l-.209-.239-.08.023.036.415a1.316 1.316 0 00-.3.123 7.389 7.389 0 00-.531.438 2.342 2.342 0 00-.2.23l.28.085c.036.012.072.027.119.044l-.17.643c.763.453.832.534.941 1.131.2-.092.512-.138.558-.274.148-.439.394-.146.63-.167l-.056.4-.405-.16c.086.31.238.3.435.308a2.457 2.457 0 01.635.244l-.532.446c.111.059.229.114.339.183a.57.57 0 00.762-.04c.064-.049.194-.1.241-.064a.339.339 0 01.132.252c-.012.287.072.42.343.432s.513.252.78.021c.01-.009.058.011.076.029.457.453 1.094.319 1.633.5.507.17 1.052-.18 1.549.126.04.025.118-.016.179-.02a3.875 3.875 0 01.517-.021c.231.019.459.066.655.1.051.089.1.252.155.254a1.273 1.273 0 00.392-.111l-.007-.084.313.3h.334l-.118-.231c.4-.071.417-.056.4.252.057.028.111.058.167.081.219.092.468.294.654.248a1.548 1.548 0 011.057.177c.345.155.616.25.892-.09.087-.108.191-.135.267.056a.776.776 0 00.783.535 1.531 1.531 0 01.405.048c.374.1.742.211 1.116.306a1.452 1.452 0 00.515.073 1.518 1.518 0 00.431-.2c.055-.026.112-.073.167-.071a.166.166 0 01.12.1.528.528 0 00.6.414.527.527 0 01.267 0 .68.68 0 00.893-.126c.037-.044.129-.049.2-.061.318-.053.637-.1.967-.153.23.282.378.3.8.1.064.051.121.127.194.147a4.475 4.475 0 011.158.625 2.432 2.432 0 00.986.189 10.462 10.462 0 001.191.077c.3 0 .325.245.385.406a.642.642 0 01-.087.48c-.05.083-.232.085-.372.13a.34.34 0 00.031.087c.214.33.184.455-.156.645a.368.368 0 00-.081.556 2.965 2.965 0 00.27.25l-.537.229.285.339-.278.148c.086.15.3.325-.063.377-.03 0-.061.078-.071.124a4.34 4.34 0 01-.1.492c-.094.27-.024.427.256.5.074.021.132.1.2.152a.826.826 0 00-.717.69c-.092.306-.182.336-.322.293l-.282-.6.172-.218-.013-.1c-.2.241-.338.234-.453 0-.029-.06-.128-.084-.2-.126l-.318-.2-.329.072c-.031-.2-.056-.358-.1-.608l-.187.319c-.079-.1-.216-.2-.217-.292 0-.347-.281-.191-.419-.268l-.067.186h-.511l.075-.058-.537-.8-.141.2-.245-.159v.286c-.113-.111-.2-.186-.271-.266s-.1-.176-.177-.2a1.077 1.077 0 00-.321-.007.377.377 0 01-.165-.032c-.131-.075-.255-.162-.374-.24l-.1.181c-.1-.148-.409-.119-.628.048l-.073-.285a.677.677 0 01-.84-.044l-.429.67a1 1 0 01-.073-.171 2.118 2.118 0 01-.033-.254l-.021.09c-.193-.149-.281.25-.469.016a2.655 2.655 0 01-.243-.536c-.071.412-.28.25-.436.211a2.687 2.687 0 01-.4-.158l-.049.168-.636-.21c-.038 0-.129-.014-.219-.013s-.2.014-.309.023l.045.258-.181.065v-.341a2.654 2.654 0 01-.485.1.836.836 0 01-.3-.112c-.021-.009-.043-.031-.063-.029-.19.023-.381.045-.571.076a1.215 1.215 0 01-.847-.4l-.079.129-.155-.226-.239.663-.046-.2h-.047l-.182.87-.293-.031c.006-.4-.2-.559-.629-.427l.13.669c-.272-.412-.277.04-.445-.027l-.335-.252-.369.508-.075-.187-.074.015-.02.31c-.3.22-.677.38-.642.866-.05-.292-.17-.443-.307-.4l.191.454-.39.164-.021-.467h-.428v.317l-.153-.43-.115.008a1.086 1.086 0 01-.35 1.1c-.289.248-.448.8-1.022.542l.076.3-.206.02.036.234-.072.038-.134-.277-.345.569h.382l.036.08a.733.733 0 00-.64.619l-.49.115.319.412a1.757 1.757 0 01-1.033 1.018c-.272.153-.309.267-.122.513.133.175.277.344.426.506.04.044.119.049.175.083a.465.465 0 01.172.129 3.041 3.041 0 01.151.357l-.926.28-1.008-.793v.857l-.094-.043c-.1.094-.24.173-.278.287-.051.149.008.332-.027.491a.586.586 0 00.245.6 4.12 4.12 0 01.482.715c-.5.059-.493.389-.474.727 0 .03-.015.062-.01.091a2.612 2.612 0 00.17.839 1.294 1.294 0 01.171.64.651.651 0 00.059.233c.142.325.285.652.439.972s.334.649.5.974c.081.158.116.4.242.462.236.111.287.289.38.491.12.263.137.618.548.69.127.023.243.222.324.364.126.222.273.374.578.3-.113.34.107.47.317.6.118.073.314.1.355.2a1.208 1.208 0 00.55.546c.3.19.553.44.833.656a1.272 1.272 0 00.247.112c.141.064.281.129.421.2.31.149.614.311.931.443.181.076.39.087.572.16.236.1.448.255.689.329a2.8 2.8 0 00.624.044c.409.027.82.087 1.228.077.43-.01.86-.084 1.29-.136.141-.017.36-.007.406-.087.125-.216.292-.084.434-.11s.314.03.436-.028c.36-.169.812-.106 1.105-.444.034-.039.131-.035.2-.032.206.009.413.026.681.044a3.07 3.07 0 01-.162.695 2.38 2.38 0 00-.2 1.574 1.408 1.408 0 01-.126.624c-.059.192-.148.375-.225.561a3.894 3.894 0 00-.153.369c-.049.164-.076.334-.113.5v.639c-.322-.256-.6-.232-.783.021l.247.1a1.63 1.63 0 01-.205.4 1.955 1.955 0 01-.4.267c.362.437.427.772.177.888l.217.252-.328.355c.011-.267-.037-.428-.214-.361a3.059 3.059 0 00-.35.86c-.019.343-.3.469-.427.741l-.114-.246c-.583.006-.95.192-.776.917l-.218-.287-.188.157.237.308.529-.427.156.182c-.25.153-.486.288-.709.442a.4.4 0 00-.146.223 1.022 1.022 0 01-.457.755.387.387 0 01-.451.037c-.3-.181-.333-.178-.53.13-.037.058-.135.079-.2.116l-.075-.132c.147-.1.3-.2.439-.314a3.937 3.937 0 00.284-.274l-.065-.051c-.063.06-.117.151-.192.173-.116.035-.308.078-.358.021-.24-.27-.4-.021-.48.1s-.033.426.043.46c.4.186.113.26-.033.364-.02.169.141.441-.182.439-.163 0-.325-.145-.455-.209l-.45.4-.068-.064.242-.269-.349-.125c-.025.088-.095.2-.064.245.2.305-.113.468-.187.69a.292.292 0 01-.257.125c-.373-.189-.623 0-.9.309l.081-.652-.887.469.516.125.029.092c-.377-.015-.365.112-.191.263l-.176.378c-.226.115-.506-.344-.685.007l-.348-.145.157.279-.056.042-.293-.126-.074.086.371.33c-.338.4-.545.037-.776-.05-.036.029-.063.039-.066.055-.039.174.015.256.209.286.113.017.212.133.316.2l-.12.143.189.2-.327.144a1.539 1.539 0 00-.294-.377c-.065-.043-.211.034-.32.058l.332.3-.048.056-.105-.029-.264.494.127.161.075-.158.505.574-.563.99-.58-.235-.435 1.721a.414.414 0 00-.154-.02 3.559 3.559 0 00-.346.1c.044.117.087.234.133.35a2.613 2.613 0 00.116.265c.091.172.054.471.4.392.047-.01.137.078.174.14a1.227 1.227 0 01.1.247c-.114.037-.3.044-.333.118-.1.226.047.354.271.37a3.591 3.591 0 01.473-.015 5.5 5.5 0 01.664.225c-.132.26-.131.26.078.486.174.189.081.335-.072.481a.312.312 0 00-.106.2 1.137 1.137 0 00.874.9c.206.02.412.032.632.05a1.763 1.763 0 00.037.274c.023.081.054.2.115.224.21.1.435.161.719.26v-.359c-.338.063-.278-.306-.45-.447.131 0 .285.007.343.087a.815.815 0 001.16.268c-.008.163-.018.291-.018.418 0 .08-.014.182.028.235a.742.742 0 001.082-.212l.05.451h.062c-.069-.317.242-.2.306-.2a11.533 11.533 0 011.174.106c.024 0 .042.059.062.09h.432c.129-.226.294-.3.5-.133.072-.063.132-.16.207-.174.351-.063.707-.1 1.059-.156.135-.022.378-.078.379-.122.005-.289.276-.269.391-.415a2.3 2.3 0 00.209.153c.079.044.165.075.249.112.134-.375.253-.432.485-.28.13-.039.269-.005.381-.046.265-.1.517-.23.777-.342.4-.17.8-.318 1.191-.5.583-.279 1.156-.583 1.732-.876.036-.018.09-.043.1-.072.077-.368.446-.351.674-.517s.481-.333.722-.5c.052-.08.177-.065.243-.12a10.389 10.389 0 001.18-1.053c.322-.367.923-.525.926-1.15 0-.024.034-.048.056-.07l.884-.863-.144-.293h.374l-.19-.386c.107-.165.341-.367.306-.5-.107-.406.152-.361.4-.4l-.187-.324.239-.114-.082-.068a3.6 3.6 0 01.233-.379c.107-.135.317-.24.341-.383a1.572 1.572 0 01.525-.975l-.091-.326-.229.142-.043-.049.347-.389.23.161a4.956 4.956 0 01.168-.753c.1-.257.112-.584.368-.661l-.053-.6c0-.06.02-.145-.011-.177-.263-.277-.1-.478.1-.688a.436.436 0 00.067-.21c.03-.155.009-.347.172-.326l.66-1.466-.356.021.275-.343-.184-.069.385-.125-.329-.125-.1-.114.412-.379-.289-.387.316-.178-.081-.037a1.822 1.822 0 01.163-.473c.1-.151.133-.133.055-.244a1.892 1.892 0 00-.1-.132c.084-.046.2-.069.212-.12.065-.234.106-.475.148-.714.034-.191.039-.4.4-.319l-.334-.413c.063-.01.145-.006.153-.028.071-.194.147-.205.332-.094.1.06.366.053.261-.188l-.7-.179-.015-.1c.271.008.3-.115.171-.306h.442l-.222-.5.606-.858-.047-.048-.5.366-.3-.265c.5-.109.338-.536.414-.852a1.227 1.227 0 00.252 0 .847.847 0 00.194-.1c-.061-.034-.123-.066-.183-.1l-.532-.321c.185-.051.334-.009.457-.048.1-.033.176-.16.3-.288h-.532l-.005-.054.183-.06-.055-.478-.332-.077.441-.469a.376.376 0 00-.051-.1.413.413 0 01-.076-.588c.069-.108.011-.3.011-.446l.324-.115c-.358-.061-.468-.133-.519-.293-.036-.111-.087-.216-.133-.331l.665-.316-.515-.235.132-.158-.492-.555.324-.181-.016-.059h-.455v-.07h.334l-.151-.493.27-.062c-.105-.346-.2-.668-.312-1.023h.586l.018-.109-.439-.089.044-.032-.45-.369.139-.183-.224-.187c.19-.158.3-.616.108-.783s-.076-.289-.01-.406l-.464-.3.4-.334-.28-.141v-.7c-.391-.33-.593-.615-.548-.828a2.205 2.205 0 01-.358.081 1.349 1.349 0 01-.3-.048c.166-.25.363-.424.395-.625a2.533 2.533 0 00-.109-.751.53.53 0 01-.009-.186c0-.016.094-.011.144-.02.073-.012.145-.029.217-.044l-.019-.073-.342-.035v-.073l.339-.117c0-.03-.006-.059-.009-.09-.1-.006-.2-.014-.3-.019-.062 0-.125 0-.187-.007.023-.068.041-.138.068-.2.037-.093.141-.224.112-.267a.231.231 0 01.129-.393c.437-.129.305-.556.5-.807-.256.119-.464.353-.719.2a2.372 2.372 0 01.385-.5 2.532 2.532 0 01.594-.253l-.491-.419.641-.181c-.264-.395-.659-.056-.948-.2.041-.214.119-.274.328-.274a2 2 0 00.615-.212 3.784 3.784 0 01-.256-.337c-.223-.385-.219-.389.182-.556.232-.1.312-.312.207-.443l.3-.176a2.793 2.793 0 00-.234-.161c-.162-.089-.321-.2-.24-.4.031-.079.188-.114.294-.155s.225-.068.353-.105c-.114-.109-.266-.185-.271-.271-.016-.271.073-.555-.161-.8a1.612 1.612 0 01.214.063 1.417 1.417 0 00.253 0c-.053-.331.255-.23.393-.332a.6.6 0 00.1-.135.809.809 0 00-.169-.084c-.141-.035-.286-.056-.429-.082l-.024-.123a.817.817 0 00.854-.415l-.087-.623.313-.363a3.807 3.807 0 00.635-.08c.073-.009.157.072.237.112.14.071.287.212.419.2a2.939 2.939 0 01.863.048 8.42 8.42 0 001.586.017c.45 0 .9.009 1.352-.012a3.03 3.03 0 001.4-.269c.224-.125.535-.356.708.1.011.031.082.049.128.058.364.063.728.125 1.094.179a2.139 2.139 0 00.82.081 1.259 1.259 0 01.667-.029c.133.031.286-.037.427-.025.218.019.434.068.651.106.19.033.378.085.569.1.286.022.575.007.862.029.248.02.493.1.74.1.334.007.669-.033 1-.048a.187.187 0 01.13.043c.228.238.44.188.7.027.125-.077.327-.03.493-.039v.361a.681.681 0 001.019-.294.848.848 0 01.105-.221.81.81 0 01.245-.17 2.209 2.209 0 01.319-.09c-.038.153-.081.294-.107.438-.034.188.031.307.257.312a1.254 1.254 0 00.02-.189c-.012-.285.235-.31.408-.372s.283.027.336.216a.331.331 0 00.205.206c.247.044.52-.076.748.124.015.013.109-.073.172-.1.173-.082.35-.159.525-.238l.047.07.07-.23a1.989 1.989 0 01-.336-.151 1.67 1.67 0 01-.234-.24c.619-.043.652-.118.637-.775.003-.234-.037-.577.363-.633zm-18.036-18.99l-.514.59-.076-.29zM81.354 16.775a2.412 2.412 0 01-.367 0l-.207.317-.231-.306.135-.48.074.169a4.216 4.216 0 01.655-.053c.066 0 .122.153.183.234a.915.915 0 01-.239.118zm8.666 1.451h-.109l-.2-.58.106-.072.476.237zm.489-.656l-.073-.519.118-.043.3.339zm.684.409l-.391-.45h.436c-.011.139-.024.261-.039.449zm-4.767 11.077c.4.057.4.057.535.353-.396.095-.396.095-.535-.353zm2.913-.481l-.306.416-.122-.342zm4.52 10.25a.28.28 0 00-.3.3 1.051 1.051 0 01-.06.429v-.551l-.4.315c.054-.248-.267.076-.309-.17-.02-.12-.272-.2-.471-.333.13.367-.184.539-.255.782-.125-.054-.294-.08-.382-.178-.073-.082-.052-.248-.077-.409l-.348.29c-.029.025-.059.074-.086.072a1.927 1.927 0 00-.819.248 2.381 2.381 0 01-.817.105c-.348 0-.473-.139-.491-.453l-.325.086-.106.31h-.062l-.056-.37-.378.127-.059-.04.24-.372-.206-.172-.232.313a1.6 1.6 0 01-.01-.292c0-.021.1-.03.167-.047a2.224 2.224 0 01-.25-.189 3.188 3.188 0 01-.228-.3l-.14.34c-.4-.318.174-.423.019-.678l-.3.266-.093-.08.333-.406-.242.021a3.154 3.154 0 00.333-.481 1.07 1.07 0 00.056-.435c0-.121-.058-.242-.057-.363 0-.057.078-.114.121-.17l.066.051-.058.333a3.323 3.323 0 00.756-.331 6.122 6.122 0 00.741-.781c.037-.042.015-.135.021-.2l.382-.307.309-.719.807-.267a1.014 1.014 0 001.083.318.136.136 0 01.108 0 2.214 2.214 0 00.953.332 1.337 1.337 0 011.03.773 3.133 3.133 0 01.17.845c.041.419.126.833.2 1.248.07.4.148.79.236 1.254a3.406 3.406 0 00-.515-.063zm17.412-18.593c-.032.006-.022.241-.032.376l-.515.033.079-.226.079.029.024-.464a.908.908 0 01.2-.019c.094.011.22.011.27.069.074.088.051.176-.105.203zm9.777 2.56l-.313-.439.083-.06.272.085-.042.416zm1.791.683c-.011-.37.113-.576.343-.551.076.009.205.12.2.173-.032.304-.283.341-.543.379zm1.826 2.215c-.019-.03-.128-.128-.109-.182.071-.2-.052-.544.318-.559a.447.447 0 01.464.388c-.012.219-.274.381-.673.354zm9.606-16.274c.059-.235.059-.235-.166-.222l-.267-.359a.5.5 0 000-.317c-.02-.07-.083-.195-.078-.2.291-.142.089-.251-.017-.372-.029-.033-.06-.111-.043-.132.234-.3-.018-.474-.18-.665l.137-.119a.308.308 0 00-.475-.019c-.112.089-.264.187-.34.02.071-.157.191-.292.169-.4-.056-.257-.35-.461-.16-.777.013-.02-.025-.072-.041-.109-.07-.163.115-.336-.02-.5a.248.248 0 01.03-.038l.167.047.026-.06-.187-.108c.158-.239.145-.383-.2-.322-.035.006-.078-.023-.115-.04a1.046 1.046 0 01-.226-.811c.058-.072.167-.121.193-.2.105-.323-.175-.507-.342-.682-.083-.088-.377 0-.565.045-.077.019-.128.142-.174.2a1.736 1.736 0 00-.234-.435c-.067-.069-.221-.047-.333-.078a.446.446 0 01-.123-.09c.048-.025.111-.083.142-.068.307.141.493.084.75-.188.207-.22.243-.345.135-.583a1.415 1.415 0 01-.933.2 2.156 2.156 0 01-1.107-.43c-.272-.292-.6-.242-.928-.447l.1.713a2.258 2.258 0 00-.306 0 1.071 1.071 0 00-.479.1.618.618 0 01-.687.066c.013.421-.319-.01-.424.2.024.027.049.081.087.093a.584.584 0 01.435.523.5.5 0 00.281.3c.337.144.375.207.2.589l-.055-.278-.344.25c-.079-.138-.128-.314-.244-.4s-.285-.052-.414-.07l-.036.362-.066.008-.1-.151-.022.087c-.161 0-.32-.006-.48 0-.12.006-.239.029-.358.045l.01.079-.114-.134a4.8 4.8 0 00-.317.5 3.817 3.817 0 00-.169.5c-.094.1-.249.189-.282.313a3.972 3.972 0 01-.124.447c-.067.167-.09.351-.142.525-.057.19-.141.318-.3.083a.8.8 0 00-.326.91.376.376 0 01-.03.236 1.931 1.931 0 00-.188.978 6.281 6.281 0 01-.2 1.4c-.028.2-.105.435.209.51-.031.064-.042.137-.076.149-.272.1-.243.333-.233.536a3.47 3.47 0 00.116.7 1.2 1.2 0 00.164.3 7.094 7.094 0 00-.284.948 1.2 1.2 0 00.111.591c.063.159.2.257.15.487a1.138 1.138 0 00.141.649 4.033 4.033 0 00.447.7c.053.072.177.088.251.149a.512.512 0 01.095.172l-.016.016h.061a.336.336 0 01.514.1c.082.267.247.232.453.231.005.1.014.188.013.275s-.054.234-.015.264a.462.462 0 00.3.061c.164-.016.341-.124.486-.088.445.107.863.362 1.256.2.128.224.236.409.34.6a.363.363 0 01.065.17c-.017.313.237.362.437.4s.467.176.577-.108l1.372.305c0-.131-.022-.208 0-.26.177-.365.349-.733.557-1.08.052-.086.226-.121.348-.133.041 0 .1.136.162.238a1.489 1.489 0 00.456-.041 1.236 1.236 0 00.42-.314.771.771 0 00.111-.282c-.047-.2-.174-.421-.132-.606a1.989 1.989 0 00-.192-1.114c-.267.12-.3.008-.237-.217h.532c-.224-.219.033-.229.078-.329a1.3 1.3 0 00.01-.435.607.607 0 00-.231 0c-.517.166-.682.1-.762-.368.309 0 .611-.02.909.006a.582.582 0 00.657-.423c.26-.02.471.452.775.089l-.278-.044.368-.427-.067-.41-.613-.212.02-.073.7-.137v-.349l-.368-.075.291-.625c-.145-.17-.5-.165-.3-.48l-.171-.073c.213-.112.336-.417.622-.158zm-9.68 5.084c.011-.076.156-.134.239-.2l.087.045.026.591c-.287-.062-.382-.228-.354-.436zm1.2.709c-.021.072-.2.094-.293.133l-.109-.5.4-.117a1.587 1.587 0 01.002.485zm3.089 1.754a2.812 2.812 0 01-.177-.307.184.184 0 01.011-.165c.063-.051.162-.112.229-.1.235.057.463.144.7.222-.142.473-.545.192-.762.349zm1.8-13.048c-.094-.029-.233-.056-.261-.122-.04-.1-.046-.289.014-.336a.537.537 0 01.374-.048 2.989 2.989 0 01.465.155c-.089.263-.25.457-.593.352zm-14.353 4.287a1.158 1.158 0 00-.111.608c0 .09.1.183.157.275l.447-.733-.16-.347.052-.081c.19.143.418-.273.608.081l-.344.161a2.606 2.606 0 00.2.515c.1.159.046.221-.075.32-.317.26-.619.537-.99.862l.677.038.061.085c-.142.169-.294.33-.423.509-.065.09-.151.26-.114.31a.584.584 0 00.335.159 3.659 3.659 0 00.474.036l-.083.474c-.4.095-.723.456-.615.721.055.135.166.312.283.34a1.3 1.3 0 00.512-.1c.154.159.314.341.593.2.041-.02.118.02.171.045a.331.331 0 00.515-.278c.012-.081.032-.2.088-.229a6.484 6.484 0 01.594-.27c.054-.093.082-.216.151-.246.288-.129.433-.309.25-.642.357.063.585.166.673.5.04.154.222.271.341.4l.064-.042-.107-.556a.43.43 0 00.229-.27.5.5 0 01.456-.452 1.278 1.278 0 00.5-.3 1.577 1.577 0 00.241-.363c-.186-.192-.4-.418-.621-.631-.027-.026-.114.009-.174.017l-.26.039-.025-.121.289-.134-.2-.078a3.019 3.019 0 01.514-.139c.176-.013.44-.3.383-.468-.074-.22-.166-.433-.243-.652a.382.382 0 01.073-.47c.107-.1.006-.438-.119-.439-.252 0-.5.023-.721.034-.014.206.026.561-.052.589a1.667 1.667 0 01-.73.005c-.038-.005-.054-.191-.1-.375l.49.207.159-.577-.536.046a1.376 1.376 0 00-.316-.335 2.073 2.073 0 00-.573-.122.428.428 0 00.209-.629c-.108-.151-.209-.306-.326-.478a1.277 1.277 0 00-.465-.05c-.294.072-.548.283-.874.265.063.347.137.653.162.963a.373.373 0 01-.186.307c-.093.025-.238-.078-.335-.156-.044-.036-.01-.156-.045-.219-.058-.1-.138-.259-.22-.267a.478.478 0 00-.318.18c-.034.038.036.167.055.256.013.062.017.125.027.2-.486-.131-.547-.088-.657.372-.055.229-.135.453-.2.672.052.036.083.074.119.08.244.053.367.097.166.378zm3.63 1.388c-.046.213-.1.408-.125.607a1.009 1.009 0 00.054.3l-.076.074-.373-.53c.168-.126.089-.488.521-.451z"/><path d="M117.754 5.453h.007v-.007c-.032.033-.016.006-.007.007zm2.894 1.284v.014h.01zm.566-.357c.106 0 .213.018.376.033l.124-.412a1.838 1.838 0 00-1.387-.406l.5.617-.266.2.085.325.278-.325a2.433 2.433 0 01.29-.032zm3.752 16.073c-.082.23-.291.523-.215.676.1.209.418.157.643.008.015-.01.072.051.093.041a1.057 1.057 0 00.166-.111l-.035-.062-.224.02.161-.193-.512-.069.062-.268zm-4.431-9.191c-.144.1-.291.2-.37.253l.768.26-.063-1.145-.259-.042c.246.338.227.459-.076.674zm-2.392-8.738l.474-.534-.5-.463-.089.053a1.746 1.746 0 01.109.5c-.031.391-.049.389.006.444zM88.476 57.701l.092-.575.219-.019-.117-.343-.761.519c.118.073.208.123.29.182s.151.124.277.236zm38.051-33.245c-.352.015-.205.322-.324.5.6.147 1.062.046 1.1-.212-.542.168-.739.098-.776-.288zm-18.818-7.462c-.087.016-.219.1-.246.073-.149-.152-.2-.007-.26.073a.557.557 0 00-.051.195.878.878 0 00.262.008 3.2 3.2 0 00.447-.167c.039-.017.064-.067.168-.184a2.388 2.388 0 00-.32.002zM119.955 4.37c-.116-.271.067-.649-.333-.66l-.145.613zm-.753.279c.1-.26.2-.52.319-.837a3.3 3.3 0 00-.308.167c-.026.018-.025.074-.037.113l-.053-.021.028.566zM130.038.561L129.944 0c-.346.299-.316.445.094.561zm-24.937 38.776l-.036-.511c-.249-.013-.343.121-.278.276.039.094.032.372.314.235zM79.694 15.843c.283.163.262-.044.305-.2a.44.44 0 00-.642.215c.144-.01.266-.057.337-.015zm11.749 36.352l.489.138.13-.316c-.18.104-.471-.182-.619.178zm14.226-6.251c.036-.2.486-.074.333-.423-.333.019-.411.109-.333.423zm24.726-44.725a.182.182 0 00.036-.153 3.317 3.317 0 00-.128-.333.288.288 0 00-.053.474.151.151 0 00.145.012zm-10.903 12.559c.323-.267.323-.267.131-.446-.246.277-.246.277-.131.446zm-1.231-.22l.144-.049-.072-.336-.231.07zm-12.633 30.88l.257.218.108-.1a1.831 1.831 0 00-.195-.242c-.009-.009-.111.08-.17.124zm15.755-33.572l.042.078h.421l-.205-.349zm-16.076 29.336l-.489.233c.341.122.505.022.489-.233z"/></svg>