<svg xmlns="http://www.w3.org/2000/svg" width="264.686" height="115.066"><path d="M204.864 44.693c-.209-.164-.161-.329.01-.479.127-.11.264-.276.415-.01.015.027.125.022.179 0 .145-.057.283-.129.456-.211a.986.986 0 01-.017-1.223 7.5 7.5 0 00.446-1.157c.647.22 1.2.588 1.889.377l.938-.547.813.275 1 1.255.83-.476.256.08c.131.716.118.747-.4 1 .064.289.064.289.344.458-.1.184-.526.243-.209.6.243-.038.466-.067.473.362 0 .218.283.43.458.673l-.709.381a2.735 2.735 0 01-.127.484c-.06.134-.1.317-.349.267-.083-.017-.212.13-.3.222-.131.137-.245.291-.363.434.587.12.607.133.758.488-.093.215-.509-.019-.495.419l.506-.053.193.324a2.34 2.34 0 00-.5 1.879l-.788.183a1.547 1.547 0 00.47 1.215l-.317.365c-.238-.019-.332-.511-.589-.183l.439.666-.392.171c.176.753.536 1.484.061 2.248-.053.086 0 .258.037.375a2.505 2.505 0 00.208.386c-.49.784-.422.767-.867.391a3.912 3.912 0 00-.225.519c-.064.231-.086.447.26.514.134.026.238.208.386.348l-.324.213a.956.956 0 01-.063.955c-.114.241-.183.5-.283.789l.325.185a1.19 1.19 0 00-.144.408c.014.32-.171.627.036.975.094.157-.064.48-.143.717a.6.6 0 01-.572.4.856.856 0 00-.26.125 1.742 1.742 0 01.335.443c.07.211-.092.376-.219.553a.96.96 0 00.008 1.076.576.576 0 01.082.573c.14.255.573-.032.582.421-.553.14-.588.774-1.008 1.1l.219.624-.373.277.538.5-.437.04c.012.216-.057.5.051.609.215.225.119.364 0 .549a1.12 1.12 0 00-.206.869c.1-.156.139-.219.182-.281s.105-.14.169-.226c.209.386.028.6-.317.78l.389.293-.444.159c.352.259.656.334.991.013.108-.1.305-.113.461-.167l1.106-.392-.044-.224c.256-.017.512-.052.766-.043a.985.985 0 01.4.136c.153.08.291.187.506.328l.138-.867c.2-.125.407-.344.731-.148a.155.155 0 00.147-.027c.2-.35.614-.309.911-.5l-.262-.493c.411.006.411.006.476.536.487-.08.654-.526 1.01-.9l.188.378c.1-.069 1.066-.487 1.117-.5.382-.125.762-.252 1.263-.418l-.618-.088a.457.457 0 01.051-.153c.165-.184.354-.123.526-.022a.512.512 0 00.673-.072c.266-.221.651-.219.971-.375a.568.568 0 01.689.378.994.994 0 011.112-.851 1.75 1.75 0 011.393.456c.253-.475.225-1.063.787-1.432l.162.482.633.113a1.167 1.167 0 011.461-.544c.186-.411.576-.5.982-.573a1.789 1.789 0 001.355-1.155c.168-.011.358-.033.548-.034.3 0 .442-.111.31-.307-.192-.285.094-.333.2-.5l.095.522a1.47 1.47 0 001.653-.813l.265.353c-.3.055-.362.207-.227.48.469-.124.374-.855.943-.815v-.539c.066-.012.129-.046.168-.028.136.062.258.155.4.211.179.073.368.121.569.185l.055-.339.408.152c.094-.438-.312-.2-.423-.406l.122-.278c.644.678 1.276.356 1.926.012l-.459-.23a.442.442 0 01.611-.051c.3.354.559.11.837.026l-.013.013a2.73 2.73 0 00.422.072c.182 0 .364-.026.63-.049l.2-.247c.08.142.036.383.343.419a.453.453 0 00-.357-.406c.258-.268.513.093.8.008.155-.046.372.1.579-.037.058-.039.219.077.384.142l-.113-.51.35.213.036-.329.622.415 1.268-.451.356.32.216-.243.919-.117.448.449.392-.081.247.482c.142.061.375-.1.428.227.037.232.26.239.448.066a3.09 3.09 0 01.372.589 2.578 2.578 0 01.05.654l.465-.076c-.028.432-.028.432.319.868l.41-.336a1.158 1.158 0 01.157 1.271c-.021.06-.135.087-.205.129l-.552-.5c.034.422.192.593.554.5.024.244.24.5-.07.726-.055.041.013.246.027.418l.476-.168.319.664-.6.422v-.709l-.54.935-.239-.168.463.64c-.54.256-.552.351-.217.825a3.54 3.54 0 01.314.674c.043.1.036.237.1.312a.656.656 0 01-.023.865c-.211.334-.485.63-.773.995a.905.905 0 01-.3.948.966.966 0 00-.314.7.888.888 0 01-.117.361 1.807 1.807 0 00-.292 1.22c.014.068-.075.156-.113.236q-.375.812-.747 1.626c-.008.018-.023.037-.021.054a1.721 1.721 0 01-.451 1.232 2.76 2.76 0 00-.366 1.592l-.437.131-.022.417.018-.018c-.082.093-.231.184-.235.28-.018.529-.029.59-.369.931.335.755-.16 1.445-.177 2.236l.605-.035c-.082.3.038.669-.273 1.007l.382.073.23.684.8-.235-.475-.342c.585.011.926.162 1.093.626a1.67 1.67 0 00.3.488.542.542 0 00.446.178 14.845 14.845 0 011.538.2l-.3-.633c.421.212.856.2.979.748l1.3-.524.57.208c.155-.24.276-.445.42-.634.027-.036.143-.005.265-.005a.614.614 0 01.572-.613c.07-.419-.323-.164-.44-.359.195-.35.3-.782.833-.807l.025.433c.2-.2.234-.353-.044-.414l-.063-.159.617-.064.009-.108-.453-.288c.122-.075.2-.161.257-.152.238.032.37-.22.335-.282-.168-.3-.047-.458.19-.615a.3.3 0 00.095-.2c.055-.475.089-.953.156-1.426a2.729 2.729 0 01.209-.829c.076-.152.064-.527.444-.381.018.007.095-.108.128-.175.084-.172.16-.349.248-.545l.5-.135a3.969 3.969 0 01.123-.427c.012-.031.107-.03.165-.044.312.059.312.059.354-.3l-.354.3-.057-.532.311.026c.008-.11.065-.267.013-.363a.252.252 0 00-.392-.086c-.088.053-.257-.029-.39-.05v-.149l.929-.116a1.343 1.343 0 01.371-.895c.095-.1.146-.2.315-.162.345.068.343-.465.746-.425.228.022.482-.223.816-.4.789.159.983.236 1.609-.271l.339.655.8-.139a2.632 2.632 0 00.939.348c.433-.02.661.261.966.417l-.17.19a.877.877 0 011.2.676l.426-.367.46.321-.232.79.417.491.523-.394a4.406 4.406 0 00.005.689c.1.53-.049 1.116.367 1.582.08.09.045.281.066.448l.635.4a3.91 3.91 0 00-.418.168c-.216.119-.223.266-.051.45.105.113.2.24.293.361-.11.083-.316.169-.314.249a.865.865 0 01-.354.735c-.053.045-.116.159-.095.2.227.449-.131.729-.348 1.125l.653-.061c-.016.274-.233.132-.337.2a2.28 2.28 0 00-.3.268l.2.306c-.074.257-.117.442-.181.62-.076.213-.113.508-.27.609a.461.461 0 00-.11.74c.261.367.05.617-.075.933a2.44 2.44 0 01-.728.924c-.115.1-.332.238-.205.5.041.086-.057.25-.114.368a3.239 3.239 0 00-.508 1.538 1.363 1.363 0 01-.428.77c-.344.384-.74.722-1.115 1.079-.1.092-.227.165-.283.276a5.963 5.963 0 01-2.166 2.138c-.441.3-.883.6-1.348.862a6.075 6.075 0 01-1.064.453 6.167 6.167 0 00-1.957.819 2.057 2.057 0 01-.538.207c-.249.094-.495.193-.745.282-.162.058-.327.105-.492.154-.4.12-.807.242-1.214.354a2.484 2.484 0 01-.454.08c-.565.046-1.131.116-1.7.113a9.473 9.473 0 01-1.235-.166.959.959 0 00-.228-.016 8.62 8.62 0 01-2.359-.2 12.592 12.592 0 01-1.963-.459 25.042 25.042 0 01-2.5-.851 4.793 4.793 0 01-1.9-1.059 1.857 1.857 0 00-.887-.488 3.618 3.618 0 01-2-1.452 2.17 2.17 0 00-.981-.86c-.3-.112-.513-.434-.815-.708l.045-.352c-.046-.043-.069-.085-.1-.093-.817-.2-1.015-.961-1.377-1.56a7.825 7.825 0 01-.594-1.229c-.219-.569-.391-1.157-.58-1.737a.312.312 0 01-.017-.172 1.887 1.887 0 00-.083-1.25 4.212 4.212 0 01-.056-1.248c-.01-.261-.04-.521-.054-.782a1.511 1.511 0 01.229-.994 1.643 1.643 0 00.23-1.35 3.737 3.737 0 01.216-1.7c.123-.559.369-1.091.5-1.65a.78.78 0 01.542-.668 4.8 4.8 0 01.481-2.491c-.641.167-1.213.292-1.769.47-.3.1-.558.313-.855.423-.664.247-1.342.454-2.009.692-.4.143-.79.314-1.185.473a5.138 5.138 0 00-1.66.647.186.186 0 01-.11.036c-.711.029-1.251.517-1.9.714s-1.3.478-1.949.726c-1.088.417-2.17.853-3.265 1.251-1.331.485-2.676.931-4.008 1.411-.721.26-1.425.565-2.143.836-.81.3-1.617.625-2.445.873a2.415 2.415 0 00-.935.468 1.552 1.552 0 01-.7.244c-.175.033-.295.067-.294.237l1.292.414-.587.3.048.113.331-.115c.122.308-.147.378-.321.518.141.314.46.17.849.36a1.472 1.472 0 00-.362.169.813.813 0 00-.251.357c-.083.356-.1.728-.193 1.082a1.14 1.14 0 000 .393c.012.256.153.51-.044.822-.159.25-.052.678-.038 1.026.011.289-.027.342-.339.331-.057 0-.148-.03-.165-.006-.235.347-.7.474-.853.893a.362.362 0 00-.008.276 3.6 3.6 0 00.635.8.769.769 0 01.309.575c.019.188 0 .382.022.569a5.112 5.112 0 00.132.545c-.257.377-.437-.267-.711 0a1.228 1.228 0 00.388.948c.193.183.365.311.213.617-.054.108.046.285.049.431a1.782 1.782 0 01-.044.491c-.057.215-.172.414-.227.629-.126.493-.115.493.311.947a.293.293 0 01.041.194c-.009.171-.116.32.1.492.16.129-.033.323-.172.418a1.051 1.051 0 00-.438.737l.261.04c.031.491.193.681.66.773l-.084.531-.3.063-.222.665c.258.148.258.148.013.667l.426.186-.627.365a.545.545 0 010 .837l.342.393-.392.5.241.086a1.23 1.23 0 01-.186.319c-.462.435-.493.529-.3 1.073.024.068.063.162.035.212-.2.381.039.723.1 1.067a1.284 1.284 0 01-.122 1.139l.5.331c-.162.078-.265.125-.366.177-.083.042-.164.088-.258.14 0 .3.147.647-.288.747.04.575.053 1.127.13 1.671a.444.444 0 01-.124.4.306.306 0 00-.071.18c0 .32-.117.533-.4.5-.254-.026-.285.1-.395.241s-.293.186-.415.3a6.193 6.193 0 00-1.427 1.74.5.5 0 01-.353.318 2.862 2.862 0 00-.477.247h-.466l-.155-.786-.729.125-.172.378-.453-.079-.371-.69c.115-.218.584.07.594-.38-.353-.244-.743 0-1.148-.117.047.43-.225.563-.549.716-.268-.3-.55-.609-.822-.925-.059-.069-.143-.188-.119-.246.162-.408-.17-.484-.4-.532a.786.786 0 01-.579-.481 1.154 1.154 0 00-1.152-.648c.034-.379.063-.693.1-1.056l-.747.13c-.069-.283-.115-.534-.193-.773a.847.847 0 01.068-.815.858.858 0 00.135-.685 1.8 1.8 0 01.106-1.391c.212.038.425.076.413-.292l-.374.039a9.171 9.171 0 01.181-2.786l.3-.025a.569.569 0 00.023-.161.629.629 0 00-.064-.223 2.923 2.923 0 01-.352-.627 2.437 2.437 0 01.019-.724 4.337 4.337 0 01.2-1.741 1.29 1.29 0 00.038-1.008c-.257-.5-.046-.944-.046-1.41 0-.229.029-.458.033-.687a1.888 1.888 0 01-.026-.345 7.564 7.564 0 00.132-1.7 14.769 14.769 0 01.183-1.718 1.162 1.162 0 01.1-.246l.264.316c.05-.043.1-.071.1-.089a9.238 9.238 0 00-.286-1.445.946.946 0 01.026-.828.6.6 0 00.039-.686 2.188 2.188 0 01-.129-.531l.338-.173-.016-.09-.333-.043v-.778c-.405.2-.75.347-1.079.526-.489.266-.966.555-1.453.828a1.681 1.681 0 01-.469.209.811.811 0 00-.526.316 1.331 1.331 0 01-.444.359 10.8 10.8 0 00-1.179.761 2.138 2.138 0 01-.412.211 1.848 1.848 0 00-.788.535 3.8 3.8 0 01-1 .668c-.515.3-1.042.589-1.561.889-.365.21-.718.441-1.089.639a3.633 3.633 0 01-.59.208c-.053.018-.148.006-.161.035-.183.425-.622.4-.957.553a.525.525 0 00-.2.117c-.447.58-1.167.7-1.751 1.054a.935.935 0 01-.276.072c-.668.143-1.334.293-2.005.421a.964.964 0 01-.6 0c-.421-.255-.911-.37-1.306-.65-.208-.149-.368 0-.556-.035a4.768 4.768 0 01-1.432-.83 4.167 4.167 0 01-.564-.487 1.029 1.029 0 01-.326-.58 2.486 2.486 0 00-.492-.94.722.722 0 01-.15-.883 3.591 3.591 0 00.2-.94c.033-.2.078-.359.329-.4.576-.091.649-.575.328-1.092-.028-.046-.05-.1-.071-.135.188-.352.3.155.463.02.178-1.233.178-1.233.541-1.567a3.87 3.87 0 01-.512-.409c-.119-.131.131-.445-.132-.477l.98-.657-.04-.1.476.1c.046-.051.1-.089.093-.1-.158-.4.231-.839-.056-1.246l.57-.17-.067-.448c.522.042.487-.475.739-.715s.548-.441.876-.7l-.406-.346.44-.155c-.036-.243.258-.472-.047-.806l.461.148c0-.233.406-.354.215-.691.03-.014.059-.031.09-.042.4-.147.516-.531.712-.834l-.31-.633.481.257c.475-.358.218-.762.006-1.256l.6.453v-.681c.452.077.452.077.63-.3l-.3-.354.986.157.423-.271c-.117-.074-.227-.2-.3-.183-.368.092-.806-.046-1.1.314q-.619.2-1.239.395c-.165.053-.33.1-.492.165-.286.108-.569.222-.852.337a1.962 1.962 0 01-.316.144 8.823 8.823 0 00-2.3 1 5.667 5.667 0 01-1.318.341 2.545 2.545 0 01-.556.112.406.406 0 01-.324-.166c-.121-.32-.394-.383-.662-.473-.069-.023-.135-.054-.189-.077 0-.067-.013-.11 0-.138.077-.14.332-.256.17-.428a.682.682 0 00-.52-.16.915.915 0 00-.777.59c-.335-.116-.64-.2-.93-.327a.247.247 0 01-.109-.421c.094-.119.205-.224.315-.343-.091-.111-.235-.21-.263-.337-.073-.32-.032-.682-.464-.8-.032-.009-.064-.22-.027-.25a.9.9 0 01.324-.093 2.092 2.092 0 01.668-1.2c.026-.029.051-.081.078-.082.607-.026.689-.661 1.084-.933a.6.6 0 00.186-.634c-.028-.208-.073-.414-.115-.643.434-.059.825-.283 1.262.121l.036-.752c-.4-.252-.377.186-.568.346l-.974-.232a6.472 6.472 0 01.25-.667c.085-.168.015-.256-.063-.4a1.175 1.175 0 01-.162-.888c.236.076.311.446.656.287l-.167-.27.907-.6-.3-.493.84.295.374-.71.128.372.735-.293c-.066-.33.119-.5.441-.6.114.1.229.279.361.292a1.619 1.619 0 00.611-.13c.593-.191.674-.266.759-.688l.326.343.366-.241.052.433c.363.155.307-.337.445-.333.339.009.269-.321.45-.426a4.082 4.082 0 002.468-.3c.172-.078.28-.3.418-.458.4.3.813-.305 1.266-.012l-.131-.362 1.214.3.128-.305a.811.811 0 001.08-.315l-.014.016a.405.405 0 01.581-.07c.436.3.588.28 1-.188.2.241.421.477.765.189a.322.322 0 01.314.034c.276.354.615.2.928.154l.477.556.138-.069.042-.369h.6l.32.38.365-.183c-.075.467.4.44.589.678l-.17.273a.537.537 0 00.125.062c.22.03.549-.025.638.1a1.029 1.029 0 01.241.9c-.015.052 0 .112 0 .033l.608.818.387-.416a4.517 4.517 0 01.152.572 4.648 4.648 0 01.006.594l.165-.016.163 1.15-.74.262.265.253-.348-.093c-.021.075-.05.129-.038.141a3.329 3.329 0 00.331.3c.135.1.281.186.41.27-.079.287-.489.4-.31.743l-.617.18c.369.546.873.938.758 1.612l.284.108.074-.425.393.106.144-.333.789.282c.031-.444-.318-.23-.526-.441l.567-.06c.041-.708.074-1.42.125-2.131.046-.63.11-1.259.174-1.888.021-.211.073-.418.1-.629.072-.591.141-1.182.2-1.773.06-.551.026-1.133.555-1.5a6.078 6.078 0 01.115-2.354 5.1 5.1 0 00.732-1.739c.14-.389.239-.793.371-1.24l-.347-.229c.091-.462.168-.956.3-1.435.036-.135.213-.245.344-.341s.332-.132.426-.253c.132-.17-.114-.3-.135-.426a6.84 6.84 0 01-.023-1.141c.255-.086.479-.1.576-.215s.033-.324.035-.493c0-.057-.052-.134-.029-.167.258-.388.017-.874.262-1.275.066-.109-.007-.336-.072-.485a.86.86 0 01.1-1.031.993.993 0 01.132.169.917.917 0 00.192.321l.22-.546c.015-.541-.3-1.15-.02-1.762a1.133 1.133 0 00.38-.061c.065-.039.082-.168.107-.261.087-.32.149-.653.561-.824a.92.92 0 01-.391-1.22 13.429 13.429 0 00.563-1.571c.086-.448.2-.464.7-.424a5.372 5.372 0 00.166-.524 1.229 1.229 0 01.428-.825c.28-.217.137-.6.085-.921a3.521 3.521 0 01-.039-.605c0-.067.083-.2.107-.192.474.091.4-.335.544-.554a1.793 1.793 0 01.324-.3c-.038.168-.177.344.022.508.37-.215-.1-.341-.009-.513zm6.044 1.13l.232.52.344-.657zm50.856 40.964l.174.058c.071-.111.213-.233.2-.332-.027-.178-.177-.276-.437-.174l.064.444zm.339.688c-.1-.081-.164-.171-.2-.161a.708.708 0 00-.206.152c.047.052.1.147.14.145.076-.005.148-.071.267-.136zm-52.636-44.579l-.182-.161-.146.192c.052.038.105.106.158.106s.098-.074.171-.136zm40.989 40.895l-.124-.362c-.242.227-.077.309.125.362zm-41.669-40.279l-.381-.262-.04.374zM59.018 60.58c0 .056-.034.148-.011.164.254.17.168.333-.018.486.148.108.332.178.387.3.042.1-.081.263-.124.4a2 2 0 00-.1.393.475.475 0 00.412.553 7.063 7.063 0 00.007.9.906.906 0 01-.565 1.114.516.516 0 00-.12.093c.057.329.318.137.512.229-.1.272-.034.631-.433.753.042.228-.326.367-.11.656a.553.553 0 01-.055.69 1.726 1.726 0 00-.146.54l-.79.054.117.419c-.363.5-.334.736.143.983.031.315.089.641-.221.884-.027.021-.06.081-.05.094.265.384-.2.7-.091 1.089a.8.8 0 01-.146.535 5.907 5.907 0 01-.505.637 3.294 3.294 0 00.215.3.351.351 0 01.035.474c-.1.161-.173.372-.319.471-.163.111-.213.172-.119.353.032.063-.036.177-.053.25l-.376.055a1.743 1.743 0 00.088.358c.083.171.195.328.312.521-.286.166-.335.453-.463.7a5.451 5.451 0 00-.465 1.74 5.3 5.3 0 01-.485 1.151c-.091.218-.347.4-.179.687a.162.162 0 01-.046.149c-.422.292-.25.792-.4 1.18-.075.2.062.472.111.758-.15.146-.467.276-.253.608l-.564.719.332.169a1.758 1.758 0 00-.516.916c-.064.189.075.278.039.4a3.309 3.309 0 01-.339.975 2.961 2.961 0 00-.5 1.234 2.985 2.985 0 01-1.034 1.8 1 1 0 00-.337 1.036c.047.206.019.4-.125.457a.834.834 0 00-.469.643 7.522 7.522 0 01-.388.829c-.225.5-.222.5-.775.419a5.942 5.942 0 01-.266.584c-.073.126-.182.3-.3.322-.427.071-.694.611-1.211.406-.042-.017-.138.047-.179.1a1.187 1.187 0 01-1.2.4c-.283.3-.583.589-.834.912-.221.283-.578.38-.783.717-.173.285-.574.43-.867.646a1.183 1.183 0 00-.212.235c-.282.361-.534.768-1.017.667a12.771 12.771 0 01-1.22 1.261c-.4.314-1 .369-1.2.939-.5.1-.7.6-1.13.805s-.793.548-1.213.78a13.918 13.918 0 00-1.647.941.692.692 0 01-.322.125 3.026 3.026 0 00-1.325.62c.067.306.241.631 0 .964-.049.068.052.244.076.34a3.206 3.206 0 01-.5.41c-.318.165-.473.594-.971.509a.537.537 0 00-.541.545c0 .062-.08.128-.138.214h-.533l.282-.535c-.1-.037-.208-.1-.228-.079-.3.315-.788-.094-1.086.295a.909.909 0 00-.925-.232 4.493 4.493 0 01-1.328-.126l.263-.464a.6.6 0 00-.833-.275.559.559 0 01-.535-.063c-.311-.148-.644-.252-.968-.372-.072-.026-.182-.019-.214-.067-.284-.428-.786-.369-1.179-.55a3.093 3.093 0 01-.515-.418l.44-.028c-.035-.64-.058-.657-.983-.684-.125-.337-.275-.687-.38-1.049a1.567 1.567 0 00-.355-.678c-.209-.231-.2-.656-.3-1.039h.674l.166-.469c-.322-.14-.651-.281-.978-.426a1.1 1.1 0 01-.626-1.244c.425-.175.507.555 1 .341l.06-1.187.465.325.078-.065a3.113 3.113 0 01-.2-.288c-.128-.232.025-.622.251-.577.287.057.6-.139.886.177a1.7 1.7 0 00.161-.478c-.011-.582-.021-.581.554-.733l-.189-.447c.19-.144.26-.542.7-.348l-.146.216.355.494a2.738 2.738 0 00.425-.307.426.426 0 00.12-.336c-.021-.074-.2-.1-.3-.153l-.242-.11a3.436 3.436 0 01.44-.408c.133-.085-.1-.494.347-.365a2.579 2.579 0 01-.35-.413 2.95 2.95 0 01-.178-.542 1.313 1.313 0 01-.754-.993h.517c-.045-.1-.061-.141-.085-.181-.4-.667-.39-.663.394-.731a1.609 1.609 0 001.088-.391c.075-.076.238-.069.362-.091.1-.019.211-.025.322-.037-.072-.3-.341-.53-.175-.924l.283.4.565-.04.275-.382a1.706 1.706 0 01.406.178c.393.319.387.326.726-.068l.572.531c.035-.037.085-.066.082-.089-.027-.215.083-.385.271-.354a.543.543 0 01.38.327 1.014 1.014 0 00.5.711c.261-.235-.126-.791.471-.885l.048.433.7-.1c.2-.445.208-.447.565-.209l-.363.383.074.11a2.722 2.722 0 00.391-.217c.211-.166.3-.594.706-.3.222-.14.438-.284.4-.521.454-.329.87-.617 1.267-.929.067-.053.057-.21.068-.321.017-.158.02-.317.03-.506.441.272.616.261.934-.034.126-.116.24-.244.359-.368.051-.052.1-.106.147-.157l-.444-.293.89-.935.079.03-.145.642 1.176-.577c.118-.2.234-.647.764-.7.09-.008.159-.239.235-.363.374-.141.8.251 1.124-.172l.217-1.444-.333-.1a.774.774 0 00.093-.27c0-.081-.081-.158-.15-.279.163-.067.332-.089.419-.185s.076-.257.122-.444c.075.1.115.19.186.228a.676.676 0 00.256.026c-.014-.4.679-.509.4-1.029-.057-.108.025-.3.057-.445s.086-.321.136-.5l-.425-.115c-.028-.15.024-.174.541-.268a3.517 3.517 0 00.115-1.2c-.111-.43.48-.656.145-1.076l-.263-.131c.412-.268.418-.282.357-.812.117-.112.267-.191.309-.308a41.5 41.5 0 00.623-1.894 1.049 1.049 0 00-.022-.36l-.013.012.321.033a.731.731 0 01.48-.7c-.1-.251-.382-.405-.265-.728a1.8 1.8 0 01.48-.865.84.84 0 00.219-.99c-.122-.236-.251-.442.1-.593.028-.012.064-.065.059-.09-.1-.383.234-.637.293-.981a8.96 8.96 0 01.42-1.6 4.578 4.578 0 00.194-2.2c-.04-.338.029-.687.017-1.03a1.956 1.956 0 00-.128-.536 13.451 13.451 0 00-.3-.807 1.946 1.946 0 00-.227-.385 2.724 2.724 0 01-.389-.491 6.694 6.694 0 00-.9-1.259 22.16 22.16 0 00-1.885-2.239 12.35 12.35 0 01-.983-1.428 1.34 1.34 0 00-.312-.321c-.134-.1-.336-.11-.314-.35 0-.039-.054-.1-.1-.124a9.882 9.882 0 01-2.454-2.062c-.721-.67-1.382-1.41-2.135-2.04a16.063 16.063 0 00-2.386-1.7 4.574 4.574 0 01-1.338-.96.651.651 0 00-.291-.167c-.324-.106-.653-.2-.985-.3-.124.117-.25.247-.389.362-.073.061-.217.078-.242.147-.172.474-.58.492-1.027.521.026.55-.388.832-.716 1.152-.245.239-.523.135-.824-.213l-.074.78a1.176 1.176 0 01-1.278.521c-.082-.014-.183.087-.275.135l.211.341-.543-.151c-.24.988-.349 1.09-1.143 1.036a1.739 1.739 0 01-.03.27c-.128.475-.319.553-.816.34-.362-.156-.747.007-.686.367.1.568-.365.666-.631.836s-.583.241-.633.647c-.011.088-.244.148-.393.23v.715l-.831.348c.035.188.209.465-.137.63-.207.1-.4.225-.7.4-.058.156-.159.443-.275.724a.8.8 0 01-.169.218c-.139.147-.289.286-.424.437-.075.084-.109.225-.2.274a1.721 1.721 0 00-.782 1.147 3.117 3.117 0 01-.656.755c-.17.147-.3.345-.457.5-.184.181-.386.343-.605.535v1.465a9.2 9.2 0 00-1.1.939.362.362 0 00-.1.133c-.02.051-.036.138-.01.166.229.235-.308.618.1.746-.34.433-.695.848-1 1.3-.084.123-.013.35-.013.575a2.014 2.014 0 00-.93 1.221c-.017.11-.182.19-.231.3-.1.22-.5.3-.314.653.01.02-.051.1-.094.121-.29.151-.233.408-.211.586a6.826 6.826 0 00-.734.663c-.076.09-.012.3-.012.483l-.215-.043c-.195.223-.375.422-.545.629-.043.052-.1.162-.076.188a.46.46 0 00.215.12.766.766 0 00.221-.015 2.856 2.856 0 01-.481.533c-.287.184-.491.379-.359.768a.686.686 0 00-.8.495 2.675 2.675 0 01-.86 1.041.541.541 0 00-.215.6c.061.343.329.772-.018 1.136-.277.063-.649-.207-.793.162a2.647 2.647 0 00-.043.827c-.331.194-.492-.427-.864-.184a7.06 7.06 0 01-.879.414l.635.5a1.837 1.837 0 01-1.385-.259.143.143 0 01-.068-.086c-.033-.163.006-.4-.238-.394a1.425 1.425 0 00-.479.159 2.893 2.893 0 01-2.087.018c-.147-.052-.235-.272-.373-.443-1.313-.136-1.347-.437-1.163-1.164-.153-.314-.628-.3-.7-.693-.6.092-.49-.371-.551-.7-.013-.076-.021-.191-.068-.215-.423-.216-.353-.7-.58-1.018a.656.656 0 01.069-.9 1.213 1.213 0 00.241-.862.7.7 0 00-.136-.473c-.315-.426-.287-.59.044-1.014a10.7 10.7 0 01.715-.907 4.064 4.064 0 00.884-1.158c.043-.1.224-.129.339-.2.181-.1.383-.178.441-.426a.387.387 0 01.2-.261.526.526 0 00.426-.538c.009-.081.1-.222.145-.22.413.014.342-.31.251-.463a.459.459 0 01.077-.576 4.419 4.419 0 01.648-.636c.248-.21.152-.429.052-.677a1.138 1.138 0 00.657-.58 16.052 16.052 0 011.15-1.491 1.424 1.424 0 01.6-.478c.562-.162.652-.585.724-1.054a1.3 1.3 0 01.113-.277l.47.138.389-1.318.363.461c.071-.222.128-.37.165-.522a.893.893 0 01.442-.626.962.962 0 00.607-.826c.008-.337.351-.49.713-.422a5.244 5.244 0 012.093-2.009l.4-.738.361.141a1.031 1.031 0 00.129-.159 2.977 2.977 0 011.178-1.369c.167-.094.21-.39.371-.515a1.654 1.654 0 01.549-.155c.03-.009.049-.058.072-.089.318-.432.534-.958 1.129-1.127.08-.022.16-.229.153-.345-.024-.405.232-.467.552-.5-.027-.362.076-.628.5-.681.072-.009.118-.168.19-.246.228-.245.641-.225.816-.564a1.868 1.868 0 01.4.1c.157-.3.309-.628.49-.935.19-.323.562-.475.754-.819a5.333 5.333 0 01.695-.816c-.013-.013-.053-.082-.093-.082a5.8 5.8 0 01-1.242 0 4.389 4.389 0 01-1.661-.45c-.085-.059-.119-.192-.19-.314-.183.211-.286.326-.384.443-.209.25-.439.382-.75.16-.045-.033-.113-.079-.154-.066-.646.2-1.153-.2-1.692-.411a2.816 2.816 0 01-1.29-1.26l.508-.364-.329-.218.2-.359-.423-.393a3.814 3.814 0 01.8-.206 3.581 3.581 0 01.77.143.613.613 0 00.208-.818c-.173-.365-.042-.51.325-.766a1.755 1.755 0 00.328-.461l.338.215a.4.4 0 01.587-.1.508.508 0 00.633-.108 2.7 2.7 0 01.527-.316c-.081-.083-.138-.19-.22-.214a.983.983 0 00-.455-.038.986.986 0 01-1.288-.684 4.576 4.576 0 01.66-.455 3.61 3.61 0 01.726-.179l.213.256.528-.219-.761-.876.829-.142c.419.493.419.493 1.283.471-.013-.447 0-.456.4-.408a1.053 1.053 0 00.861-.151c.105-.083.332-.013.586-.013l.2-.289c.013 0 .041-.012.044-.007.3.513.953-.186 1.247.355.378-.074.5.408.889.392l.319-.3-.239-.421.322-.49.1.286c.4-.042.77-.348 1.2-.154.053.024.167-.065.24-.12.014-.01-.07-.133-.051-.156.042-.052.137-.116.183-.1a3.384 3.384 0 01.433.229l.231-.3c.027.021.076.04.077.061 0 .183.083.3.275.292.261-.017.52-.051.779-.086.052-.007.132-.088.143-.077.261.26.5.055.8-.1l-.206.514 1.107-.451.084-.286a2.165 2.165 0 00.27.292c.136.1.315.264.431.234.5-.132.7.261 1 .5.156.124.345.422.5-.014.338.135.395-.308.7-.333.239-.02.454-.292.685-.443.093-.061.212-.083.3-.146.181-.127.46-.243.5-.414.088-.343.3-.437.579-.555.172-.073.292-.267.509-.479h.326a3.793 3.793 0 01.159-.469c.054-.112.149-.284.231-.287.442-.015.491-.286.475-.629a.679.679 0 01.063-.193c.24 0 .507 0 .545-.447a3.609 3.609 0 00.448.386 2.732 2.732 0 00.469.17c.155-.674.147-.687-.475-.854a.68.68 0 011 0 .346.346 0 00.533-.017l-.135-.361.413-.127-.124-.8 1.055-.136.081.555a2.085 2.085 0 001.153-.026c.315-.14.565-.24.777.142.041.074.2.082.342.134a.574.574 0 00.118.784l.475-.145a.551.551 0 01-.168.657c-.211.173-.419.349-.66.549l.411.342-.441.3.425.582-.716.067.161.412a8.853 8.853 0 01-.635 1.212l-.807-.352c-.206.373-.206.373.556.479.016.377-.277.4-.506.45v1.2c-.488.122-.589.572-.681.953l1.088.364-.372.4a2.154 2.154 0 001.086-.091c.265.236.087.86.651.966a1.7 1.7 0 01.477-.34c.14-.04.326.063.488.116a5.514 5.514 0 00.8.265c.326.052.57.159.638.531l.31-.062a2.135 2.135 0 00.662.26c.275 0 .034.472.368.338a.914.914 0 00.345.525c.151.115.2.364.3.561l.648-.4a.827.827 0 00.7.572.7.7 0 01.622.517c.029.13.221.253.366.325.461.229.941.419 1.4.65.162.081.4.234.405.361.014.483.42.615.7.755a3.669 3.669 0 01.9.672 1.739 1.739 0 00-.258.294.363.363 0 00.022.247c.008.023.1.018.152.026l.033-.242c0-.036 0-.073.006-.129.544-.239.673.428 1.072.467l-.058.541.93.24c.085.228.184.448.246.678.033.125-.052.306.01.394.23.321.5.615.756.914.1.121.328.226.326.335-.007.386.256.48.588.625l.154-.249c.051.046.1.08.1.093a3.254 3.254 0 00-.219 1.027c0 .095-.1.187-.187.339l.453-.054a2.141 2.141 0 01.6 1.738l.413-.179-.308.486c.538.31.512.86.574 1.377a1.665 1.665 0 00.071.319 2.3 2.3 0 01.119.258 11.925 11.925 0 01.281 1.705 4.717 4.717 0 01-.3 1.205 2.056 2.056 0 01.25.35c.032.062-.042.179-.07.273-.127-.1-.325-.182-.366-.312a.87.87 0 00-.726-.593 1.253 1.253 0 00.061-.38c-.012-.083-.125-.151-.192-.226a.876.876 0 00-.128.311c0 .152.063.3.272.284l.339.9zM40.981 38.24l-.408-.733c-.069.021-.16.045-.246.08a2.272 2.272 0 00-.21.109c.391.056.44.692.868.545zM9.222 75.67c-.14.209-.237.288-.228.354a1 1 0 00.152.375c.017.029.185.014.193-.011a.868.868 0 00.057-.366 1.37 1.37 0 00-.174-.351zm9.622-35.505l.009.12h.668c-.266-.323-.473-.199-.677-.119zm36.622 10.552l.047-.134c-.159-.21-.348-.217-.645-.022zm2.086 9.45c-.075.333.073.369.389.3zM29.722 89.89l.205.019c-.01-.1-.018-.2-.036-.3 0-.011-.093-.02-.094-.016-.029.103-.051.203-.075.298zm11.346-5.565l-.122-.078-.115.3.115.047zm-.094-43.608l.044-.114-.268-.126a.878.878 0 00-.042.135c.086.042.177.072.266.106zm-13.88 50.638l.088-.069-.162-.292-.114.066zm46.864-24.442v-.771l1.109-.835c-.074-.4-.135-.72-.223-1.182l.671.629.107-1.217c.026-.172.291-.125.342-.438.034-.207.4-.358.611-.536.124-.1.29-.185.36-.317.2-.382.366-.784.545-1.178l-.021.022c.206.029.389 0 .428-.244a.456.456 0 01.484-.421.087.087 0 000-.048.176.176 0 00-.032-.046h-.007c.289-.064.388-.527.786-.381a.268.268 0 00.091-.157 2.94 2.94 0 00-.083-.413l.485.043a.886.886 0 01.548-.557.886.886 0 00.346-.292 1.7 1.7 0 011.155-.75c.317-.03.543-.53.522-1.012.264.04.489-.05.5-.337.007-.129-.088-.292.1-.3.116-.008.241.114.361.179.032.018.061.042.109.076a.579.579 0 00.192-.092c.165-.172.241-.406.563-.433.226-.019.423-.283.656-.336a1.928 1.928 0 001.148-.808 1.392 1.392 0 011.314-.665c.421.037.563-.338.822-.533.143-.107.216-.31.373-.423.036-.364.063-.763.514-.969.016-.008.026-.029.038-.043.48-.588.48-.588 1.039-.045a.509.509 0 00.086.044c.147-.118.306-.251.47-.376.145-.11.295-.212.459-.329-.226-.436-.634-.067-.916-.2a1.541 1.541 0 01.616-1.1l.089.357.282-.1.006-.113-.392-.124c0-.314.013-.628.009-.942 0-.265.153-.372.427-.432l.1.446c.1-.023.206-.042.306-.07a5.99 5.99 0 00.58-.176 2.675 2.675 0 00.546-.275.713.713 0 01.707-.167l.013-.011-.7.575a.553.553 0 01-.017.682.3.3 0 00.334.457.471.471 0 01.61.3h1.156c-.281-.448-.281-.448-.73-.161l-.211-.649.664-.421a1.576 1.576 0 000 .321c.059.23.229.189.373.112a5.671 5.671 0 00.492-.325c.588.57.611.714.35 1.321l.606-.151.237.614a.959.959 0 01-.235.067c-.265-.007-.289.117-.2.327.061.143.1.293.153.44l-.156.057-.168-.4c-.032 0-.09-.026-.1-.012a1.009 1.009 0 00.088 1.1.95.95 0 01.076.128c-.031.067-.066.153-.111.235-.036.066-.084.126-.13.194l.261.672-.31.23.246.355c-.3.166-.539.341-.487.711.014.1-.065.217-.108.324-.159.4-.269.442-.7.292-.053-.019-.111-.027-.191-.045a4.045 4.045 0 01-.313.378c-.169.161-.156.331.023.424.276.143.266.358.213.59-.058.255-.289.208-.473.237a.426.426 0 00-.1.047c-.021.031-.059.062-.061.094-.032.807-.021.839-.772 1.1-.328.113-.554.174-.548.59 0 .221-.346.356-.263.659a5.594 5.594 0 01.089.648c-.025.114-.074.352-.134.588a.662.662 0 01-.1.2q-.487.712-.979 1.421c-.022.032-.075.071-.068.09.142.374-.214.465-.373.668-.142.181-.427.286-.283.62.029.066-.114.293-.2.306-.358.057-.4.385-.484.6-.091.246-.285.439-.265.782a1.313 1.313 0 01-.478 1.107 2.633 2.633 0 00-.532.886 1.086 1.086 0 00-.1.449.667.667 0 01-.5.688.432.432 0 00-.326.422c-.021.207-.073.409-.119.66-.194.085-.484.119-.482.489 0 .118-.19.238-.326.395l.157.506a1.264 1.264 0 00-.6.841 2.327 2.327 0 01-.538.872 2.38 2.38 0 00-.515 1.058.614.614 0 01-.4.458.491.491 0 00-.316.55c.079.592-.012.7-.626.914.006.081.05.188.014.255-.25.474-.515.94-.78 1.407-.036.063-.133.106-.144.168-.1.569-.533.647-1.042.655 0 .226.082.491-.017.625a4.2 4.2 0 00-.346.964.779.779 0 01-.777.491.794.794 0 00-.464.161c-.394.333-.761.7-1.16 1.068a1.982 1.982 0 01-.7 1.78 3.461 3.461 0 00-.423.543c-.059.077-.1.191-.18.223-.622.251-.864.857-1.278 1.3-.2.212-.056.385-.175.6.626-.161.7.514 1.167.611.28-.163.08-.42.031-.63-.136-.586-.146-.575.388-.81.554-.244 1.1-.506 1.653-.756a.779.779 0 01.265-.065 1.163 1.163 0 00.929-.337l.464.49.113-.992c.308 0 .53.278.8.025.038-.036.275.142.494.261a3.576 3.576 0 00.256-.37.744.744 0 01.573-.418 5.882 5.882 0 001.075-.257c.257-.092.48-.237.759-.072a.217.217 0 00.205-.048.638.638 0 01.746-.148c.48.163.842-.082 1.247-.2a5.367 5.367 0 011.72-.238c.068 0 .178.049.2.023.246-.345.529-.186.817-.083a.467.467 0 00.282 0 3.5 3.5 0 011.183.01 4.921 4.921 0 001.31.064c.4-.1.568.238.8.485a.771.771 0 011 .162c.033.041.113.086.152.073.313-.1.487.087.624.3.7-.169.7-.169.925.375l.387-.351 1.146.474a.612.612 0 00.534.465c.063.005.106.143.173.2a5.314 5.314 0 01.5.438c.248.29.642.489.633.955 0 .071.029.187.076.206.528.209.387.72.435 1.093a1.814 1.814 0 00.247.808 4.712 4.712 0 01.561 1.663l-.5.547c.228 0 .335.01.44 0 .262-.031.418.015.48.333.08.415.476.633.684 1l.423-.327c.2.01.49.239.435.434-.1.353.132.275.358.35a1.3 1.3 0 01-.018-.244.726.726 0 01.1-.177l.464.517.227-.448c.284.19.471.405.876.373.373-.03.767.195 1.144-.058.286.21.585.036.878.023.04 0 .076-.068.115-.1l-.013.017c.324-.034.646-.085.97-.095a2.414 2.414 0 01.528.107.611.611 0 00.3-.828c.309.25.536.573.957.53l.28-.542-.179-.227c.224-.353.388.059.65.039l-.169-.337c.324-.306.576.192.9.074s.68-.026.987-.268a5.313 5.313 0 01.837-.455l-.069-.461.087-.035.212.319c.4-.06.087-.342.149-.467.27.072.522.152.781.2s.512.071.868.118l-.241-.364c.157-.235.243-.549.7-.467.159.028.366-.2.6-.348a.566.566 0 00.724.253l.211-1.185-.7.324c.1-.291.1-.291.563-.523.159.06.318.122.479.179a.689.689 0 00.91-.451c.124-.475.219-.957.335-1.434a.994.994 0 01.158-.425 3.651 3.651 0 00.638-1.244 1.19 1.19 0 00.006-.418c0-.038-.029-.076-.026-.113a2.931 2.931 0 00-.434-1.539 7.78 7.78 0 00-.925-1.83c-.118-.138-.1-.393-.15-.61a1.839 1.839 0 01-.932-1.05 3.786 3.786 0 00-.652-1.138 4.369 4.369 0 01-.73-1.22 5.8 5.8 0 01-.294-1.108c-.024-.107-.035-.28.026-.333.32-.278.193-.635.236-.987l-.456-.266c-.033-.287-.146-.58.079-.865a1.292 1.292 0 00.208-.553c.147-.164.418-.13.552-.416.14-.3.506-.308.821-.309h.769l.049-.135-.408-.3.292-1.057 1.1-.194.092.367h.7l.028-.586c.157.08.366-.12.5.119a.267.267 0 00.253.053.8.8 0 01.93.15 3.09 3.09 0 01.565.7c.176.165.307-.117.546-.03a1.69 1.69 0 01.832.467c.2.24.492.349.685.645.161.246.473.449.689.706.042.05.194.007.333.007l.09.435.352-.048a1.3 1.3 0 00.5 1.082c.286.275.293.789.789.906l-.155 1.087.435-.032.506.864.436-.029-.434.255a1.445 1.445 0 00.423 1.212.87.87 0 01.243.375 2.181 2.181 0 00.345.855c.12.158.035.476.032.722 0 .154-.035.308-.028.46a.463.463 0 00.093.24c.386-.062.182.323.336.433.259.185.022.43.065.624.067.3-.224.634.119.9-.1.087-.3.215-.28.25.131.3-.183.626.043.876-.171.216-.341.423-.5.637-.03.04-.043.146-.021.164.335.25.02.525.042.782a.729.729 0 01-.233.581c-.265.31-.485.658-.757 1.036l.582-.071v.853c-.716.255-.819.44-.5.944-.122.156-.253.314-.371.482a.4.4 0 00-.087.228.99.99 0 01-.5 1.008.707.707 0 01-.1.722 1.723 1.723 0 00-.283.971 1.842 1.842 0 01-1.192 1.524.688.688 0 00-.474.372.869.869 0 01-.392.393c-.41.185-.842.32-1.3.489.093.276-.07.451-.41.539-.138.036-.248.17-.378.246a1.57 1.57 0 01-.876.376c-.089 0-.236.015-.261.068-.166.35-.661.278-.818.677-.045.114-.418.15-.633.135-.274-.021-.416-.019-.485.218-.129.444-.309.733-.86.583-.126-.034-.348.151-.476.284a.774.774 0 01-1 .226 3.106 3.106 0 01-1.476 1.084.977.977 0 01-.494.106 2.021 2.021 0 00-1.109.146.649.649 0 00-.31.217 1.416 1.416 0 01-1.524.444.379.379 0 00-.513.218c-.156.326-.435.387-.74.458-.251.059-.389-.037-.482-.348a1.006 1.006 0 01-.945.572c-.413.045-.82.153-1.229.232a.881.881 0 01-.284.049c-.62-.1-1.249-.013-1.873-.124a8.016 8.016 0 00-1.305-.015 5.2 5.2 0 01-1.534-.061c-.421-.142-.915-.028-1.278-.359a.33.33 0 00-.223-.03 1.111 1.111 0 01-.835-.338.915.915 0 00-.707-.3c-.422.04-.609-.373-.867-.61a1.215 1.215 0 00-.583-.39.63.63 0 01-.326-.214c-.368-.452-.913-.763-1.1-1.368-.022-.076-.161-.109-.216-.184-.143-.2-.357-.4-.383-.613a1.754 1.754 0 00-.375-.891c-.131-.172-.26-.351-.077-.571.149-.179.1-.329-.1-.42a.97.97 0 01-.486-.683c-.062-.2-.18-.378-.253-.573a.767.767 0 01-.065-.379c.066-.367-.342-.744.01-1.067a1.8 1.8 0 01-.324-.4.726.726 0 01-.041-.5 1.164 1.164 0 00-.023-.673c-.055-.437-.071-.878-.108-1.391-.174-.1-.321-.444-.709-.287-.042.017-.144-.008-.156-.039-.184-.463-.637-.36-.947-.353a.735.735 0 01-.706-.327c-.7.163-1.37.345-2.051.47-.641.118-1.3.142-1.939.267-.866.169-1.725.377-2.578.6a11.054 11.054 0 00-2.119.664c-.681.339-1.4.593-2.083.922s-1.281.723-1.912 1.1c-.836.507-1.714.947-2.578 1.408a8.227 8.227 0 00-1.512 1.078 3.7 3.7 0 01-1.031.589c-.118.048-.324-.118-.57-.219-.006.166-.014.32-.018.474-.009.377-.11.51-.5.578a1.054 1.054 0 00-.372.2c-.45.269-.747.733-1.283.906-.3.1-.524.4-.792.6a5.22 5.22 0 01-1.364.992c-.05.017-.118.061-.126.1-.1.5-.456.51-.891.445-.106.2-.214.4-.316.6-.234.464-.26.479-.758.4-.094-.015-.187-.037-.3-.06-.236.238-.6.417-.349.82a8.214 8.214 0 01-.616.616c-.5.411-1.028.8-1.537 1.2a1.483 1.483 0 00-.385.385 1.321 1.321 0 01-1.5.81 7.62 7.62 0 00-1.267.054c-.167.006-.325.108-.487-.133-.124-.184-.63-.046-.777.183-.187.292-.474.211-.679.155a11.676 11.676 0 01-1.452-.545c-.1-.043-.156-.186-.206-.339a.706.706 0 00.868.127l.039-.621c-.262-.167-.451-.468-.849-.4-.2.037-.31-.138-.316-.335a.932.932 0 00-.452-.754.955.955 0 01.021-1.421c.186-.146.3-.41.661-.244-.24-.295-.24-.295-.594-.3.007-.486.351-.772.626-1.094.06-.071.2-.125.2-.19.012-.4.314-.63.463-.938.168-.349.479-.571.626-.921a7.726 7.726 0 01.476-.833c.037-.064.052-.177.1-.191.323-.1.468-.357.653-.614a4.389 4.389 0 01.721-.617 1.879 1.879 0 00.22-.293l.559.088c.145-.352.186-.681-.177-.941.086-.2.158-.374.24-.545.033-.069.077-.156.138-.182.136-.058.34-.039.418-.133.1-.12.092-.323.149-.483.032-.088.088-.215.158-.234.256-.072.228-.25.246-.451.066-.726.076-.726.487-1.02l.042-.6c-.181-.09-.424-.14-.542-.288-.149-.186 0-.418.053-.643a11.149 11.149 0 01.565-1.682c.093-.226-.066-.582.1-.864.028-.048.013-.142.049-.162.425-.244.408-.715.573-1.091.119-.27.284-.533.388-.789.189-.461.565-.857.54-1.42-.009-.207.216-.393.278-.656a4.092 4.092 0 01.682-1.175c.026-.04.167-.005.294-.005-.035-.2-.106-.385.122-.587a3.927 3.927 0 00.585-.866c.272-.023.072.5.5.272l-.094-.883.178-.306.331.1-.251-1.419.559.563c.147-.329.246-.6.389-.854a7.375 7.375 0 01.492-.675l-.187-.256c.746-.287 1.132-.992 1.768-1.457l.148.333c.046-.049.091-.075.09-.1a1.105 1.105 0 00-.393-.684c-.142-.155-.257-.334-.387-.509l.3-.278c.4.1.07.346.125.531.34.034.344-.312.5-.467a2.114 2.114 0 00.32-.611.954.954 0 01.393-.471.978.978 0 00.4-.621c.072-.28.289-.519.388-.795a1.152 1.152 0 00.092-.651c-.053-.288-.267-.293-.39-.439a.867.867 0 01-.079-.206l.473.044a2.3 2.3 0 00.075-.218c.048-.2.1-.408.133-.616.055-.379.117-.411.492-.226.508-.384.353-.972.469-1.513l.287.166c.062.179-.035.42.225.582.072-.278.061-.476-.221-.559zm21.231-15.736l.083-.038c.006-.168-.057-.416.03-.49.246-.213.045-.324-.021-.519l-.436.2zm24.295 19.3c-.1-.053-.165-.115-.206-.1s-.126.108-.115.145a.223.223 0 00.153.128c.035.001.086-.089.168-.175zm-28.12-20.6c.4-.036.4-.039.347-.523zm-8.143 40.02c-.117-.059-.187-.124-.235-.11s-.084.1-.125.157c.054.035.109.1.163.1s.098-.069.196-.146zm.7-5.321l.045-.137c-.087-.02-.173-.042-.261-.056-.008 0-.025.059-.038.09z"/><path d="M176.281 15.706a.845.845 0 00-.175.865c.176.37.491.175.776.182.474.438.417 1.084.652 1.617-.657.233-.679.222-.96-.422-.439.042-.548.118-.621.434s.052.474.39.405a10.064 10.064 0 011.189-.021c0 .365.012.711 0 1.057-.017.37.419.577.311 1.053-.143.027-.319.063-.5.094-.161.028-.409-.071-.371.3l.63-.152.112 1.039.455.378a1.12 1.12 0 011.025-.123 3.84 3.84 0 00.85.069l-.137-.349c.095.031.2.037.209.071.124.4.414.469.792.462a2.52 2.52 0 01.689.169c.255.072.473.13.522-.261.018-.145.195-.16.312-.018.131.159.264.317.4.475l.459-.162.013-.28c.46-.244.188.32.459.368.193.034.348.28.431.353h.629c.055 0 .134.052.161.03.41-.333.816-.061 1.194.043.3.083.6-.017.911.177.48.293.523.224.8.564l.433-.435c.335.063.754-.155 1.035.237l.782-.16-.021.463-.5.123v.128l.914.48-.074 1.059c.289.052.574.215.779-.182l-.294-.472c.1-.037.187-.1.231-.079.343.166.834.269.975.545.161.315.552.62.378 1.127l-.547-.243.052-.612c-.124.251-.446.418-.258.778a1.308 1.308 0 001.1.606.966.966 0 00.114-.007c.015 0 .028.021.072.058-.3.488.127.892.231 1.411a1.209 1.209 0 01-.746-.328.992.992 0 00-1.219-.244 3.015 3.015 0 00.43.427c.455.3.459.4-.019.741-.118-.2-.181-.505-.522-.235-.035.028-.2-.04-.248-.1a.73.73 0 00-1.023-.165c.129.679.587.523 1.026.369l.188.762-.262.139c.536.163.58.231.618 1a.528.528 0 00-.369.489c-.015.525-.376.722-.861.51a.905.905 0 01-.282-.195.615.615 0 00-.857-.135 1.566 1.566 0 01-1.213.223 7.331 7.331 0 01-.916-.42c-.462.431-1.036.22-1.576.162-.569-.061-1.127-.226-1.695-.31-.416-.061-.843-.044-1.26-.1-.323-.041-.637-.142-.959-.2a1.788 1.788 0 00-.395-.006 1.173 1.173 0 01-.815-.227c-.395-.3-.475-.284-.938.053-.294-.1-.262.1-.3.291-.022.112-.158.2-.236.292a2.368 2.368 0 01.163.462 7.411 7.411 0 01.168 1.723c-.043.409.207.834-.066 1.224a.185.185 0 00.025.159c.17.251.073.507.035.768a1.875 1.875 0 00.258 1.163c-.048.117-.16.257-.126.331a1.994 1.994 0 01.066 1.62 1.469 1.469 0 00-.016 1.133c.032.091-.065.228-.1.345.278.293.278.293.965.347l.139-.336.164.456.261-.16.045.4a.253.253 0 00.1.034c.191-.01.35-.26.584-.016.106.109.391-.057.458.276.033.166.29.062.446-.245.037 0 .1 0 .107.008.119.481.535.555.919.671.166.05.334.089.526.14l.249.418.616-.2c.026.364.523.412.474.875a.677.677 0 01.788-.107 3.172 3.172 0 011.362.855l.326-.346.161.324.449-.339.159.871c.5.077.939.515 1.532.382l.266.333.1-.058-.118-.311c.055 0 .113-.014.123 0 .084.137.273.2.216.438a.259.259 0 00.289.335c.051 0 .157.079.152.107-.069.415.237.37.478.4a1.309 1.309 0 01.817.491c.034.043.076.1.123.111.422.087.847.165 1.3.251-.069.441.379.614.67.83a2.294 2.294 0 01.814.823.685.685 0 00.4.25 5.158 5.158 0 00.679.115l.335 1.085c-.231.122-.407.362-.165.517a.823.823 0 01.342.863l.517-.226c.156.356-.279.3-.332.52a2.174 2.174 0 01-.338.563c.17.293.7.2.729.659a.687.687 0 01-.984.05l-.313.459a3.43 3.43 0 00-.971-.256c-.453.014-.234-.655-.728-.562 0 .132-.053.306.009.41.272.452.577.883.892 1.355-.177.265-.06.48.082.781a1.265 1.265 0 01-.026 1.449c-.285.337-.3.344-.546-.015a.95.95 0 00-.109-.118c-.365 0-.334.327-.476.572-.386-.364-.84.317-1.27-.169a1.166 1.166 0 00-.042-.364c-.094-.234-.3-.267-.515-.133-.3.19-.6.374-.917.54a.325.325 0 01-.271-.035q-.669-.432-1.32-.89c-.089-.062-.208-.161-.213-.248a.439.439 0 00-.513-.43 1.1 1.1 0 01-.833-.333c-.364-.321-.9-.444-1.084-.978a.309.309 0 00-.225-.151.97.97 0 01-.79-.613.83.83 0 00-.722-.495 5.482 5.482 0 01-.78-.214l.332-.435a5.59 5.59 0 00-.777.006 1.149 1.149 0 01-1.124-.574c-.034-.043-.091-.119-.114-.11-.384.131-.581-.236-.875-.315a9.741 9.741 0 01-1.505-.692 15.057 15.057 0 00-1.776-.589c-.145-.046-.3-.056-.443-.108-.332-.123-.658-.261-.969-.386-.2.222-.357.417-.538.58-.323.292-.355.364-.231.76.028.09.06.178.1.285-.251.228-.56.407-.525.824.007.083-.284.165-.314.279a2.732 2.732 0 01-.6.989c-.035.044-.08.109-.072.155.071.389-.261.639-.328.983l-.271-.14-.346.734c.1.216.212.5-.163.718-.086.051-.1.231-.142.352s-.059.288-.145.345c-.442.288-.521.78-.7 1.208a.934.934 0 01-.251.417 1.289 1.289 0 00-.479.875 1 1 0 01-.608.822 2.377 2.377 0 00-.763.468 3.045 3.045 0 00-.389.838c-.24.573-.5 1.093-1.234 1.194a.957.957 0 00-.588.473c-.259.486-.719.549-1.161.665a2.948 2.948 0 01-.736.1 1.689 1.689 0 00-1.193.526c-.234.222-.462.068-.729-.018l-.082.323a1.853 1.853 0 01-.307.025 3.163 3.163 0 00-.957-.063c-.3.078-.583.121-.88.17a3.623 3.623 0 01-.886.121c-.143-.01-.3.188-.476.309l-.372-.156a1.165 1.165 0 01-.881.192 8.9 8.9 0 00-1.671.047 2.988 2.988 0 01-1.587-.108 2.623 2.623 0 00-.9-.066c-.111-.007-.261.019-.325-.042-.271-.258-.608-.178-.921-.236a14.849 14.849 0 01-2.953-.749c-.193-.079-.395-.14-.589-.215a1.855 1.855 0 01-1.042-.688c-.151-.242-.355-.538-.748-.414a1.814 1.814 0 00-.838-.438 4.054 4.054 0 01-.439-.247c-.148-.073-.308-.123-.459-.188-.053-.022-.135-.054-.142-.094-.082-.43-.5-.439-.778-.6a4.972 4.972 0 01-1.126-.893c-.487-.506-1.034-.956-1.565-1.438.118-.509.118-.509-.42-.658a.63.63 0 01-.56-.7c-.01-.17 0-.341 0-.527l-.419.1c-.165-.631-.285-1.242-.489-1.823-.135-.386-.084-.853-.45-1.155-.044-.036-.034-.145-.038-.221 0-.057.034-.124.015-.171-.268-.674.116-1.341.014-2.022a1.392 1.392 0 01.527-1.108.709.709 0 00.26-.4 1.054 1.054 0 01.611-.793c.353-.2.893-.385.935-.955l.664-.135a.917.917 0 01.218-.963 3.1 3.1 0 00.265-.575c.155-.282.286-.581.7-.61.143-.011.262-.21.411-.288s.031-.375.3-.365a4.926 4.926 0 00.092-.563l.191.552a1.029 1.029 0 01.325-1.01c.069-.056.01-.268.01-.434.205.067.456.2.574-.1l.606.328.176-.325c.111.02.27.08.293.047.178-.257-.216-.257-.221-.441a2.058 2.058 0 00.375-.25 5.427 5.427 0 01.742-.479c.263-.168.585-.353.588-.766a.338.338 0 01.494-.3l-.054.316c.089.012.148.032.156.02.093-.149.18-.282.394-.285a.322.322 0 00.359-.222c.04-.12.5-.077.742.047.068.035.132.08.241.148l.354-.4-.325-.294.042-.092.967.194c.188-.335.188-.335-.055-.654l.532-.2-.013-.06.712.064.073.45h.122l.025-.506-.231.072a.817.817 0 011.038-.736 1.37 1.37 0 00.422-.083l.206.407c.171-.4.422-.311.79-.082-.067-.29-.108-.44-.136-.593-.037-.2-.025-.348.255-.282.257.06.416-.012.317-.289.627-.377 1.168.27 1.81.166l.054-.457c.322-.094.427.167.567.377.421-.161.877-.1 1.255-.35a.375.375 0 01.217-.041c.24.014.522.128.707.037a1.086 1.086 0 01.624-.144c.108.009.234-.206.381-.346l.584.459c.351-.163.756-.2 1-.533.143.05-.15.281.145.274.087 0 .177.148.3.257.139-.258.674.143.727-.413.052.055.117.157.143.147.365-.133.448.135.511.375a.635.635 0 00.6.55l-.226-.427a5.975 5.975 0 01.974-.066c.363.032.79-.109 1.06.289a.124.124 0 00.106.039c.506-.112.912.342 1.454.246a.926.926 0 00.055-.3 1.155 1.155 0 01.112-.787.455.455 0 00.049-.281 3.666 3.666 0 01.2-1.521.436.436 0 00-.02-.329.954.954 0 01-.1-.87c.063-.367-.112-.752.059-1.131.04-.089-.084-.246-.116-.375-.06-.241-.2-.514-.139-.721a5.162 5.162 0 00.021-1.311c.027-.43-.2-.578-.634-.485q-.616.13-1.231.266a.643.643 0 01-.768-.326c-.38.145-.752.289-1.127.426-.108.039-.249.112-.333.075-.472-.209-.882.041-1.322.119a13.513 13.513 0 01-1.6.12c-.473.027-.946.044-1.431.066l-.3-.426c-.087.025-.179.023-.225.069a1.984 1.984 0 01-1.556.541 3.528 3.528 0 01-.632-.063 1.147 1.147 0 01-.562-.219c-.208-.215-.433-.208-.778-.235l.3.253a1.727 1.727 0 01-1.176-.083 1.461 1.461 0 00-1.389-.116 1.3 1.3 0 01-.611.075 1.327 1.327 0 01-.324-.116c-.639-.189-.655-.207-.707-.856a4.877 4.877 0 01-.541-.306c-.1-.073-.224-.206-.224-.311a3.206 3.206 0 01.19-1.655 1.694 1.694 0 01.271-.373c.365-.361.758-.7 1.111-1.07a.947.947 0 011.19-.345c-.249-.423-1.036-.319-.916-1 .245-.346.571-.179.9-.168.031-.091.058-.177.09-.259a.324.324 0 01.417-.214.256.256 0 01.226.336c-.008.047.042.1.065.156a1.328 1.328 0 00-.426 1.33c.589-.31.669-.5.477-1.062a2.51 2.51 0 01-.063-.281l.351-.043c-.035-.307-.1-.628.4-.656a4.434 4.434 0 01.043.6c-.021.362.085.545.434.584a3 3 0 001.733-.253l.074.716c.428-.358.665-.9 1.292-.715-.054-.365.169-.707-.162-1.031-.156.127-.36.223-.451.383a1.732 1.732 0 01-.768.665l-.777-.414-.153-.792c.728.061 1.357-.427 2.092-.366l.022-.329c.383.071.677.539 1.1.157l.472.337c.154-.089.221-.409.5-.184.142.117.453-.038.471.311 0 .06.25.166.362.144.14-.028.229-.148.177-.358-.037-.147.074-.331.126-.526a1.167 1.167 0 01.577.8l1.092-1.288c.1.515.354.523.606.457.5-.13.981-.294 1.475-.428.1-.027.223.038.329.02.237-.04.468-.117.7-.156a2.2 2.2 0 01.391 0c.188.269-.337.412.038.689l.307-.763a7.539 7.539 0 01.578.781c.13.232-.083.289-.343.357l.545.108a3.752 3.752 0 00-.073-1.62l.386-.121.046.085-.226.267.924-.048c.1-.426.2-.893.3-1.359.009-.037.055-.084.043-.1-.365-.613.155-1.219.02-1.841-.033-.156.208-.371.362-.623-.163-.474-.386-1.045.327-1.484-.636-.371-.231-.88-.218-1.368l.414-.252.488.44.259-.447c-.106-.075-.2-.19-.256-.173-.468.139-.514-.338-.742-.523-.156-.127-.089-.4.112-.543a2.588 2.588 0 01.291-.163c-.529-.771-.1-1.425.188-2.12a1.354 1.354 0 01.388.007.477.477 0 00.525-.136.411.411 0 01.57-.093l.145-.415.474.318-.085.655.856-.184.234.975a3.143 3.143 0 00-1.368 1.495c.413.471.413.471.73.559-.121-.46-.1-.873.416-1.125l.618.161-.191 1.27c-.192.29-.642.054-.718.453zm-12.826 38.363l-.063-.355.734.144.113-.115-.436-.093c.435-.489 1 .047 1.314-.464l-.4-.148c.183-.376.5.058.659-.165l.128-.454a.283.283 0 01.145.244 2.481 2.481 0 01-.034.295c.411-.222.6-.689 1.118-.536-.042-.094-.048-.139-.074-.16-.579-.469-.614-.85-.125-1.382.1-.112.285-.234.281-.347-.022-.708.708-1.019.834-1.676.075-.392.478-.719.724-1.081a1.331 1.331 0 00.1-.293c-.675-.179-1.32-.351-1.966-.519-.034-.009-.075.012-.114.013-.772.005-1.543.006-2.314.016a4.1 4.1 0 00-.877.054c-.44.1-.858.3-1.3.4a5.5 5.5 0 01-1.091.122 3.47 3.47 0 00-2.046.549.432.432 0 01-.271.079.908.908 0 00-.788.417 3.745 3.745 0 01-1.611 1.076 2.008 2.008 0 00-.384.24c-.153.1-.3.217-.455.315-.46.29-.928.565-1.38.867a.7.7 0 00-.205.33 5.3 5.3 0 00-.148.513c.067.112.332-.146.292.195-.028.233.171.165.309.2l-.09-.508.132-.03a3.062 3.062 0 00.1.336 3.534 3.534 0 00.188.342l.068-.319.067-.007.128.51.555.035-.121.406.754.544.522-.351.12.446.083-.023v-.343c.194.025.358.043.521.069.08.013.214.023.226.064.091.308.306.113.5.116a3.883 3.883 0 00.058.393c.009.037.078.059.154.112l.106-.413c.385.1.38.1.559.3.242.279.429.65.91.554.047-.009.119.1.164.146a3.743 3.743 0 00.582-.573c.083-.125.1-.314.283-.289a.98.98 0 01.437.193 1.5 1.5 0 00.708.279c.309-.062.153-.356.261-.519.016-.024.062-.029.075-.034l.779.719c.135-.229.268-.383.509-.222a1.888 1.888 0 00.128-.154zm.2-29.358c.265-.077.562.247.8-.071-.306-.403-.306-.403-.793.071zm31.662 25.169c.341-.482.329-.564-.058-.686zm-10.434-24.787c-.274.029-.438.082-.431.324 0 .049.1.133.15.136.282.012.267-.189.28-.464zm-7.375-4.567c-.2-.272-.423-.234-.684-.221.157.375.383.335.684.217zm6.988 3.953l.052.113.435-.192-.063-.132zm11.55 28.9l.043-.1-.3-.074-.025.1zm-58.943-27.105a2.57 2.57 0 01.2-.377.225.225 0 01.415.033c.145.4.626.773.014 1.325.492-.084.82-.106.988-.488a.443.443 0 01.506-.263 2.209 2.209 0 00.761-.267l.15.994h.766l.191.66.389-.543c.193.032.443.329.636-.041l.561.372.457-.217c0 .083.01.163-.012.174-.186.1-.377.185-.632.3v.444c-.251.267-.518.159-.781.1s-.545-.084-.7.213c-.087.164-.144.344-.235.566.445-.029.556.209.42.6.28-.093.5-.181.728-.231.065-.015.154.08.293.159-.471.341-1.023.619-.564 1.315-.606.153-.673.754-1.027 1.109a.7.7 0 00-.283.717.328.328 0 01-.155.274 2.328 2.328 0 00-.793.739 1.506 1.506 0 01-.392.224 1.238 1.238 0 010 .264c-.052.286-.107.561-.437.692a.98.98 0 00-.386.333c-.116.156-.1.319.161.427-.363.385-.736.741-1.055 1.14-.109.136-.08.382-.119.6l-.5.073c-.03.047-.074.092-.065.108a1.08 1.08 0 01-.073.854 17.577 17.577 0 01-.889 2.2c-.118.258-.319.536-.688.221l-.23.513c.2.2.309.385.063.6a.572.572 0 00-.243.6c.025.107-.068.25-.129.366-.151.284-.314.562-.477.849l.269.1c-.228.2-.438.4-.664.585a1.436 1.436 0 01-.294.118c-.135.063-.267.137-.385.2l.373.632c-.551.3-.447.79-.343 1.3h.477c-.153.124-.213.182-.282.227-.31.2-.311.2-.027.531h-.291l-.282.562.477.271-.308.371.848.5c.114.261-.052.473-.221.682a1.767 1.767 0 00-.263.629c.152.27.344-.007.4.006l.447.586a2.9 2.9 0 01-.455-.058c-.341-.106-.591-.408-.977-.438-.421-.032-.655.162-.677.69l.265-.347c.477-.052.737.618 1.347.354l-.2.521-.85-.353-.494.771c-.2-.047-.525-.232-.667-.138-.365.242-.891.221-1.128.535a3.23 3.23 0 01-.688.552.548.548 0 00-.231.6 2.118 2.118 0 01.052.792.308.308 0 00.239.392c.562.021.711.543 1.106.8-.15.231-.253.293-.427.047a1.209 1.209 0 00-1.07-.449l.459 1.75c-.219.327-.539.207-.867.252l-.349.764-.78.179-.031.606c.209.082.259-.067.323-.218.1-.247.278-.375.553-.256s.245.342.18.587c-.222.84-.216.842-1.1.818a1.218 1.218 0 01-.9.7.568.568 0 00-.347.192c-.212.37-.549.393-1 .424l.339-.367c-.364-.323-1.055-.49-1.316-.211-.338.361-.591.225-.949.015l.363-.25c-.1-.424-.447-.548-.8-.657-.276-.086-.562-.137-.839-.22-.2-.06-.358-.168-.266-.384l-.768-.295c-.2-.076-.407-.236-.591-.211a.694.694 0 01-.682-.291c-.221-.295-.594-.207-.875-.419l.213-.348c-.11-.15-.226-.3-.334-.458-.1-.14-.256-.284-.26-.429 0-.129.215-.25.256-.4a2.342 2.342 0 00.121-.834c-.034-.347-.352-.272-.611-.243l-.13-.521-.518-.243c.261-.142.664.081.655-.355l-.725-.169c.029-.356.04-.675.092-.987.013-.082.143-.176.237-.2a1.348 1.348 0 01.375-.009l.426-.749.445.533a1.687 1.687 0 01.106-.224c.093-.136.179-.36.3-.379.264-.043.313.218.38.417 0 .014.029.022.048.037.209-.013.223-.167.231-.327a1.973 1.973 0 01.21-1.124.228.228 0 00.026-.168c-.166-.6.272-1.033.423-1.544a.246.246 0 01.088-.144c.6-.311.521-.859.512-1.394 0-.308.036-.616.058-.959l.366.114c.023-.062.072-.124.058-.164a4.219 4.219 0 01-.177-.417c-.025-.109-.024-.3.038-.339a1.5 1.5 0 00.584-1.042 6.429 6.429 0 01.313-.8 7.973 7.973 0 011.038-2.234.482.482 0 00.105-.245c.039-.382.149-.645.616-.678.315-.022.276-.364.335-.675l.734.438.811-1.42-.545-.167c.089-.435.089-.435.551-.673a2.094 2.094 0 00-.037-.823c-.055-.185.194-.53.394-.7a1.982 1.982 0 00.444-.5 2.428 2.428 0 01.508-.452l-.085-.387c.364-.072.455-.42.493-.678a1.661 1.661 0 01.4-.82c.2-.245.457-.438.648-.686a2.194 2.194 0 00.2-.594 2.115 2.115 0 00.679-.869c.19-.347.268-.824.806-.859.039 0 .1-.077.1-.12.027-.479.525-.646.653-1.1.314.272-.107.442.026.689.073-.038.206-.062.234-.13.063-.151.1-.208.287-.146a.361.361 0 00.323-.146.755.755 0 01.7-.464c.042-.215-.026-.31-.206-.251-.135.044-.273.113-.335-.06a.389.389 0 01.058-.312c.218-.291.459-.565.694-.848l.366.177.28-.48.3.5c.053-.192.076-.292.109-.388s.077-.3.125-.3c.5-.035.667-.608 1.2-.681.549-.076.535-.179 1.093.137.151-.343.616-.536.431-1.031zm-5.68 23.676l-.007.123.273.2.644-.616c-.493-.206-.589.302-.912.294zm-9.471 9.109c.283.177.393.108.512-.167zm9.453-7.61c-.132-.062-.213-.134-.264-.116s-.114.112-.145.184c-.007.016.09.106.143.109s.101-.063.264-.175zm82.754-30.453l-.125.224c-.257 0-.5-.016-.74 0-.423.033-.422.041-.509-.4a1.71 1.71 0 00-.063-.189l-.846.249c-.117-.151-.194-.352-.33-.405-.339-.132-.506.169-.74.37l.281.4-.3-.049c-.144.149-.128.439-.466.436-.093 0-.23.325-.274.516-.073.315.34.177.433.425l-.383.409.612-.143c.037.4.088.752.1 1.108a.584.584 0 01-.38.6c-.208.08-.38.17-.426.42-.01.053-.142.083-.218.124-.03-.1-.116-.228-.082-.28.175-.26.225-.633.611-.719.039-.009.062-.085.089-.126-.028-.042-.056-.1-.067-.1-.466.131-.772.007-.862-.509-.014-.078-.112-.141-.271-.175a1.38 1.38 0 00.085.316c.234.429.191.618-.2.832-.535.289-.78.233-1.008-.192a4.054 4.054 0 00-.455-.548c-.093.491-.325.8-.082 1.194.179.288.123.393-.179.545a1.6 1.6 0 01-.324.125.472.472 0 01-.52-.162.382.382 0 01-.013-.481c.056-.1.1-.205.188-.4-.408.165-.847-.176-1.13.289l.324.951.8.2c-.05.43-.147.5-.508.406-.332-.09-.666-.172-1.007-.259-.112-.307.216-.237.323-.357-.251-.549-.248-.51-.789-.482a5.721 5.721 0 01-1.1-.16l-.283.645-.294-.525-.54.407-.214-.51-.373.021-.3-.928c-.6.039-.859-.492-1.3-.685.113-.391-.3-.456-.433-.7-.018-.034-.035-.083-.064-.095-.855-.345-.829-1.181-1.086-1.877a4.549 4.549 0 01-.152-1.973h.512c-.067-.1-.087-.159-.128-.178-.29-.136-.291-.134-.323-.465l.725-.377-.5-.447c.223-.182.613-.173.582-.583-.321-.053-.693-.041-.846-.405-.063-.5.527-.832.323-1.306l.481-.639.48.733c.316-.178.255-.322.063-.461-.255-.185-.2-.389-.048-.6a.328.328 0 01.451-.133c.155.072.315.133.422.177a5.708 5.708 0 00.586-.822 3.838 3.838 0 00.219-.874 2.536 2.536 0 01.043-.379.938.938 0 000-.828.711.711 0 01-.047-.667 1.046 1.046 0 00-.09-1c-.068-.126-.146-.324-.093-.422a1.83 1.83 0 00-.05-1.395.667.667 0 01.023-.482 1.3 1.3 0 000-.664 1.3 1.3 0 01.005-.839.848.848 0 00-.069-.656.748.748 0 01-.027-.691c.376-.135.346.241.517.365.209.01.357-.115.317-.3a.553.553 0 00-.323-.35c-.216-.065-.5 0-.545-.312-.05-.335.279-.35.46-.5a1.094 1.094 0 011.008-.239.753.753 0 00.97-.492 6.128 6.128 0 01.429-.762 1.357 1.357 0 00.481.024 1.732 1.732 0 00.463-.312l.345.173-.424.853c.224.237.579.217.9.274a1.933 1.933 0 00.264.018c.1 0 .2 0 .3.006-.022-.1-.046-.2-.067-.306-.008-.037-.012-.075-.024-.145.126-.219.563-.308.394-.751.5.421 1.2.582 1.468 1.254l-.355.6-.2-.536-.117.11-.2.515c.133.183.309.089.5.045.372-.084.54.1.381.434a.588.588 0 00.137.818c.066.053.151.174.131.228-.111.3.278.518.148.777-.15.3.235.539.041.817.289.356.2.784.239 1.192.044.524.294 1.008.293 1.55 0 .262.245.359.547.332l-.273.644.437-.233.164.587.37-.2a5.39 5.39 0 00.818.4c.373.111.448.161.5.592a.985.985 0 00.081.2l.463-.059c.122.378-.2.358-.323.447l1.14.2-.593.864c-.043.441.474.207.384.57.22.027.44.057.66.08.368.04.476.179.409.536-.09.483-.06.526.433.727.073.03.18.14.168.186-.038.144-.2.289-.176.406.039.2-.038.236-.155.359s-.108.385-.163.628h.443l.014.1-.615.124.023-.092-.691-.327c-.26.334.08.4.176.625l-.92.855a3.409 3.409 0 01.517.136 1.535 1.535 0 01.3.232l-.294.291.181.266c.195.02.311-.349.579-.078l-.322.469c.084.207.152.477.508.549.116.023.234.192.293.32.12.259.2.536.3.805a.273.273 0 01-.415.022c-.055-.209-.107-.42-.169-.668-.309.459-.263.591.166.677zm-7.079-16.3l.162.655.625-.77c-.213-.223-.218-.23-.375-.143s-.286.185-.429.279c-.034-.069-.05-.163-.1-.2a5.354 5.354 0 00-.463-.277l-.175.245c-.24.034-.49-.356-.723.062.111.1.092.293.388.213a5.183 5.183 0 011.09-.061zm4.965 15.024a2.825 2.825 0 01-1.75-.223l-.248.208c-.181-.2-.487-.337-.34-.708.017-.043-.161-.163-.276-.275l-.05.867.272.165c-.169.253-.282.25-.348.07s-.213-.268-.35-.18c-.083.053-.073.255-.1.391a2.489 2.489 0 00-.017.265c-.27-.29-.406-.05-.567.066-.018.013-.019.051-.012.029l.323.248.229-.208.118.48c.55-.024.706.434.868.784.183-.215.359-.406.516-.613.088-.116.231-.292.2-.381-.128-.329.156-.481.206-.713.94.012 1.048-.006 1.326-.268zm-4.846 3.3l.277.325.9-.279c-.317-.423-.596-.449-1.177-.043zm4.782-3.725c.188.224.355.434.54.627.027.028.2-.021.2-.035 0-.2.336-.31.134-.566-.067-.084-.057-.23-.074-.311zm.275-2.463c-.224.111-.462.187-.4.44.032.136.234.233.354.342.317-.291.137-.508.049-.779zm-5.957-8.967l.122.061.325-.464-.447-.054zm7.233 12.626c.084-.521.084-.521-.5-.46zm-10.8-16.2c-.287-.12-.41-.069-.476.1-.015.037.028.1.059.195zm4.367-1.192c-.083-.281-.193-.332-.36-.247-.025.013-.032.06-.061.115zm4.166 15.927l-.148-.042-.1.429.091.026zm-.5-.616c.187-.281.056-.367-.08-.444-.018-.01-.062.025-.153.065zm-1.4 3.856l-.171.561c.314-.177.339-.323.165-.561zm-1.675-.839l-.156.057.142.288.113-.05zm-7.631-4.632l.013-.1-.3-.023-.01.078zm11.26-1.518l-.09-.111-.232.271.06.053zM72.182 36.847a1.187 1.187 0 01.146.141c-.277.4.2.432.311.639.016.029.134.036.134.037-.125.55.273.477.592.467a.794.794 0 00.886.9l.03.386c.012.149.027.3.047.521l.623-.126a4.062 4.062 0 00-.146.621.609.609 0 00.14.329c.062.094.185.153.23.251a.928.928 0 00.867.529l.649 1.113.1-.034-.131.744a1.813 1.813 0 01.531.375 1.1 1.1 0 00.585.424c.134.047.409.1.408.453 0 .211.332.422.548.672l-.09.4.619.7c-.405.107-.726.215-.855.661.118.079.25.172.388.255.264.159.28.283.051.457-.313.238-.387.238-.685-.037-.132-.123-.246-.263-.383-.411a4.251 4.251 0 00-.522.066.572.572 0 00-.5.4c-.132.417-.3.414-.637.018l-.526.233.811.926a2.288 2.288 0 00-.071.761 2.856 2.856 0 00.444.773c-.4.134-.39.881-1.039.612-.288.472-.062.749.408.982-.188.115-.292.234-.4.233a1.665 1.665 0 00-1.216.276c-.236-.179-.5-.418-.838-.077a.891.891 0 00-.512-.7 1.023 1.023 0 01-1.352-.332l.36-.265c-.07-.063-.1-.119-.15-.131a.467.467 0 00-.23-.009.576.576 0 01-.751-.362.734.734 0 00-.175-.228c-.188-.174-.137-.34.01-.517a1.369 1.369 0 01-.1-.127c-.449-.708-1.232-1.126-1.583-1.938a14.027 14.027 0 00-1.018-1.68c-.061-.1-.1-.208-.156-.311-.166-.321-.328-.645-.5-.962-.272-.5-.549-.994-.834-1.486a2.455 2.455 0 00-.258-.3 1.4 1.4 0 01-.313-.409 4.989 4.989 0 00-.769-1.183c-.46-.729-.868-1.488-1.3-2.235a1.434 1.434 0 00-.187-.289 7.686 7.686 0 01-1.074-1.541 4.04 4.04 0 00-.815-.962c-.326-.287-.647-.518-.569-1.035.032-.211-.123-.374-.4-.384a1.294 1.294 0 01-1.208-1.069.592.592 0 00-.187-.336c-.338-.248-.7-.469-1.046-.7a.96.96 0 01-.2-.117q-.752-.844-1.495-1.7c-.049-.056-.078-.164-.131-.175-.613-.127-.523-.561-.45-.992a.418.418 0 000-.115c0-.017-.02-.033-.044-.073l-.3.063c-.1-.529-.168-1.057-.3-1.569-.186-.719.181-1.29.92-1.246a7.067 7.067 0 011.356.357.724.724 0 01.974-.277l.392-.686.307.41a.794.794 0 00.6-.21c.305-.25.4-.218.72.106-.016.049-.017.118-.053.153-.162.161-.293.33-.136.558a.717.717 0 00.79.1c.313-.31.76-.261 1.1-.529.238.47.533.746 1.037.6.121.28.154.549.566.555.287 0 .356.537.118.752a1.435 1.435 0 01-.315.159c.3.391.694.3 1.065.281.084 0 .231-.05.242-.026.216.454.505.131.782.1a5.551 5.551 0 00.28.752.567.567 0 00.671.37l.363 1.189c.205.032.534-.053.805.2.11.1.24.128.252.324.007.107.133.227.234.3a1.345 1.345 0 01.57.63c.065.192.386.15.472.423.055.175.3.291.482.457l-.163.479c.037.056.044.083.059.087.67.2.91.81 1.251 1.324a2.034 2.034 0 00.251.259l.538.555zm-15.6-7.7l.007-.135c-.187-.11-.35-.073-.585.18zm3.321-1.545l-.135-.078-.113.341.1.039zM77.258 45.68l-.123-.04-.074.251a.963.963 0 00.146.026 1.874 1.874 0 00.052-.237zm-9.642-32.524l-.9-1.066c-.057-.3.527-.278.295-.629.9-.086 1.362.389 1.545 1.243.244-.571.249-1.209.76-1.662l.8.508c-.4.331.01.712-.056 1.1.485-.052.092-.431.325-.6.3.178.719.2.885.625l.257-.145c.152.159.289.319.445.459.122.111.315.156.26.393a.219.219 0 00.1.187c.749.249.649 1.038.983 1.548.141.215.159.5.406.668a1.263 1.263 0 01.286.424c.275.476.544.955.815 1.433a3.172 3.172 0 00-.136.443c-.018.111-.016.311.034.331.234.094.406.208.387.489.413.156.3.42.128.663l.73.559-.482.149v.114l.675.144c.159.422.316.848.48 1.271a1.6 1.6 0 00.771 1.023c-.3.289-.778-.383-.936.308a.729.729 0 01.327.977.179.179 0 00.033.159c.51.49.213.975 0 1.463a.157.157 0 000 .054c.235.127.235.127.707.022-.039.654-.768.6-.976 1.078l-.324-.81c-.174-.027-.388-.181-.47.218-.023.114-.3.178-.518.3-.188.348.336.344.416.588l-.395.762c.218.005.429-.076.465.222.01.083.187.146.322.242-.115.084-.214.213-.327.228-.422.055-.566.347-.673.695a.712.712 0 01-.584.495c-.464.112-.917.315-1.409-.03l.215-.542c-.461-.312-1-.089-1.463-.307l-.061.116.266.323-.2.267-.4-.111c-.225.112-.375.256-.508.241-.449-.052-.216-.457-.316-.71l-.579-.311-.223.334c-.425-.511-.806-1-1.217-1.458s-.432-.459-.1-.965c-.246-.072-.446-.174-.425-.494.007-.107-.177-.222-.262-.342a1.543 1.543 0 01-.326-.513c-.049-.25-.221-.459-.261-.662-.145-.748-.748-1.341-.692-2.144a.678.678 0 00-.313-.746.513.513 0 01-.209-.273 8.005 8.005 0 01-.492-1.648 7.1 7.1 0 00-.847-2.416.975.975 0 01-.162-.477.854.854 0 00-.174-.741.418.418 0 01.083-.4.72.72 0 00.324-.869c.3-.253.42.108.657.143.236-.225.049-.448-.013-.693a1.388 1.388 0 01-.352.214 1.907 1.907 0 01-.456.009.462.462 0 01.185-.636 1.009 1.009 0 00.516-.87c0-.065.053-.132.106-.253.115.131.178.262.281.309.284.131.335.3.254.6-.044.164.094.376.162.6.31-.132.591-.235.768.057.553-.279 1.003-.596.783-1.275zm8.773 12.367l.4-.18-.057-.457c-.375.137-.346.392-.344.635-.22.062-.542-.141-.727.321zm-1.327.066l.226-.865-.616.58zm-6.914-12.492l.142.051.084-.287-.1-.037zm119.59-3.499c-.391-.155-.479-.4-.3-.717a.948.948 0 00-.035-.926 1.565 1.565 0 01-.19-1.373 2.415 2.415 0 01.058-1.581 4.071 4.071 0 00-.069-1.035c0-.377.023-.692.52-.785-.09-.2-.146-.361-.228-.507-.253-.447-.169-.664.326-.859a3.013 3.013 0 00.4-.239l.179.116.77-.561c.032-.258.032-.258.468-.323l-.118.473a1.865 1.865 0 01.745-.029c.235.1.423.258.7.118a2.242 2.242 0 01.158-1.358c.586-.039.628 0 .557.576l.465-.287-.04.582c.335-.186.593 0 .8.242s.151.422-.16.8c.2.191.2.191.579.212l-.222.45c.017.023.031.064.059.079.447.23.563.437.394.958a1.429 1.429 0 00.014.893c.061.216.24.459.012.7-.027.029.027.131.04.2.042.221.082.442.119.643l-.408.46a.526.526 0 01.43.517c.064.459.195.91.323 1.48a1.05 1.05 0 01-.268.318c-.336.212-.117.365 0 .577a.849.849 0 000 .891c-.335.046-.447-.191-.523-.417a5.215 5.215 0 01-.136-.718l-.62.2-.206-.406.593-.079-.076-.616c-.173.211-.265.429-.4.455-.147.029-.328-.115-.539-.2l-.307.476c.254.284.3.724.785.729a.473.473 0 01.077.332 1.5 1.5 0 01-.276.375c.214.466.054.69-.625.727l-.089.353.981.829c-.241.406-.371.05-.54 0-.311.291.073.3.229.416-.153.346-.28.68-.453.99a.326.326 0 01-.571-.184.875.875 0 01.149-.481c.111-.159.137-.263-.027-.382s-.273-.083-.371.092c-.029.052-.133.061-.276.12l.285.825c-.235.07-.439.231-.593-.156-.077-.194-.3-.331-.456-.5-.368.766-.763.825-1.69.241l.39-.259a2.868 2.868 0 01-.189-.629 3.136 3.136 0 01.131-.7l-.7.725c-.45-.332-.445-.421-.016-.767a.156.156 0 00-.008-.057 2.69 2.69 0 01-.325-1.365.992.992 0 00-.07-.262zm4.247-4.463c.119-.1.178-.132.2-.178.174-.378.386-.662.876-.471.047.019.155-.122.279-.225l-.908-.3a.966.966 0 00-.447 1.174zm.139 3.057l-.078-.13-.157-.088a.673.673 0 00-.087.186c0 .026.073.092.113.091a.771.771 0 00.209-.058zm-105.6 11.526c.327.054.539-.376.811-.021l-.345.441.553.194.015.138a11.051 11.051 0 01-1.118.454c-.309.09-.544-.141-.641-.542-.607.282-.637.334-.447.8l-.468.364.607.31a1.18 1.18 0 01-.044.98c-.1.17 0 .447 0 .675a2.6 2.6 0 01.013.573.432.432 0 01-.25.286c-.077.023-.208-.107-.3-.184-.038-.031-.043-.1-.116-.3-.3.847-.76 1.067-1.45.871-.206-.058-.471.085-.628-.164-.057-.09-.126-.218-.1-.3a.315.315 0 01.255-.169c.276.038.446-.062.592-.406l-.71.144c-.145-.456-.145-.457-.655-.491a2.306 2.306 0 00-.288 0c-.433 0-.54-.08-.637-.487a1.983 1.983 0 00-.069-.278 2.9 2.9 0 00-.185-.314l.606-.229v-.36a1.471 1.471 0 01-.334 0 1.024 1.024 0 01-.7-.868c-.01-.163-.088-.352-.031-.485.225-.531-.179-1-.1-1.552.373-.057.372-.345.341-.649a.942.942 0 010-.116c0-.285-.091-.628.035-.839s.475-.264.72-.4a.874.874 0 00.171-.18 4.375 4.375 0 01-.375-.3.948.948 0 01-.4-.949 2.7 2.7 0 00-.072-.795.7.7 0 01.005-.283c.157-.462.327-.921.515-1.442.008.054.01.033 0 .018-.137-.249-.528-.417-.281-.792a1.173 1.173 0 011.306-.468c.582.2.612.24.705 1l-.488-.088a1.834 1.834 0 00.055 1.277l.457-.034c.051.1.1.177.136.263.25.561.511.589.887.091.078-.1.145-.212.215-.315.452.212.083.463.057.69.48.27.375-.326.693-.4-.049.5.471.789.451 1.347-.622.157-1.4.034-1.739.8.14.253.287.5.413.754.183.371.256.405.577.171a.846.846 0 01.736-.186c-.117.367-.462.7-.167 1.111.283.026.5-.081.43-.374-.084-.346.208-.694-.072-1.062-.169.019-.442.163-.51-.246l.691-.269a1.834 1.834 0 01.2.641c-.04.331.39.243.378.5-.01.214-.106.453-.04.635a6.7 6.7 0 00.51.945.6.6 0 01-.619-.031c.217.26.463.518.243.895zm-2.072-1.677a3.615 3.615 0 00-.216.345.728.728 0 00.378.906c.453.2.565.152.76-.33.013-.032.008-.072.007-.06-.383-.222-.36-.833-.929-.861zm-.5-3.48c-.27.29-.27.29.069.384zm1.719 4.921l-.076-.116-.279.17.064.106z"/><path d="M83.992 13.023c-.328-.4-.667-.726-.616-1.245.02-.193.027-.192.4-.359l.418.552c-.038.218-.259.484.151.619zm9.304 35.495c.348.142.593-.142.9-.248l.058.543a.813.813 0 01-.878.023c-.18-.106-.121-.2-.07-.329zm47.211-21.895c-.232-.385-.109-.606.407-.8.203.413.203.413-.407.8zM77.482 61.067c-.172.117-.339.243-.519.346a1.058 1.058 0 01-.289.071l-.075-.1a6.829 6.829 0 01.516-.553c.083-.073.231-.073.35-.106v.366zM25.642 93.02a.341.341 0 01-.583.028c-.159-.168-.045-.386.321-.653zm50.252-62.939l-.676.084.282-.263-.3-.595c.398-.179.398-.179.694.774zm61.201-3.825c-.355.07-.551-.008-.577-.229s.2-.4.585-.488c.13.244-.3.49-.006.732a.136.136 0 00-.002-.015zM213.1 11.657l.323.409-.347.254c.062-.432-.456-.666-.119-1.072.274.082.291.227.143.409zM24.461 94.538c-.246-.4-.24-.589.03-.763a.367.367 0 01.3-.005c.04.016.061.184.026.25a5.225 5.225 0 01-.356.518zm-1.269.329c-.307-.2-.326-.4-.144-.561.1-.092.293-.085.445-.122a1.991 1.991 0 01-.076.4 1.306 1.306 0 01-.225.283zm190.91-82.183l.414.626-.4.23a1.289 1.289 0 00-.145-.308c-.182-.201-.079-.337.131-.548zm-14.081.565l.555-.532.241.534-.7.166zm-119.77.31l.136-.77.595.474zM66.22 78.934l.229.524-.569.332c-.072-.381.244-.511.34-.856zm65.614-25.328l.255-.692c.088.263.346.415.172.68-.096.14-.252.161-.427.012zm58.33-39.856a.488.488 0 01-.209.679c-.11-.326-.079-.548.209-.679zm59.399 70.701c-.2.417-.4.2-.61.089.218-.329.218-.329.61-.089zM120.508 59.08c.271.3.271.3-.1.588a.45.45 0 01.1-.588zM26.602 92.506c.265.393-.151.5-.156.737-.12-.312-.12-.312.156-.737zm34.705-65.77c-.1-.1-.2-.169-.193-.219a.859.859 0 01.141-.267c.079.063.2.115.222.192s-.088.157-.17.294zm76.486-1.847l-.149.544c-.299-.289-.299-.289.149-.544zm73.283-14.392l-.05-.609c.41.17.41.17.05.609zm-.677-.315l-.052-.576c.18.135.344.2.341.268 0 .116-.107.229-.169.342zM31.363 88.072l-.2-.427c.393.019.393.019.2.427zm-2.24-.005l-.171-.345c.065-.027.138-.087.2-.074.24.054.123.22.127.348zM192.24 29.652c-.032-.326.179-.39.392-.546-.043.273-.041.495-.392.546zm-15.032-13.564l-.563.19c.146-.35.32-.363.515-.329zm-146.83 72.2l-.239-.5c.365-.029.365-.029.239.5zm47.967-27.957c-.064-.134-.131-.223-.3-.115-.057.036-.17-.016-.386-.045.622-.18.631-.177.682.163zm3.718-49.383l.492-.188.027.357zm52.299 40.53l.364-.341c-.012.332-.012.332-.364.341zm-98.634 36.51c-.067.271-.332.147-.528.325.054-.5.344-.307.544-.31zm-9.957 1.422l.2.4c-.144-.034-.224-.03-.269-.067-.123-.1-.117-.108.069-.333zm-.842-51.884l.654-.215.029.137a.572.572 0 01-.687.075zm10.817 50.478l-.116-.235.345-.153a.467.467 0 01.062.1c.064.28-.163.227-.307.268zm171.748 15.023l.488.169c-.266.188-.383 0-.529-.026zm34.983-23.322h.416l-.312.382-.086-.4zM87.103 21.462c-.265.11-.379.061-.4-.133 0-.037.055-.083.085-.125zm-25.126 5.171l.149.361-.346-.083.093-.29zm186.185 58.183c.331-.09.319.146.428.367-.281-.033-.414-.112-.428-.367zm-71.894-69.09l.217-.145.088.05-.1.336h-.1l-.093-.26zM33.695 87.863c.33.162.311.288.1.49zm87.301-40.79l-.132-.425c.278.176.278.176.132.425zM36.992 86.867l-.2.371c-.068-.072-.154-.121-.156-.173-.008-.22.089-.317.356-.198zM195.409 70.9l-.079-.347c.249.084.249.084.079.347zM72.187 36.854l-.177-.549c.363.126.22.342.17.538zm158.207 25.751l.162.31c-.276.004-.283-.121-.162-.31zm-22.282 35.109l-.381.106-.035-.124.4-.1zM15.616 42.595c-.042.048-.07.107-.109.115s-.086-.036-.129-.058l.094-.17zm171.531 24.832l-.619.037c.172-.14.251-.238.283-.224a2.066 2.066 0 01.32.205zm6.234 1.223l.124-.3.073.026-.095.323zm18.899.449l.152.276a.709.709 0 01-.134.057 2.852 2.852 0 01-.148-.263zm-34.287.26l.526-.037c-.178.229-.296.249-.526.037zm-106 .737l-.042-.286a.8.8 0 01.143-.011 2.676 2.676 0 01.046.284zM59.046 56.962l-.1-.3.093-.034.117.3zM203.475 1.618c.083.042.167.082.247.13.008 0-.019.064-.03.1l-.269-.089zM70.593 72.26l.434.029c-.184.226-.293.245-.434-.029zm-25.472.68h-.408c.1-.14.153-.28.2-.278.166.005.284.09.192.29zm23.275 3.318c-.191.119-.25.185-.3.181s-.136-.108-.127-.126a.3.3 0 01.158-.156c.055-.011.132.047.269.101zm86.841-51.475c.238-.139.359-.1.309.2zm-21.535 27.744c-.318.132-.4.032-.362-.306zm130.964 26.791l.021.309-.094.016-.071-.3zm-130.381-51.92l.252-.107c.013.033.044.092.037.1a2.509 2.509 0 01-.216.134zm1.136-.906l-.036.461c-.265-.138-.227-.255.036-.461zm96.536 35.74c-.079.05-.136.105-.157.094a.773.773 0 01-.148-.14c.036-.033.085-.1.107-.092a.931.931 0 01.198.138zm13.791 22.883a.708.708 0 01-.173.136c-.025.009-.078-.057-.117-.09a.582.582 0 01.129-.143c.021-.011.083.049.161.097zM37.522 86.128c.073-.038.136-.1.19-.089.037.005.061.1.091.158a.824.824 0 01-.187.081c-.018.003-.051-.079-.094-.15zm204.611-25.955l.212-.241.092.069-.2.273zm-80.721-22.552l.376.068-.376.229zm50.327-16.194a.746.746 0 01-.207.092c-.033 0-.071-.058-.106-.09a.609.609 0 01.154-.119c.024-.009.075.053.159.117zm43.687 52.41l.259.206-.06.1-.306-.165zM28.035 88.147l-.1-.271.142-.044.039.3zm132.569-50.21l.224-.181.107.093-.165.241zM71.539 71.596l-.141-.318.093-.051.194.283zm164.698-10.298c-.306-.1-.306-.1-.217-.386.081.16.142.28.2.4zM74.818 17.105l-.112-.2a.652.652 0 01.087-.036c.036.064.066.131.1.2zM58.402 70.328l-.135.117a.611.611 0 01-.118-.152c-.008-.019.081-.107.1-.1a.73.73 0 01.153.135zm53.133 20.101l.287-.071.031.1-.282.093zm-4.407 1.632c-.014-.012-.029-.023-.042-.036l-.223-.229.09-.058c.056.094.114.188.168.284.007.014 0 .036-.005.055zm105.708-78.866l.065-.268.141.05-.112.25zm16.113 50.412c-.347-.228-.177-.364-.092-.574zm-65.491-9.538l-.525.1c-.057-.192-.028-.323.225-.265a1.231 1.231 0 01.3.164zm-1.592-.303c.032.065.084.136.072.149a.586.586 0 01-.155.1c-.016-.048-.053-.1-.043-.141s.067-.065.126-.108z"/></svg>